G04 #@! TF.GenerationSoftware,KiCad,Pcbnew,(5.1.5)-3*
G04 #@! TF.CreationDate,2020-07-15T20:50:44-05:00*
G04 #@! TF.ProjectId,MaquinaCovid,4d617175-696e-4614-936f-7669642e6b69,rev?*
G04 #@! TF.SameCoordinates,Original*
G04 #@! TF.FileFunction,Paste,Top*
G04 #@! TF.FilePolarity,Positive*
%FSLAX46Y46*%
G04 Gerber Fmt 4.6, Leading zero omitted, Abs format (unit mm)*
G04 Created by KiCad (PCBNEW (5.1.5)-3) date 2020-07-15 20:50:44*
%MOMM*%
%LPD*%
G04 APERTURE LIST*
%ADD10C,0.100000*%
%ADD11R,0.800000X2.000000*%
%ADD12R,2.000000X0.900000*%
%ADD13R,0.900000X2.000000*%
%ADD14R,5.000000X5.000000*%
%ADD15R,2.000000X1.500000*%
%ADD16R,2.000000X3.800000*%
%ADD17R,3.050000X2.750000*%
%ADD18R,2.200000X1.200000*%
%ADD19R,1.700000X1.000000*%
%ADD20R,1.000000X1.700000*%
%ADD21R,0.900000X0.800000*%
%ADD22R,1.700000X1.600000*%
%ADD23R,1.100000X1.100000*%
%ADD24R,0.600000X0.450000*%
G04 APERTURE END LIST*
D10*
G36*
X141567505Y-60132204D02*
G01*
X141591773Y-60135804D01*
X141615572Y-60141765D01*
X141638671Y-60150030D01*
X141660850Y-60160520D01*
X141681893Y-60173132D01*
X141701599Y-60187747D01*
X141719777Y-60204223D01*
X141736253Y-60222401D01*
X141750868Y-60242107D01*
X141763480Y-60263150D01*
X141773970Y-60285329D01*
X141782235Y-60308428D01*
X141788196Y-60332227D01*
X141791796Y-60356495D01*
X141793000Y-60380999D01*
X141793000Y-61031001D01*
X141791796Y-61055505D01*
X141788196Y-61079773D01*
X141782235Y-61103572D01*
X141773970Y-61126671D01*
X141763480Y-61148850D01*
X141750868Y-61169893D01*
X141736253Y-61189599D01*
X141719777Y-61207777D01*
X141701599Y-61224253D01*
X141681893Y-61238868D01*
X141660850Y-61251480D01*
X141638671Y-61261970D01*
X141615572Y-61270235D01*
X141591773Y-61276196D01*
X141567505Y-61279796D01*
X141543001Y-61281000D01*
X140642999Y-61281000D01*
X140618495Y-61279796D01*
X140594227Y-61276196D01*
X140570428Y-61270235D01*
X140547329Y-61261970D01*
X140525150Y-61251480D01*
X140504107Y-61238868D01*
X140484401Y-61224253D01*
X140466223Y-61207777D01*
X140449747Y-61189599D01*
X140435132Y-61169893D01*
X140422520Y-61148850D01*
X140412030Y-61126671D01*
X140403765Y-61103572D01*
X140397804Y-61079773D01*
X140394204Y-61055505D01*
X140393000Y-61031001D01*
X140393000Y-60380999D01*
X140394204Y-60356495D01*
X140397804Y-60332227D01*
X140403765Y-60308428D01*
X140412030Y-60285329D01*
X140422520Y-60263150D01*
X140435132Y-60242107D01*
X140449747Y-60222401D01*
X140466223Y-60204223D01*
X140484401Y-60187747D01*
X140504107Y-60173132D01*
X140525150Y-60160520D01*
X140547329Y-60150030D01*
X140570428Y-60141765D01*
X140594227Y-60135804D01*
X140618495Y-60132204D01*
X140642999Y-60131000D01*
X141543001Y-60131000D01*
X141567505Y-60132204D01*
G37*
G36*
X141567505Y-62182204D02*
G01*
X141591773Y-62185804D01*
X141615572Y-62191765D01*
X141638671Y-62200030D01*
X141660850Y-62210520D01*
X141681893Y-62223132D01*
X141701599Y-62237747D01*
X141719777Y-62254223D01*
X141736253Y-62272401D01*
X141750868Y-62292107D01*
X141763480Y-62313150D01*
X141773970Y-62335329D01*
X141782235Y-62358428D01*
X141788196Y-62382227D01*
X141791796Y-62406495D01*
X141793000Y-62430999D01*
X141793000Y-63081001D01*
X141791796Y-63105505D01*
X141788196Y-63129773D01*
X141782235Y-63153572D01*
X141773970Y-63176671D01*
X141763480Y-63198850D01*
X141750868Y-63219893D01*
X141736253Y-63239599D01*
X141719777Y-63257777D01*
X141701599Y-63274253D01*
X141681893Y-63288868D01*
X141660850Y-63301480D01*
X141638671Y-63311970D01*
X141615572Y-63320235D01*
X141591773Y-63326196D01*
X141567505Y-63329796D01*
X141543001Y-63331000D01*
X140642999Y-63331000D01*
X140618495Y-63329796D01*
X140594227Y-63326196D01*
X140570428Y-63320235D01*
X140547329Y-63311970D01*
X140525150Y-63301480D01*
X140504107Y-63288868D01*
X140484401Y-63274253D01*
X140466223Y-63257777D01*
X140449747Y-63239599D01*
X140435132Y-63219893D01*
X140422520Y-63198850D01*
X140412030Y-63176671D01*
X140403765Y-63153572D01*
X140397804Y-63129773D01*
X140394204Y-63105505D01*
X140393000Y-63081001D01*
X140393000Y-62430999D01*
X140394204Y-62406495D01*
X140397804Y-62382227D01*
X140403765Y-62358428D01*
X140412030Y-62335329D01*
X140422520Y-62313150D01*
X140435132Y-62292107D01*
X140449747Y-62272401D01*
X140466223Y-62254223D01*
X140484401Y-62237747D01*
X140504107Y-62223132D01*
X140525150Y-62210520D01*
X140547329Y-62200030D01*
X140570428Y-62191765D01*
X140594227Y-62185804D01*
X140618495Y-62182204D01*
X140642999Y-62181000D01*
X141543001Y-62181000D01*
X141567505Y-62182204D01*
G37*
D11*
X109218000Y-87050000D03*
X111418000Y-87050000D03*
X113618000Y-87050000D03*
X116818000Y-87050000D03*
X109218000Y-79550000D03*
X111418000Y-79550000D03*
X113618000Y-79550000D03*
X116818000Y-79550000D03*
X109235000Y-101652000D03*
X111435000Y-101652000D03*
X113635000Y-101652000D03*
X116835000Y-101652000D03*
X109235000Y-94152000D03*
X111435000Y-94152000D03*
X113635000Y-94152000D03*
X116835000Y-94152000D03*
D12*
X147248000Y-36029000D03*
X147248000Y-37299000D03*
X147248000Y-38569000D03*
X147248000Y-39839000D03*
X147248000Y-41109000D03*
X147248000Y-42379000D03*
X147248000Y-43649000D03*
X147248000Y-44919000D03*
X147248000Y-46189000D03*
X147248000Y-47459000D03*
X147248000Y-48729000D03*
X147248000Y-49999000D03*
X147248000Y-51269000D03*
X147248000Y-52539000D03*
D13*
X144463000Y-53539000D03*
X143193000Y-53539000D03*
X141923000Y-53539000D03*
X140653000Y-53539000D03*
X139383000Y-53539000D03*
X138113000Y-53539000D03*
X136843000Y-53539000D03*
X135573000Y-53539000D03*
X134303000Y-53539000D03*
X133033000Y-53539000D03*
D12*
X130248000Y-52539000D03*
X130248000Y-51269000D03*
X130248000Y-49999000D03*
X130248000Y-48729000D03*
X130248000Y-47459000D03*
X130248000Y-46189000D03*
X130248000Y-44919000D03*
X130248000Y-43649000D03*
X130248000Y-42379000D03*
X130248000Y-41109000D03*
X130248000Y-39839000D03*
X130248000Y-38569000D03*
X130248000Y-37299000D03*
X130248000Y-36029000D03*
D14*
X137748000Y-43529000D03*
D15*
X144272000Y-106301000D03*
X144272000Y-101701000D03*
X144272000Y-104001000D03*
D16*
X137972000Y-104001000D03*
D17*
X142859000Y-113126000D03*
X146209000Y-110076000D03*
X142859000Y-110076000D03*
X146209000Y-113126000D03*
D18*
X138234000Y-113881000D03*
X138234000Y-109321000D03*
D19*
X107737000Y-44423000D03*
X114037000Y-44423000D03*
X107737000Y-48223000D03*
X114037000Y-48223000D03*
D20*
X147306000Y-56574000D03*
X147306000Y-62874000D03*
X143506000Y-56574000D03*
X143506000Y-62874000D03*
D19*
X114240000Y-40065000D03*
X107940000Y-40065000D03*
X114240000Y-36265000D03*
X107940000Y-36265000D03*
D10*
G36*
X123099505Y-79529204D02*
G01*
X123123773Y-79532804D01*
X123147572Y-79538765D01*
X123170671Y-79547030D01*
X123192850Y-79557520D01*
X123213893Y-79570132D01*
X123233599Y-79584747D01*
X123251777Y-79601223D01*
X123268253Y-79619401D01*
X123282868Y-79639107D01*
X123295480Y-79660150D01*
X123305970Y-79682329D01*
X123314235Y-79705428D01*
X123320196Y-79729227D01*
X123323796Y-79753495D01*
X123325000Y-79777999D01*
X123325000Y-80678001D01*
X123323796Y-80702505D01*
X123320196Y-80726773D01*
X123314235Y-80750572D01*
X123305970Y-80773671D01*
X123295480Y-80795850D01*
X123282868Y-80816893D01*
X123268253Y-80836599D01*
X123251777Y-80854777D01*
X123233599Y-80871253D01*
X123213893Y-80885868D01*
X123192850Y-80898480D01*
X123170671Y-80908970D01*
X123147572Y-80917235D01*
X123123773Y-80923196D01*
X123099505Y-80926796D01*
X123075001Y-80928000D01*
X122424999Y-80928000D01*
X122400495Y-80926796D01*
X122376227Y-80923196D01*
X122352428Y-80917235D01*
X122329329Y-80908970D01*
X122307150Y-80898480D01*
X122286107Y-80885868D01*
X122266401Y-80871253D01*
X122248223Y-80854777D01*
X122231747Y-80836599D01*
X122217132Y-80816893D01*
X122204520Y-80795850D01*
X122194030Y-80773671D01*
X122185765Y-80750572D01*
X122179804Y-80726773D01*
X122176204Y-80702505D01*
X122175000Y-80678001D01*
X122175000Y-79777999D01*
X122176204Y-79753495D01*
X122179804Y-79729227D01*
X122185765Y-79705428D01*
X122194030Y-79682329D01*
X122204520Y-79660150D01*
X122217132Y-79639107D01*
X122231747Y-79619401D01*
X122248223Y-79601223D01*
X122266401Y-79584747D01*
X122286107Y-79570132D01*
X122307150Y-79557520D01*
X122329329Y-79547030D01*
X122352428Y-79538765D01*
X122376227Y-79532804D01*
X122400495Y-79529204D01*
X122424999Y-79528000D01*
X123075001Y-79528000D01*
X123099505Y-79529204D01*
G37*
G36*
X121049505Y-79529204D02*
G01*
X121073773Y-79532804D01*
X121097572Y-79538765D01*
X121120671Y-79547030D01*
X121142850Y-79557520D01*
X121163893Y-79570132D01*
X121183599Y-79584747D01*
X121201777Y-79601223D01*
X121218253Y-79619401D01*
X121232868Y-79639107D01*
X121245480Y-79660150D01*
X121255970Y-79682329D01*
X121264235Y-79705428D01*
X121270196Y-79729227D01*
X121273796Y-79753495D01*
X121275000Y-79777999D01*
X121275000Y-80678001D01*
X121273796Y-80702505D01*
X121270196Y-80726773D01*
X121264235Y-80750572D01*
X121255970Y-80773671D01*
X121245480Y-80795850D01*
X121232868Y-80816893D01*
X121218253Y-80836599D01*
X121201777Y-80854777D01*
X121183599Y-80871253D01*
X121163893Y-80885868D01*
X121142850Y-80898480D01*
X121120671Y-80908970D01*
X121097572Y-80917235D01*
X121073773Y-80923196D01*
X121049505Y-80926796D01*
X121025001Y-80928000D01*
X120374999Y-80928000D01*
X120350495Y-80926796D01*
X120326227Y-80923196D01*
X120302428Y-80917235D01*
X120279329Y-80908970D01*
X120257150Y-80898480D01*
X120236107Y-80885868D01*
X120216401Y-80871253D01*
X120198223Y-80854777D01*
X120181747Y-80836599D01*
X120167132Y-80816893D01*
X120154520Y-80795850D01*
X120144030Y-80773671D01*
X120135765Y-80750572D01*
X120129804Y-80726773D01*
X120126204Y-80702505D01*
X120125000Y-80678001D01*
X120125000Y-79777999D01*
X120126204Y-79753495D01*
X120129804Y-79729227D01*
X120135765Y-79705428D01*
X120144030Y-79682329D01*
X120154520Y-79660150D01*
X120167132Y-79639107D01*
X120181747Y-79619401D01*
X120198223Y-79601223D01*
X120216401Y-79584747D01*
X120236107Y-79570132D01*
X120257150Y-79557520D01*
X120279329Y-79547030D01*
X120302428Y-79538765D01*
X120326227Y-79532804D01*
X120350495Y-79529204D01*
X120374999Y-79528000D01*
X121025001Y-79528000D01*
X121049505Y-79529204D01*
G37*
G36*
X123029505Y-94466204D02*
G01*
X123053773Y-94469804D01*
X123077572Y-94475765D01*
X123100671Y-94484030D01*
X123122850Y-94494520D01*
X123143893Y-94507132D01*
X123163599Y-94521747D01*
X123181777Y-94538223D01*
X123198253Y-94556401D01*
X123212868Y-94576107D01*
X123225480Y-94597150D01*
X123235970Y-94619329D01*
X123244235Y-94642428D01*
X123250196Y-94666227D01*
X123253796Y-94690495D01*
X123255000Y-94714999D01*
X123255000Y-95615001D01*
X123253796Y-95639505D01*
X123250196Y-95663773D01*
X123244235Y-95687572D01*
X123235970Y-95710671D01*
X123225480Y-95732850D01*
X123212868Y-95753893D01*
X123198253Y-95773599D01*
X123181777Y-95791777D01*
X123163599Y-95808253D01*
X123143893Y-95822868D01*
X123122850Y-95835480D01*
X123100671Y-95845970D01*
X123077572Y-95854235D01*
X123053773Y-95860196D01*
X123029505Y-95863796D01*
X123005001Y-95865000D01*
X122354999Y-95865000D01*
X122330495Y-95863796D01*
X122306227Y-95860196D01*
X122282428Y-95854235D01*
X122259329Y-95845970D01*
X122237150Y-95835480D01*
X122216107Y-95822868D01*
X122196401Y-95808253D01*
X122178223Y-95791777D01*
X122161747Y-95773599D01*
X122147132Y-95753893D01*
X122134520Y-95732850D01*
X122124030Y-95710671D01*
X122115765Y-95687572D01*
X122109804Y-95663773D01*
X122106204Y-95639505D01*
X122105000Y-95615001D01*
X122105000Y-94714999D01*
X122106204Y-94690495D01*
X122109804Y-94666227D01*
X122115765Y-94642428D01*
X122124030Y-94619329D01*
X122134520Y-94597150D01*
X122147132Y-94576107D01*
X122161747Y-94556401D01*
X122178223Y-94538223D01*
X122196401Y-94521747D01*
X122216107Y-94507132D01*
X122237150Y-94494520D01*
X122259329Y-94484030D01*
X122282428Y-94475765D01*
X122306227Y-94469804D01*
X122330495Y-94466204D01*
X122354999Y-94465000D01*
X123005001Y-94465000D01*
X123029505Y-94466204D01*
G37*
G36*
X120979505Y-94466204D02*
G01*
X121003773Y-94469804D01*
X121027572Y-94475765D01*
X121050671Y-94484030D01*
X121072850Y-94494520D01*
X121093893Y-94507132D01*
X121113599Y-94521747D01*
X121131777Y-94538223D01*
X121148253Y-94556401D01*
X121162868Y-94576107D01*
X121175480Y-94597150D01*
X121185970Y-94619329D01*
X121194235Y-94642428D01*
X121200196Y-94666227D01*
X121203796Y-94690495D01*
X121205000Y-94714999D01*
X121205000Y-95615001D01*
X121203796Y-95639505D01*
X121200196Y-95663773D01*
X121194235Y-95687572D01*
X121185970Y-95710671D01*
X121175480Y-95732850D01*
X121162868Y-95753893D01*
X121148253Y-95773599D01*
X121131777Y-95791777D01*
X121113599Y-95808253D01*
X121093893Y-95822868D01*
X121072850Y-95835480D01*
X121050671Y-95845970D01*
X121027572Y-95854235D01*
X121003773Y-95860196D01*
X120979505Y-95863796D01*
X120955001Y-95865000D01*
X120304999Y-95865000D01*
X120280495Y-95863796D01*
X120256227Y-95860196D01*
X120232428Y-95854235D01*
X120209329Y-95845970D01*
X120187150Y-95835480D01*
X120166107Y-95822868D01*
X120146401Y-95808253D01*
X120128223Y-95791777D01*
X120111747Y-95773599D01*
X120097132Y-95753893D01*
X120084520Y-95732850D01*
X120074030Y-95710671D01*
X120065765Y-95687572D01*
X120059804Y-95663773D01*
X120056204Y-95639505D01*
X120055000Y-95615001D01*
X120055000Y-94714999D01*
X120056204Y-94690495D01*
X120059804Y-94666227D01*
X120065765Y-94642428D01*
X120074030Y-94619329D01*
X120084520Y-94597150D01*
X120097132Y-94576107D01*
X120111747Y-94556401D01*
X120128223Y-94538223D01*
X120146401Y-94521747D01*
X120166107Y-94507132D01*
X120187150Y-94494520D01*
X120209329Y-94484030D01*
X120232428Y-94475765D01*
X120256227Y-94469804D01*
X120280495Y-94466204D01*
X120304999Y-94465000D01*
X120955001Y-94465000D01*
X120979505Y-94466204D01*
G37*
G36*
X114936505Y-61260204D02*
G01*
X114960773Y-61263804D01*
X114984572Y-61269765D01*
X115007671Y-61278030D01*
X115029850Y-61288520D01*
X115050893Y-61301132D01*
X115070599Y-61315747D01*
X115088777Y-61332223D01*
X115105253Y-61350401D01*
X115119868Y-61370107D01*
X115132480Y-61391150D01*
X115142970Y-61413329D01*
X115151235Y-61436428D01*
X115157196Y-61460227D01*
X115160796Y-61484495D01*
X115162000Y-61508999D01*
X115162000Y-62409001D01*
X115160796Y-62433505D01*
X115157196Y-62457773D01*
X115151235Y-62481572D01*
X115142970Y-62504671D01*
X115132480Y-62526850D01*
X115119868Y-62547893D01*
X115105253Y-62567599D01*
X115088777Y-62585777D01*
X115070599Y-62602253D01*
X115050893Y-62616868D01*
X115029850Y-62629480D01*
X115007671Y-62639970D01*
X114984572Y-62648235D01*
X114960773Y-62654196D01*
X114936505Y-62657796D01*
X114912001Y-62659000D01*
X114261999Y-62659000D01*
X114237495Y-62657796D01*
X114213227Y-62654196D01*
X114189428Y-62648235D01*
X114166329Y-62639970D01*
X114144150Y-62629480D01*
X114123107Y-62616868D01*
X114103401Y-62602253D01*
X114085223Y-62585777D01*
X114068747Y-62567599D01*
X114054132Y-62547893D01*
X114041520Y-62526850D01*
X114031030Y-62504671D01*
X114022765Y-62481572D01*
X114016804Y-62457773D01*
X114013204Y-62433505D01*
X114012000Y-62409001D01*
X114012000Y-61508999D01*
X114013204Y-61484495D01*
X114016804Y-61460227D01*
X114022765Y-61436428D01*
X114031030Y-61413329D01*
X114041520Y-61391150D01*
X114054132Y-61370107D01*
X114068747Y-61350401D01*
X114085223Y-61332223D01*
X114103401Y-61315747D01*
X114123107Y-61301132D01*
X114144150Y-61288520D01*
X114166329Y-61278030D01*
X114189428Y-61269765D01*
X114213227Y-61263804D01*
X114237495Y-61260204D01*
X114261999Y-61259000D01*
X114912001Y-61259000D01*
X114936505Y-61260204D01*
G37*
G36*
X116986505Y-61260204D02*
G01*
X117010773Y-61263804D01*
X117034572Y-61269765D01*
X117057671Y-61278030D01*
X117079850Y-61288520D01*
X117100893Y-61301132D01*
X117120599Y-61315747D01*
X117138777Y-61332223D01*
X117155253Y-61350401D01*
X117169868Y-61370107D01*
X117182480Y-61391150D01*
X117192970Y-61413329D01*
X117201235Y-61436428D01*
X117207196Y-61460227D01*
X117210796Y-61484495D01*
X117212000Y-61508999D01*
X117212000Y-62409001D01*
X117210796Y-62433505D01*
X117207196Y-62457773D01*
X117201235Y-62481572D01*
X117192970Y-62504671D01*
X117182480Y-62526850D01*
X117169868Y-62547893D01*
X117155253Y-62567599D01*
X117138777Y-62585777D01*
X117120599Y-62602253D01*
X117100893Y-62616868D01*
X117079850Y-62629480D01*
X117057671Y-62639970D01*
X117034572Y-62648235D01*
X117010773Y-62654196D01*
X116986505Y-62657796D01*
X116962001Y-62659000D01*
X116311999Y-62659000D01*
X116287495Y-62657796D01*
X116263227Y-62654196D01*
X116239428Y-62648235D01*
X116216329Y-62639970D01*
X116194150Y-62629480D01*
X116173107Y-62616868D01*
X116153401Y-62602253D01*
X116135223Y-62585777D01*
X116118747Y-62567599D01*
X116104132Y-62547893D01*
X116091520Y-62526850D01*
X116081030Y-62504671D01*
X116072765Y-62481572D01*
X116066804Y-62457773D01*
X116063204Y-62433505D01*
X116062000Y-62409001D01*
X116062000Y-61508999D01*
X116063204Y-61484495D01*
X116066804Y-61460227D01*
X116072765Y-61436428D01*
X116081030Y-61413329D01*
X116091520Y-61391150D01*
X116104132Y-61370107D01*
X116118747Y-61350401D01*
X116135223Y-61332223D01*
X116153401Y-61315747D01*
X116173107Y-61301132D01*
X116194150Y-61288520D01*
X116216329Y-61278030D01*
X116239428Y-61269765D01*
X116263227Y-61263804D01*
X116287495Y-61260204D01*
X116311999Y-61259000D01*
X116962001Y-61259000D01*
X116986505Y-61260204D01*
G37*
G36*
X114828505Y-52066204D02*
G01*
X114852773Y-52069804D01*
X114876572Y-52075765D01*
X114899671Y-52084030D01*
X114921850Y-52094520D01*
X114942893Y-52107132D01*
X114962599Y-52121747D01*
X114980777Y-52138223D01*
X114997253Y-52156401D01*
X115011868Y-52176107D01*
X115024480Y-52197150D01*
X115034970Y-52219329D01*
X115043235Y-52242428D01*
X115049196Y-52266227D01*
X115052796Y-52290495D01*
X115054000Y-52314999D01*
X115054000Y-53215001D01*
X115052796Y-53239505D01*
X115049196Y-53263773D01*
X115043235Y-53287572D01*
X115034970Y-53310671D01*
X115024480Y-53332850D01*
X115011868Y-53353893D01*
X114997253Y-53373599D01*
X114980777Y-53391777D01*
X114962599Y-53408253D01*
X114942893Y-53422868D01*
X114921850Y-53435480D01*
X114899671Y-53445970D01*
X114876572Y-53454235D01*
X114852773Y-53460196D01*
X114828505Y-53463796D01*
X114804001Y-53465000D01*
X114153999Y-53465000D01*
X114129495Y-53463796D01*
X114105227Y-53460196D01*
X114081428Y-53454235D01*
X114058329Y-53445970D01*
X114036150Y-53435480D01*
X114015107Y-53422868D01*
X113995401Y-53408253D01*
X113977223Y-53391777D01*
X113960747Y-53373599D01*
X113946132Y-53353893D01*
X113933520Y-53332850D01*
X113923030Y-53310671D01*
X113914765Y-53287572D01*
X113908804Y-53263773D01*
X113905204Y-53239505D01*
X113904000Y-53215001D01*
X113904000Y-52314999D01*
X113905204Y-52290495D01*
X113908804Y-52266227D01*
X113914765Y-52242428D01*
X113923030Y-52219329D01*
X113933520Y-52197150D01*
X113946132Y-52176107D01*
X113960747Y-52156401D01*
X113977223Y-52138223D01*
X113995401Y-52121747D01*
X114015107Y-52107132D01*
X114036150Y-52094520D01*
X114058329Y-52084030D01*
X114081428Y-52075765D01*
X114105227Y-52069804D01*
X114129495Y-52066204D01*
X114153999Y-52065000D01*
X114804001Y-52065000D01*
X114828505Y-52066204D01*
G37*
G36*
X116878505Y-52066204D02*
G01*
X116902773Y-52069804D01*
X116926572Y-52075765D01*
X116949671Y-52084030D01*
X116971850Y-52094520D01*
X116992893Y-52107132D01*
X117012599Y-52121747D01*
X117030777Y-52138223D01*
X117047253Y-52156401D01*
X117061868Y-52176107D01*
X117074480Y-52197150D01*
X117084970Y-52219329D01*
X117093235Y-52242428D01*
X117099196Y-52266227D01*
X117102796Y-52290495D01*
X117104000Y-52314999D01*
X117104000Y-53215001D01*
X117102796Y-53239505D01*
X117099196Y-53263773D01*
X117093235Y-53287572D01*
X117084970Y-53310671D01*
X117074480Y-53332850D01*
X117061868Y-53353893D01*
X117047253Y-53373599D01*
X117030777Y-53391777D01*
X117012599Y-53408253D01*
X116992893Y-53422868D01*
X116971850Y-53435480D01*
X116949671Y-53445970D01*
X116926572Y-53454235D01*
X116902773Y-53460196D01*
X116878505Y-53463796D01*
X116854001Y-53465000D01*
X116203999Y-53465000D01*
X116179495Y-53463796D01*
X116155227Y-53460196D01*
X116131428Y-53454235D01*
X116108329Y-53445970D01*
X116086150Y-53435480D01*
X116065107Y-53422868D01*
X116045401Y-53408253D01*
X116027223Y-53391777D01*
X116010747Y-53373599D01*
X115996132Y-53353893D01*
X115983520Y-53332850D01*
X115973030Y-53310671D01*
X115964765Y-53287572D01*
X115958804Y-53263773D01*
X115955204Y-53239505D01*
X115954000Y-53215001D01*
X115954000Y-52314999D01*
X115955204Y-52290495D01*
X115958804Y-52266227D01*
X115964765Y-52242428D01*
X115973030Y-52219329D01*
X115983520Y-52197150D01*
X115996132Y-52176107D01*
X116010747Y-52156401D01*
X116027223Y-52138223D01*
X116045401Y-52121747D01*
X116065107Y-52107132D01*
X116086150Y-52094520D01*
X116108329Y-52084030D01*
X116131428Y-52075765D01*
X116155227Y-52069804D01*
X116179495Y-52066204D01*
X116203999Y-52065000D01*
X116854001Y-52065000D01*
X116878505Y-52066204D01*
G37*
G36*
X112144505Y-52066204D02*
G01*
X112168773Y-52069804D01*
X112192572Y-52075765D01*
X112215671Y-52084030D01*
X112237850Y-52094520D01*
X112258893Y-52107132D01*
X112278599Y-52121747D01*
X112296777Y-52138223D01*
X112313253Y-52156401D01*
X112327868Y-52176107D01*
X112340480Y-52197150D01*
X112350970Y-52219329D01*
X112359235Y-52242428D01*
X112365196Y-52266227D01*
X112368796Y-52290495D01*
X112370000Y-52314999D01*
X112370000Y-53215001D01*
X112368796Y-53239505D01*
X112365196Y-53263773D01*
X112359235Y-53287572D01*
X112350970Y-53310671D01*
X112340480Y-53332850D01*
X112327868Y-53353893D01*
X112313253Y-53373599D01*
X112296777Y-53391777D01*
X112278599Y-53408253D01*
X112258893Y-53422868D01*
X112237850Y-53435480D01*
X112215671Y-53445970D01*
X112192572Y-53454235D01*
X112168773Y-53460196D01*
X112144505Y-53463796D01*
X112120001Y-53465000D01*
X111469999Y-53465000D01*
X111445495Y-53463796D01*
X111421227Y-53460196D01*
X111397428Y-53454235D01*
X111374329Y-53445970D01*
X111352150Y-53435480D01*
X111331107Y-53422868D01*
X111311401Y-53408253D01*
X111293223Y-53391777D01*
X111276747Y-53373599D01*
X111262132Y-53353893D01*
X111249520Y-53332850D01*
X111239030Y-53310671D01*
X111230765Y-53287572D01*
X111224804Y-53263773D01*
X111221204Y-53239505D01*
X111220000Y-53215001D01*
X111220000Y-52314999D01*
X111221204Y-52290495D01*
X111224804Y-52266227D01*
X111230765Y-52242428D01*
X111239030Y-52219329D01*
X111249520Y-52197150D01*
X111262132Y-52176107D01*
X111276747Y-52156401D01*
X111293223Y-52138223D01*
X111311401Y-52121747D01*
X111331107Y-52107132D01*
X111352150Y-52094520D01*
X111374329Y-52084030D01*
X111397428Y-52075765D01*
X111421227Y-52069804D01*
X111445495Y-52066204D01*
X111469999Y-52065000D01*
X112120001Y-52065000D01*
X112144505Y-52066204D01*
G37*
G36*
X110094505Y-52066204D02*
G01*
X110118773Y-52069804D01*
X110142572Y-52075765D01*
X110165671Y-52084030D01*
X110187850Y-52094520D01*
X110208893Y-52107132D01*
X110228599Y-52121747D01*
X110246777Y-52138223D01*
X110263253Y-52156401D01*
X110277868Y-52176107D01*
X110290480Y-52197150D01*
X110300970Y-52219329D01*
X110309235Y-52242428D01*
X110315196Y-52266227D01*
X110318796Y-52290495D01*
X110320000Y-52314999D01*
X110320000Y-53215001D01*
X110318796Y-53239505D01*
X110315196Y-53263773D01*
X110309235Y-53287572D01*
X110300970Y-53310671D01*
X110290480Y-53332850D01*
X110277868Y-53353893D01*
X110263253Y-53373599D01*
X110246777Y-53391777D01*
X110228599Y-53408253D01*
X110208893Y-53422868D01*
X110187850Y-53435480D01*
X110165671Y-53445970D01*
X110142572Y-53454235D01*
X110118773Y-53460196D01*
X110094505Y-53463796D01*
X110070001Y-53465000D01*
X109419999Y-53465000D01*
X109395495Y-53463796D01*
X109371227Y-53460196D01*
X109347428Y-53454235D01*
X109324329Y-53445970D01*
X109302150Y-53435480D01*
X109281107Y-53422868D01*
X109261401Y-53408253D01*
X109243223Y-53391777D01*
X109226747Y-53373599D01*
X109212132Y-53353893D01*
X109199520Y-53332850D01*
X109189030Y-53310671D01*
X109180765Y-53287572D01*
X109174804Y-53263773D01*
X109171204Y-53239505D01*
X109170000Y-53215001D01*
X109170000Y-52314999D01*
X109171204Y-52290495D01*
X109174804Y-52266227D01*
X109180765Y-52242428D01*
X109189030Y-52219329D01*
X109199520Y-52197150D01*
X109212132Y-52176107D01*
X109226747Y-52156401D01*
X109243223Y-52138223D01*
X109261401Y-52121747D01*
X109281107Y-52107132D01*
X109302150Y-52094520D01*
X109324329Y-52084030D01*
X109347428Y-52075765D01*
X109371227Y-52069804D01*
X109395495Y-52066204D01*
X109419999Y-52065000D01*
X110070001Y-52065000D01*
X110094505Y-52066204D01*
G37*
G36*
X112295505Y-61281204D02*
G01*
X112319773Y-61284804D01*
X112343572Y-61290765D01*
X112366671Y-61299030D01*
X112388850Y-61309520D01*
X112409893Y-61322132D01*
X112429599Y-61336747D01*
X112447777Y-61353223D01*
X112464253Y-61371401D01*
X112478868Y-61391107D01*
X112491480Y-61412150D01*
X112501970Y-61434329D01*
X112510235Y-61457428D01*
X112516196Y-61481227D01*
X112519796Y-61505495D01*
X112521000Y-61529999D01*
X112521000Y-62430001D01*
X112519796Y-62454505D01*
X112516196Y-62478773D01*
X112510235Y-62502572D01*
X112501970Y-62525671D01*
X112491480Y-62547850D01*
X112478868Y-62568893D01*
X112464253Y-62588599D01*
X112447777Y-62606777D01*
X112429599Y-62623253D01*
X112409893Y-62637868D01*
X112388850Y-62650480D01*
X112366671Y-62660970D01*
X112343572Y-62669235D01*
X112319773Y-62675196D01*
X112295505Y-62678796D01*
X112271001Y-62680000D01*
X111620999Y-62680000D01*
X111596495Y-62678796D01*
X111572227Y-62675196D01*
X111548428Y-62669235D01*
X111525329Y-62660970D01*
X111503150Y-62650480D01*
X111482107Y-62637868D01*
X111462401Y-62623253D01*
X111444223Y-62606777D01*
X111427747Y-62588599D01*
X111413132Y-62568893D01*
X111400520Y-62547850D01*
X111390030Y-62525671D01*
X111381765Y-62502572D01*
X111375804Y-62478773D01*
X111372204Y-62454505D01*
X111371000Y-62430001D01*
X111371000Y-61529999D01*
X111372204Y-61505495D01*
X111375804Y-61481227D01*
X111381765Y-61457428D01*
X111390030Y-61434329D01*
X111400520Y-61412150D01*
X111413132Y-61391107D01*
X111427747Y-61371401D01*
X111444223Y-61353223D01*
X111462401Y-61336747D01*
X111482107Y-61322132D01*
X111503150Y-61309520D01*
X111525329Y-61299030D01*
X111548428Y-61290765D01*
X111572227Y-61284804D01*
X111596495Y-61281204D01*
X111620999Y-61280000D01*
X112271001Y-61280000D01*
X112295505Y-61281204D01*
G37*
G36*
X110245505Y-61281204D02*
G01*
X110269773Y-61284804D01*
X110293572Y-61290765D01*
X110316671Y-61299030D01*
X110338850Y-61309520D01*
X110359893Y-61322132D01*
X110379599Y-61336747D01*
X110397777Y-61353223D01*
X110414253Y-61371401D01*
X110428868Y-61391107D01*
X110441480Y-61412150D01*
X110451970Y-61434329D01*
X110460235Y-61457428D01*
X110466196Y-61481227D01*
X110469796Y-61505495D01*
X110471000Y-61529999D01*
X110471000Y-62430001D01*
X110469796Y-62454505D01*
X110466196Y-62478773D01*
X110460235Y-62502572D01*
X110451970Y-62525671D01*
X110441480Y-62547850D01*
X110428868Y-62568893D01*
X110414253Y-62588599D01*
X110397777Y-62606777D01*
X110379599Y-62623253D01*
X110359893Y-62637868D01*
X110338850Y-62650480D01*
X110316671Y-62660970D01*
X110293572Y-62669235D01*
X110269773Y-62675196D01*
X110245505Y-62678796D01*
X110221001Y-62680000D01*
X109570999Y-62680000D01*
X109546495Y-62678796D01*
X109522227Y-62675196D01*
X109498428Y-62669235D01*
X109475329Y-62660970D01*
X109453150Y-62650480D01*
X109432107Y-62637868D01*
X109412401Y-62623253D01*
X109394223Y-62606777D01*
X109377747Y-62588599D01*
X109363132Y-62568893D01*
X109350520Y-62547850D01*
X109340030Y-62525671D01*
X109331765Y-62502572D01*
X109325804Y-62478773D01*
X109322204Y-62454505D01*
X109321000Y-62430001D01*
X109321000Y-61529999D01*
X109322204Y-61505495D01*
X109325804Y-61481227D01*
X109331765Y-61457428D01*
X109340030Y-61434329D01*
X109350520Y-61412150D01*
X109363132Y-61391107D01*
X109377747Y-61371401D01*
X109394223Y-61353223D01*
X109412401Y-61336747D01*
X109432107Y-61322132D01*
X109453150Y-61309520D01*
X109475329Y-61299030D01*
X109498428Y-61290765D01*
X109522227Y-61284804D01*
X109546495Y-61281204D01*
X109570999Y-61280000D01*
X110221001Y-61280000D01*
X110245505Y-61281204D01*
G37*
G36*
X151725505Y-108354204D02*
G01*
X151749773Y-108357804D01*
X151773572Y-108363765D01*
X151796671Y-108372030D01*
X151818850Y-108382520D01*
X151839893Y-108395132D01*
X151859599Y-108409747D01*
X151877777Y-108426223D01*
X151894253Y-108444401D01*
X151908868Y-108464107D01*
X151921480Y-108485150D01*
X151931970Y-108507329D01*
X151940235Y-108530428D01*
X151946196Y-108554227D01*
X151949796Y-108578495D01*
X151951000Y-108602999D01*
X151951000Y-109503001D01*
X151949796Y-109527505D01*
X151946196Y-109551773D01*
X151940235Y-109575572D01*
X151931970Y-109598671D01*
X151921480Y-109620850D01*
X151908868Y-109641893D01*
X151894253Y-109661599D01*
X151877777Y-109679777D01*
X151859599Y-109696253D01*
X151839893Y-109710868D01*
X151818850Y-109723480D01*
X151796671Y-109733970D01*
X151773572Y-109742235D01*
X151749773Y-109748196D01*
X151725505Y-109751796D01*
X151701001Y-109753000D01*
X151050999Y-109753000D01*
X151026495Y-109751796D01*
X151002227Y-109748196D01*
X150978428Y-109742235D01*
X150955329Y-109733970D01*
X150933150Y-109723480D01*
X150912107Y-109710868D01*
X150892401Y-109696253D01*
X150874223Y-109679777D01*
X150857747Y-109661599D01*
X150843132Y-109641893D01*
X150830520Y-109620850D01*
X150820030Y-109598671D01*
X150811765Y-109575572D01*
X150805804Y-109551773D01*
X150802204Y-109527505D01*
X150801000Y-109503001D01*
X150801000Y-108602999D01*
X150802204Y-108578495D01*
X150805804Y-108554227D01*
X150811765Y-108530428D01*
X150820030Y-108507329D01*
X150830520Y-108485150D01*
X150843132Y-108464107D01*
X150857747Y-108444401D01*
X150874223Y-108426223D01*
X150892401Y-108409747D01*
X150912107Y-108395132D01*
X150933150Y-108382520D01*
X150955329Y-108372030D01*
X150978428Y-108363765D01*
X151002227Y-108357804D01*
X151026495Y-108354204D01*
X151050999Y-108353000D01*
X151701001Y-108353000D01*
X151725505Y-108354204D01*
G37*
G36*
X149675505Y-108354204D02*
G01*
X149699773Y-108357804D01*
X149723572Y-108363765D01*
X149746671Y-108372030D01*
X149768850Y-108382520D01*
X149789893Y-108395132D01*
X149809599Y-108409747D01*
X149827777Y-108426223D01*
X149844253Y-108444401D01*
X149858868Y-108464107D01*
X149871480Y-108485150D01*
X149881970Y-108507329D01*
X149890235Y-108530428D01*
X149896196Y-108554227D01*
X149899796Y-108578495D01*
X149901000Y-108602999D01*
X149901000Y-109503001D01*
X149899796Y-109527505D01*
X149896196Y-109551773D01*
X149890235Y-109575572D01*
X149881970Y-109598671D01*
X149871480Y-109620850D01*
X149858868Y-109641893D01*
X149844253Y-109661599D01*
X149827777Y-109679777D01*
X149809599Y-109696253D01*
X149789893Y-109710868D01*
X149768850Y-109723480D01*
X149746671Y-109733970D01*
X149723572Y-109742235D01*
X149699773Y-109748196D01*
X149675505Y-109751796D01*
X149651001Y-109753000D01*
X149000999Y-109753000D01*
X148976495Y-109751796D01*
X148952227Y-109748196D01*
X148928428Y-109742235D01*
X148905329Y-109733970D01*
X148883150Y-109723480D01*
X148862107Y-109710868D01*
X148842401Y-109696253D01*
X148824223Y-109679777D01*
X148807747Y-109661599D01*
X148793132Y-109641893D01*
X148780520Y-109620850D01*
X148770030Y-109598671D01*
X148761765Y-109575572D01*
X148755804Y-109551773D01*
X148752204Y-109527505D01*
X148751000Y-109503001D01*
X148751000Y-108602999D01*
X148752204Y-108578495D01*
X148755804Y-108554227D01*
X148761765Y-108530428D01*
X148770030Y-108507329D01*
X148780520Y-108485150D01*
X148793132Y-108464107D01*
X148807747Y-108444401D01*
X148824223Y-108426223D01*
X148842401Y-108409747D01*
X148862107Y-108395132D01*
X148883150Y-108382520D01*
X148905329Y-108372030D01*
X148928428Y-108363765D01*
X148952227Y-108357804D01*
X148976495Y-108354204D01*
X149000999Y-108353000D01*
X149651001Y-108353000D01*
X149675505Y-108354204D01*
G37*
G36*
X151718505Y-110467204D02*
G01*
X151742773Y-110470804D01*
X151766572Y-110476765D01*
X151789671Y-110485030D01*
X151811850Y-110495520D01*
X151832893Y-110508132D01*
X151852599Y-110522747D01*
X151870777Y-110539223D01*
X151887253Y-110557401D01*
X151901868Y-110577107D01*
X151914480Y-110598150D01*
X151924970Y-110620329D01*
X151933235Y-110643428D01*
X151939196Y-110667227D01*
X151942796Y-110691495D01*
X151944000Y-110715999D01*
X151944000Y-111616001D01*
X151942796Y-111640505D01*
X151939196Y-111664773D01*
X151933235Y-111688572D01*
X151924970Y-111711671D01*
X151914480Y-111733850D01*
X151901868Y-111754893D01*
X151887253Y-111774599D01*
X151870777Y-111792777D01*
X151852599Y-111809253D01*
X151832893Y-111823868D01*
X151811850Y-111836480D01*
X151789671Y-111846970D01*
X151766572Y-111855235D01*
X151742773Y-111861196D01*
X151718505Y-111864796D01*
X151694001Y-111866000D01*
X151043999Y-111866000D01*
X151019495Y-111864796D01*
X150995227Y-111861196D01*
X150971428Y-111855235D01*
X150948329Y-111846970D01*
X150926150Y-111836480D01*
X150905107Y-111823868D01*
X150885401Y-111809253D01*
X150867223Y-111792777D01*
X150850747Y-111774599D01*
X150836132Y-111754893D01*
X150823520Y-111733850D01*
X150813030Y-111711671D01*
X150804765Y-111688572D01*
X150798804Y-111664773D01*
X150795204Y-111640505D01*
X150794000Y-111616001D01*
X150794000Y-110715999D01*
X150795204Y-110691495D01*
X150798804Y-110667227D01*
X150804765Y-110643428D01*
X150813030Y-110620329D01*
X150823520Y-110598150D01*
X150836132Y-110577107D01*
X150850747Y-110557401D01*
X150867223Y-110539223D01*
X150885401Y-110522747D01*
X150905107Y-110508132D01*
X150926150Y-110495520D01*
X150948329Y-110485030D01*
X150971428Y-110476765D01*
X150995227Y-110470804D01*
X151019495Y-110467204D01*
X151043999Y-110466000D01*
X151694001Y-110466000D01*
X151718505Y-110467204D01*
G37*
G36*
X149668505Y-110467204D02*
G01*
X149692773Y-110470804D01*
X149716572Y-110476765D01*
X149739671Y-110485030D01*
X149761850Y-110495520D01*
X149782893Y-110508132D01*
X149802599Y-110522747D01*
X149820777Y-110539223D01*
X149837253Y-110557401D01*
X149851868Y-110577107D01*
X149864480Y-110598150D01*
X149874970Y-110620329D01*
X149883235Y-110643428D01*
X149889196Y-110667227D01*
X149892796Y-110691495D01*
X149894000Y-110715999D01*
X149894000Y-111616001D01*
X149892796Y-111640505D01*
X149889196Y-111664773D01*
X149883235Y-111688572D01*
X149874970Y-111711671D01*
X149864480Y-111733850D01*
X149851868Y-111754893D01*
X149837253Y-111774599D01*
X149820777Y-111792777D01*
X149802599Y-111809253D01*
X149782893Y-111823868D01*
X149761850Y-111836480D01*
X149739671Y-111846970D01*
X149716572Y-111855235D01*
X149692773Y-111861196D01*
X149668505Y-111864796D01*
X149644001Y-111866000D01*
X148993999Y-111866000D01*
X148969495Y-111864796D01*
X148945227Y-111861196D01*
X148921428Y-111855235D01*
X148898329Y-111846970D01*
X148876150Y-111836480D01*
X148855107Y-111823868D01*
X148835401Y-111809253D01*
X148817223Y-111792777D01*
X148800747Y-111774599D01*
X148786132Y-111754893D01*
X148773520Y-111733850D01*
X148763030Y-111711671D01*
X148754765Y-111688572D01*
X148748804Y-111664773D01*
X148745204Y-111640505D01*
X148744000Y-111616001D01*
X148744000Y-110715999D01*
X148745204Y-110691495D01*
X148748804Y-110667227D01*
X148754765Y-110643428D01*
X148763030Y-110620329D01*
X148773520Y-110598150D01*
X148786132Y-110577107D01*
X148800747Y-110557401D01*
X148817223Y-110539223D01*
X148835401Y-110522747D01*
X148855107Y-110508132D01*
X148876150Y-110495520D01*
X148898329Y-110485030D01*
X148921428Y-110476765D01*
X148945227Y-110470804D01*
X148969495Y-110467204D01*
X148993999Y-110466000D01*
X149644001Y-110466000D01*
X149668505Y-110467204D01*
G37*
G36*
X141592505Y-58197204D02*
G01*
X141616773Y-58200804D01*
X141640572Y-58206765D01*
X141663671Y-58215030D01*
X141685850Y-58225520D01*
X141706893Y-58238132D01*
X141726599Y-58252747D01*
X141744777Y-58269223D01*
X141761253Y-58287401D01*
X141775868Y-58307107D01*
X141788480Y-58328150D01*
X141798970Y-58350329D01*
X141807235Y-58373428D01*
X141813196Y-58397227D01*
X141816796Y-58421495D01*
X141818000Y-58445999D01*
X141818000Y-59096001D01*
X141816796Y-59120505D01*
X141813196Y-59144773D01*
X141807235Y-59168572D01*
X141798970Y-59191671D01*
X141788480Y-59213850D01*
X141775868Y-59234893D01*
X141761253Y-59254599D01*
X141744777Y-59272777D01*
X141726599Y-59289253D01*
X141706893Y-59303868D01*
X141685850Y-59316480D01*
X141663671Y-59326970D01*
X141640572Y-59335235D01*
X141616773Y-59341196D01*
X141592505Y-59344796D01*
X141568001Y-59346000D01*
X140667999Y-59346000D01*
X140643495Y-59344796D01*
X140619227Y-59341196D01*
X140595428Y-59335235D01*
X140572329Y-59326970D01*
X140550150Y-59316480D01*
X140529107Y-59303868D01*
X140509401Y-59289253D01*
X140491223Y-59272777D01*
X140474747Y-59254599D01*
X140460132Y-59234893D01*
X140447520Y-59213850D01*
X140437030Y-59191671D01*
X140428765Y-59168572D01*
X140422804Y-59144773D01*
X140419204Y-59120505D01*
X140418000Y-59096001D01*
X140418000Y-58445999D01*
X140419204Y-58421495D01*
X140422804Y-58397227D01*
X140428765Y-58373428D01*
X140437030Y-58350329D01*
X140447520Y-58328150D01*
X140460132Y-58307107D01*
X140474747Y-58287401D01*
X140491223Y-58269223D01*
X140509401Y-58252747D01*
X140529107Y-58238132D01*
X140550150Y-58225520D01*
X140572329Y-58215030D01*
X140595428Y-58206765D01*
X140619227Y-58200804D01*
X140643495Y-58197204D01*
X140667999Y-58196000D01*
X141568001Y-58196000D01*
X141592505Y-58197204D01*
G37*
G36*
X141592505Y-56147204D02*
G01*
X141616773Y-56150804D01*
X141640572Y-56156765D01*
X141663671Y-56165030D01*
X141685850Y-56175520D01*
X141706893Y-56188132D01*
X141726599Y-56202747D01*
X141744777Y-56219223D01*
X141761253Y-56237401D01*
X141775868Y-56257107D01*
X141788480Y-56278150D01*
X141798970Y-56300329D01*
X141807235Y-56323428D01*
X141813196Y-56347227D01*
X141816796Y-56371495D01*
X141818000Y-56395999D01*
X141818000Y-57046001D01*
X141816796Y-57070505D01*
X141813196Y-57094773D01*
X141807235Y-57118572D01*
X141798970Y-57141671D01*
X141788480Y-57163850D01*
X141775868Y-57184893D01*
X141761253Y-57204599D01*
X141744777Y-57222777D01*
X141726599Y-57239253D01*
X141706893Y-57253868D01*
X141685850Y-57266480D01*
X141663671Y-57276970D01*
X141640572Y-57285235D01*
X141616773Y-57291196D01*
X141592505Y-57294796D01*
X141568001Y-57296000D01*
X140667999Y-57296000D01*
X140643495Y-57294796D01*
X140619227Y-57291196D01*
X140595428Y-57285235D01*
X140572329Y-57276970D01*
X140550150Y-57266480D01*
X140529107Y-57253868D01*
X140509401Y-57239253D01*
X140491223Y-57222777D01*
X140474747Y-57204599D01*
X140460132Y-57184893D01*
X140447520Y-57163850D01*
X140437030Y-57141671D01*
X140428765Y-57118572D01*
X140422804Y-57094773D01*
X140419204Y-57070505D01*
X140418000Y-57046001D01*
X140418000Y-56395999D01*
X140419204Y-56371495D01*
X140422804Y-56347227D01*
X140428765Y-56323428D01*
X140437030Y-56300329D01*
X140447520Y-56278150D01*
X140460132Y-56257107D01*
X140474747Y-56237401D01*
X140491223Y-56219223D01*
X140509401Y-56202747D01*
X140529107Y-56188132D01*
X140550150Y-56175520D01*
X140572329Y-56165030D01*
X140595428Y-56156765D01*
X140619227Y-56150804D01*
X140643495Y-56147204D01*
X140667999Y-56146000D01*
X141568001Y-56146000D01*
X141592505Y-56147204D01*
G37*
G36*
X119095505Y-35914204D02*
G01*
X119119773Y-35917804D01*
X119143572Y-35923765D01*
X119166671Y-35932030D01*
X119188850Y-35942520D01*
X119209893Y-35955132D01*
X119229599Y-35969747D01*
X119247777Y-35986223D01*
X119264253Y-36004401D01*
X119278868Y-36024107D01*
X119291480Y-36045150D01*
X119301970Y-36067329D01*
X119310235Y-36090428D01*
X119316196Y-36114227D01*
X119319796Y-36138495D01*
X119321000Y-36162999D01*
X119321000Y-36813001D01*
X119319796Y-36837505D01*
X119316196Y-36861773D01*
X119310235Y-36885572D01*
X119301970Y-36908671D01*
X119291480Y-36930850D01*
X119278868Y-36951893D01*
X119264253Y-36971599D01*
X119247777Y-36989777D01*
X119229599Y-37006253D01*
X119209893Y-37020868D01*
X119188850Y-37033480D01*
X119166671Y-37043970D01*
X119143572Y-37052235D01*
X119119773Y-37058196D01*
X119095505Y-37061796D01*
X119071001Y-37063000D01*
X118170999Y-37063000D01*
X118146495Y-37061796D01*
X118122227Y-37058196D01*
X118098428Y-37052235D01*
X118075329Y-37043970D01*
X118053150Y-37033480D01*
X118032107Y-37020868D01*
X118012401Y-37006253D01*
X117994223Y-36989777D01*
X117977747Y-36971599D01*
X117963132Y-36951893D01*
X117950520Y-36930850D01*
X117940030Y-36908671D01*
X117931765Y-36885572D01*
X117925804Y-36861773D01*
X117922204Y-36837505D01*
X117921000Y-36813001D01*
X117921000Y-36162999D01*
X117922204Y-36138495D01*
X117925804Y-36114227D01*
X117931765Y-36090428D01*
X117940030Y-36067329D01*
X117950520Y-36045150D01*
X117963132Y-36024107D01*
X117977747Y-36004401D01*
X117994223Y-35986223D01*
X118012401Y-35969747D01*
X118032107Y-35955132D01*
X118053150Y-35942520D01*
X118075329Y-35932030D01*
X118098428Y-35923765D01*
X118122227Y-35917804D01*
X118146495Y-35914204D01*
X118170999Y-35913000D01*
X119071001Y-35913000D01*
X119095505Y-35914204D01*
G37*
G36*
X119095505Y-37964204D02*
G01*
X119119773Y-37967804D01*
X119143572Y-37973765D01*
X119166671Y-37982030D01*
X119188850Y-37992520D01*
X119209893Y-38005132D01*
X119229599Y-38019747D01*
X119247777Y-38036223D01*
X119264253Y-38054401D01*
X119278868Y-38074107D01*
X119291480Y-38095150D01*
X119301970Y-38117329D01*
X119310235Y-38140428D01*
X119316196Y-38164227D01*
X119319796Y-38188495D01*
X119321000Y-38212999D01*
X119321000Y-38863001D01*
X119319796Y-38887505D01*
X119316196Y-38911773D01*
X119310235Y-38935572D01*
X119301970Y-38958671D01*
X119291480Y-38980850D01*
X119278868Y-39001893D01*
X119264253Y-39021599D01*
X119247777Y-39039777D01*
X119229599Y-39056253D01*
X119209893Y-39070868D01*
X119188850Y-39083480D01*
X119166671Y-39093970D01*
X119143572Y-39102235D01*
X119119773Y-39108196D01*
X119095505Y-39111796D01*
X119071001Y-39113000D01*
X118170999Y-39113000D01*
X118146495Y-39111796D01*
X118122227Y-39108196D01*
X118098428Y-39102235D01*
X118075329Y-39093970D01*
X118053150Y-39083480D01*
X118032107Y-39070868D01*
X118012401Y-39056253D01*
X117994223Y-39039777D01*
X117977747Y-39021599D01*
X117963132Y-39001893D01*
X117950520Y-38980850D01*
X117940030Y-38958671D01*
X117931765Y-38935572D01*
X117925804Y-38911773D01*
X117922204Y-38887505D01*
X117921000Y-38863001D01*
X117921000Y-38212999D01*
X117922204Y-38188495D01*
X117925804Y-38164227D01*
X117931765Y-38140428D01*
X117940030Y-38117329D01*
X117950520Y-38095150D01*
X117963132Y-38074107D01*
X117977747Y-38054401D01*
X117994223Y-38036223D01*
X118012401Y-38019747D01*
X118032107Y-38005132D01*
X118053150Y-37992520D01*
X118075329Y-37982030D01*
X118098428Y-37973765D01*
X118122227Y-37967804D01*
X118146495Y-37964204D01*
X118170999Y-37963000D01*
X119071001Y-37963000D01*
X119095505Y-37964204D01*
G37*
G36*
X121885505Y-62916204D02*
G01*
X121909773Y-62919804D01*
X121933572Y-62925765D01*
X121956671Y-62934030D01*
X121978850Y-62944520D01*
X121999893Y-62957132D01*
X122019599Y-62971747D01*
X122037777Y-62988223D01*
X122054253Y-63006401D01*
X122068868Y-63026107D01*
X122081480Y-63047150D01*
X122091970Y-63069329D01*
X122100235Y-63092428D01*
X122106196Y-63116227D01*
X122109796Y-63140495D01*
X122111000Y-63164999D01*
X122111000Y-64065001D01*
X122109796Y-64089505D01*
X122106196Y-64113773D01*
X122100235Y-64137572D01*
X122091970Y-64160671D01*
X122081480Y-64182850D01*
X122068868Y-64203893D01*
X122054253Y-64223599D01*
X122037777Y-64241777D01*
X122019599Y-64258253D01*
X121999893Y-64272868D01*
X121978850Y-64285480D01*
X121956671Y-64295970D01*
X121933572Y-64304235D01*
X121909773Y-64310196D01*
X121885505Y-64313796D01*
X121861001Y-64315000D01*
X121210999Y-64315000D01*
X121186495Y-64313796D01*
X121162227Y-64310196D01*
X121138428Y-64304235D01*
X121115329Y-64295970D01*
X121093150Y-64285480D01*
X121072107Y-64272868D01*
X121052401Y-64258253D01*
X121034223Y-64241777D01*
X121017747Y-64223599D01*
X121003132Y-64203893D01*
X120990520Y-64182850D01*
X120980030Y-64160671D01*
X120971765Y-64137572D01*
X120965804Y-64113773D01*
X120962204Y-64089505D01*
X120961000Y-64065001D01*
X120961000Y-63164999D01*
X120962204Y-63140495D01*
X120965804Y-63116227D01*
X120971765Y-63092428D01*
X120980030Y-63069329D01*
X120990520Y-63047150D01*
X121003132Y-63026107D01*
X121017747Y-63006401D01*
X121034223Y-62988223D01*
X121052401Y-62971747D01*
X121072107Y-62957132D01*
X121093150Y-62944520D01*
X121115329Y-62934030D01*
X121138428Y-62925765D01*
X121162227Y-62919804D01*
X121186495Y-62916204D01*
X121210999Y-62915000D01*
X121861001Y-62915000D01*
X121885505Y-62916204D01*
G37*
G36*
X123935505Y-62916204D02*
G01*
X123959773Y-62919804D01*
X123983572Y-62925765D01*
X124006671Y-62934030D01*
X124028850Y-62944520D01*
X124049893Y-62957132D01*
X124069599Y-62971747D01*
X124087777Y-62988223D01*
X124104253Y-63006401D01*
X124118868Y-63026107D01*
X124131480Y-63047150D01*
X124141970Y-63069329D01*
X124150235Y-63092428D01*
X124156196Y-63116227D01*
X124159796Y-63140495D01*
X124161000Y-63164999D01*
X124161000Y-64065001D01*
X124159796Y-64089505D01*
X124156196Y-64113773D01*
X124150235Y-64137572D01*
X124141970Y-64160671D01*
X124131480Y-64182850D01*
X124118868Y-64203893D01*
X124104253Y-64223599D01*
X124087777Y-64241777D01*
X124069599Y-64258253D01*
X124049893Y-64272868D01*
X124028850Y-64285480D01*
X124006671Y-64295970D01*
X123983572Y-64304235D01*
X123959773Y-64310196D01*
X123935505Y-64313796D01*
X123911001Y-64315000D01*
X123260999Y-64315000D01*
X123236495Y-64313796D01*
X123212227Y-64310196D01*
X123188428Y-64304235D01*
X123165329Y-64295970D01*
X123143150Y-64285480D01*
X123122107Y-64272868D01*
X123102401Y-64258253D01*
X123084223Y-64241777D01*
X123067747Y-64223599D01*
X123053132Y-64203893D01*
X123040520Y-64182850D01*
X123030030Y-64160671D01*
X123021765Y-64137572D01*
X123015804Y-64113773D01*
X123012204Y-64089505D01*
X123011000Y-64065001D01*
X123011000Y-63164999D01*
X123012204Y-63140495D01*
X123015804Y-63116227D01*
X123021765Y-63092428D01*
X123030030Y-63069329D01*
X123040520Y-63047150D01*
X123053132Y-63026107D01*
X123067747Y-63006401D01*
X123084223Y-62988223D01*
X123102401Y-62971747D01*
X123122107Y-62957132D01*
X123143150Y-62944520D01*
X123165329Y-62934030D01*
X123188428Y-62925765D01*
X123212227Y-62919804D01*
X123236495Y-62916204D01*
X123260999Y-62915000D01*
X123911001Y-62915000D01*
X123935505Y-62916204D01*
G37*
G36*
X121892505Y-60917204D02*
G01*
X121916773Y-60920804D01*
X121940572Y-60926765D01*
X121963671Y-60935030D01*
X121985850Y-60945520D01*
X122006893Y-60958132D01*
X122026599Y-60972747D01*
X122044777Y-60989223D01*
X122061253Y-61007401D01*
X122075868Y-61027107D01*
X122088480Y-61048150D01*
X122098970Y-61070329D01*
X122107235Y-61093428D01*
X122113196Y-61117227D01*
X122116796Y-61141495D01*
X122118000Y-61165999D01*
X122118000Y-62066001D01*
X122116796Y-62090505D01*
X122113196Y-62114773D01*
X122107235Y-62138572D01*
X122098970Y-62161671D01*
X122088480Y-62183850D01*
X122075868Y-62204893D01*
X122061253Y-62224599D01*
X122044777Y-62242777D01*
X122026599Y-62259253D01*
X122006893Y-62273868D01*
X121985850Y-62286480D01*
X121963671Y-62296970D01*
X121940572Y-62305235D01*
X121916773Y-62311196D01*
X121892505Y-62314796D01*
X121868001Y-62316000D01*
X121217999Y-62316000D01*
X121193495Y-62314796D01*
X121169227Y-62311196D01*
X121145428Y-62305235D01*
X121122329Y-62296970D01*
X121100150Y-62286480D01*
X121079107Y-62273868D01*
X121059401Y-62259253D01*
X121041223Y-62242777D01*
X121024747Y-62224599D01*
X121010132Y-62204893D01*
X120997520Y-62183850D01*
X120987030Y-62161671D01*
X120978765Y-62138572D01*
X120972804Y-62114773D01*
X120969204Y-62090505D01*
X120968000Y-62066001D01*
X120968000Y-61165999D01*
X120969204Y-61141495D01*
X120972804Y-61117227D01*
X120978765Y-61093428D01*
X120987030Y-61070329D01*
X120997520Y-61048150D01*
X121010132Y-61027107D01*
X121024747Y-61007401D01*
X121041223Y-60989223D01*
X121059401Y-60972747D01*
X121079107Y-60958132D01*
X121100150Y-60945520D01*
X121122329Y-60935030D01*
X121145428Y-60926765D01*
X121169227Y-60920804D01*
X121193495Y-60917204D01*
X121217999Y-60916000D01*
X121868001Y-60916000D01*
X121892505Y-60917204D01*
G37*
G36*
X123942505Y-60917204D02*
G01*
X123966773Y-60920804D01*
X123990572Y-60926765D01*
X124013671Y-60935030D01*
X124035850Y-60945520D01*
X124056893Y-60958132D01*
X124076599Y-60972747D01*
X124094777Y-60989223D01*
X124111253Y-61007401D01*
X124125868Y-61027107D01*
X124138480Y-61048150D01*
X124148970Y-61070329D01*
X124157235Y-61093428D01*
X124163196Y-61117227D01*
X124166796Y-61141495D01*
X124168000Y-61165999D01*
X124168000Y-62066001D01*
X124166796Y-62090505D01*
X124163196Y-62114773D01*
X124157235Y-62138572D01*
X124148970Y-62161671D01*
X124138480Y-62183850D01*
X124125868Y-62204893D01*
X124111253Y-62224599D01*
X124094777Y-62242777D01*
X124076599Y-62259253D01*
X124056893Y-62273868D01*
X124035850Y-62286480D01*
X124013671Y-62296970D01*
X123990572Y-62305235D01*
X123966773Y-62311196D01*
X123942505Y-62314796D01*
X123918001Y-62316000D01*
X123267999Y-62316000D01*
X123243495Y-62314796D01*
X123219227Y-62311196D01*
X123195428Y-62305235D01*
X123172329Y-62296970D01*
X123150150Y-62286480D01*
X123129107Y-62273868D01*
X123109401Y-62259253D01*
X123091223Y-62242777D01*
X123074747Y-62224599D01*
X123060132Y-62204893D01*
X123047520Y-62183850D01*
X123037030Y-62161671D01*
X123028765Y-62138572D01*
X123022804Y-62114773D01*
X123019204Y-62090505D01*
X123018000Y-62066001D01*
X123018000Y-61165999D01*
X123019204Y-61141495D01*
X123022804Y-61117227D01*
X123028765Y-61093428D01*
X123037030Y-61070329D01*
X123047520Y-61048150D01*
X123060132Y-61027107D01*
X123074747Y-61007401D01*
X123091223Y-60989223D01*
X123109401Y-60972747D01*
X123129107Y-60958132D01*
X123150150Y-60945520D01*
X123172329Y-60935030D01*
X123195428Y-60926765D01*
X123219227Y-60920804D01*
X123243495Y-60917204D01*
X123267999Y-60916000D01*
X123918001Y-60916000D01*
X123942505Y-60917204D01*
G37*
G36*
X121897505Y-58923204D02*
G01*
X121921773Y-58926804D01*
X121945572Y-58932765D01*
X121968671Y-58941030D01*
X121990850Y-58951520D01*
X122011893Y-58964132D01*
X122031599Y-58978747D01*
X122049777Y-58995223D01*
X122066253Y-59013401D01*
X122080868Y-59033107D01*
X122093480Y-59054150D01*
X122103970Y-59076329D01*
X122112235Y-59099428D01*
X122118196Y-59123227D01*
X122121796Y-59147495D01*
X122123000Y-59171999D01*
X122123000Y-60072001D01*
X122121796Y-60096505D01*
X122118196Y-60120773D01*
X122112235Y-60144572D01*
X122103970Y-60167671D01*
X122093480Y-60189850D01*
X122080868Y-60210893D01*
X122066253Y-60230599D01*
X122049777Y-60248777D01*
X122031599Y-60265253D01*
X122011893Y-60279868D01*
X121990850Y-60292480D01*
X121968671Y-60302970D01*
X121945572Y-60311235D01*
X121921773Y-60317196D01*
X121897505Y-60320796D01*
X121873001Y-60322000D01*
X121222999Y-60322000D01*
X121198495Y-60320796D01*
X121174227Y-60317196D01*
X121150428Y-60311235D01*
X121127329Y-60302970D01*
X121105150Y-60292480D01*
X121084107Y-60279868D01*
X121064401Y-60265253D01*
X121046223Y-60248777D01*
X121029747Y-60230599D01*
X121015132Y-60210893D01*
X121002520Y-60189850D01*
X120992030Y-60167671D01*
X120983765Y-60144572D01*
X120977804Y-60120773D01*
X120974204Y-60096505D01*
X120973000Y-60072001D01*
X120973000Y-59171999D01*
X120974204Y-59147495D01*
X120977804Y-59123227D01*
X120983765Y-59099428D01*
X120992030Y-59076329D01*
X121002520Y-59054150D01*
X121015132Y-59033107D01*
X121029747Y-59013401D01*
X121046223Y-58995223D01*
X121064401Y-58978747D01*
X121084107Y-58964132D01*
X121105150Y-58951520D01*
X121127329Y-58941030D01*
X121150428Y-58932765D01*
X121174227Y-58926804D01*
X121198495Y-58923204D01*
X121222999Y-58922000D01*
X121873001Y-58922000D01*
X121897505Y-58923204D01*
G37*
G36*
X123947505Y-58923204D02*
G01*
X123971773Y-58926804D01*
X123995572Y-58932765D01*
X124018671Y-58941030D01*
X124040850Y-58951520D01*
X124061893Y-58964132D01*
X124081599Y-58978747D01*
X124099777Y-58995223D01*
X124116253Y-59013401D01*
X124130868Y-59033107D01*
X124143480Y-59054150D01*
X124153970Y-59076329D01*
X124162235Y-59099428D01*
X124168196Y-59123227D01*
X124171796Y-59147495D01*
X124173000Y-59171999D01*
X124173000Y-60072001D01*
X124171796Y-60096505D01*
X124168196Y-60120773D01*
X124162235Y-60144572D01*
X124153970Y-60167671D01*
X124143480Y-60189850D01*
X124130868Y-60210893D01*
X124116253Y-60230599D01*
X124099777Y-60248777D01*
X124081599Y-60265253D01*
X124061893Y-60279868D01*
X124040850Y-60292480D01*
X124018671Y-60302970D01*
X123995572Y-60311235D01*
X123971773Y-60317196D01*
X123947505Y-60320796D01*
X123923001Y-60322000D01*
X123272999Y-60322000D01*
X123248495Y-60320796D01*
X123224227Y-60317196D01*
X123200428Y-60311235D01*
X123177329Y-60302970D01*
X123155150Y-60292480D01*
X123134107Y-60279868D01*
X123114401Y-60265253D01*
X123096223Y-60248777D01*
X123079747Y-60230599D01*
X123065132Y-60210893D01*
X123052520Y-60189850D01*
X123042030Y-60167671D01*
X123033765Y-60144572D01*
X123027804Y-60120773D01*
X123024204Y-60096505D01*
X123023000Y-60072001D01*
X123023000Y-59171999D01*
X123024204Y-59147495D01*
X123027804Y-59123227D01*
X123033765Y-59099428D01*
X123042030Y-59076329D01*
X123052520Y-59054150D01*
X123065132Y-59033107D01*
X123079747Y-59013401D01*
X123096223Y-58995223D01*
X123114401Y-58978747D01*
X123134107Y-58964132D01*
X123155150Y-58951520D01*
X123177329Y-58941030D01*
X123200428Y-58932765D01*
X123224227Y-58926804D01*
X123248495Y-58923204D01*
X123272999Y-58922000D01*
X123923001Y-58922000D01*
X123947505Y-58923204D01*
G37*
G36*
X132127505Y-100776204D02*
G01*
X132151773Y-100779804D01*
X132175572Y-100785765D01*
X132198671Y-100794030D01*
X132220850Y-100804520D01*
X132241893Y-100817132D01*
X132261599Y-100831747D01*
X132279777Y-100848223D01*
X132296253Y-100866401D01*
X132310868Y-100886107D01*
X132323480Y-100907150D01*
X132333970Y-100929329D01*
X132342235Y-100952428D01*
X132348196Y-100976227D01*
X132351796Y-101000495D01*
X132353000Y-101024999D01*
X132353000Y-101675001D01*
X132351796Y-101699505D01*
X132348196Y-101723773D01*
X132342235Y-101747572D01*
X132333970Y-101770671D01*
X132323480Y-101792850D01*
X132310868Y-101813893D01*
X132296253Y-101833599D01*
X132279777Y-101851777D01*
X132261599Y-101868253D01*
X132241893Y-101882868D01*
X132220850Y-101895480D01*
X132198671Y-101905970D01*
X132175572Y-101914235D01*
X132151773Y-101920196D01*
X132127505Y-101923796D01*
X132103001Y-101925000D01*
X131202999Y-101925000D01*
X131178495Y-101923796D01*
X131154227Y-101920196D01*
X131130428Y-101914235D01*
X131107329Y-101905970D01*
X131085150Y-101895480D01*
X131064107Y-101882868D01*
X131044401Y-101868253D01*
X131026223Y-101851777D01*
X131009747Y-101833599D01*
X130995132Y-101813893D01*
X130982520Y-101792850D01*
X130972030Y-101770671D01*
X130963765Y-101747572D01*
X130957804Y-101723773D01*
X130954204Y-101699505D01*
X130953000Y-101675001D01*
X130953000Y-101024999D01*
X130954204Y-101000495D01*
X130957804Y-100976227D01*
X130963765Y-100952428D01*
X130972030Y-100929329D01*
X130982520Y-100907150D01*
X130995132Y-100886107D01*
X131009747Y-100866401D01*
X131026223Y-100848223D01*
X131044401Y-100831747D01*
X131064107Y-100817132D01*
X131085150Y-100804520D01*
X131107329Y-100794030D01*
X131130428Y-100785765D01*
X131154227Y-100779804D01*
X131178495Y-100776204D01*
X131202999Y-100775000D01*
X132103001Y-100775000D01*
X132127505Y-100776204D01*
G37*
G36*
X132127505Y-102826204D02*
G01*
X132151773Y-102829804D01*
X132175572Y-102835765D01*
X132198671Y-102844030D01*
X132220850Y-102854520D01*
X132241893Y-102867132D01*
X132261599Y-102881747D01*
X132279777Y-102898223D01*
X132296253Y-102916401D01*
X132310868Y-102936107D01*
X132323480Y-102957150D01*
X132333970Y-102979329D01*
X132342235Y-103002428D01*
X132348196Y-103026227D01*
X132351796Y-103050495D01*
X132353000Y-103074999D01*
X132353000Y-103725001D01*
X132351796Y-103749505D01*
X132348196Y-103773773D01*
X132342235Y-103797572D01*
X132333970Y-103820671D01*
X132323480Y-103842850D01*
X132310868Y-103863893D01*
X132296253Y-103883599D01*
X132279777Y-103901777D01*
X132261599Y-103918253D01*
X132241893Y-103932868D01*
X132220850Y-103945480D01*
X132198671Y-103955970D01*
X132175572Y-103964235D01*
X132151773Y-103970196D01*
X132127505Y-103973796D01*
X132103001Y-103975000D01*
X131202999Y-103975000D01*
X131178495Y-103973796D01*
X131154227Y-103970196D01*
X131130428Y-103964235D01*
X131107329Y-103955970D01*
X131085150Y-103945480D01*
X131064107Y-103932868D01*
X131044401Y-103918253D01*
X131026223Y-103901777D01*
X131009747Y-103883599D01*
X130995132Y-103863893D01*
X130982520Y-103842850D01*
X130972030Y-103820671D01*
X130963765Y-103797572D01*
X130957804Y-103773773D01*
X130954204Y-103749505D01*
X130953000Y-103725001D01*
X130953000Y-103074999D01*
X130954204Y-103050495D01*
X130957804Y-103026227D01*
X130963765Y-103002428D01*
X130972030Y-102979329D01*
X130982520Y-102957150D01*
X130995132Y-102936107D01*
X131009747Y-102916401D01*
X131026223Y-102898223D01*
X131044401Y-102881747D01*
X131064107Y-102867132D01*
X131085150Y-102854520D01*
X131107329Y-102844030D01*
X131130428Y-102835765D01*
X131154227Y-102829804D01*
X131178495Y-102826204D01*
X131202999Y-102825000D01*
X132103001Y-102825000D01*
X132127505Y-102826204D01*
G37*
D21*
X122549000Y-85003000D03*
X120549000Y-85953000D03*
X120549000Y-84053000D03*
X122557000Y-99188000D03*
X120557000Y-100138000D03*
X120557000Y-98238000D03*
X132991000Y-115097000D03*
X130991000Y-116047000D03*
X130991000Y-114147000D03*
D22*
X125609000Y-101240000D03*
X125609000Y-97480000D03*
X125462000Y-86611000D03*
X125462000Y-82851000D03*
D23*
X135229000Y-114756000D03*
X135229000Y-117556000D03*
D24*
X161151000Y-40992000D03*
X163251000Y-40992000D03*
D23*
X140730000Y-117195000D03*
X137930000Y-117195000D03*
D10*
G36*
X135647505Y-112302204D02*
G01*
X135671773Y-112305804D01*
X135695572Y-112311765D01*
X135718671Y-112320030D01*
X135740850Y-112330520D01*
X135761893Y-112343132D01*
X135781599Y-112357747D01*
X135799777Y-112374223D01*
X135816253Y-112392401D01*
X135830868Y-112412107D01*
X135843480Y-112433150D01*
X135853970Y-112455329D01*
X135862235Y-112478428D01*
X135868196Y-112502227D01*
X135871796Y-112526495D01*
X135873000Y-112550999D01*
X135873000Y-113201001D01*
X135871796Y-113225505D01*
X135868196Y-113249773D01*
X135862235Y-113273572D01*
X135853970Y-113296671D01*
X135843480Y-113318850D01*
X135830868Y-113339893D01*
X135816253Y-113359599D01*
X135799777Y-113377777D01*
X135781599Y-113394253D01*
X135761893Y-113408868D01*
X135740850Y-113421480D01*
X135718671Y-113431970D01*
X135695572Y-113440235D01*
X135671773Y-113446196D01*
X135647505Y-113449796D01*
X135623001Y-113451000D01*
X134722999Y-113451000D01*
X134698495Y-113449796D01*
X134674227Y-113446196D01*
X134650428Y-113440235D01*
X134627329Y-113431970D01*
X134605150Y-113421480D01*
X134584107Y-113408868D01*
X134564401Y-113394253D01*
X134546223Y-113377777D01*
X134529747Y-113359599D01*
X134515132Y-113339893D01*
X134502520Y-113318850D01*
X134492030Y-113296671D01*
X134483765Y-113273572D01*
X134477804Y-113249773D01*
X134474204Y-113225505D01*
X134473000Y-113201001D01*
X134473000Y-112550999D01*
X134474204Y-112526495D01*
X134477804Y-112502227D01*
X134483765Y-112478428D01*
X134492030Y-112455329D01*
X134502520Y-112433150D01*
X134515132Y-112412107D01*
X134529747Y-112392401D01*
X134546223Y-112374223D01*
X134564401Y-112357747D01*
X134584107Y-112343132D01*
X134605150Y-112330520D01*
X134627329Y-112320030D01*
X134650428Y-112311765D01*
X134674227Y-112305804D01*
X134698495Y-112302204D01*
X134722999Y-112301000D01*
X135623001Y-112301000D01*
X135647505Y-112302204D01*
G37*
G36*
X135647505Y-110252204D02*
G01*
X135671773Y-110255804D01*
X135695572Y-110261765D01*
X135718671Y-110270030D01*
X135740850Y-110280520D01*
X135761893Y-110293132D01*
X135781599Y-110307747D01*
X135799777Y-110324223D01*
X135816253Y-110342401D01*
X135830868Y-110362107D01*
X135843480Y-110383150D01*
X135853970Y-110405329D01*
X135862235Y-110428428D01*
X135868196Y-110452227D01*
X135871796Y-110476495D01*
X135873000Y-110500999D01*
X135873000Y-111151001D01*
X135871796Y-111175505D01*
X135868196Y-111199773D01*
X135862235Y-111223572D01*
X135853970Y-111246671D01*
X135843480Y-111268850D01*
X135830868Y-111289893D01*
X135816253Y-111309599D01*
X135799777Y-111327777D01*
X135781599Y-111344253D01*
X135761893Y-111358868D01*
X135740850Y-111371480D01*
X135718671Y-111381970D01*
X135695572Y-111390235D01*
X135671773Y-111396196D01*
X135647505Y-111399796D01*
X135623001Y-111401000D01*
X134722999Y-111401000D01*
X134698495Y-111399796D01*
X134674227Y-111396196D01*
X134650428Y-111390235D01*
X134627329Y-111381970D01*
X134605150Y-111371480D01*
X134584107Y-111358868D01*
X134564401Y-111344253D01*
X134546223Y-111327777D01*
X134529747Y-111309599D01*
X134515132Y-111289893D01*
X134502520Y-111268850D01*
X134492030Y-111246671D01*
X134483765Y-111223572D01*
X134477804Y-111199773D01*
X134474204Y-111175505D01*
X134473000Y-111151001D01*
X134473000Y-110500999D01*
X134474204Y-110476495D01*
X134477804Y-110452227D01*
X134483765Y-110428428D01*
X134492030Y-110405329D01*
X134502520Y-110383150D01*
X134515132Y-110362107D01*
X134529747Y-110342401D01*
X134546223Y-110324223D01*
X134564401Y-110307747D01*
X134584107Y-110293132D01*
X134605150Y-110280520D01*
X134627329Y-110270030D01*
X134650428Y-110261765D01*
X134674227Y-110255804D01*
X134698495Y-110252204D01*
X134722999Y-110251000D01*
X135623001Y-110251000D01*
X135647505Y-110252204D01*
G37*
G36*
X135708505Y-103592204D02*
G01*
X135732773Y-103595804D01*
X135756572Y-103601765D01*
X135779671Y-103610030D01*
X135801850Y-103620520D01*
X135822893Y-103633132D01*
X135842599Y-103647747D01*
X135860777Y-103664223D01*
X135877253Y-103682401D01*
X135891868Y-103702107D01*
X135904480Y-103723150D01*
X135914970Y-103745329D01*
X135923235Y-103768428D01*
X135929196Y-103792227D01*
X135932796Y-103816495D01*
X135934000Y-103840999D01*
X135934000Y-104916001D01*
X135932796Y-104940505D01*
X135929196Y-104964773D01*
X135923235Y-104988572D01*
X135914970Y-105011671D01*
X135904480Y-105033850D01*
X135891868Y-105054893D01*
X135877253Y-105074599D01*
X135860777Y-105092777D01*
X135842599Y-105109253D01*
X135822893Y-105123868D01*
X135801850Y-105136480D01*
X135779671Y-105146970D01*
X135756572Y-105155235D01*
X135732773Y-105161196D01*
X135708505Y-105164796D01*
X135684001Y-105166000D01*
X134833999Y-105166000D01*
X134809495Y-105164796D01*
X134785227Y-105161196D01*
X134761428Y-105155235D01*
X134738329Y-105146970D01*
X134716150Y-105136480D01*
X134695107Y-105123868D01*
X134675401Y-105109253D01*
X134657223Y-105092777D01*
X134640747Y-105074599D01*
X134626132Y-105054893D01*
X134613520Y-105033850D01*
X134603030Y-105011671D01*
X134594765Y-104988572D01*
X134588804Y-104964773D01*
X134585204Y-104940505D01*
X134584000Y-104916001D01*
X134584000Y-103840999D01*
X134585204Y-103816495D01*
X134588804Y-103792227D01*
X134594765Y-103768428D01*
X134603030Y-103745329D01*
X134613520Y-103723150D01*
X134626132Y-103702107D01*
X134640747Y-103682401D01*
X134657223Y-103664223D01*
X134675401Y-103647747D01*
X134695107Y-103633132D01*
X134716150Y-103620520D01*
X134738329Y-103610030D01*
X134761428Y-103601765D01*
X134785227Y-103595804D01*
X134809495Y-103592204D01*
X134833999Y-103591000D01*
X135684001Y-103591000D01*
X135708505Y-103592204D01*
G37*
G36*
X135708505Y-100717204D02*
G01*
X135732773Y-100720804D01*
X135756572Y-100726765D01*
X135779671Y-100735030D01*
X135801850Y-100745520D01*
X135822893Y-100758132D01*
X135842599Y-100772747D01*
X135860777Y-100789223D01*
X135877253Y-100807401D01*
X135891868Y-100827107D01*
X135904480Y-100848150D01*
X135914970Y-100870329D01*
X135923235Y-100893428D01*
X135929196Y-100917227D01*
X135932796Y-100941495D01*
X135934000Y-100965999D01*
X135934000Y-102041001D01*
X135932796Y-102065505D01*
X135929196Y-102089773D01*
X135923235Y-102113572D01*
X135914970Y-102136671D01*
X135904480Y-102158850D01*
X135891868Y-102179893D01*
X135877253Y-102199599D01*
X135860777Y-102217777D01*
X135842599Y-102234253D01*
X135822893Y-102248868D01*
X135801850Y-102261480D01*
X135779671Y-102271970D01*
X135756572Y-102280235D01*
X135732773Y-102286196D01*
X135708505Y-102289796D01*
X135684001Y-102291000D01*
X134833999Y-102291000D01*
X134809495Y-102289796D01*
X134785227Y-102286196D01*
X134761428Y-102280235D01*
X134738329Y-102271970D01*
X134716150Y-102261480D01*
X134695107Y-102248868D01*
X134675401Y-102234253D01*
X134657223Y-102217777D01*
X134640747Y-102199599D01*
X134626132Y-102179893D01*
X134613520Y-102158850D01*
X134603030Y-102136671D01*
X134594765Y-102113572D01*
X134588804Y-102089773D01*
X134585204Y-102065505D01*
X134584000Y-102041001D01*
X134584000Y-100965999D01*
X134585204Y-100941495D01*
X134588804Y-100917227D01*
X134594765Y-100893428D01*
X134603030Y-100870329D01*
X134613520Y-100848150D01*
X134626132Y-100827107D01*
X134640747Y-100807401D01*
X134657223Y-100789223D01*
X134675401Y-100772747D01*
X134695107Y-100758132D01*
X134716150Y-100745520D01*
X134738329Y-100735030D01*
X134761428Y-100726765D01*
X134785227Y-100720804D01*
X134809495Y-100717204D01*
X134833999Y-100716000D01*
X135684001Y-100716000D01*
X135708505Y-100717204D01*
G37*
G36*
X135701505Y-106207204D02*
G01*
X135725773Y-106210804D01*
X135749572Y-106216765D01*
X135772671Y-106225030D01*
X135794850Y-106235520D01*
X135815893Y-106248132D01*
X135835599Y-106262747D01*
X135853777Y-106279223D01*
X135870253Y-106297401D01*
X135884868Y-106317107D01*
X135897480Y-106338150D01*
X135907970Y-106360329D01*
X135916235Y-106383428D01*
X135922196Y-106407227D01*
X135925796Y-106431495D01*
X135927000Y-106455999D01*
X135927000Y-107106001D01*
X135925796Y-107130505D01*
X135922196Y-107154773D01*
X135916235Y-107178572D01*
X135907970Y-107201671D01*
X135897480Y-107223850D01*
X135884868Y-107244893D01*
X135870253Y-107264599D01*
X135853777Y-107282777D01*
X135835599Y-107299253D01*
X135815893Y-107313868D01*
X135794850Y-107326480D01*
X135772671Y-107336970D01*
X135749572Y-107345235D01*
X135725773Y-107351196D01*
X135701505Y-107354796D01*
X135677001Y-107356000D01*
X134776999Y-107356000D01*
X134752495Y-107354796D01*
X134728227Y-107351196D01*
X134704428Y-107345235D01*
X134681329Y-107336970D01*
X134659150Y-107326480D01*
X134638107Y-107313868D01*
X134618401Y-107299253D01*
X134600223Y-107282777D01*
X134583747Y-107264599D01*
X134569132Y-107244893D01*
X134556520Y-107223850D01*
X134546030Y-107201671D01*
X134537765Y-107178572D01*
X134531804Y-107154773D01*
X134528204Y-107130505D01*
X134527000Y-107106001D01*
X134527000Y-106455999D01*
X134528204Y-106431495D01*
X134531804Y-106407227D01*
X134537765Y-106383428D01*
X134546030Y-106360329D01*
X134556520Y-106338150D01*
X134569132Y-106317107D01*
X134583747Y-106297401D01*
X134600223Y-106279223D01*
X134618401Y-106262747D01*
X134638107Y-106248132D01*
X134659150Y-106235520D01*
X134681329Y-106225030D01*
X134704428Y-106216765D01*
X134728227Y-106210804D01*
X134752495Y-106207204D01*
X134776999Y-106206000D01*
X135677001Y-106206000D01*
X135701505Y-106207204D01*
G37*
G36*
X135701505Y-108257204D02*
G01*
X135725773Y-108260804D01*
X135749572Y-108266765D01*
X135772671Y-108275030D01*
X135794850Y-108285520D01*
X135815893Y-108298132D01*
X135835599Y-108312747D01*
X135853777Y-108329223D01*
X135870253Y-108347401D01*
X135884868Y-108367107D01*
X135897480Y-108388150D01*
X135907970Y-108410329D01*
X135916235Y-108433428D01*
X135922196Y-108457227D01*
X135925796Y-108481495D01*
X135927000Y-108505999D01*
X135927000Y-109156001D01*
X135925796Y-109180505D01*
X135922196Y-109204773D01*
X135916235Y-109228572D01*
X135907970Y-109251671D01*
X135897480Y-109273850D01*
X135884868Y-109294893D01*
X135870253Y-109314599D01*
X135853777Y-109332777D01*
X135835599Y-109349253D01*
X135815893Y-109363868D01*
X135794850Y-109376480D01*
X135772671Y-109386970D01*
X135749572Y-109395235D01*
X135725773Y-109401196D01*
X135701505Y-109404796D01*
X135677001Y-109406000D01*
X134776999Y-109406000D01*
X134752495Y-109404796D01*
X134728227Y-109401196D01*
X134704428Y-109395235D01*
X134681329Y-109386970D01*
X134659150Y-109376480D01*
X134638107Y-109363868D01*
X134618401Y-109349253D01*
X134600223Y-109332777D01*
X134583747Y-109314599D01*
X134569132Y-109294893D01*
X134556520Y-109273850D01*
X134546030Y-109251671D01*
X134537765Y-109228572D01*
X134531804Y-109204773D01*
X134528204Y-109180505D01*
X134527000Y-109156001D01*
X134527000Y-108505999D01*
X134528204Y-108481495D01*
X134531804Y-108457227D01*
X134537765Y-108433428D01*
X134546030Y-108410329D01*
X134556520Y-108388150D01*
X134569132Y-108367107D01*
X134583747Y-108347401D01*
X134600223Y-108329223D01*
X134618401Y-108312747D01*
X134638107Y-108298132D01*
X134659150Y-108285520D01*
X134681329Y-108275030D01*
X134704428Y-108266765D01*
X134728227Y-108260804D01*
X134752495Y-108257204D01*
X134776999Y-108256000D01*
X135677001Y-108256000D01*
X135701505Y-108257204D01*
G37*
G36*
X147620005Y-116277204D02*
G01*
X147644273Y-116280804D01*
X147668072Y-116286765D01*
X147691171Y-116295030D01*
X147713350Y-116305520D01*
X147734393Y-116318132D01*
X147754099Y-116332747D01*
X147772277Y-116349223D01*
X147788753Y-116367401D01*
X147803368Y-116387107D01*
X147815980Y-116408150D01*
X147826470Y-116430329D01*
X147834735Y-116453428D01*
X147840696Y-116477227D01*
X147844296Y-116501495D01*
X147845500Y-116525999D01*
X147845500Y-117376001D01*
X147844296Y-117400505D01*
X147840696Y-117424773D01*
X147834735Y-117448572D01*
X147826470Y-117471671D01*
X147815980Y-117493850D01*
X147803368Y-117514893D01*
X147788753Y-117534599D01*
X147772277Y-117552777D01*
X147754099Y-117569253D01*
X147734393Y-117583868D01*
X147713350Y-117596480D01*
X147691171Y-117606970D01*
X147668072Y-117615235D01*
X147644273Y-117621196D01*
X147620005Y-117624796D01*
X147595501Y-117626000D01*
X146520499Y-117626000D01*
X146495995Y-117624796D01*
X146471727Y-117621196D01*
X146447928Y-117615235D01*
X146424829Y-117606970D01*
X146402650Y-117596480D01*
X146381607Y-117583868D01*
X146361901Y-117569253D01*
X146343723Y-117552777D01*
X146327247Y-117534599D01*
X146312632Y-117514893D01*
X146300020Y-117493850D01*
X146289530Y-117471671D01*
X146281265Y-117448572D01*
X146275304Y-117424773D01*
X146271704Y-117400505D01*
X146270500Y-117376001D01*
X146270500Y-116525999D01*
X146271704Y-116501495D01*
X146275304Y-116477227D01*
X146281265Y-116453428D01*
X146289530Y-116430329D01*
X146300020Y-116408150D01*
X146312632Y-116387107D01*
X146327247Y-116367401D01*
X146343723Y-116349223D01*
X146361901Y-116332747D01*
X146381607Y-116318132D01*
X146402650Y-116305520D01*
X146424829Y-116295030D01*
X146447928Y-116286765D01*
X146471727Y-116280804D01*
X146495995Y-116277204D01*
X146520499Y-116276000D01*
X147595501Y-116276000D01*
X147620005Y-116277204D01*
G37*
G36*
X144745005Y-116277204D02*
G01*
X144769273Y-116280804D01*
X144793072Y-116286765D01*
X144816171Y-116295030D01*
X144838350Y-116305520D01*
X144859393Y-116318132D01*
X144879099Y-116332747D01*
X144897277Y-116349223D01*
X144913753Y-116367401D01*
X144928368Y-116387107D01*
X144940980Y-116408150D01*
X144951470Y-116430329D01*
X144959735Y-116453428D01*
X144965696Y-116477227D01*
X144969296Y-116501495D01*
X144970500Y-116525999D01*
X144970500Y-117376001D01*
X144969296Y-117400505D01*
X144965696Y-117424773D01*
X144959735Y-117448572D01*
X144951470Y-117471671D01*
X144940980Y-117493850D01*
X144928368Y-117514893D01*
X144913753Y-117534599D01*
X144897277Y-117552777D01*
X144879099Y-117569253D01*
X144859393Y-117583868D01*
X144838350Y-117596480D01*
X144816171Y-117606970D01*
X144793072Y-117615235D01*
X144769273Y-117621196D01*
X144745005Y-117624796D01*
X144720501Y-117626000D01*
X143645499Y-117626000D01*
X143620995Y-117624796D01*
X143596727Y-117621196D01*
X143572928Y-117615235D01*
X143549829Y-117606970D01*
X143527650Y-117596480D01*
X143506607Y-117583868D01*
X143486901Y-117569253D01*
X143468723Y-117552777D01*
X143452247Y-117534599D01*
X143437632Y-117514893D01*
X143425020Y-117493850D01*
X143414530Y-117471671D01*
X143406265Y-117448572D01*
X143400304Y-117424773D01*
X143396704Y-117400505D01*
X143395500Y-117376001D01*
X143395500Y-116525999D01*
X143396704Y-116501495D01*
X143400304Y-116477227D01*
X143406265Y-116453428D01*
X143414530Y-116430329D01*
X143425020Y-116408150D01*
X143437632Y-116387107D01*
X143452247Y-116367401D01*
X143468723Y-116349223D01*
X143486901Y-116332747D01*
X143506607Y-116318132D01*
X143527650Y-116305520D01*
X143549829Y-116295030D01*
X143572928Y-116286765D01*
X143596727Y-116280804D01*
X143620995Y-116277204D01*
X143645499Y-116276000D01*
X144720501Y-116276000D01*
X144745005Y-116277204D01*
G37*
G36*
X147842505Y-100583204D02*
G01*
X147866773Y-100586804D01*
X147890572Y-100592765D01*
X147913671Y-100601030D01*
X147935850Y-100611520D01*
X147956893Y-100624132D01*
X147976599Y-100638747D01*
X147994777Y-100655223D01*
X148011253Y-100673401D01*
X148025868Y-100693107D01*
X148038480Y-100714150D01*
X148048970Y-100736329D01*
X148057235Y-100759428D01*
X148063196Y-100783227D01*
X148066796Y-100807495D01*
X148068000Y-100831999D01*
X148068000Y-101482001D01*
X148066796Y-101506505D01*
X148063196Y-101530773D01*
X148057235Y-101554572D01*
X148048970Y-101577671D01*
X148038480Y-101599850D01*
X148025868Y-101620893D01*
X148011253Y-101640599D01*
X147994777Y-101658777D01*
X147976599Y-101675253D01*
X147956893Y-101689868D01*
X147935850Y-101702480D01*
X147913671Y-101712970D01*
X147890572Y-101721235D01*
X147866773Y-101727196D01*
X147842505Y-101730796D01*
X147818001Y-101732000D01*
X146917999Y-101732000D01*
X146893495Y-101730796D01*
X146869227Y-101727196D01*
X146845428Y-101721235D01*
X146822329Y-101712970D01*
X146800150Y-101702480D01*
X146779107Y-101689868D01*
X146759401Y-101675253D01*
X146741223Y-101658777D01*
X146724747Y-101640599D01*
X146710132Y-101620893D01*
X146697520Y-101599850D01*
X146687030Y-101577671D01*
X146678765Y-101554572D01*
X146672804Y-101530773D01*
X146669204Y-101506505D01*
X146668000Y-101482001D01*
X146668000Y-100831999D01*
X146669204Y-100807495D01*
X146672804Y-100783227D01*
X146678765Y-100759428D01*
X146687030Y-100736329D01*
X146697520Y-100714150D01*
X146710132Y-100693107D01*
X146724747Y-100673401D01*
X146741223Y-100655223D01*
X146759401Y-100638747D01*
X146779107Y-100624132D01*
X146800150Y-100611520D01*
X146822329Y-100601030D01*
X146845428Y-100592765D01*
X146869227Y-100586804D01*
X146893495Y-100583204D01*
X146917999Y-100582000D01*
X147818001Y-100582000D01*
X147842505Y-100583204D01*
G37*
G36*
X147842505Y-102633204D02*
G01*
X147866773Y-102636804D01*
X147890572Y-102642765D01*
X147913671Y-102651030D01*
X147935850Y-102661520D01*
X147956893Y-102674132D01*
X147976599Y-102688747D01*
X147994777Y-102705223D01*
X148011253Y-102723401D01*
X148025868Y-102743107D01*
X148038480Y-102764150D01*
X148048970Y-102786329D01*
X148057235Y-102809428D01*
X148063196Y-102833227D01*
X148066796Y-102857495D01*
X148068000Y-102881999D01*
X148068000Y-103532001D01*
X148066796Y-103556505D01*
X148063196Y-103580773D01*
X148057235Y-103604572D01*
X148048970Y-103627671D01*
X148038480Y-103649850D01*
X148025868Y-103670893D01*
X148011253Y-103690599D01*
X147994777Y-103708777D01*
X147976599Y-103725253D01*
X147956893Y-103739868D01*
X147935850Y-103752480D01*
X147913671Y-103762970D01*
X147890572Y-103771235D01*
X147866773Y-103777196D01*
X147842505Y-103780796D01*
X147818001Y-103782000D01*
X146917999Y-103782000D01*
X146893495Y-103780796D01*
X146869227Y-103777196D01*
X146845428Y-103771235D01*
X146822329Y-103762970D01*
X146800150Y-103752480D01*
X146779107Y-103739868D01*
X146759401Y-103725253D01*
X146741223Y-103708777D01*
X146724747Y-103690599D01*
X146710132Y-103670893D01*
X146697520Y-103649850D01*
X146687030Y-103627671D01*
X146678765Y-103604572D01*
X146672804Y-103580773D01*
X146669204Y-103556505D01*
X146668000Y-103532001D01*
X146668000Y-102881999D01*
X146669204Y-102857495D01*
X146672804Y-102833227D01*
X146678765Y-102809428D01*
X146687030Y-102786329D01*
X146697520Y-102764150D01*
X146710132Y-102743107D01*
X146724747Y-102723401D01*
X146741223Y-102705223D01*
X146759401Y-102688747D01*
X146779107Y-102674132D01*
X146800150Y-102661520D01*
X146822329Y-102651030D01*
X146845428Y-102642765D01*
X146869227Y-102636804D01*
X146893495Y-102633204D01*
X146917999Y-102632000D01*
X147818001Y-102632000D01*
X147842505Y-102633204D01*
G37*
M02*
