G04 #@! TF.GenerationSoftware,KiCad,Pcbnew,(5.1.5)-3*
G04 #@! TF.CreationDate,2020-07-15T20:50:45-05:00*
G04 #@! TF.ProjectId,MaquinaCovid,4d617175-696e-4614-936f-7669642e6b69,rev?*
G04 #@! TF.SameCoordinates,Original*
G04 #@! TF.FileFunction,Soldermask,Bot*
G04 #@! TF.FilePolarity,Negative*
%FSLAX46Y46*%
G04 Gerber Fmt 4.6, Leading zero omitted, Abs format (unit mm)*
G04 Created by KiCad (PCBNEW (5.1.5)-3) date 2020-07-15 20:50:45*
%MOMM*%
%LPD*%
G04 APERTURE LIST*
%ADD10C,0.100000*%
G04 APERTURE END LIST*
D10*
G36*
X153318000Y-130508000D02*
G01*
X150216000Y-130508000D01*
X150216000Y-127406000D01*
X153318000Y-127406000D01*
X153318000Y-130508000D01*
G37*
G36*
X146989585Y-127435802D02*
G01*
X147139410Y-127465604D01*
X147421674Y-127582521D01*
X147675705Y-127752259D01*
X147891741Y-127968295D01*
X148061479Y-128222326D01*
X148178396Y-128504590D01*
X148194502Y-128585560D01*
X148237006Y-128799240D01*
X148238000Y-128804240D01*
X148238000Y-129109760D01*
X148178396Y-129409410D01*
X148061479Y-129691674D01*
X147891741Y-129945705D01*
X147675705Y-130161741D01*
X147421674Y-130331479D01*
X147139410Y-130448396D01*
X146989585Y-130478198D01*
X146839761Y-130508000D01*
X146534239Y-130508000D01*
X146384415Y-130478198D01*
X146234590Y-130448396D01*
X145952326Y-130331479D01*
X145698295Y-130161741D01*
X145482259Y-129945705D01*
X145312521Y-129691674D01*
X145195604Y-129409410D01*
X145136000Y-129109760D01*
X145136000Y-128804240D01*
X145136995Y-128799240D01*
X145179498Y-128585560D01*
X145195604Y-128504590D01*
X145312521Y-128222326D01*
X145482259Y-127968295D01*
X145698295Y-127752259D01*
X145952326Y-127582521D01*
X146234590Y-127465604D01*
X146384415Y-127435802D01*
X146534239Y-127406000D01*
X146839761Y-127406000D01*
X146989585Y-127435802D01*
G37*
G36*
X162387585Y-127430802D02*
G01*
X162537410Y-127460604D01*
X162819674Y-127577521D01*
X163073705Y-127747259D01*
X163289741Y-127963295D01*
X163459479Y-128217326D01*
X163576396Y-128499590D01*
X163577391Y-128504591D01*
X163636000Y-128799239D01*
X163636000Y-129104761D01*
X163624902Y-129160552D01*
X163576396Y-129404410D01*
X163459479Y-129686674D01*
X163289741Y-129940705D01*
X163073705Y-130156741D01*
X162819674Y-130326479D01*
X162537410Y-130443396D01*
X162387585Y-130473198D01*
X162237761Y-130503000D01*
X161932239Y-130503000D01*
X161782415Y-130473198D01*
X161632590Y-130443396D01*
X161350326Y-130326479D01*
X161096295Y-130156741D01*
X160880259Y-129940705D01*
X160710521Y-129686674D01*
X160593604Y-129404410D01*
X160545098Y-129160552D01*
X160534000Y-129104761D01*
X160534000Y-128799239D01*
X160592609Y-128504591D01*
X160593604Y-128499590D01*
X160710521Y-128217326D01*
X160880259Y-127963295D01*
X161096295Y-127747259D01*
X161350326Y-127577521D01*
X161632590Y-127460604D01*
X161782415Y-127430802D01*
X161932239Y-127401000D01*
X162237761Y-127401000D01*
X162387585Y-127430802D01*
G37*
G36*
X157307585Y-127430802D02*
G01*
X157457410Y-127460604D01*
X157739674Y-127577521D01*
X157993705Y-127747259D01*
X158209741Y-127963295D01*
X158379479Y-128217326D01*
X158496396Y-128499590D01*
X158497391Y-128504591D01*
X158556000Y-128799239D01*
X158556000Y-129104761D01*
X158544902Y-129160552D01*
X158496396Y-129404410D01*
X158379479Y-129686674D01*
X158209741Y-129940705D01*
X157993705Y-130156741D01*
X157739674Y-130326479D01*
X157457410Y-130443396D01*
X157307585Y-130473198D01*
X157157761Y-130503000D01*
X156852239Y-130503000D01*
X156702415Y-130473198D01*
X156552590Y-130443396D01*
X156270326Y-130326479D01*
X156016295Y-130156741D01*
X155800259Y-129940705D01*
X155630521Y-129686674D01*
X155513604Y-129404410D01*
X155465098Y-129160552D01*
X155454000Y-129104761D01*
X155454000Y-128799239D01*
X155512609Y-128504591D01*
X155513604Y-128499590D01*
X155630521Y-128217326D01*
X155800259Y-127963295D01*
X156016295Y-127747259D01*
X156270326Y-127577521D01*
X156552590Y-127460604D01*
X156702415Y-127430802D01*
X156852239Y-127401000D01*
X157157761Y-127401000D01*
X157307585Y-127430802D01*
G37*
G36*
X177627585Y-127430802D02*
G01*
X177777410Y-127460604D01*
X178059674Y-127577521D01*
X178313705Y-127747259D01*
X178529741Y-127963295D01*
X178699479Y-128217326D01*
X178816396Y-128499590D01*
X178817391Y-128504591D01*
X178876000Y-128799239D01*
X178876000Y-129104761D01*
X178864902Y-129160552D01*
X178816396Y-129404410D01*
X178699479Y-129686674D01*
X178529741Y-129940705D01*
X178313705Y-130156741D01*
X178059674Y-130326479D01*
X177777410Y-130443396D01*
X177627585Y-130473198D01*
X177477761Y-130503000D01*
X177172239Y-130503000D01*
X177022415Y-130473198D01*
X176872590Y-130443396D01*
X176590326Y-130326479D01*
X176336295Y-130156741D01*
X176120259Y-129940705D01*
X175950521Y-129686674D01*
X175833604Y-129404410D01*
X175785098Y-129160552D01*
X175774000Y-129104761D01*
X175774000Y-128799239D01*
X175832609Y-128504591D01*
X175833604Y-128499590D01*
X175950521Y-128217326D01*
X176120259Y-127963295D01*
X176336295Y-127747259D01*
X176590326Y-127577521D01*
X176872590Y-127460604D01*
X177022415Y-127430802D01*
X177172239Y-127401000D01*
X177477761Y-127401000D01*
X177627585Y-127430802D01*
G37*
G36*
X172547585Y-127430802D02*
G01*
X172697410Y-127460604D01*
X172979674Y-127577521D01*
X173233705Y-127747259D01*
X173449741Y-127963295D01*
X173619479Y-128217326D01*
X173736396Y-128499590D01*
X173737391Y-128504591D01*
X173796000Y-128799239D01*
X173796000Y-129104761D01*
X173784902Y-129160552D01*
X173736396Y-129404410D01*
X173619479Y-129686674D01*
X173449741Y-129940705D01*
X173233705Y-130156741D01*
X172979674Y-130326479D01*
X172697410Y-130443396D01*
X172547585Y-130473198D01*
X172397761Y-130503000D01*
X172092239Y-130503000D01*
X171942415Y-130473198D01*
X171792590Y-130443396D01*
X171510326Y-130326479D01*
X171256295Y-130156741D01*
X171040259Y-129940705D01*
X170870521Y-129686674D01*
X170753604Y-129404410D01*
X170705098Y-129160552D01*
X170694000Y-129104761D01*
X170694000Y-128799239D01*
X170752609Y-128504591D01*
X170753604Y-128499590D01*
X170870521Y-128217326D01*
X171040259Y-127963295D01*
X171256295Y-127747259D01*
X171510326Y-127577521D01*
X171792590Y-127460604D01*
X171942415Y-127430802D01*
X172092239Y-127401000D01*
X172397761Y-127401000D01*
X172547585Y-127430802D01*
G37*
G36*
X183956000Y-130503000D02*
G01*
X180854000Y-130503000D01*
X180854000Y-127401000D01*
X183956000Y-127401000D01*
X183956000Y-130503000D01*
G37*
G36*
X167467585Y-127430802D02*
G01*
X167617410Y-127460604D01*
X167899674Y-127577521D01*
X168153705Y-127747259D01*
X168369741Y-127963295D01*
X168539479Y-128217326D01*
X168656396Y-128499590D01*
X168657391Y-128504591D01*
X168716000Y-128799239D01*
X168716000Y-129104761D01*
X168704902Y-129160552D01*
X168656396Y-129404410D01*
X168539479Y-129686674D01*
X168369741Y-129940705D01*
X168153705Y-130156741D01*
X167899674Y-130326479D01*
X167617410Y-130443396D01*
X167467585Y-130473198D01*
X167317761Y-130503000D01*
X167012239Y-130503000D01*
X166862415Y-130473198D01*
X166712590Y-130443396D01*
X166430326Y-130326479D01*
X166176295Y-130156741D01*
X165960259Y-129940705D01*
X165790521Y-129686674D01*
X165673604Y-129404410D01*
X165625098Y-129160552D01*
X165614000Y-129104761D01*
X165614000Y-128799239D01*
X165672609Y-128504591D01*
X165673604Y-128499590D01*
X165790521Y-128217326D01*
X165960259Y-127963295D01*
X166176295Y-127747259D01*
X166430326Y-127577521D01*
X166712590Y-127460604D01*
X166862415Y-127430802D01*
X167012239Y-127401000D01*
X167317761Y-127401000D01*
X167467585Y-127430802D01*
G37*
G36*
X100550239Y-123987467D02*
G01*
X100864282Y-124049934D01*
X101455926Y-124295001D01*
X101988392Y-124650784D01*
X102441216Y-125103608D01*
X102796999Y-125636074D01*
X103042066Y-126227718D01*
X103042066Y-126227719D01*
X103167000Y-126855803D01*
X103167000Y-127496197D01*
X103117060Y-127747260D01*
X103042066Y-128124282D01*
X102796999Y-128715926D01*
X102441216Y-129248392D01*
X101988392Y-129701216D01*
X101455926Y-130056999D01*
X100864282Y-130302066D01*
X100550239Y-130364533D01*
X100236197Y-130427000D01*
X99595803Y-130427000D01*
X99281761Y-130364533D01*
X98967718Y-130302066D01*
X98376074Y-130056999D01*
X97843608Y-129701216D01*
X97390784Y-129248392D01*
X97035001Y-128715926D01*
X96789934Y-128124282D01*
X96714940Y-127747260D01*
X96665000Y-127496197D01*
X96665000Y-126855803D01*
X96789934Y-126227719D01*
X96789934Y-126227718D01*
X97035001Y-125636074D01*
X97390784Y-125103608D01*
X97843608Y-124650784D01*
X98376074Y-124295001D01*
X98967718Y-124049934D01*
X99281761Y-123987467D01*
X99595803Y-123925000D01*
X100236197Y-123925000D01*
X100550239Y-123987467D01*
G37*
G36*
X190574239Y-123987467D02*
G01*
X190888282Y-124049934D01*
X191479926Y-124295001D01*
X192012392Y-124650784D01*
X192465216Y-125103608D01*
X192820999Y-125636074D01*
X193066066Y-126227718D01*
X193066066Y-126227719D01*
X193191000Y-126855803D01*
X193191000Y-127496197D01*
X193141060Y-127747260D01*
X193066066Y-128124282D01*
X192820999Y-128715926D01*
X192465216Y-129248392D01*
X192012392Y-129701216D01*
X191479926Y-130056999D01*
X190888282Y-130302066D01*
X190574239Y-130364533D01*
X190260197Y-130427000D01*
X189619803Y-130427000D01*
X189305761Y-130364533D01*
X188991718Y-130302066D01*
X188400074Y-130056999D01*
X187867608Y-129701216D01*
X187414784Y-129248392D01*
X187059001Y-128715926D01*
X186813934Y-128124282D01*
X186738940Y-127747260D01*
X186689000Y-127496197D01*
X186689000Y-126855803D01*
X186813934Y-126227719D01*
X186813934Y-126227718D01*
X187059001Y-125636074D01*
X187414784Y-125103608D01*
X187867608Y-124650784D01*
X188400074Y-124295001D01*
X188991718Y-124049934D01*
X189305761Y-123987467D01*
X189619803Y-123925000D01*
X190260197Y-123925000D01*
X190574239Y-123987467D01*
G37*
G36*
X134924239Y-123987467D02*
G01*
X135238282Y-124049934D01*
X135829926Y-124295001D01*
X136362392Y-124650784D01*
X136815216Y-125103608D01*
X137170999Y-125636074D01*
X137416066Y-126227718D01*
X137416066Y-126227719D01*
X137541000Y-126855803D01*
X137541000Y-127496197D01*
X137491060Y-127747260D01*
X137416066Y-128124282D01*
X137170999Y-128715926D01*
X136815216Y-129248392D01*
X136362392Y-129701216D01*
X135829926Y-130056999D01*
X135238282Y-130302066D01*
X134924239Y-130364533D01*
X134610197Y-130427000D01*
X133969803Y-130427000D01*
X133655761Y-130364533D01*
X133341718Y-130302066D01*
X132750074Y-130056999D01*
X132217608Y-129701216D01*
X131764784Y-129248392D01*
X131409001Y-128715926D01*
X131163934Y-128124282D01*
X131088940Y-127747260D01*
X131039000Y-127496197D01*
X131039000Y-126855803D01*
X131163934Y-126227719D01*
X131163934Y-126227718D01*
X131409001Y-125636074D01*
X131764784Y-125103608D01*
X132217608Y-124650784D01*
X132750074Y-124295001D01*
X133341718Y-124049934D01*
X133655761Y-123987467D01*
X133969803Y-123925000D01*
X134610197Y-123925000D01*
X134924239Y-123987467D01*
G37*
G36*
X190419000Y-121400000D02*
G01*
X188617000Y-121400000D01*
X188617000Y-119598000D01*
X190419000Y-119598000D01*
X190419000Y-121400000D01*
G37*
G36*
X189631512Y-117062927D02*
G01*
X189780812Y-117092624D01*
X189944784Y-117160544D01*
X190092354Y-117259147D01*
X190217853Y-117384646D01*
X190316456Y-117532216D01*
X190384376Y-117696188D01*
X190419000Y-117870259D01*
X190419000Y-118047741D01*
X190384376Y-118221812D01*
X190316456Y-118385784D01*
X190217853Y-118533354D01*
X190092354Y-118658853D01*
X189944784Y-118757456D01*
X189780812Y-118825376D01*
X189631512Y-118855073D01*
X189606742Y-118860000D01*
X189429258Y-118860000D01*
X189404488Y-118855073D01*
X189255188Y-118825376D01*
X189091216Y-118757456D01*
X188943646Y-118658853D01*
X188818147Y-118533354D01*
X188719544Y-118385784D01*
X188651624Y-118221812D01*
X188617000Y-118047741D01*
X188617000Y-117870259D01*
X188651624Y-117696188D01*
X188719544Y-117532216D01*
X188818147Y-117384646D01*
X188943646Y-117259147D01*
X189091216Y-117160544D01*
X189255188Y-117092624D01*
X189404488Y-117062927D01*
X189429258Y-117058000D01*
X189606742Y-117058000D01*
X189631512Y-117062927D01*
G37*
G36*
X189631512Y-114522927D02*
G01*
X189780812Y-114552624D01*
X189944784Y-114620544D01*
X190092354Y-114719147D01*
X190217853Y-114844646D01*
X190316456Y-114992216D01*
X190384376Y-115156188D01*
X190419000Y-115330259D01*
X190419000Y-115507741D01*
X190384376Y-115681812D01*
X190316456Y-115845784D01*
X190217853Y-115993354D01*
X190092354Y-116118853D01*
X189944784Y-116217456D01*
X189780812Y-116285376D01*
X189631512Y-116315073D01*
X189606742Y-116320000D01*
X189429258Y-116320000D01*
X189404488Y-116315073D01*
X189255188Y-116285376D01*
X189091216Y-116217456D01*
X188943646Y-116118853D01*
X188818147Y-115993354D01*
X188719544Y-115845784D01*
X188651624Y-115681812D01*
X188617000Y-115507741D01*
X188617000Y-115330259D01*
X188651624Y-115156188D01*
X188719544Y-114992216D01*
X188818147Y-114844646D01*
X188943646Y-114719147D01*
X189091216Y-114620544D01*
X189255188Y-114552624D01*
X189404488Y-114522927D01*
X189429258Y-114518000D01*
X189606742Y-114518000D01*
X189631512Y-114522927D01*
G37*
G36*
X189631512Y-111982927D02*
G01*
X189780812Y-112012624D01*
X189944784Y-112080544D01*
X190092354Y-112179147D01*
X190217853Y-112304646D01*
X190316456Y-112452216D01*
X190384376Y-112616188D01*
X190419000Y-112790259D01*
X190419000Y-112967741D01*
X190384376Y-113141812D01*
X190316456Y-113305784D01*
X190217853Y-113453354D01*
X190092354Y-113578853D01*
X189944784Y-113677456D01*
X189780812Y-113745376D01*
X189631512Y-113775073D01*
X189606742Y-113780000D01*
X189429258Y-113780000D01*
X189404488Y-113775073D01*
X189255188Y-113745376D01*
X189091216Y-113677456D01*
X188943646Y-113578853D01*
X188818147Y-113453354D01*
X188719544Y-113305784D01*
X188651624Y-113141812D01*
X188617000Y-112967741D01*
X188617000Y-112790259D01*
X188651624Y-112616188D01*
X188719544Y-112452216D01*
X188818147Y-112304646D01*
X188943646Y-112179147D01*
X189091216Y-112080544D01*
X189255188Y-112012624D01*
X189404488Y-111982927D01*
X189429258Y-111978000D01*
X189606742Y-111978000D01*
X189631512Y-111982927D01*
G37*
G36*
X116082395Y-110257546D02*
G01*
X116255466Y-110329234D01*
X116255467Y-110329235D01*
X116411227Y-110433310D01*
X116543690Y-110565773D01*
X116543691Y-110565775D01*
X116647766Y-110721534D01*
X116719454Y-110894605D01*
X116756000Y-111078333D01*
X116756000Y-111265667D01*
X116719454Y-111449395D01*
X116647766Y-111622466D01*
X116647765Y-111622467D01*
X116543690Y-111778227D01*
X116411227Y-111910690D01*
X116332818Y-111963081D01*
X116255466Y-112014766D01*
X116082395Y-112086454D01*
X115898667Y-112123000D01*
X115711333Y-112123000D01*
X115527605Y-112086454D01*
X115354534Y-112014766D01*
X115277182Y-111963081D01*
X115198773Y-111910690D01*
X115066310Y-111778227D01*
X114962235Y-111622467D01*
X114962234Y-111622466D01*
X114890546Y-111449395D01*
X114854000Y-111265667D01*
X114854000Y-111078333D01*
X114890546Y-110894605D01*
X114962234Y-110721534D01*
X115066309Y-110565775D01*
X115066310Y-110565773D01*
X115198773Y-110433310D01*
X115354533Y-110329235D01*
X115354534Y-110329234D01*
X115527605Y-110257546D01*
X115711333Y-110221000D01*
X115898667Y-110221000D01*
X116082395Y-110257546D01*
G37*
G36*
X118482395Y-110257546D02*
G01*
X118655466Y-110329234D01*
X118655467Y-110329235D01*
X118811227Y-110433310D01*
X118943690Y-110565773D01*
X118943691Y-110565775D01*
X119047766Y-110721534D01*
X119119454Y-110894605D01*
X119156000Y-111078333D01*
X119156000Y-111265667D01*
X119119454Y-111449395D01*
X119047766Y-111622466D01*
X119047765Y-111622467D01*
X118943690Y-111778227D01*
X118811227Y-111910690D01*
X118732818Y-111963081D01*
X118655466Y-112014766D01*
X118482395Y-112086454D01*
X118298667Y-112123000D01*
X118111333Y-112123000D01*
X117927605Y-112086454D01*
X117754534Y-112014766D01*
X117677182Y-111963081D01*
X117598773Y-111910690D01*
X117466310Y-111778227D01*
X117362235Y-111622467D01*
X117362234Y-111622466D01*
X117290546Y-111449395D01*
X117254000Y-111265667D01*
X117254000Y-111078333D01*
X117290546Y-110894605D01*
X117362234Y-110721534D01*
X117466309Y-110565775D01*
X117466310Y-110565773D01*
X117598773Y-110433310D01*
X117754533Y-110329235D01*
X117754534Y-110329234D01*
X117927605Y-110257546D01*
X118111333Y-110221000D01*
X118298667Y-110221000D01*
X118482395Y-110257546D01*
G37*
G36*
X102638000Y-105635000D02*
G01*
X99536000Y-105635000D01*
X99536000Y-102533000D01*
X102638000Y-102533000D01*
X102638000Y-105635000D01*
G37*
G36*
X189555512Y-99555927D02*
G01*
X189704812Y-99585624D01*
X189868784Y-99653544D01*
X190016354Y-99752147D01*
X190141853Y-99877646D01*
X190240456Y-100025216D01*
X190308376Y-100189188D01*
X190343000Y-100363259D01*
X190343000Y-100540741D01*
X190308376Y-100714812D01*
X190240456Y-100878784D01*
X190141853Y-101026354D01*
X190016354Y-101151853D01*
X189868784Y-101250456D01*
X189704812Y-101318376D01*
X189555512Y-101348073D01*
X189530742Y-101353000D01*
X189353258Y-101353000D01*
X189328488Y-101348073D01*
X189179188Y-101318376D01*
X189015216Y-101250456D01*
X188867646Y-101151853D01*
X188742147Y-101026354D01*
X188643544Y-100878784D01*
X188575624Y-100714812D01*
X188541000Y-100540741D01*
X188541000Y-100363259D01*
X188575624Y-100189188D01*
X188643544Y-100025216D01*
X188742147Y-99877646D01*
X188867646Y-99752147D01*
X189015216Y-99653544D01*
X189179188Y-99585624D01*
X189328488Y-99555927D01*
X189353258Y-99551000D01*
X189530742Y-99551000D01*
X189555512Y-99555927D01*
G37*
G36*
X101389585Y-97482802D02*
G01*
X101539410Y-97512604D01*
X101821674Y-97629521D01*
X102075705Y-97799259D01*
X102291741Y-98015295D01*
X102461479Y-98269326D01*
X102490248Y-98338782D01*
X102578396Y-98551591D01*
X102623507Y-98778376D01*
X102638000Y-98851240D01*
X102638000Y-99156760D01*
X102578396Y-99456410D01*
X102461479Y-99738674D01*
X102291741Y-99992705D01*
X102075705Y-100208741D01*
X101821674Y-100378479D01*
X101539410Y-100495396D01*
X101389585Y-100525198D01*
X101239761Y-100555000D01*
X100934239Y-100555000D01*
X100784415Y-100525198D01*
X100634590Y-100495396D01*
X100352326Y-100378479D01*
X100098295Y-100208741D01*
X99882259Y-99992705D01*
X99712521Y-99738674D01*
X99595604Y-99456410D01*
X99536000Y-99156760D01*
X99536000Y-98851240D01*
X99550494Y-98778376D01*
X99595604Y-98551591D01*
X99683752Y-98338782D01*
X99712521Y-98269326D01*
X99882259Y-98015295D01*
X100098295Y-97799259D01*
X100352326Y-97629521D01*
X100634590Y-97512604D01*
X100784415Y-97482802D01*
X100934239Y-97453000D01*
X101239761Y-97453000D01*
X101389585Y-97482802D01*
G37*
G36*
X189555512Y-97015927D02*
G01*
X189704812Y-97045624D01*
X189868784Y-97113544D01*
X190016354Y-97212147D01*
X190141853Y-97337646D01*
X190240456Y-97485216D01*
X190308376Y-97649188D01*
X190343000Y-97823259D01*
X190343000Y-98000741D01*
X190308376Y-98174812D01*
X190240456Y-98338784D01*
X190141853Y-98486354D01*
X190016354Y-98611853D01*
X189868784Y-98710456D01*
X189704812Y-98778376D01*
X189555512Y-98808073D01*
X189530742Y-98813000D01*
X189353258Y-98813000D01*
X189328488Y-98808073D01*
X189179188Y-98778376D01*
X189015216Y-98710456D01*
X188867646Y-98611853D01*
X188742147Y-98486354D01*
X188643544Y-98338784D01*
X188575624Y-98174812D01*
X188541000Y-98000741D01*
X188541000Y-97823259D01*
X188575624Y-97649188D01*
X188643544Y-97485216D01*
X188742147Y-97337646D01*
X188867646Y-97212147D01*
X189015216Y-97113544D01*
X189179188Y-97045624D01*
X189328488Y-97015927D01*
X189353258Y-97011000D01*
X189530742Y-97011000D01*
X189555512Y-97015927D01*
G37*
G36*
X189555512Y-94475927D02*
G01*
X189704812Y-94505624D01*
X189868784Y-94573544D01*
X190016354Y-94672147D01*
X190141853Y-94797646D01*
X190240456Y-94945216D01*
X190308376Y-95109188D01*
X190343000Y-95283259D01*
X190343000Y-95460741D01*
X190308376Y-95634812D01*
X190240456Y-95798784D01*
X190141853Y-95946354D01*
X190016354Y-96071853D01*
X189868784Y-96170456D01*
X189704812Y-96238376D01*
X189555512Y-96268073D01*
X189530742Y-96273000D01*
X189353258Y-96273000D01*
X189328488Y-96268073D01*
X189179188Y-96238376D01*
X189015216Y-96170456D01*
X188867646Y-96071853D01*
X188742147Y-95946354D01*
X188643544Y-95798784D01*
X188575624Y-95634812D01*
X188541000Y-95460741D01*
X188541000Y-95283259D01*
X188575624Y-95109188D01*
X188643544Y-94945216D01*
X188742147Y-94797646D01*
X188867646Y-94672147D01*
X189015216Y-94573544D01*
X189179188Y-94505624D01*
X189328488Y-94475927D01*
X189353258Y-94471000D01*
X189530742Y-94471000D01*
X189555512Y-94475927D01*
G37*
G36*
X101389585Y-92402802D02*
G01*
X101539410Y-92432604D01*
X101821674Y-92549521D01*
X102075705Y-92719259D01*
X102291741Y-92935295D01*
X102461479Y-93189326D01*
X102490248Y-93258782D01*
X102578396Y-93471591D01*
X102623507Y-93698376D01*
X102638000Y-93771240D01*
X102638000Y-94076760D01*
X102578396Y-94376410D01*
X102461479Y-94658674D01*
X102291741Y-94912705D01*
X102075705Y-95128741D01*
X101821674Y-95298479D01*
X101539410Y-95415396D01*
X101389585Y-95445198D01*
X101239761Y-95475000D01*
X100934239Y-95475000D01*
X100784415Y-95445198D01*
X100634590Y-95415396D01*
X100352326Y-95298479D01*
X100098295Y-95128741D01*
X99882259Y-94912705D01*
X99712521Y-94658674D01*
X99595604Y-94376410D01*
X99536000Y-94076760D01*
X99536000Y-93771240D01*
X99550494Y-93698376D01*
X99595604Y-93471591D01*
X99683752Y-93258782D01*
X99712521Y-93189326D01*
X99882259Y-92935295D01*
X100098295Y-92719259D01*
X100352326Y-92549521D01*
X100634590Y-92432604D01*
X100784415Y-92402802D01*
X100934239Y-92373000D01*
X101239761Y-92373000D01*
X101389585Y-92402802D01*
G37*
G36*
X189555512Y-91935927D02*
G01*
X189704812Y-91965624D01*
X189868784Y-92033544D01*
X190016354Y-92132147D01*
X190141853Y-92257646D01*
X190240456Y-92405216D01*
X190308376Y-92569188D01*
X190343000Y-92743259D01*
X190343000Y-92920741D01*
X190308376Y-93094812D01*
X190240456Y-93258784D01*
X190141853Y-93406354D01*
X190016354Y-93531853D01*
X189868784Y-93630456D01*
X189704812Y-93698376D01*
X189555512Y-93728073D01*
X189530742Y-93733000D01*
X189353258Y-93733000D01*
X189328488Y-93728073D01*
X189179188Y-93698376D01*
X189015216Y-93630456D01*
X188867646Y-93531853D01*
X188742147Y-93406354D01*
X188643544Y-93258784D01*
X188575624Y-93094812D01*
X188541000Y-92920741D01*
X188541000Y-92743259D01*
X188575624Y-92569188D01*
X188643544Y-92405216D01*
X188742147Y-92257646D01*
X188867646Y-92132147D01*
X189015216Y-92033544D01*
X189179188Y-91965624D01*
X189328488Y-91935927D01*
X189353258Y-91931000D01*
X189530742Y-91931000D01*
X189555512Y-91935927D01*
G37*
G36*
X190343000Y-91193000D02*
G01*
X188541000Y-91193000D01*
X188541000Y-89391000D01*
X190343000Y-89391000D01*
X190343000Y-91193000D01*
G37*
G36*
X102638000Y-90274000D02*
G01*
X99536000Y-90274000D01*
X99536000Y-87172000D01*
X102638000Y-87172000D01*
X102638000Y-90274000D01*
G37*
G36*
X101389585Y-82121802D02*
G01*
X101539410Y-82151604D01*
X101821674Y-82268521D01*
X102075705Y-82438259D01*
X102291741Y-82654295D01*
X102461479Y-82908326D01*
X102578396Y-83190590D01*
X102638000Y-83490240D01*
X102638000Y-83795760D01*
X102578396Y-84095410D01*
X102461479Y-84377674D01*
X102291741Y-84631705D01*
X102075705Y-84847741D01*
X101821674Y-85017479D01*
X101539410Y-85134396D01*
X101389585Y-85164198D01*
X101239761Y-85194000D01*
X100934239Y-85194000D01*
X100784415Y-85164198D01*
X100634590Y-85134396D01*
X100352326Y-85017479D01*
X100098295Y-84847741D01*
X99882259Y-84631705D01*
X99712521Y-84377674D01*
X99595604Y-84095410D01*
X99536000Y-83795760D01*
X99536000Y-83490240D01*
X99595604Y-83190590D01*
X99712521Y-82908326D01*
X99882259Y-82654295D01*
X100098295Y-82438259D01*
X100352326Y-82268521D01*
X100634590Y-82151604D01*
X100784415Y-82121802D01*
X100934239Y-82092000D01*
X101239761Y-82092000D01*
X101389585Y-82121802D01*
G37*
G36*
X101389585Y-77041802D02*
G01*
X101539410Y-77071604D01*
X101821674Y-77188521D01*
X102075705Y-77358259D01*
X102291741Y-77574295D01*
X102461479Y-77828326D01*
X102578396Y-78110590D01*
X102638000Y-78410240D01*
X102638000Y-78715760D01*
X102578396Y-79015410D01*
X102461479Y-79297674D01*
X102291741Y-79551705D01*
X102075705Y-79767741D01*
X101821674Y-79937479D01*
X101539410Y-80054396D01*
X101389585Y-80084198D01*
X101239761Y-80114000D01*
X100934239Y-80114000D01*
X100784415Y-80084198D01*
X100634590Y-80054396D01*
X100352326Y-79937479D01*
X100098295Y-79767741D01*
X99882259Y-79551705D01*
X99712521Y-79297674D01*
X99595604Y-79015410D01*
X99536000Y-78715760D01*
X99536000Y-78410240D01*
X99595604Y-78110590D01*
X99712521Y-77828326D01*
X99882259Y-77574295D01*
X100098295Y-77358259D01*
X100352326Y-77188521D01*
X100634590Y-77071604D01*
X100784415Y-77041802D01*
X100934239Y-77012000D01*
X101239761Y-77012000D01*
X101389585Y-77041802D01*
G37*
G36*
X157445000Y-75085000D02*
G01*
X155643000Y-75085000D01*
X155643000Y-73283000D01*
X157445000Y-73283000D01*
X157445000Y-75085000D01*
G37*
G36*
X125868000Y-75032000D02*
G01*
X124066000Y-75032000D01*
X124066000Y-73230000D01*
X125868000Y-73230000D01*
X125868000Y-75032000D01*
G37*
G36*
X122540512Y-73234927D02*
G01*
X122689812Y-73264624D01*
X122853784Y-73332544D01*
X123001354Y-73431147D01*
X123126853Y-73556646D01*
X123225456Y-73704216D01*
X123293376Y-73868188D01*
X123328000Y-74042259D01*
X123328000Y-74219741D01*
X123293376Y-74393812D01*
X123225456Y-74557784D01*
X123126853Y-74705354D01*
X123001354Y-74830853D01*
X122853784Y-74929456D01*
X122689812Y-74997376D01*
X122540512Y-75027073D01*
X122515742Y-75032000D01*
X122338258Y-75032000D01*
X122313488Y-75027073D01*
X122164188Y-74997376D01*
X122000216Y-74929456D01*
X121852646Y-74830853D01*
X121727147Y-74705354D01*
X121628544Y-74557784D01*
X121560624Y-74393812D01*
X121526000Y-74219741D01*
X121526000Y-74042259D01*
X121560624Y-73868188D01*
X121628544Y-73704216D01*
X121727147Y-73556646D01*
X121852646Y-73431147D01*
X122000216Y-73332544D01*
X122164188Y-73264624D01*
X122313488Y-73234927D01*
X122338258Y-73230000D01*
X122515742Y-73230000D01*
X122540512Y-73234927D01*
G37*
G36*
X102651000Y-74901000D02*
G01*
X99549000Y-74901000D01*
X99549000Y-71799000D01*
X102651000Y-71799000D01*
X102651000Y-74901000D01*
G37*
G36*
X156657512Y-70747927D02*
G01*
X156806812Y-70777624D01*
X156970784Y-70845544D01*
X157118354Y-70944147D01*
X157243853Y-71069646D01*
X157342456Y-71217216D01*
X157410376Y-71381188D01*
X157445000Y-71555259D01*
X157445000Y-71732741D01*
X157410376Y-71906812D01*
X157342456Y-72070784D01*
X157243853Y-72218354D01*
X157118354Y-72343853D01*
X156970784Y-72442456D01*
X156806812Y-72510376D01*
X156657512Y-72540073D01*
X156632742Y-72545000D01*
X156455258Y-72545000D01*
X156430488Y-72540073D01*
X156281188Y-72510376D01*
X156117216Y-72442456D01*
X155969646Y-72343853D01*
X155844147Y-72218354D01*
X155745544Y-72070784D01*
X155677624Y-71906812D01*
X155643000Y-71732741D01*
X155643000Y-71555259D01*
X155677624Y-71381188D01*
X155745544Y-71217216D01*
X155844147Y-71069646D01*
X155969646Y-70944147D01*
X156117216Y-70845544D01*
X156281188Y-70777624D01*
X156430488Y-70747927D01*
X156455258Y-70743000D01*
X156632742Y-70743000D01*
X156657512Y-70747927D01*
G37*
G36*
X125887000Y-71376000D02*
G01*
X124085000Y-71376000D01*
X124085000Y-69574000D01*
X125887000Y-69574000D01*
X125887000Y-71376000D01*
G37*
G36*
X122559512Y-69578927D02*
G01*
X122708812Y-69608624D01*
X122872784Y-69676544D01*
X123020354Y-69775147D01*
X123145853Y-69900646D01*
X123244456Y-70048216D01*
X123312376Y-70212188D01*
X123347000Y-70386259D01*
X123347000Y-70563741D01*
X123312376Y-70737812D01*
X123244456Y-70901784D01*
X123145853Y-71049354D01*
X123020354Y-71174853D01*
X122872784Y-71273456D01*
X122708812Y-71341376D01*
X122559512Y-71371073D01*
X122534742Y-71376000D01*
X122357258Y-71376000D01*
X122332488Y-71371073D01*
X122183188Y-71341376D01*
X122019216Y-71273456D01*
X121871646Y-71174853D01*
X121746147Y-71049354D01*
X121647544Y-70901784D01*
X121579624Y-70737812D01*
X121545000Y-70563741D01*
X121545000Y-70386259D01*
X121579624Y-70212188D01*
X121647544Y-70048216D01*
X121746147Y-69900646D01*
X121871646Y-69775147D01*
X122019216Y-69676544D01*
X122183188Y-69608624D01*
X122332488Y-69578927D01*
X122357258Y-69574000D01*
X122534742Y-69574000D01*
X122559512Y-69578927D01*
G37*
G36*
X156657512Y-68207927D02*
G01*
X156806812Y-68237624D01*
X156970784Y-68305544D01*
X157118354Y-68404147D01*
X157243853Y-68529646D01*
X157342456Y-68677216D01*
X157410376Y-68841188D01*
X157445000Y-69015259D01*
X157445000Y-69192741D01*
X157410376Y-69366812D01*
X157342456Y-69530784D01*
X157243853Y-69678354D01*
X157118354Y-69803853D01*
X156970784Y-69902456D01*
X156806812Y-69970376D01*
X156657512Y-70000073D01*
X156632742Y-70005000D01*
X156455258Y-70005000D01*
X156430488Y-70000073D01*
X156281188Y-69970376D01*
X156117216Y-69902456D01*
X155969646Y-69803853D01*
X155844147Y-69678354D01*
X155745544Y-69530784D01*
X155677624Y-69366812D01*
X155643000Y-69192741D01*
X155643000Y-69015259D01*
X155677624Y-68841188D01*
X155745544Y-68677216D01*
X155844147Y-68529646D01*
X155969646Y-68404147D01*
X156117216Y-68305544D01*
X156281188Y-68237624D01*
X156430488Y-68207927D01*
X156455258Y-68203000D01*
X156632742Y-68203000D01*
X156657512Y-68207927D01*
G37*
G36*
X101402585Y-66748802D02*
G01*
X101552410Y-66778604D01*
X101834674Y-66895521D01*
X102088705Y-67065259D01*
X102304741Y-67281295D01*
X102474479Y-67535326D01*
X102530832Y-67671376D01*
X102591396Y-67817591D01*
X102649192Y-68108148D01*
X102651000Y-68117240D01*
X102651000Y-68422760D01*
X102591396Y-68722410D01*
X102474479Y-69004674D01*
X102304741Y-69258705D01*
X102088705Y-69474741D01*
X101834674Y-69644479D01*
X101552410Y-69761396D01*
X101402585Y-69791198D01*
X101252761Y-69821000D01*
X100947239Y-69821000D01*
X100797415Y-69791198D01*
X100647590Y-69761396D01*
X100365326Y-69644479D01*
X100111295Y-69474741D01*
X99895259Y-69258705D01*
X99725521Y-69004674D01*
X99608604Y-68722410D01*
X99549000Y-68422760D01*
X99549000Y-68117240D01*
X99550809Y-68108148D01*
X99608604Y-67817591D01*
X99669168Y-67671376D01*
X99725521Y-67535326D01*
X99895259Y-67281295D01*
X100111295Y-67065259D01*
X100365326Y-66895521D01*
X100647590Y-66778604D01*
X100797415Y-66748802D01*
X100947239Y-66719000D01*
X101252761Y-66719000D01*
X101402585Y-66748802D01*
G37*
G36*
X109525228Y-66535703D02*
G01*
X109680100Y-66599853D01*
X109819481Y-66692985D01*
X109938015Y-66811519D01*
X110031147Y-66950900D01*
X110095297Y-67105772D01*
X110128000Y-67270184D01*
X110128000Y-67437816D01*
X110095297Y-67602228D01*
X110031147Y-67757100D01*
X109938015Y-67896481D01*
X109819481Y-68015015D01*
X109680100Y-68108147D01*
X109525228Y-68172297D01*
X109360816Y-68205000D01*
X109193184Y-68205000D01*
X109028772Y-68172297D01*
X108873900Y-68108147D01*
X108734519Y-68015015D01*
X108615985Y-67896481D01*
X108522853Y-67757100D01*
X108458703Y-67602228D01*
X108426000Y-67437816D01*
X108426000Y-67270184D01*
X108458703Y-67105772D01*
X108522853Y-66950900D01*
X108615985Y-66811519D01*
X108734519Y-66692985D01*
X108873900Y-66599853D01*
X109028772Y-66535703D01*
X109193184Y-66503000D01*
X109360816Y-66503000D01*
X109525228Y-66535703D01*
G37*
G36*
X117145228Y-66535703D02*
G01*
X117300100Y-66599853D01*
X117439481Y-66692985D01*
X117558015Y-66811519D01*
X117651147Y-66950900D01*
X117715297Y-67105772D01*
X117748000Y-67270184D01*
X117748000Y-67437816D01*
X117715297Y-67602228D01*
X117651147Y-67757100D01*
X117558015Y-67896481D01*
X117439481Y-68015015D01*
X117300100Y-68108147D01*
X117145228Y-68172297D01*
X116980816Y-68205000D01*
X116813184Y-68205000D01*
X116648772Y-68172297D01*
X116493900Y-68108147D01*
X116354519Y-68015015D01*
X116235985Y-67896481D01*
X116142853Y-67757100D01*
X116078703Y-67602228D01*
X116046000Y-67437816D01*
X116046000Y-67270184D01*
X116078703Y-67105772D01*
X116142853Y-66950900D01*
X116235985Y-66811519D01*
X116354519Y-66692985D01*
X116493900Y-66599853D01*
X116648772Y-66535703D01*
X116813184Y-66503000D01*
X116980816Y-66503000D01*
X117145228Y-66535703D01*
G37*
G36*
X125898000Y-67706000D02*
G01*
X124096000Y-67706000D01*
X124096000Y-65904000D01*
X125898000Y-65904000D01*
X125898000Y-67706000D01*
G37*
G36*
X122570512Y-65908927D02*
G01*
X122719812Y-65938624D01*
X122883784Y-66006544D01*
X123031354Y-66105147D01*
X123156853Y-66230646D01*
X123255456Y-66378216D01*
X123323376Y-66542188D01*
X123358000Y-66716259D01*
X123358000Y-66893741D01*
X123323376Y-67067812D01*
X123255456Y-67231784D01*
X123156853Y-67379354D01*
X123031354Y-67504853D01*
X122883784Y-67603456D01*
X122719812Y-67671376D01*
X122570512Y-67701073D01*
X122545742Y-67706000D01*
X122368258Y-67706000D01*
X122343488Y-67701073D01*
X122194188Y-67671376D01*
X122030216Y-67603456D01*
X121882646Y-67504853D01*
X121757147Y-67379354D01*
X121658544Y-67231784D01*
X121590624Y-67067812D01*
X121556000Y-66893741D01*
X121556000Y-66716259D01*
X121590624Y-66542188D01*
X121658544Y-66378216D01*
X121757147Y-66230646D01*
X121882646Y-66105147D01*
X122030216Y-66006544D01*
X122194188Y-65938624D01*
X122343488Y-65908927D01*
X122368258Y-65904000D01*
X122545742Y-65904000D01*
X122570512Y-65908927D01*
G37*
G36*
X156657512Y-65667927D02*
G01*
X156806812Y-65697624D01*
X156970784Y-65765544D01*
X157118354Y-65864147D01*
X157243853Y-65989646D01*
X157342456Y-66137216D01*
X157410376Y-66301188D01*
X157445000Y-66475259D01*
X157445000Y-66652741D01*
X157410376Y-66826812D01*
X157342456Y-66990784D01*
X157243853Y-67138354D01*
X157118354Y-67263853D01*
X156970784Y-67362456D01*
X156806812Y-67430376D01*
X156657512Y-67460073D01*
X156632742Y-67465000D01*
X156455258Y-67465000D01*
X156430488Y-67460073D01*
X156281188Y-67430376D01*
X156117216Y-67362456D01*
X155969646Y-67263853D01*
X155844147Y-67138354D01*
X155745544Y-66990784D01*
X155677624Y-66826812D01*
X155643000Y-66652741D01*
X155643000Y-66475259D01*
X155677624Y-66301188D01*
X155745544Y-66137216D01*
X155844147Y-65989646D01*
X155969646Y-65864147D01*
X156117216Y-65765544D01*
X156281188Y-65697624D01*
X156430488Y-65667927D01*
X156455258Y-65663000D01*
X156632742Y-65663000D01*
X156657512Y-65667927D01*
G37*
G36*
X110128000Y-65665000D02*
G01*
X108426000Y-65665000D01*
X108426000Y-63963000D01*
X110128000Y-63963000D01*
X110128000Y-65665000D01*
G37*
G36*
X117145228Y-63995703D02*
G01*
X117300100Y-64059853D01*
X117439481Y-64152985D01*
X117558015Y-64271519D01*
X117651147Y-64410900D01*
X117715297Y-64565772D01*
X117748000Y-64730184D01*
X117748000Y-64897816D01*
X117715297Y-65062228D01*
X117651147Y-65217100D01*
X117558015Y-65356481D01*
X117439481Y-65475015D01*
X117300100Y-65568147D01*
X117145228Y-65632297D01*
X116980816Y-65665000D01*
X116813184Y-65665000D01*
X116648772Y-65632297D01*
X116493900Y-65568147D01*
X116354519Y-65475015D01*
X116235985Y-65356481D01*
X116142853Y-65217100D01*
X116078703Y-65062228D01*
X116046000Y-64897816D01*
X116046000Y-64730184D01*
X116078703Y-64565772D01*
X116142853Y-64410900D01*
X116235985Y-64271519D01*
X116354519Y-64152985D01*
X116493900Y-64059853D01*
X116648772Y-63995703D01*
X116813184Y-63963000D01*
X116980816Y-63963000D01*
X117145228Y-63995703D01*
G37*
G36*
X156657512Y-63127927D02*
G01*
X156806812Y-63157624D01*
X156970784Y-63225544D01*
X157118354Y-63324147D01*
X157243853Y-63449646D01*
X157342456Y-63597216D01*
X157410376Y-63761188D01*
X157445000Y-63935259D01*
X157445000Y-64112741D01*
X157410376Y-64286812D01*
X157342456Y-64450784D01*
X157243853Y-64598354D01*
X157118354Y-64723853D01*
X156970784Y-64822456D01*
X156806812Y-64890376D01*
X156657512Y-64920073D01*
X156632742Y-64925000D01*
X156455258Y-64925000D01*
X156430488Y-64920073D01*
X156281188Y-64890376D01*
X156117216Y-64822456D01*
X155969646Y-64723853D01*
X155844147Y-64598354D01*
X155745544Y-64450784D01*
X155677624Y-64286812D01*
X155643000Y-64112741D01*
X155643000Y-63935259D01*
X155677624Y-63761188D01*
X155745544Y-63597216D01*
X155844147Y-63449646D01*
X155969646Y-63324147D01*
X156117216Y-63225544D01*
X156281188Y-63157624D01*
X156430488Y-63127927D01*
X156455258Y-63123000D01*
X156632742Y-63123000D01*
X156657512Y-63127927D01*
G37*
G36*
X101402585Y-61668802D02*
G01*
X101552410Y-61698604D01*
X101834674Y-61815521D01*
X102088705Y-61985259D01*
X102304741Y-62201295D01*
X102474479Y-62455326D01*
X102591396Y-62737590D01*
X102651000Y-63037240D01*
X102651000Y-63342760D01*
X102591396Y-63642410D01*
X102474479Y-63924674D01*
X102304741Y-64178705D01*
X102088705Y-64394741D01*
X101834674Y-64564479D01*
X101552410Y-64681396D01*
X101402585Y-64711198D01*
X101252761Y-64741000D01*
X100947239Y-64741000D01*
X100797415Y-64711198D01*
X100647590Y-64681396D01*
X100365326Y-64564479D01*
X100111295Y-64394741D01*
X99895259Y-64178705D01*
X99725521Y-63924674D01*
X99608604Y-63642410D01*
X99549000Y-63342760D01*
X99549000Y-63037240D01*
X99608604Y-62737590D01*
X99725521Y-62455326D01*
X99895259Y-62201295D01*
X100111295Y-61985259D01*
X100365326Y-61815521D01*
X100647590Y-61698604D01*
X100797415Y-61668802D01*
X100947239Y-61639000D01*
X101252761Y-61639000D01*
X101402585Y-61668802D01*
G37*
G36*
X156657512Y-60587927D02*
G01*
X156806812Y-60617624D01*
X156970784Y-60685544D01*
X157118354Y-60784147D01*
X157243853Y-60909646D01*
X157342456Y-61057216D01*
X157410376Y-61221188D01*
X157445000Y-61395259D01*
X157445000Y-61572741D01*
X157410376Y-61746812D01*
X157342456Y-61910784D01*
X157243853Y-62058354D01*
X157118354Y-62183853D01*
X156970784Y-62282456D01*
X156806812Y-62350376D01*
X156657512Y-62380073D01*
X156632742Y-62385000D01*
X156455258Y-62385000D01*
X156430488Y-62380073D01*
X156281188Y-62350376D01*
X156117216Y-62282456D01*
X155969646Y-62183853D01*
X155844147Y-62058354D01*
X155745544Y-61910784D01*
X155677624Y-61746812D01*
X155643000Y-61572741D01*
X155643000Y-61395259D01*
X155677624Y-61221188D01*
X155745544Y-61057216D01*
X155844147Y-60909646D01*
X155969646Y-60784147D01*
X156117216Y-60685544D01*
X156281188Y-60617624D01*
X156430488Y-60587927D01*
X156455258Y-60583000D01*
X156632742Y-60583000D01*
X156657512Y-60587927D01*
G37*
G36*
X101402585Y-56588802D02*
G01*
X101552410Y-56618604D01*
X101834674Y-56735521D01*
X102088705Y-56905259D01*
X102304741Y-57121295D01*
X102474479Y-57375326D01*
X102591396Y-57657590D01*
X102651000Y-57957240D01*
X102651000Y-58262760D01*
X102591396Y-58562410D01*
X102474479Y-58844674D01*
X102304741Y-59098705D01*
X102088705Y-59314741D01*
X101834674Y-59484479D01*
X101552410Y-59601396D01*
X101402585Y-59631198D01*
X101252761Y-59661000D01*
X100947239Y-59661000D01*
X100797415Y-59631198D01*
X100647590Y-59601396D01*
X100365326Y-59484479D01*
X100111295Y-59314741D01*
X99895259Y-59098705D01*
X99725521Y-58844674D01*
X99608604Y-58562410D01*
X99549000Y-58262760D01*
X99549000Y-57957240D01*
X99608604Y-57657590D01*
X99725521Y-57375326D01*
X99895259Y-57121295D01*
X100111295Y-56905259D01*
X100365326Y-56735521D01*
X100647590Y-56618604D01*
X100797415Y-56588802D01*
X100947239Y-56559000D01*
X101252761Y-56559000D01*
X101402585Y-56588802D01*
G37*
G36*
X117104228Y-57317703D02*
G01*
X117259100Y-57381853D01*
X117398481Y-57474985D01*
X117517015Y-57593519D01*
X117610147Y-57732900D01*
X117674297Y-57887772D01*
X117707000Y-58052184D01*
X117707000Y-58219816D01*
X117674297Y-58384228D01*
X117610147Y-58539100D01*
X117517015Y-58678481D01*
X117398481Y-58797015D01*
X117259100Y-58890147D01*
X117104228Y-58954297D01*
X116939816Y-58987000D01*
X116772184Y-58987000D01*
X116607772Y-58954297D01*
X116452900Y-58890147D01*
X116313519Y-58797015D01*
X116194985Y-58678481D01*
X116101853Y-58539100D01*
X116037703Y-58384228D01*
X116005000Y-58219816D01*
X116005000Y-58052184D01*
X116037703Y-57887772D01*
X116101853Y-57732900D01*
X116194985Y-57593519D01*
X116313519Y-57474985D01*
X116452900Y-57381853D01*
X116607772Y-57317703D01*
X116772184Y-57285000D01*
X116939816Y-57285000D01*
X117104228Y-57317703D01*
G37*
G36*
X109484228Y-57317703D02*
G01*
X109639100Y-57381853D01*
X109778481Y-57474985D01*
X109897015Y-57593519D01*
X109990147Y-57732900D01*
X110054297Y-57887772D01*
X110087000Y-58052184D01*
X110087000Y-58219816D01*
X110054297Y-58384228D01*
X109990147Y-58539100D01*
X109897015Y-58678481D01*
X109778481Y-58797015D01*
X109639100Y-58890147D01*
X109484228Y-58954297D01*
X109319816Y-58987000D01*
X109152184Y-58987000D01*
X108987772Y-58954297D01*
X108832900Y-58890147D01*
X108693519Y-58797015D01*
X108574985Y-58678481D01*
X108481853Y-58539100D01*
X108417703Y-58384228D01*
X108385000Y-58219816D01*
X108385000Y-58052184D01*
X108417703Y-57887772D01*
X108481853Y-57732900D01*
X108574985Y-57593519D01*
X108693519Y-57474985D01*
X108832900Y-57381853D01*
X108987772Y-57317703D01*
X109152184Y-57285000D01*
X109319816Y-57285000D01*
X109484228Y-57317703D01*
G37*
G36*
X121420512Y-55369927D02*
G01*
X121569812Y-55399624D01*
X121733784Y-55467544D01*
X121881354Y-55566147D01*
X122006853Y-55691646D01*
X122105456Y-55839216D01*
X122173376Y-56003188D01*
X122208000Y-56177259D01*
X122208000Y-56354741D01*
X122173376Y-56528812D01*
X122105456Y-56692784D01*
X122006853Y-56840354D01*
X121881354Y-56965853D01*
X121733784Y-57064456D01*
X121569812Y-57132376D01*
X121420512Y-57162073D01*
X121395742Y-57167000D01*
X121218258Y-57167000D01*
X121193488Y-57162073D01*
X121044188Y-57132376D01*
X120880216Y-57064456D01*
X120732646Y-56965853D01*
X120607147Y-56840354D01*
X120508544Y-56692784D01*
X120440624Y-56528812D01*
X120406000Y-56354741D01*
X120406000Y-56177259D01*
X120440624Y-56003188D01*
X120508544Y-55839216D01*
X120607147Y-55691646D01*
X120732646Y-55566147D01*
X120880216Y-55467544D01*
X121044188Y-55399624D01*
X121193488Y-55369927D01*
X121218258Y-55365000D01*
X121395742Y-55365000D01*
X121420512Y-55369927D01*
G37*
G36*
X110087000Y-56447000D02*
G01*
X108385000Y-56447000D01*
X108385000Y-54745000D01*
X110087000Y-54745000D01*
X110087000Y-56447000D01*
G37*
G36*
X117104228Y-54777703D02*
G01*
X117259100Y-54841853D01*
X117398481Y-54934985D01*
X117517015Y-55053519D01*
X117610147Y-55192900D01*
X117674297Y-55347772D01*
X117707000Y-55512184D01*
X117707000Y-55679816D01*
X117674297Y-55844228D01*
X117610147Y-55999100D01*
X117517015Y-56138481D01*
X117398481Y-56257015D01*
X117259100Y-56350147D01*
X117104228Y-56414297D01*
X116939816Y-56447000D01*
X116772184Y-56447000D01*
X116607772Y-56414297D01*
X116452900Y-56350147D01*
X116313519Y-56257015D01*
X116194985Y-56138481D01*
X116101853Y-55999100D01*
X116037703Y-55844228D01*
X116005000Y-55679816D01*
X116005000Y-55512184D01*
X116037703Y-55347772D01*
X116101853Y-55192900D01*
X116194985Y-55053519D01*
X116313519Y-54934985D01*
X116452900Y-54841853D01*
X116607772Y-54777703D01*
X116772184Y-54745000D01*
X116939816Y-54745000D01*
X117104228Y-54777703D01*
G37*
G36*
X121420512Y-52829927D02*
G01*
X121569812Y-52859624D01*
X121733784Y-52927544D01*
X121881354Y-53026147D01*
X122006853Y-53151646D01*
X122105456Y-53299216D01*
X122173376Y-53463188D01*
X122208000Y-53637259D01*
X122208000Y-53814741D01*
X122173376Y-53988812D01*
X122105456Y-54152784D01*
X122006853Y-54300354D01*
X121881354Y-54425853D01*
X121733784Y-54524456D01*
X121569812Y-54592376D01*
X121420512Y-54622073D01*
X121395742Y-54627000D01*
X121218258Y-54627000D01*
X121193488Y-54622073D01*
X121044188Y-54592376D01*
X120880216Y-54524456D01*
X120732646Y-54425853D01*
X120607147Y-54300354D01*
X120508544Y-54152784D01*
X120440624Y-53988812D01*
X120406000Y-53814741D01*
X120406000Y-53637259D01*
X120440624Y-53463188D01*
X120508544Y-53299216D01*
X120607147Y-53151646D01*
X120732646Y-53026147D01*
X120880216Y-52927544D01*
X121044188Y-52859624D01*
X121193488Y-52829927D01*
X121218258Y-52825000D01*
X121395742Y-52825000D01*
X121420512Y-52829927D01*
G37*
G36*
X101402585Y-51508802D02*
G01*
X101552410Y-51538604D01*
X101834674Y-51655521D01*
X102088705Y-51825259D01*
X102304741Y-52041295D01*
X102474479Y-52295326D01*
X102591396Y-52577590D01*
X102591396Y-52577591D01*
X102651000Y-52877239D01*
X102651000Y-53182761D01*
X102627835Y-53299218D01*
X102591396Y-53482410D01*
X102474479Y-53764674D01*
X102304741Y-54018705D01*
X102088705Y-54234741D01*
X101834674Y-54404479D01*
X101552410Y-54521396D01*
X101402585Y-54551198D01*
X101252761Y-54581000D01*
X100947239Y-54581000D01*
X100797415Y-54551198D01*
X100647590Y-54521396D01*
X100365326Y-54404479D01*
X100111295Y-54234741D01*
X99895259Y-54018705D01*
X99725521Y-53764674D01*
X99608604Y-53482410D01*
X99572165Y-53299218D01*
X99549000Y-53182761D01*
X99549000Y-52877239D01*
X99608604Y-52577591D01*
X99608604Y-52577590D01*
X99725521Y-52295326D01*
X99895259Y-52041295D01*
X100111295Y-51825259D01*
X100365326Y-51655521D01*
X100647590Y-51538604D01*
X100797415Y-51508802D01*
X100947239Y-51479000D01*
X101252761Y-51479000D01*
X101402585Y-51508802D01*
G37*
G36*
X121420512Y-50289927D02*
G01*
X121569812Y-50319624D01*
X121733784Y-50387544D01*
X121881354Y-50486147D01*
X122006853Y-50611646D01*
X122105456Y-50759216D01*
X122173376Y-50923188D01*
X122208000Y-51097259D01*
X122208000Y-51274741D01*
X122173376Y-51448812D01*
X122105456Y-51612784D01*
X122006853Y-51760354D01*
X121881354Y-51885853D01*
X121733784Y-51984456D01*
X121569812Y-52052376D01*
X121420512Y-52082073D01*
X121395742Y-52087000D01*
X121218258Y-52087000D01*
X121193488Y-52082073D01*
X121044188Y-52052376D01*
X120880216Y-51984456D01*
X120732646Y-51885853D01*
X120607147Y-51760354D01*
X120508544Y-51612784D01*
X120440624Y-51448812D01*
X120406000Y-51274741D01*
X120406000Y-51097259D01*
X120440624Y-50923188D01*
X120508544Y-50759216D01*
X120607147Y-50611646D01*
X120732646Y-50486147D01*
X120880216Y-50387544D01*
X121044188Y-50319624D01*
X121193488Y-50289927D01*
X121218258Y-50285000D01*
X121395742Y-50285000D01*
X121420512Y-50289927D01*
G37*
G36*
X122208000Y-49547000D02*
G01*
X120406000Y-49547000D01*
X120406000Y-47745000D01*
X122208000Y-47745000D01*
X122208000Y-49547000D01*
G37*
G36*
X101402585Y-46428802D02*
G01*
X101552410Y-46458604D01*
X101834674Y-46575521D01*
X102088705Y-46745259D01*
X102304741Y-46961295D01*
X102474479Y-47215326D01*
X102591396Y-47497590D01*
X102651000Y-47797240D01*
X102651000Y-48102760D01*
X102591396Y-48402410D01*
X102474479Y-48684674D01*
X102304741Y-48938705D01*
X102088705Y-49154741D01*
X101834674Y-49324479D01*
X101552410Y-49441396D01*
X101402585Y-49471198D01*
X101252761Y-49501000D01*
X100947239Y-49501000D01*
X100797415Y-49471198D01*
X100647590Y-49441396D01*
X100365326Y-49324479D01*
X100111295Y-49154741D01*
X99895259Y-48938705D01*
X99725521Y-48684674D01*
X99608604Y-48402410D01*
X99549000Y-48102760D01*
X99549000Y-47797240D01*
X99608604Y-47497590D01*
X99725521Y-47215326D01*
X99895259Y-46961295D01*
X100111295Y-46745259D01*
X100365326Y-46575521D01*
X100647590Y-46458604D01*
X100797415Y-46428802D01*
X100947239Y-46399000D01*
X101252761Y-46399000D01*
X101402585Y-46428802D01*
G37*
G36*
X190574239Y-36761467D02*
G01*
X190888282Y-36823934D01*
X191479926Y-37069001D01*
X192012392Y-37424784D01*
X192465216Y-37877608D01*
X192820999Y-38410074D01*
X193066066Y-39001718D01*
X193066066Y-39001719D01*
X193191000Y-39629803D01*
X193191000Y-40270197D01*
X193128533Y-40584239D01*
X193066066Y-40898282D01*
X192820999Y-41489926D01*
X192465216Y-42022392D01*
X192012392Y-42475216D01*
X191479926Y-42830999D01*
X190888282Y-43076066D01*
X190574239Y-43138533D01*
X190260197Y-43201000D01*
X189619803Y-43201000D01*
X189305761Y-43138533D01*
X188991718Y-43076066D01*
X188400074Y-42830999D01*
X187867608Y-42475216D01*
X187414784Y-42022392D01*
X187059001Y-41489926D01*
X186813934Y-40898282D01*
X186751467Y-40584239D01*
X186689000Y-40270197D01*
X186689000Y-39629803D01*
X186813934Y-39001719D01*
X186813934Y-39001718D01*
X187059001Y-38410074D01*
X187414784Y-37877608D01*
X187867608Y-37424784D01*
X188400074Y-37069001D01*
X188991718Y-36823934D01*
X189305761Y-36761467D01*
X189619803Y-36699000D01*
X190260197Y-36699000D01*
X190574239Y-36761467D01*
G37*
G36*
X100550239Y-36761467D02*
G01*
X100864282Y-36823934D01*
X101455926Y-37069001D01*
X101988392Y-37424784D01*
X102441216Y-37877608D01*
X102796999Y-38410074D01*
X103042066Y-39001718D01*
X103042066Y-39001719D01*
X103167000Y-39629803D01*
X103167000Y-40270197D01*
X103104533Y-40584239D01*
X103042066Y-40898282D01*
X102796999Y-41489926D01*
X102441216Y-42022392D01*
X101988392Y-42475216D01*
X101455926Y-42830999D01*
X100864282Y-43076066D01*
X100550239Y-43138533D01*
X100236197Y-43201000D01*
X99595803Y-43201000D01*
X99281761Y-43138533D01*
X98967718Y-43076066D01*
X98376074Y-42830999D01*
X97843608Y-42475216D01*
X97390784Y-42022392D01*
X97035001Y-41489926D01*
X96789934Y-40898282D01*
X96727467Y-40584239D01*
X96665000Y-40270197D01*
X96665000Y-39629803D01*
X96789934Y-39001719D01*
X96789934Y-39001718D01*
X97035001Y-38410074D01*
X97390784Y-37877608D01*
X97843608Y-37424784D01*
X98376074Y-37069001D01*
X98967718Y-36823934D01*
X99281761Y-36761467D01*
X99595803Y-36699000D01*
X100236197Y-36699000D01*
X100550239Y-36761467D01*
G37*
G36*
X183218512Y-36890927D02*
G01*
X183367812Y-36920624D01*
X183531784Y-36988544D01*
X183679354Y-37087147D01*
X183804853Y-37212646D01*
X183903456Y-37360216D01*
X183971376Y-37524188D01*
X184001073Y-37673488D01*
X184006000Y-37698258D01*
X184006000Y-37875742D01*
X184001112Y-37900314D01*
X183971376Y-38049812D01*
X183903456Y-38213784D01*
X183804853Y-38361354D01*
X183679354Y-38486853D01*
X183531784Y-38585456D01*
X183367812Y-38653376D01*
X183218512Y-38683073D01*
X183193742Y-38688000D01*
X183016258Y-38688000D01*
X182991488Y-38683073D01*
X182842188Y-38653376D01*
X182678216Y-38585456D01*
X182530646Y-38486853D01*
X182405147Y-38361354D01*
X182306544Y-38213784D01*
X182238624Y-38049812D01*
X182208888Y-37900314D01*
X182204000Y-37875742D01*
X182204000Y-37698258D01*
X182208927Y-37673488D01*
X182238624Y-37524188D01*
X182306544Y-37360216D01*
X182405147Y-37212646D01*
X182530646Y-37087147D01*
X182678216Y-36988544D01*
X182842188Y-36920624D01*
X182991488Y-36890927D01*
X183016258Y-36886000D01*
X183193742Y-36886000D01*
X183218512Y-36890927D01*
G37*
G36*
X180678512Y-36890927D02*
G01*
X180827812Y-36920624D01*
X180991784Y-36988544D01*
X181139354Y-37087147D01*
X181264853Y-37212646D01*
X181363456Y-37360216D01*
X181431376Y-37524188D01*
X181461073Y-37673488D01*
X181466000Y-37698258D01*
X181466000Y-37875742D01*
X181461112Y-37900314D01*
X181431376Y-38049812D01*
X181363456Y-38213784D01*
X181264853Y-38361354D01*
X181139354Y-38486853D01*
X180991784Y-38585456D01*
X180827812Y-38653376D01*
X180678512Y-38683073D01*
X180653742Y-38688000D01*
X180476258Y-38688000D01*
X180451488Y-38683073D01*
X180302188Y-38653376D01*
X180138216Y-38585456D01*
X179990646Y-38486853D01*
X179865147Y-38361354D01*
X179766544Y-38213784D01*
X179698624Y-38049812D01*
X179668888Y-37900314D01*
X179664000Y-37875742D01*
X179664000Y-37698258D01*
X179668927Y-37673488D01*
X179698624Y-37524188D01*
X179766544Y-37360216D01*
X179865147Y-37212646D01*
X179990646Y-37087147D01*
X180138216Y-36988544D01*
X180302188Y-36920624D01*
X180451488Y-36890927D01*
X180476258Y-36886000D01*
X180653742Y-36886000D01*
X180678512Y-36890927D01*
G37*
G36*
X178138512Y-36890927D02*
G01*
X178287812Y-36920624D01*
X178451784Y-36988544D01*
X178599354Y-37087147D01*
X178724853Y-37212646D01*
X178823456Y-37360216D01*
X178891376Y-37524188D01*
X178921073Y-37673488D01*
X178926000Y-37698258D01*
X178926000Y-37875742D01*
X178921112Y-37900314D01*
X178891376Y-38049812D01*
X178823456Y-38213784D01*
X178724853Y-38361354D01*
X178599354Y-38486853D01*
X178451784Y-38585456D01*
X178287812Y-38653376D01*
X178138512Y-38683073D01*
X178113742Y-38688000D01*
X177936258Y-38688000D01*
X177911488Y-38683073D01*
X177762188Y-38653376D01*
X177598216Y-38585456D01*
X177450646Y-38486853D01*
X177325147Y-38361354D01*
X177226544Y-38213784D01*
X177158624Y-38049812D01*
X177128888Y-37900314D01*
X177124000Y-37875742D01*
X177124000Y-37698258D01*
X177128927Y-37673488D01*
X177158624Y-37524188D01*
X177226544Y-37360216D01*
X177325147Y-37212646D01*
X177450646Y-37087147D01*
X177598216Y-36988544D01*
X177762188Y-36920624D01*
X177911488Y-36890927D01*
X177936258Y-36886000D01*
X178113742Y-36886000D01*
X178138512Y-36890927D01*
G37*
G36*
X176386000Y-38688000D02*
G01*
X174584000Y-38688000D01*
X174584000Y-36886000D01*
X176386000Y-36886000D01*
X176386000Y-38688000D01*
G37*
G36*
X160009000Y-38668000D02*
G01*
X158207000Y-38668000D01*
X158207000Y-36866000D01*
X160009000Y-36866000D01*
X160009000Y-38668000D01*
G37*
G36*
X161761512Y-36870927D02*
G01*
X161910812Y-36900624D01*
X162074784Y-36968544D01*
X162222354Y-37067147D01*
X162347853Y-37192646D01*
X162446456Y-37340216D01*
X162514376Y-37504188D01*
X162544073Y-37653488D01*
X162549000Y-37678258D01*
X162549000Y-37855742D01*
X162544650Y-37877609D01*
X162514376Y-38029812D01*
X162446456Y-38193784D01*
X162347853Y-38341354D01*
X162222354Y-38466853D01*
X162074784Y-38565456D01*
X161910812Y-38633376D01*
X161761512Y-38663073D01*
X161736742Y-38668000D01*
X161559258Y-38668000D01*
X161534488Y-38663073D01*
X161385188Y-38633376D01*
X161221216Y-38565456D01*
X161073646Y-38466853D01*
X160948147Y-38341354D01*
X160849544Y-38193784D01*
X160781624Y-38029812D01*
X160751350Y-37877609D01*
X160747000Y-37855742D01*
X160747000Y-37678258D01*
X160751927Y-37653488D01*
X160781624Y-37504188D01*
X160849544Y-37340216D01*
X160948147Y-37192646D01*
X161073646Y-37067147D01*
X161221216Y-36968544D01*
X161385188Y-36900624D01*
X161534488Y-36870927D01*
X161559258Y-36866000D01*
X161736742Y-36866000D01*
X161761512Y-36870927D01*
G37*
G36*
X164301512Y-36870927D02*
G01*
X164450812Y-36900624D01*
X164614784Y-36968544D01*
X164762354Y-37067147D01*
X164887853Y-37192646D01*
X164986456Y-37340216D01*
X165054376Y-37504188D01*
X165084073Y-37653488D01*
X165089000Y-37678258D01*
X165089000Y-37855742D01*
X165084650Y-37877609D01*
X165054376Y-38029812D01*
X164986456Y-38193784D01*
X164887853Y-38341354D01*
X164762354Y-38466853D01*
X164614784Y-38565456D01*
X164450812Y-38633376D01*
X164301512Y-38663073D01*
X164276742Y-38668000D01*
X164099258Y-38668000D01*
X164074488Y-38663073D01*
X163925188Y-38633376D01*
X163761216Y-38565456D01*
X163613646Y-38466853D01*
X163488147Y-38341354D01*
X163389544Y-38193784D01*
X163321624Y-38029812D01*
X163291350Y-37877609D01*
X163287000Y-37855742D01*
X163287000Y-37678258D01*
X163291927Y-37653488D01*
X163321624Y-37504188D01*
X163389544Y-37340216D01*
X163488147Y-37192646D01*
X163613646Y-37067147D01*
X163761216Y-36968544D01*
X163925188Y-36900624D01*
X164074488Y-36870927D01*
X164099258Y-36866000D01*
X164276742Y-36866000D01*
X164301512Y-36870927D01*
G37*
G36*
X166841512Y-36870927D02*
G01*
X166990812Y-36900624D01*
X167154784Y-36968544D01*
X167302354Y-37067147D01*
X167427853Y-37192646D01*
X167526456Y-37340216D01*
X167594376Y-37504188D01*
X167624073Y-37653488D01*
X167629000Y-37678258D01*
X167629000Y-37855742D01*
X167624650Y-37877609D01*
X167594376Y-38029812D01*
X167526456Y-38193784D01*
X167427853Y-38341354D01*
X167302354Y-38466853D01*
X167154784Y-38565456D01*
X166990812Y-38633376D01*
X166841512Y-38663073D01*
X166816742Y-38668000D01*
X166639258Y-38668000D01*
X166614488Y-38663073D01*
X166465188Y-38633376D01*
X166301216Y-38565456D01*
X166153646Y-38466853D01*
X166028147Y-38341354D01*
X165929544Y-38193784D01*
X165861624Y-38029812D01*
X165831350Y-37877609D01*
X165827000Y-37855742D01*
X165827000Y-37678258D01*
X165831927Y-37653488D01*
X165861624Y-37504188D01*
X165929544Y-37340216D01*
X166028147Y-37192646D01*
X166153646Y-37067147D01*
X166301216Y-36968544D01*
X166465188Y-36900624D01*
X166614488Y-36870927D01*
X166639258Y-36866000D01*
X166816742Y-36866000D01*
X166841512Y-36870927D01*
G37*
G36*
X169381512Y-36870927D02*
G01*
X169530812Y-36900624D01*
X169694784Y-36968544D01*
X169842354Y-37067147D01*
X169967853Y-37192646D01*
X170066456Y-37340216D01*
X170134376Y-37504188D01*
X170164073Y-37653488D01*
X170169000Y-37678258D01*
X170169000Y-37855742D01*
X170164650Y-37877609D01*
X170134376Y-38029812D01*
X170066456Y-38193784D01*
X169967853Y-38341354D01*
X169842354Y-38466853D01*
X169694784Y-38565456D01*
X169530812Y-38633376D01*
X169381512Y-38663073D01*
X169356742Y-38668000D01*
X169179258Y-38668000D01*
X169154488Y-38663073D01*
X169005188Y-38633376D01*
X168841216Y-38565456D01*
X168693646Y-38466853D01*
X168568147Y-38341354D01*
X168469544Y-38193784D01*
X168401624Y-38029812D01*
X168371350Y-37877609D01*
X168367000Y-37855742D01*
X168367000Y-37678258D01*
X168371927Y-37653488D01*
X168401624Y-37504188D01*
X168469544Y-37340216D01*
X168568147Y-37192646D01*
X168693646Y-37067147D01*
X168841216Y-36968544D01*
X169005188Y-36900624D01*
X169154488Y-36870927D01*
X169179258Y-36866000D01*
X169356742Y-36866000D01*
X169381512Y-36870927D01*
G37*
G36*
X171921512Y-36870927D02*
G01*
X172070812Y-36900624D01*
X172234784Y-36968544D01*
X172382354Y-37067147D01*
X172507853Y-37192646D01*
X172606456Y-37340216D01*
X172674376Y-37504188D01*
X172704073Y-37653488D01*
X172709000Y-37678258D01*
X172709000Y-37855742D01*
X172704650Y-37877609D01*
X172674376Y-38029812D01*
X172606456Y-38193784D01*
X172507853Y-38341354D01*
X172382354Y-38466853D01*
X172234784Y-38565456D01*
X172070812Y-38633376D01*
X171921512Y-38663073D01*
X171896742Y-38668000D01*
X171719258Y-38668000D01*
X171694488Y-38663073D01*
X171545188Y-38633376D01*
X171381216Y-38565456D01*
X171233646Y-38466853D01*
X171108147Y-38341354D01*
X171009544Y-38193784D01*
X170941624Y-38029812D01*
X170911350Y-37877609D01*
X170907000Y-37855742D01*
X170907000Y-37678258D01*
X170911927Y-37653488D01*
X170941624Y-37504188D01*
X171009544Y-37340216D01*
X171108147Y-37192646D01*
X171233646Y-37067147D01*
X171381216Y-36968544D01*
X171545188Y-36900624D01*
X171694488Y-36870927D01*
X171719258Y-36866000D01*
X171896742Y-36866000D01*
X171921512Y-36870927D01*
G37*
M02*
