G04 #@! TF.GenerationSoftware,KiCad,Pcbnew,(5.1.5)-3*
G04 #@! TF.CreationDate,2020-07-15T20:50:45-05:00*
G04 #@! TF.ProjectId,MaquinaCovid,4d617175-696e-4614-936f-7669642e6b69,rev?*
G04 #@! TF.SameCoordinates,Original*
G04 #@! TF.FileFunction,Legend,Top*
G04 #@! TF.FilePolarity,Positive*
%FSLAX46Y46*%
G04 Gerber Fmt 4.6, Leading zero omitted, Abs format (unit mm)*
G04 Created by KiCad (PCBNEW (5.1.5)-3) date 2020-07-15 20:50:45*
%MOMM*%
%LPD*%
G04 APERTURE LIST*
%ADD10C,0.300000*%
%ADD11C,0.150000*%
%ADD12C,0.120000*%
%ADD13C,0.010000*%
%ADD14C,0.250000*%
G04 APERTURE END LIST*
D10*
X142864285Y-87578571D02*
X143364285Y-89078571D01*
X143864285Y-87578571D01*
X145150000Y-89078571D02*
X144292857Y-89078571D01*
X144721428Y-89078571D02*
X144721428Y-87578571D01*
X144578571Y-87792857D01*
X144435714Y-87935714D01*
X144292857Y-88007142D01*
X145792857Y-88935714D02*
X145864285Y-89007142D01*
X145792857Y-89078571D01*
X145721428Y-89007142D01*
X145792857Y-88935714D01*
X145792857Y-89078571D01*
X146792857Y-87578571D02*
X146935714Y-87578571D01*
X147078571Y-87650000D01*
X147150000Y-87721428D01*
X147221428Y-87864285D01*
X147292857Y-88150000D01*
X147292857Y-88507142D01*
X147221428Y-88792857D01*
X147150000Y-88935714D01*
X147078571Y-89007142D01*
X146935714Y-89078571D01*
X146792857Y-89078571D01*
X146650000Y-89007142D01*
X146578571Y-88935714D01*
X146507142Y-88792857D01*
X146435714Y-88507142D01*
X146435714Y-88150000D01*
X146507142Y-87864285D01*
X146578571Y-87721428D01*
X146650000Y-87650000D01*
X146792857Y-87578571D01*
X133628571Y-86478571D02*
X133628571Y-84978571D01*
X134128571Y-86050000D01*
X134628571Y-84978571D01*
X134628571Y-86478571D01*
X135914285Y-86407142D02*
X135771428Y-86478571D01*
X135485714Y-86478571D01*
X135342857Y-86407142D01*
X135271428Y-86264285D01*
X135271428Y-85692857D01*
X135342857Y-85550000D01*
X135485714Y-85478571D01*
X135771428Y-85478571D01*
X135914285Y-85550000D01*
X135985714Y-85692857D01*
X135985714Y-85835714D01*
X135271428Y-85978571D01*
X137271428Y-86478571D02*
X137271428Y-84978571D01*
X137271428Y-86407142D02*
X137128571Y-86478571D01*
X136842857Y-86478571D01*
X136700000Y-86407142D01*
X136628571Y-86335714D01*
X136557142Y-86192857D01*
X136557142Y-85764285D01*
X136628571Y-85621428D01*
X136700000Y-85550000D01*
X136842857Y-85478571D01*
X137128571Y-85478571D01*
X137271428Y-85550000D01*
X137985714Y-86478571D02*
X137985714Y-85478571D01*
X137985714Y-84978571D02*
X137914285Y-85050000D01*
X137985714Y-85121428D01*
X138057142Y-85050000D01*
X137985714Y-84978571D01*
X137985714Y-85121428D01*
X138485714Y-84978571D02*
X139342857Y-84978571D01*
X138914285Y-86478571D02*
X138914285Y-84978571D01*
X140414285Y-86407142D02*
X140271428Y-86478571D01*
X139985714Y-86478571D01*
X139842857Y-86407142D01*
X139771428Y-86264285D01*
X139771428Y-85692857D01*
X139842857Y-85550000D01*
X139985714Y-85478571D01*
X140271428Y-85478571D01*
X140414285Y-85550000D01*
X140485714Y-85692857D01*
X140485714Y-85835714D01*
X139771428Y-85978571D01*
X141128571Y-86478571D02*
X141128571Y-85478571D01*
X141128571Y-85621428D02*
X141200000Y-85550000D01*
X141342857Y-85478571D01*
X141557142Y-85478571D01*
X141700000Y-85550000D01*
X141771428Y-85692857D01*
X141771428Y-86478571D01*
X141771428Y-85692857D02*
X141842857Y-85550000D01*
X141985714Y-85478571D01*
X142200000Y-85478571D01*
X142342857Y-85550000D01*
X142414285Y-85692857D01*
X142414285Y-86478571D01*
X143128571Y-85478571D02*
X143128571Y-86978571D01*
X143128571Y-85550000D02*
X143271428Y-85478571D01*
X143557142Y-85478571D01*
X143700000Y-85550000D01*
X143771428Y-85621428D01*
X143842857Y-85764285D01*
X143842857Y-86192857D01*
X143771428Y-86335714D01*
X143700000Y-86407142D01*
X143557142Y-86478571D01*
X143271428Y-86478571D01*
X143128571Y-86407142D01*
X144485714Y-85907142D02*
X145628571Y-85907142D01*
X147200000Y-86335714D02*
X147128571Y-86407142D01*
X146914285Y-86478571D01*
X146771428Y-86478571D01*
X146557142Y-86407142D01*
X146414285Y-86264285D01*
X146342857Y-86121428D01*
X146271428Y-85835714D01*
X146271428Y-85621428D01*
X146342857Y-85335714D01*
X146414285Y-85192857D01*
X146557142Y-85050000D01*
X146771428Y-84978571D01*
X146914285Y-84978571D01*
X147128571Y-85050000D01*
X147200000Y-85121428D01*
D11*
X151038095Y-123500000D02*
X150942857Y-123452380D01*
X150800000Y-123452380D01*
X150657142Y-123500000D01*
X150561904Y-123595238D01*
X150514285Y-123690476D01*
X150466666Y-123880952D01*
X150466666Y-124023809D01*
X150514285Y-124214285D01*
X150561904Y-124309523D01*
X150657142Y-124404761D01*
X150800000Y-124452380D01*
X150895238Y-124452380D01*
X151038095Y-124404761D01*
X151085714Y-124357142D01*
X151085714Y-124023809D01*
X150895238Y-124023809D01*
X151514285Y-124452380D02*
X151514285Y-123452380D01*
X152085714Y-124452380D01*
X152085714Y-123452380D01*
X152561904Y-124452380D02*
X152561904Y-123452380D01*
X152800000Y-123452380D01*
X152942857Y-123500000D01*
X153038095Y-123595238D01*
X153085714Y-123690476D01*
X153133333Y-123880952D01*
X153133333Y-124023809D01*
X153085714Y-124214285D01*
X153038095Y-124309523D01*
X152942857Y-124404761D01*
X152800000Y-124452380D01*
X152561904Y-124452380D01*
X146078571Y-124452380D02*
X145507142Y-124452380D01*
X145792857Y-124452380D02*
X145792857Y-123452380D01*
X145697619Y-123595238D01*
X145602380Y-123690476D01*
X145507142Y-123738095D01*
X146459523Y-123547619D02*
X146507142Y-123500000D01*
X146602380Y-123452380D01*
X146840476Y-123452380D01*
X146935714Y-123500000D01*
X146983333Y-123547619D01*
X147030952Y-123642857D01*
X147030952Y-123738095D01*
X146983333Y-123880952D01*
X146411904Y-124452380D01*
X147030952Y-124452380D01*
X147364285Y-123785714D02*
X147602380Y-124452380D01*
X147840476Y-123785714D01*
X141452380Y-144472380D02*
X140880952Y-144472380D01*
X141166666Y-144472380D02*
X141166666Y-143472380D01*
X141071428Y-143615238D01*
X140976190Y-143710476D01*
X140880952Y-143758095D01*
X142071428Y-143472380D02*
X142166666Y-143472380D01*
X142261904Y-143520000D01*
X142309523Y-143567619D01*
X142357142Y-143662857D01*
X142404761Y-143853333D01*
X142404761Y-144091428D01*
X142357142Y-144281904D01*
X142309523Y-144377142D01*
X142261904Y-144424761D01*
X142166666Y-144472380D01*
X142071428Y-144472380D01*
X141976190Y-144424761D01*
X141928571Y-144377142D01*
X141880952Y-144281904D01*
X141833333Y-144091428D01*
X141833333Y-143853333D01*
X141880952Y-143662857D01*
X141928571Y-143567619D01*
X141976190Y-143520000D01*
X142071428Y-143472380D01*
X143023809Y-143472380D02*
X143119047Y-143472380D01*
X143214285Y-143520000D01*
X143261904Y-143567619D01*
X143309523Y-143662857D01*
X143357142Y-143853333D01*
X143357142Y-144091428D01*
X143309523Y-144281904D01*
X143261904Y-144377142D01*
X143214285Y-144424761D01*
X143119047Y-144472380D01*
X143023809Y-144472380D01*
X142928571Y-144424761D01*
X142880952Y-144377142D01*
X142833333Y-144281904D01*
X142785714Y-144091428D01*
X142785714Y-143853333D01*
X142833333Y-143662857D01*
X142880952Y-143567619D01*
X142928571Y-143520000D01*
X143023809Y-143472380D01*
X143785714Y-144377142D02*
X143833333Y-144424761D01*
X143785714Y-144472380D01*
X143738095Y-144424761D01*
X143785714Y-144377142D01*
X143785714Y-144472380D01*
X144452380Y-143472380D02*
X144547619Y-143472380D01*
X144642857Y-143520000D01*
X144690476Y-143567619D01*
X144738095Y-143662857D01*
X144785714Y-143853333D01*
X144785714Y-144091428D01*
X144738095Y-144281904D01*
X144690476Y-144377142D01*
X144642857Y-144424761D01*
X144547619Y-144472380D01*
X144452380Y-144472380D01*
X144357142Y-144424761D01*
X144309523Y-144377142D01*
X144261904Y-144281904D01*
X144214285Y-144091428D01*
X144214285Y-143853333D01*
X144261904Y-143662857D01*
X144309523Y-143567619D01*
X144357142Y-143520000D01*
X144452380Y-143472380D01*
X145404761Y-143472380D02*
X145500000Y-143472380D01*
X145595238Y-143520000D01*
X145642857Y-143567619D01*
X145690476Y-143662857D01*
X145738095Y-143853333D01*
X145738095Y-144091428D01*
X145690476Y-144281904D01*
X145642857Y-144377142D01*
X145595238Y-144424761D01*
X145500000Y-144472380D01*
X145404761Y-144472380D01*
X145309523Y-144424761D01*
X145261904Y-144377142D01*
X145214285Y-144281904D01*
X145166666Y-144091428D01*
X145166666Y-143853333D01*
X145214285Y-143662857D01*
X145261904Y-143567619D01*
X145309523Y-143520000D01*
X145404761Y-143472380D01*
X146357142Y-143472380D02*
X146452380Y-143472380D01*
X146547619Y-143520000D01*
X146595238Y-143567619D01*
X146642857Y-143662857D01*
X146690476Y-143853333D01*
X146690476Y-144091428D01*
X146642857Y-144281904D01*
X146595238Y-144377142D01*
X146547619Y-144424761D01*
X146452380Y-144472380D01*
X146357142Y-144472380D01*
X146261904Y-144424761D01*
X146214285Y-144377142D01*
X146166666Y-144281904D01*
X146119047Y-144091428D01*
X146119047Y-143853333D01*
X146166666Y-143662857D01*
X146214285Y-143567619D01*
X146261904Y-143520000D01*
X146357142Y-143472380D01*
X147880952Y-144472380D02*
X147880952Y-143805714D01*
X147880952Y-143900952D02*
X147928571Y-143853333D01*
X148023809Y-143805714D01*
X148166666Y-143805714D01*
X148261904Y-143853333D01*
X148309523Y-143948571D01*
X148309523Y-144472380D01*
X148309523Y-143948571D02*
X148357142Y-143853333D01*
X148452380Y-143805714D01*
X148595238Y-143805714D01*
X148690476Y-143853333D01*
X148738095Y-143948571D01*
X148738095Y-144472380D01*
X149214285Y-144472380D02*
X149214285Y-143805714D01*
X149214285Y-143900952D02*
X149261904Y-143853333D01*
X149357142Y-143805714D01*
X149500000Y-143805714D01*
X149595238Y-143853333D01*
X149642857Y-143948571D01*
X149642857Y-144472380D01*
X149642857Y-143948571D02*
X149690476Y-143853333D01*
X149785714Y-143805714D01*
X149928571Y-143805714D01*
X150023809Y-143853333D01*
X150071428Y-143948571D01*
X150071428Y-144472380D01*
D12*
X95500000Y-142750000D02*
X195500000Y-142750000D01*
X95500000Y-134750000D02*
X95500000Y-143336421D01*
X195500000Y-134750000D02*
X195500000Y-143336421D01*
X195500000Y-142750000D02*
X194373496Y-143336421D01*
X195500000Y-142750000D02*
X194373496Y-142163579D01*
X95500000Y-142750000D02*
X96626504Y-143336421D01*
X95500000Y-142750000D02*
X96626504Y-142163579D01*
D13*
G36*
X141889366Y-72747796D02*
G01*
X141919084Y-72750125D01*
X141942335Y-72754996D01*
X141961513Y-72763218D01*
X141979009Y-72775600D01*
X141997216Y-72792951D01*
X142002479Y-72798502D01*
X142025948Y-72828343D01*
X142045863Y-72864380D01*
X142062730Y-72907892D01*
X142077053Y-72960158D01*
X142088133Y-73015432D01*
X142091237Y-73035663D01*
X142093646Y-73057566D01*
X142095434Y-73082815D01*
X142096676Y-73113083D01*
X142097446Y-73150045D01*
X142097817Y-73195375D01*
X142097880Y-73235444D01*
X142097566Y-73294075D01*
X142096572Y-73347595D01*
X142094741Y-73398212D01*
X142091915Y-73448134D01*
X142087940Y-73499569D01*
X142082659Y-73554724D01*
X142075914Y-73615807D01*
X142067551Y-73685026D01*
X142064109Y-73712400D01*
X142060689Y-73739133D01*
X142057280Y-73765176D01*
X142053731Y-73791550D01*
X142049893Y-73819274D01*
X142045613Y-73849370D01*
X142040742Y-73882859D01*
X142035129Y-73920761D01*
X142028623Y-73964097D01*
X142021073Y-74013887D01*
X142012330Y-74071153D01*
X142002241Y-74136915D01*
X141990656Y-74212193D01*
X141982867Y-74262733D01*
X141953274Y-74454644D01*
X141988713Y-74510816D01*
X142020103Y-74564312D01*
X142051663Y-74624887D01*
X142081500Y-74688518D01*
X142107718Y-74751187D01*
X142126818Y-74803934D01*
X142137211Y-74837587D01*
X142147582Y-74874849D01*
X142157396Y-74913395D01*
X142166117Y-74950901D01*
X142173209Y-74985042D01*
X142178138Y-75013492D01*
X142180367Y-75033928D01*
X142180442Y-75036731D01*
X142182074Y-75051263D01*
X142185238Y-75060382D01*
X142188749Y-75061008D01*
X142197303Y-75058904D01*
X142211542Y-75053794D01*
X142232105Y-75045400D01*
X142259633Y-75033442D01*
X142294766Y-75017644D01*
X142338146Y-74997727D01*
X142390412Y-74973413D01*
X142450187Y-74945374D01*
X142664747Y-74844430D01*
X142870375Y-74844430D01*
X142876069Y-74869618D01*
X142889483Y-74891300D01*
X142908841Y-74907988D01*
X142932365Y-74918191D01*
X142958278Y-74920422D01*
X142984802Y-74913192D01*
X142987293Y-74911957D01*
X143010127Y-74894726D01*
X143024412Y-74872616D01*
X143030402Y-74847816D01*
X143028351Y-74822515D01*
X143018514Y-74798900D01*
X143001144Y-74779162D01*
X142976495Y-74765487D01*
X142970062Y-74763494D01*
X142943413Y-74761752D01*
X142917371Y-74769520D01*
X142894729Y-74785232D01*
X142878279Y-74807325D01*
X142874181Y-74817224D01*
X142870375Y-74844430D01*
X142664747Y-74844430D01*
X142710427Y-74822939D01*
X142716989Y-74791192D01*
X142732186Y-74743641D01*
X142756271Y-74701295D01*
X142787892Y-74665082D01*
X142825702Y-74635928D01*
X142868350Y-74614758D01*
X142914486Y-74602500D01*
X142962762Y-74600080D01*
X142990537Y-74603424D01*
X143040980Y-74618045D01*
X143085580Y-74641649D01*
X143123450Y-74673183D01*
X143153706Y-74711593D01*
X143175463Y-74755825D01*
X143187834Y-74804826D01*
X143190435Y-74841288D01*
X143185118Y-74892664D01*
X143169791Y-74940177D01*
X143145390Y-74982725D01*
X143112850Y-75019206D01*
X143073107Y-75048520D01*
X143027098Y-75069564D01*
X142988128Y-75079416D01*
X142939364Y-75082461D01*
X142891136Y-75074576D01*
X142843652Y-75056173D01*
X142809860Y-75039444D01*
X142502163Y-75183870D01*
X142446845Y-75209923D01*
X142394488Y-75234753D01*
X142346003Y-75257916D01*
X142302299Y-75278968D01*
X142264289Y-75297468D01*
X142232883Y-75312971D01*
X142208991Y-75325035D01*
X142193525Y-75333215D01*
X142187411Y-75337048D01*
X142182251Y-75348903D01*
X142180301Y-75363067D01*
X142179142Y-75375447D01*
X142176041Y-75395868D01*
X142171488Y-75421347D01*
X142166744Y-75445244D01*
X142161556Y-75470677D01*
X142157475Y-75491634D01*
X142154917Y-75505908D01*
X142154288Y-75511285D01*
X142159957Y-75511628D01*
X142176013Y-75512260D01*
X142201560Y-75513151D01*
X142235702Y-75514273D01*
X142277542Y-75515599D01*
X142326182Y-75517101D01*
X142380727Y-75518750D01*
X142440280Y-75520519D01*
X142503943Y-75522378D01*
X142558518Y-75523950D01*
X142635773Y-75526149D01*
X142702521Y-75528012D01*
X142759543Y-75529543D01*
X142807615Y-75530744D01*
X142847516Y-75531621D01*
X142880025Y-75532174D01*
X142905919Y-75532409D01*
X142925976Y-75532329D01*
X142940976Y-75531936D01*
X142951695Y-75531234D01*
X142958913Y-75530226D01*
X142963407Y-75528916D01*
X142965955Y-75527308D01*
X142967175Y-75525705D01*
X142981660Y-75505979D01*
X143002925Y-75484418D01*
X143027565Y-75464053D01*
X143052172Y-75447914D01*
X143058049Y-75444832D01*
X143106984Y-75426491D01*
X143156405Y-75418684D01*
X143204988Y-75420977D01*
X143251406Y-75432932D01*
X143294337Y-75454112D01*
X143332454Y-75484083D01*
X143364433Y-75522407D01*
X143381121Y-75551227D01*
X143390266Y-75570164D01*
X143396322Y-75585018D01*
X143399924Y-75599029D01*
X143401709Y-75615439D01*
X143402315Y-75637489D01*
X143402378Y-75659440D01*
X143402186Y-75688216D01*
X143401239Y-75708898D01*
X143398976Y-75724680D01*
X143394839Y-75738757D01*
X143388269Y-75754322D01*
X143384267Y-75762878D01*
X143357676Y-75806658D01*
X143323810Y-75842700D01*
X143284056Y-75870507D01*
X143239803Y-75889580D01*
X143192439Y-75899420D01*
X143143352Y-75899529D01*
X143093928Y-75889408D01*
X143064045Y-75877923D01*
X143041265Y-75864426D01*
X143015538Y-75844367D01*
X142990118Y-75820621D01*
X142968257Y-75796060D01*
X142962071Y-75787833D01*
X142950822Y-75772000D01*
X142572644Y-75761105D01*
X142485267Y-75758598D01*
X142408482Y-75756428D01*
X142341601Y-75754594D01*
X142283932Y-75753095D01*
X142234785Y-75751930D01*
X142193470Y-75751098D01*
X142159295Y-75750599D01*
X142131572Y-75750431D01*
X142109608Y-75750592D01*
X142092715Y-75751083D01*
X142080200Y-75751902D01*
X142071375Y-75753048D01*
X142065548Y-75754520D01*
X142062029Y-75756317D01*
X142060127Y-75758438D01*
X142059313Y-75760346D01*
X142055361Y-75769012D01*
X142046944Y-75785197D01*
X142035263Y-75806658D01*
X142021519Y-75831150D01*
X142020247Y-75833382D01*
X141984451Y-75896116D01*
X142397034Y-76090412D01*
X142809618Y-76284708D01*
X142841090Y-76268715D01*
X142888923Y-76250321D01*
X142938006Y-76242366D01*
X142986828Y-76244492D01*
X143033879Y-76256339D01*
X143077646Y-76277550D01*
X143116621Y-76307765D01*
X143145349Y-76340953D01*
X143164636Y-76371377D01*
X143177451Y-76401116D01*
X143184809Y-76433648D01*
X143187727Y-76472453D01*
X143187889Y-76486644D01*
X143187622Y-76513360D01*
X143186290Y-76532644D01*
X143183096Y-76548347D01*
X143177243Y-76564322D01*
X143167933Y-76584423D01*
X143167451Y-76585422D01*
X143140554Y-76629417D01*
X143107027Y-76665416D01*
X143068241Y-76693153D01*
X143025563Y-76712362D01*
X142980362Y-76722778D01*
X142934007Y-76724133D01*
X142887866Y-76716163D01*
X142843308Y-76698600D01*
X142801701Y-76671180D01*
X142788049Y-76659166D01*
X142757914Y-76625398D01*
X142735629Y-76587581D01*
X142719404Y-76542618D01*
X142718224Y-76538280D01*
X142708111Y-76500269D01*
X142680388Y-76487206D01*
X142872097Y-76487206D01*
X142877097Y-76511977D01*
X142890285Y-76534597D01*
X142911069Y-76552328D01*
X142936037Y-76561415D01*
X142963493Y-76561528D01*
X142989231Y-76552785D01*
X142993732Y-76550031D01*
X143014629Y-76530398D01*
X143026587Y-76507025D01*
X143030203Y-76481965D01*
X143026076Y-76457268D01*
X143014805Y-76434988D01*
X142996988Y-76417175D01*
X142973223Y-76405881D01*
X142950822Y-76402918D01*
X142923068Y-76407658D01*
X142900772Y-76420509D01*
X142884481Y-76439419D01*
X142874740Y-76462336D01*
X142872097Y-76487206D01*
X142680388Y-76487206D01*
X141840657Y-76091533D01*
X141752273Y-76179256D01*
X141694149Y-76235319D01*
X141639063Y-76284728D01*
X141583732Y-76330169D01*
X141524873Y-76374324D01*
X141459204Y-76419878D01*
X141452222Y-76424556D01*
X141316925Y-76508329D01*
X141174403Y-76583819D01*
X141025332Y-76650802D01*
X140870390Y-76709056D01*
X140710253Y-76758360D01*
X140545600Y-76798489D01*
X140377106Y-76829222D01*
X140205450Y-76850337D01*
X140139889Y-76855766D01*
X140098028Y-76858337D01*
X140049875Y-76860574D01*
X139998203Y-76862410D01*
X139945782Y-76863775D01*
X139895385Y-76864603D01*
X139849782Y-76864826D01*
X139811747Y-76864375D01*
X139801222Y-76864063D01*
X139619490Y-76852667D01*
X139441990Y-76831674D01*
X139269091Y-76801195D01*
X139101162Y-76761342D01*
X138938572Y-76712226D01*
X138781692Y-76653960D01*
X138630891Y-76586654D01*
X138486537Y-76510421D01*
X138349001Y-76425373D01*
X138347778Y-76424556D01*
X138281257Y-76378718D01*
X138221872Y-76334544D01*
X138166339Y-76289350D01*
X138111375Y-76240452D01*
X138053697Y-76185167D01*
X138047727Y-76179256D01*
X137959343Y-76091533D01*
X137091889Y-76500269D01*
X137081776Y-76538280D01*
X137065993Y-76584008D01*
X137044304Y-76622322D01*
X137014921Y-76656319D01*
X137011951Y-76659166D01*
X136971707Y-76690109D01*
X136928030Y-76711101D01*
X136882289Y-76722407D01*
X136835853Y-76724295D01*
X136790091Y-76717031D01*
X136746371Y-76700879D01*
X136706062Y-76676107D01*
X136670533Y-76642980D01*
X136641152Y-76601764D01*
X136632548Y-76585422D01*
X136623075Y-76565062D01*
X136617092Y-76548990D01*
X136613801Y-76533354D01*
X136612407Y-76514300D01*
X136612111Y-76487976D01*
X136612111Y-76487748D01*
X136768702Y-76487748D01*
X136774719Y-76511168D01*
X136787547Y-76532004D01*
X136805766Y-76548666D01*
X136827954Y-76559568D01*
X136852690Y-76563121D01*
X136878551Y-76557737D01*
X136885702Y-76554462D01*
X136906227Y-76538343D01*
X136920510Y-76516138D01*
X136927746Y-76490814D01*
X136927130Y-76465333D01*
X136917857Y-76442662D01*
X136916562Y-76440850D01*
X136893537Y-76417543D01*
X136868033Y-76404694D01*
X136841539Y-76402318D01*
X136815547Y-76410431D01*
X136791547Y-76429048D01*
X136782791Y-76439504D01*
X136770919Y-76463330D01*
X136768702Y-76487748D01*
X136612111Y-76487748D01*
X136612111Y-76486644D01*
X136613832Y-76445121D01*
X136619670Y-76410974D01*
X136630643Y-76380725D01*
X136647765Y-76350896D01*
X136654650Y-76340953D01*
X136688249Y-76303225D01*
X136727950Y-76274191D01*
X136772243Y-76254209D01*
X136819618Y-76243638D01*
X136868562Y-76242837D01*
X136917566Y-76252164D01*
X136958910Y-76268715D01*
X136990382Y-76284708D01*
X137402965Y-76090412D01*
X137815549Y-75896116D01*
X137779753Y-75833382D01*
X137765884Y-75808730D01*
X137753973Y-75786912D01*
X137745219Y-75770170D01*
X137740825Y-75760750D01*
X137740687Y-75760346D01*
X137739576Y-75757969D01*
X137737394Y-75755916D01*
X137733451Y-75754186D01*
X137727057Y-75752782D01*
X137717520Y-75751705D01*
X137704150Y-75750954D01*
X137686257Y-75750532D01*
X137663151Y-75750438D01*
X137634141Y-75750676D01*
X137598536Y-75751244D01*
X137555647Y-75752145D01*
X137504782Y-75753379D01*
X137445251Y-75754948D01*
X137376364Y-75756852D01*
X137297430Y-75759092D01*
X137227355Y-75761105D01*
X136849178Y-75772000D01*
X136837929Y-75787833D01*
X136818074Y-75812003D01*
X136793525Y-75836360D01*
X136767536Y-75858031D01*
X136743359Y-75874142D01*
X136735954Y-75877923D01*
X136687012Y-75894566D01*
X136637554Y-75900673D01*
X136588968Y-75896742D01*
X136542642Y-75883273D01*
X136499964Y-75860765D01*
X136462323Y-75829715D01*
X136431105Y-75790622D01*
X136415733Y-75762878D01*
X136407853Y-75745552D01*
X136402664Y-75731187D01*
X136399607Y-75716587D01*
X136398123Y-75698560D01*
X136397652Y-75673911D01*
X136397622Y-75659440D01*
X136397623Y-75659096D01*
X136553890Y-75659096D01*
X136554464Y-75670199D01*
X136558163Y-75688177D01*
X136566224Y-75702592D01*
X136580290Y-75717378D01*
X136595476Y-75730229D01*
X136608342Y-75736605D01*
X136623876Y-75738637D01*
X136630237Y-75738718D01*
X136655971Y-75735465D01*
X136673402Y-75728043D01*
X136694160Y-75708567D01*
X136706685Y-75684566D01*
X136711023Y-75658449D01*
X136707222Y-75632622D01*
X136695330Y-75609495D01*
X136675395Y-75591476D01*
X136670647Y-75588799D01*
X136642952Y-75579989D01*
X136616080Y-75581122D01*
X136591883Y-75590898D01*
X136572216Y-75608018D01*
X136558934Y-75631184D01*
X136553890Y-75659096D01*
X136397623Y-75659096D01*
X136397763Y-75631102D01*
X136398611Y-75610811D01*
X136400803Y-75595327D01*
X136404975Y-75581409D01*
X136411764Y-75565815D01*
X136418878Y-75551227D01*
X136446216Y-75507767D01*
X136480543Y-75472381D01*
X136520534Y-75445504D01*
X136564864Y-75427573D01*
X136612209Y-75419024D01*
X136661244Y-75420294D01*
X136710644Y-75431818D01*
X136741951Y-75444832D01*
X136766004Y-75459403D01*
X136790959Y-75478976D01*
X136813411Y-75500520D01*
X136829955Y-75521003D01*
X136832825Y-75525705D01*
X136834330Y-75527565D01*
X136837118Y-75529130D01*
X136841967Y-75530395D01*
X136849656Y-75531357D01*
X136860961Y-75532014D01*
X136876662Y-75532360D01*
X136897537Y-75532395D01*
X136924363Y-75532113D01*
X136957920Y-75531511D01*
X136998985Y-75530587D01*
X137048336Y-75529336D01*
X137106753Y-75527756D01*
X137175012Y-75525844D01*
X137241482Y-75523950D01*
X137307844Y-75522036D01*
X137370829Y-75520191D01*
X137429542Y-75518442D01*
X137483085Y-75516818D01*
X137530561Y-75515345D01*
X137571074Y-75514054D01*
X137603726Y-75512971D01*
X137627622Y-75512125D01*
X137641865Y-75511544D01*
X137645712Y-75511285D01*
X137645043Y-75505663D01*
X137642444Y-75491204D01*
X137638332Y-75470115D01*
X137633256Y-75445244D01*
X137627843Y-75417793D01*
X137623455Y-75392812D01*
X137620582Y-75373284D01*
X137619699Y-75363067D01*
X137617422Y-75347707D01*
X137612589Y-75337048D01*
X137606328Y-75333133D01*
X137590743Y-75324898D01*
X137566745Y-75312786D01*
X137535244Y-75297240D01*
X137497152Y-75278703D01*
X137453379Y-75257619D01*
X137404836Y-75234431D01*
X137352433Y-75209582D01*
X137297836Y-75183870D01*
X136990139Y-75039444D01*
X136956347Y-75056173D01*
X136907764Y-75074879D01*
X136859534Y-75082512D01*
X136811872Y-75079416D01*
X136761688Y-75065464D01*
X136717052Y-75042397D01*
X136678902Y-75011318D01*
X136648172Y-74973327D01*
X136625798Y-74929526D01*
X136612717Y-74881016D01*
X136610004Y-74846815D01*
X136769105Y-74846815D01*
X136775164Y-74872619D01*
X136781833Y-74885007D01*
X136800686Y-74904192D01*
X136825496Y-74916118D01*
X136852910Y-74919918D01*
X136879578Y-74914719D01*
X136885648Y-74911957D01*
X136909003Y-74894522D01*
X136923543Y-74872403D01*
X136929472Y-74847706D01*
X136926995Y-74822536D01*
X136916317Y-74798997D01*
X136897642Y-74779194D01*
X136871395Y-74765309D01*
X136844549Y-74761200D01*
X136819834Y-74766558D01*
X136798590Y-74779592D01*
X136782159Y-74798508D01*
X136771884Y-74821513D01*
X136769105Y-74846815D01*
X136610004Y-74846815D01*
X136609565Y-74841288D01*
X136614850Y-74789479D01*
X136630118Y-74741772D01*
X136654482Y-74699209D01*
X136687059Y-74662829D01*
X136726964Y-74633676D01*
X136773313Y-74612790D01*
X136811812Y-74603171D01*
X136861118Y-74600144D01*
X136908824Y-74607480D01*
X136953598Y-74624258D01*
X136994111Y-74649555D01*
X137029034Y-74682449D01*
X137057035Y-74722019D01*
X137076785Y-74767341D01*
X137083010Y-74791192D01*
X137089573Y-74822939D01*
X137349623Y-74945285D01*
X137400142Y-74968994D01*
X137447505Y-74991107D01*
X137490745Y-75011180D01*
X137528895Y-75028772D01*
X137560988Y-75043437D01*
X137586056Y-75054732D01*
X137603132Y-75062213D01*
X137611249Y-75065438D01*
X137611788Y-75065515D01*
X137613481Y-75059459D01*
X137616576Y-75044451D01*
X137620649Y-75022676D01*
X137625277Y-74996322D01*
X137625797Y-74993266D01*
X137649845Y-74882970D01*
X137684260Y-74772859D01*
X137728239Y-74665004D01*
X138398795Y-74665004D01*
X138399058Y-74696007D01*
X138400006Y-74731691D01*
X138401550Y-74769863D01*
X138403599Y-74808336D01*
X138406062Y-74844920D01*
X138408851Y-74877424D01*
X138411874Y-74903660D01*
X138412236Y-74906200D01*
X138432287Y-75015371D01*
X138459216Y-75115635D01*
X138493053Y-75207061D01*
X138533828Y-75289716D01*
X138581570Y-75363668D01*
X138636309Y-75428985D01*
X138646803Y-75439726D01*
X138711685Y-75496708D01*
X138785109Y-75546571D01*
X138866740Y-75589163D01*
X138956237Y-75624333D01*
X139053263Y-75651929D01*
X139157481Y-75671800D01*
X139169044Y-75673462D01*
X139201058Y-75677852D01*
X139226911Y-75681093D01*
X139249349Y-75683345D01*
X139271119Y-75684773D01*
X139294964Y-75685539D01*
X139323633Y-75685805D01*
X139359869Y-75685733D01*
X139375067Y-75685657D01*
X139473844Y-75685133D01*
X139475453Y-75589177D01*
X139475346Y-75583969D01*
X140323333Y-75583969D01*
X140323570Y-75615945D01*
X140324226Y-75643968D01*
X140325219Y-75666097D01*
X140326468Y-75680391D01*
X140327567Y-75684850D01*
X140334810Y-75686468D01*
X140351527Y-75687374D01*
X140375929Y-75687632D01*
X140406228Y-75687306D01*
X140440636Y-75686460D01*
X140477363Y-75685157D01*
X140514621Y-75683461D01*
X140550623Y-75681436D01*
X140583579Y-75679145D01*
X140611700Y-75676653D01*
X140633199Y-75674023D01*
X140633778Y-75673934D01*
X140653821Y-75670069D01*
X143088953Y-75670069D01*
X143097092Y-75695105D01*
X143112861Y-75716195D01*
X143135108Y-75731311D01*
X143162681Y-75738426D01*
X143169763Y-75738718D01*
X143187207Y-75737627D01*
X143200385Y-75732876D01*
X143214285Y-75722333D01*
X143219710Y-75717378D01*
X143238598Y-75693124D01*
X143246774Y-75666207D01*
X143244006Y-75637767D01*
X143238732Y-75623932D01*
X143222650Y-75601735D01*
X143200755Y-75587239D01*
X143175552Y-75580585D01*
X143149548Y-75581910D01*
X143125250Y-75591354D01*
X143105164Y-75609055D01*
X143100171Y-75616262D01*
X143089595Y-75643112D01*
X143088953Y-75670069D01*
X140653821Y-75670069D01*
X140741346Y-75653192D01*
X140840097Y-75625528D01*
X140930222Y-75590747D01*
X141011914Y-75548652D01*
X141085364Y-75499050D01*
X141150764Y-75441744D01*
X141208307Y-75376538D01*
X141258184Y-75303237D01*
X141300587Y-75221646D01*
X141335709Y-75131569D01*
X141363741Y-75032811D01*
X141384875Y-74925176D01*
X141387764Y-74906200D01*
X141390808Y-74880834D01*
X141393628Y-74848945D01*
X141396134Y-74812723D01*
X141398236Y-74774357D01*
X141399843Y-74736037D01*
X141400865Y-74699952D01*
X141401212Y-74668293D01*
X141400794Y-74643248D01*
X141399520Y-74627008D01*
X141399313Y-74625793D01*
X141395536Y-74605659D01*
X141346268Y-74601946D01*
X141311073Y-74600711D01*
X141267656Y-74601418D01*
X141218880Y-74603870D01*
X141167607Y-74607873D01*
X141116701Y-74613232D01*
X141069024Y-74619750D01*
X141057111Y-74621678D01*
X140959722Y-74642172D01*
X140868006Y-74669807D01*
X140782850Y-74704177D01*
X140705140Y-74744876D01*
X140635765Y-74791499D01*
X140579178Y-74840135D01*
X140522317Y-74903243D01*
X140472212Y-74975004D01*
X140429042Y-75054893D01*
X140392988Y-75142385D01*
X140364230Y-75236958D01*
X140342949Y-75338085D01*
X140329324Y-75445244D01*
X140323537Y-75557909D01*
X140323333Y-75583969D01*
X139475346Y-75583969D01*
X139473201Y-75479853D01*
X139462889Y-75374441D01*
X139444769Y-75273685D01*
X139419095Y-75178330D01*
X139386121Y-75089122D01*
X139346098Y-75006804D01*
X139299281Y-74932123D01*
X139245921Y-74865821D01*
X139220889Y-74839937D01*
X139161223Y-74788981D01*
X139092313Y-74743274D01*
X139015130Y-74703260D01*
X138930644Y-74669382D01*
X138839826Y-74642082D01*
X138743646Y-74621805D01*
X138742889Y-74621678D01*
X138696570Y-74614881D01*
X138646252Y-74609191D01*
X138594796Y-74604804D01*
X138545067Y-74601914D01*
X138499925Y-74600719D01*
X138462235Y-74601412D01*
X138453732Y-74601946D01*
X138404464Y-74605659D01*
X138400687Y-74625793D01*
X138399308Y-74640869D01*
X138398795Y-74665004D01*
X137728239Y-74665004D01*
X137728268Y-74664935D01*
X137781096Y-74561202D01*
X137814397Y-74505444D01*
X137846487Y-74454644D01*
X137825916Y-74316355D01*
X137809453Y-74205356D01*
X137794649Y-74104702D01*
X137781416Y-74013586D01*
X137769670Y-73931201D01*
X137759324Y-73856738D01*
X137750292Y-73789391D01*
X137742487Y-73728350D01*
X137735824Y-73672810D01*
X137730215Y-73621962D01*
X137725576Y-73574998D01*
X137721820Y-73531112D01*
X137718860Y-73489494D01*
X137716611Y-73449339D01*
X137714986Y-73409837D01*
X137713899Y-73370182D01*
X137713264Y-73329565D01*
X137712994Y-73287180D01*
X137712975Y-73258022D01*
X137713149Y-73203558D01*
X137713587Y-73158833D01*
X137714353Y-73122299D01*
X137715513Y-73092408D01*
X137717134Y-73067612D01*
X137719282Y-73046362D01*
X137722021Y-73027111D01*
X137723062Y-73020955D01*
X137737051Y-72954164D01*
X137753952Y-72897692D01*
X137774105Y-72850864D01*
X137797850Y-72813008D01*
X137825529Y-72783449D01*
X137853012Y-72763995D01*
X137865057Y-72757341D01*
X137875593Y-72752740D01*
X137887055Y-72749811D01*
X137901878Y-72748176D01*
X137922499Y-72747452D01*
X137951353Y-72747262D01*
X137960301Y-72747252D01*
X137992979Y-72747430D01*
X138017470Y-72748280D01*
X138036872Y-72750201D01*
X138054283Y-72753590D01*
X138072802Y-72758848D01*
X138087301Y-72763591D01*
X138159795Y-72791803D01*
X138236882Y-72829323D01*
X138318702Y-72876243D01*
X138405394Y-72932654D01*
X138497098Y-72998648D01*
X138593952Y-73074318D01*
X138696097Y-73159756D01*
X138719884Y-73180387D01*
X138755117Y-73211948D01*
X138795856Y-73249798D01*
X138840401Y-73292248D01*
X138887050Y-73337613D01*
X138934102Y-73384203D01*
X138979855Y-73430332D01*
X139022608Y-73474313D01*
X139060660Y-73514458D01*
X139092309Y-73549079D01*
X139097312Y-73554727D01*
X139154785Y-73620009D01*
X139240937Y-73601409D01*
X139329214Y-73583348D01*
X139412359Y-73568582D01*
X139492835Y-73556862D01*
X139573106Y-73547941D01*
X139655637Y-73541571D01*
X139742893Y-73537505D01*
X139837336Y-73535495D01*
X139900000Y-73535173D01*
X140000083Y-73536043D01*
X140091463Y-73538816D01*
X140176605Y-73543740D01*
X140257973Y-73551064D01*
X140338032Y-73561035D01*
X140419244Y-73573900D01*
X140504076Y-73589908D01*
X140559063Y-73601409D01*
X140645215Y-73620009D01*
X140702996Y-73554754D01*
X140724438Y-73531109D01*
X140751811Y-73501790D01*
X140782990Y-73469026D01*
X140815844Y-73435045D01*
X140848248Y-73402078D01*
X140859587Y-73390693D01*
X140950884Y-73301868D01*
X141042303Y-73217733D01*
X141133158Y-73138786D01*
X141222762Y-73065526D01*
X141310431Y-72998453D01*
X141395478Y-72938066D01*
X141477218Y-72884864D01*
X141554965Y-72839346D01*
X141628032Y-72802011D01*
X141695735Y-72773359D01*
X141719177Y-72765094D01*
X141742092Y-72757767D01*
X141760905Y-72752762D01*
X141778841Y-72749642D01*
X141799124Y-72747968D01*
X141824979Y-72747302D01*
X141850789Y-72747200D01*
X141889366Y-72747796D01*
G37*
X141889366Y-72747796D02*
X141919084Y-72750125D01*
X141942335Y-72754996D01*
X141961513Y-72763218D01*
X141979009Y-72775600D01*
X141997216Y-72792951D01*
X142002479Y-72798502D01*
X142025948Y-72828343D01*
X142045863Y-72864380D01*
X142062730Y-72907892D01*
X142077053Y-72960158D01*
X142088133Y-73015432D01*
X142091237Y-73035663D01*
X142093646Y-73057566D01*
X142095434Y-73082815D01*
X142096676Y-73113083D01*
X142097446Y-73150045D01*
X142097817Y-73195375D01*
X142097880Y-73235444D01*
X142097566Y-73294075D01*
X142096572Y-73347595D01*
X142094741Y-73398212D01*
X142091915Y-73448134D01*
X142087940Y-73499569D01*
X142082659Y-73554724D01*
X142075914Y-73615807D01*
X142067551Y-73685026D01*
X142064109Y-73712400D01*
X142060689Y-73739133D01*
X142057280Y-73765176D01*
X142053731Y-73791550D01*
X142049893Y-73819274D01*
X142045613Y-73849370D01*
X142040742Y-73882859D01*
X142035129Y-73920761D01*
X142028623Y-73964097D01*
X142021073Y-74013887D01*
X142012330Y-74071153D01*
X142002241Y-74136915D01*
X141990656Y-74212193D01*
X141982867Y-74262733D01*
X141953274Y-74454644D01*
X141988713Y-74510816D01*
X142020103Y-74564312D01*
X142051663Y-74624887D01*
X142081500Y-74688518D01*
X142107718Y-74751187D01*
X142126818Y-74803934D01*
X142137211Y-74837587D01*
X142147582Y-74874849D01*
X142157396Y-74913395D01*
X142166117Y-74950901D01*
X142173209Y-74985042D01*
X142178138Y-75013492D01*
X142180367Y-75033928D01*
X142180442Y-75036731D01*
X142182074Y-75051263D01*
X142185238Y-75060382D01*
X142188749Y-75061008D01*
X142197303Y-75058904D01*
X142211542Y-75053794D01*
X142232105Y-75045400D01*
X142259633Y-75033442D01*
X142294766Y-75017644D01*
X142338146Y-74997727D01*
X142390412Y-74973413D01*
X142450187Y-74945374D01*
X142664747Y-74844430D01*
X142870375Y-74844430D01*
X142876069Y-74869618D01*
X142889483Y-74891300D01*
X142908841Y-74907988D01*
X142932365Y-74918191D01*
X142958278Y-74920422D01*
X142984802Y-74913192D01*
X142987293Y-74911957D01*
X143010127Y-74894726D01*
X143024412Y-74872616D01*
X143030402Y-74847816D01*
X143028351Y-74822515D01*
X143018514Y-74798900D01*
X143001144Y-74779162D01*
X142976495Y-74765487D01*
X142970062Y-74763494D01*
X142943413Y-74761752D01*
X142917371Y-74769520D01*
X142894729Y-74785232D01*
X142878279Y-74807325D01*
X142874181Y-74817224D01*
X142870375Y-74844430D01*
X142664747Y-74844430D01*
X142710427Y-74822939D01*
X142716989Y-74791192D01*
X142732186Y-74743641D01*
X142756271Y-74701295D01*
X142787892Y-74665082D01*
X142825702Y-74635928D01*
X142868350Y-74614758D01*
X142914486Y-74602500D01*
X142962762Y-74600080D01*
X142990537Y-74603424D01*
X143040980Y-74618045D01*
X143085580Y-74641649D01*
X143123450Y-74673183D01*
X143153706Y-74711593D01*
X143175463Y-74755825D01*
X143187834Y-74804826D01*
X143190435Y-74841288D01*
X143185118Y-74892664D01*
X143169791Y-74940177D01*
X143145390Y-74982725D01*
X143112850Y-75019206D01*
X143073107Y-75048520D01*
X143027098Y-75069564D01*
X142988128Y-75079416D01*
X142939364Y-75082461D01*
X142891136Y-75074576D01*
X142843652Y-75056173D01*
X142809860Y-75039444D01*
X142502163Y-75183870D01*
X142446845Y-75209923D01*
X142394488Y-75234753D01*
X142346003Y-75257916D01*
X142302299Y-75278968D01*
X142264289Y-75297468D01*
X142232883Y-75312971D01*
X142208991Y-75325035D01*
X142193525Y-75333215D01*
X142187411Y-75337048D01*
X142182251Y-75348903D01*
X142180301Y-75363067D01*
X142179142Y-75375447D01*
X142176041Y-75395868D01*
X142171488Y-75421347D01*
X142166744Y-75445244D01*
X142161556Y-75470677D01*
X142157475Y-75491634D01*
X142154917Y-75505908D01*
X142154288Y-75511285D01*
X142159957Y-75511628D01*
X142176013Y-75512260D01*
X142201560Y-75513151D01*
X142235702Y-75514273D01*
X142277542Y-75515599D01*
X142326182Y-75517101D01*
X142380727Y-75518750D01*
X142440280Y-75520519D01*
X142503943Y-75522378D01*
X142558518Y-75523950D01*
X142635773Y-75526149D01*
X142702521Y-75528012D01*
X142759543Y-75529543D01*
X142807615Y-75530744D01*
X142847516Y-75531621D01*
X142880025Y-75532174D01*
X142905919Y-75532409D01*
X142925976Y-75532329D01*
X142940976Y-75531936D01*
X142951695Y-75531234D01*
X142958913Y-75530226D01*
X142963407Y-75528916D01*
X142965955Y-75527308D01*
X142967175Y-75525705D01*
X142981660Y-75505979D01*
X143002925Y-75484418D01*
X143027565Y-75464053D01*
X143052172Y-75447914D01*
X143058049Y-75444832D01*
X143106984Y-75426491D01*
X143156405Y-75418684D01*
X143204988Y-75420977D01*
X143251406Y-75432932D01*
X143294337Y-75454112D01*
X143332454Y-75484083D01*
X143364433Y-75522407D01*
X143381121Y-75551227D01*
X143390266Y-75570164D01*
X143396322Y-75585018D01*
X143399924Y-75599029D01*
X143401709Y-75615439D01*
X143402315Y-75637489D01*
X143402378Y-75659440D01*
X143402186Y-75688216D01*
X143401239Y-75708898D01*
X143398976Y-75724680D01*
X143394839Y-75738757D01*
X143388269Y-75754322D01*
X143384267Y-75762878D01*
X143357676Y-75806658D01*
X143323810Y-75842700D01*
X143284056Y-75870507D01*
X143239803Y-75889580D01*
X143192439Y-75899420D01*
X143143352Y-75899529D01*
X143093928Y-75889408D01*
X143064045Y-75877923D01*
X143041265Y-75864426D01*
X143015538Y-75844367D01*
X142990118Y-75820621D01*
X142968257Y-75796060D01*
X142962071Y-75787833D01*
X142950822Y-75772000D01*
X142572644Y-75761105D01*
X142485267Y-75758598D01*
X142408482Y-75756428D01*
X142341601Y-75754594D01*
X142283932Y-75753095D01*
X142234785Y-75751930D01*
X142193470Y-75751098D01*
X142159295Y-75750599D01*
X142131572Y-75750431D01*
X142109608Y-75750592D01*
X142092715Y-75751083D01*
X142080200Y-75751902D01*
X142071375Y-75753048D01*
X142065548Y-75754520D01*
X142062029Y-75756317D01*
X142060127Y-75758438D01*
X142059313Y-75760346D01*
X142055361Y-75769012D01*
X142046944Y-75785197D01*
X142035263Y-75806658D01*
X142021519Y-75831150D01*
X142020247Y-75833382D01*
X141984451Y-75896116D01*
X142397034Y-76090412D01*
X142809618Y-76284708D01*
X142841090Y-76268715D01*
X142888923Y-76250321D01*
X142938006Y-76242366D01*
X142986828Y-76244492D01*
X143033879Y-76256339D01*
X143077646Y-76277550D01*
X143116621Y-76307765D01*
X143145349Y-76340953D01*
X143164636Y-76371377D01*
X143177451Y-76401116D01*
X143184809Y-76433648D01*
X143187727Y-76472453D01*
X143187889Y-76486644D01*
X143187622Y-76513360D01*
X143186290Y-76532644D01*
X143183096Y-76548347D01*
X143177243Y-76564322D01*
X143167933Y-76584423D01*
X143167451Y-76585422D01*
X143140554Y-76629417D01*
X143107027Y-76665416D01*
X143068241Y-76693153D01*
X143025563Y-76712362D01*
X142980362Y-76722778D01*
X142934007Y-76724133D01*
X142887866Y-76716163D01*
X142843308Y-76698600D01*
X142801701Y-76671180D01*
X142788049Y-76659166D01*
X142757914Y-76625398D01*
X142735629Y-76587581D01*
X142719404Y-76542618D01*
X142718224Y-76538280D01*
X142708111Y-76500269D01*
X142680388Y-76487206D01*
X142872097Y-76487206D01*
X142877097Y-76511977D01*
X142890285Y-76534597D01*
X142911069Y-76552328D01*
X142936037Y-76561415D01*
X142963493Y-76561528D01*
X142989231Y-76552785D01*
X142993732Y-76550031D01*
X143014629Y-76530398D01*
X143026587Y-76507025D01*
X143030203Y-76481965D01*
X143026076Y-76457268D01*
X143014805Y-76434988D01*
X142996988Y-76417175D01*
X142973223Y-76405881D01*
X142950822Y-76402918D01*
X142923068Y-76407658D01*
X142900772Y-76420509D01*
X142884481Y-76439419D01*
X142874740Y-76462336D01*
X142872097Y-76487206D01*
X142680388Y-76487206D01*
X141840657Y-76091533D01*
X141752273Y-76179256D01*
X141694149Y-76235319D01*
X141639063Y-76284728D01*
X141583732Y-76330169D01*
X141524873Y-76374324D01*
X141459204Y-76419878D01*
X141452222Y-76424556D01*
X141316925Y-76508329D01*
X141174403Y-76583819D01*
X141025332Y-76650802D01*
X140870390Y-76709056D01*
X140710253Y-76758360D01*
X140545600Y-76798489D01*
X140377106Y-76829222D01*
X140205450Y-76850337D01*
X140139889Y-76855766D01*
X140098028Y-76858337D01*
X140049875Y-76860574D01*
X139998203Y-76862410D01*
X139945782Y-76863775D01*
X139895385Y-76864603D01*
X139849782Y-76864826D01*
X139811747Y-76864375D01*
X139801222Y-76864063D01*
X139619490Y-76852667D01*
X139441990Y-76831674D01*
X139269091Y-76801195D01*
X139101162Y-76761342D01*
X138938572Y-76712226D01*
X138781692Y-76653960D01*
X138630891Y-76586654D01*
X138486537Y-76510421D01*
X138349001Y-76425373D01*
X138347778Y-76424556D01*
X138281257Y-76378718D01*
X138221872Y-76334544D01*
X138166339Y-76289350D01*
X138111375Y-76240452D01*
X138053697Y-76185167D01*
X138047727Y-76179256D01*
X137959343Y-76091533D01*
X137091889Y-76500269D01*
X137081776Y-76538280D01*
X137065993Y-76584008D01*
X137044304Y-76622322D01*
X137014921Y-76656319D01*
X137011951Y-76659166D01*
X136971707Y-76690109D01*
X136928030Y-76711101D01*
X136882289Y-76722407D01*
X136835853Y-76724295D01*
X136790091Y-76717031D01*
X136746371Y-76700879D01*
X136706062Y-76676107D01*
X136670533Y-76642980D01*
X136641152Y-76601764D01*
X136632548Y-76585422D01*
X136623075Y-76565062D01*
X136617092Y-76548990D01*
X136613801Y-76533354D01*
X136612407Y-76514300D01*
X136612111Y-76487976D01*
X136612111Y-76487748D01*
X136768702Y-76487748D01*
X136774719Y-76511168D01*
X136787547Y-76532004D01*
X136805766Y-76548666D01*
X136827954Y-76559568D01*
X136852690Y-76563121D01*
X136878551Y-76557737D01*
X136885702Y-76554462D01*
X136906227Y-76538343D01*
X136920510Y-76516138D01*
X136927746Y-76490814D01*
X136927130Y-76465333D01*
X136917857Y-76442662D01*
X136916562Y-76440850D01*
X136893537Y-76417543D01*
X136868033Y-76404694D01*
X136841539Y-76402318D01*
X136815547Y-76410431D01*
X136791547Y-76429048D01*
X136782791Y-76439504D01*
X136770919Y-76463330D01*
X136768702Y-76487748D01*
X136612111Y-76487748D01*
X136612111Y-76486644D01*
X136613832Y-76445121D01*
X136619670Y-76410974D01*
X136630643Y-76380725D01*
X136647765Y-76350896D01*
X136654650Y-76340953D01*
X136688249Y-76303225D01*
X136727950Y-76274191D01*
X136772243Y-76254209D01*
X136819618Y-76243638D01*
X136868562Y-76242837D01*
X136917566Y-76252164D01*
X136958910Y-76268715D01*
X136990382Y-76284708D01*
X137402965Y-76090412D01*
X137815549Y-75896116D01*
X137779753Y-75833382D01*
X137765884Y-75808730D01*
X137753973Y-75786912D01*
X137745219Y-75770170D01*
X137740825Y-75760750D01*
X137740687Y-75760346D01*
X137739576Y-75757969D01*
X137737394Y-75755916D01*
X137733451Y-75754186D01*
X137727057Y-75752782D01*
X137717520Y-75751705D01*
X137704150Y-75750954D01*
X137686257Y-75750532D01*
X137663151Y-75750438D01*
X137634141Y-75750676D01*
X137598536Y-75751244D01*
X137555647Y-75752145D01*
X137504782Y-75753379D01*
X137445251Y-75754948D01*
X137376364Y-75756852D01*
X137297430Y-75759092D01*
X137227355Y-75761105D01*
X136849178Y-75772000D01*
X136837929Y-75787833D01*
X136818074Y-75812003D01*
X136793525Y-75836360D01*
X136767536Y-75858031D01*
X136743359Y-75874142D01*
X136735954Y-75877923D01*
X136687012Y-75894566D01*
X136637554Y-75900673D01*
X136588968Y-75896742D01*
X136542642Y-75883273D01*
X136499964Y-75860765D01*
X136462323Y-75829715D01*
X136431105Y-75790622D01*
X136415733Y-75762878D01*
X136407853Y-75745552D01*
X136402664Y-75731187D01*
X136399607Y-75716587D01*
X136398123Y-75698560D01*
X136397652Y-75673911D01*
X136397622Y-75659440D01*
X136397623Y-75659096D01*
X136553890Y-75659096D01*
X136554464Y-75670199D01*
X136558163Y-75688177D01*
X136566224Y-75702592D01*
X136580290Y-75717378D01*
X136595476Y-75730229D01*
X136608342Y-75736605D01*
X136623876Y-75738637D01*
X136630237Y-75738718D01*
X136655971Y-75735465D01*
X136673402Y-75728043D01*
X136694160Y-75708567D01*
X136706685Y-75684566D01*
X136711023Y-75658449D01*
X136707222Y-75632622D01*
X136695330Y-75609495D01*
X136675395Y-75591476D01*
X136670647Y-75588799D01*
X136642952Y-75579989D01*
X136616080Y-75581122D01*
X136591883Y-75590898D01*
X136572216Y-75608018D01*
X136558934Y-75631184D01*
X136553890Y-75659096D01*
X136397623Y-75659096D01*
X136397763Y-75631102D01*
X136398611Y-75610811D01*
X136400803Y-75595327D01*
X136404975Y-75581409D01*
X136411764Y-75565815D01*
X136418878Y-75551227D01*
X136446216Y-75507767D01*
X136480543Y-75472381D01*
X136520534Y-75445504D01*
X136564864Y-75427573D01*
X136612209Y-75419024D01*
X136661244Y-75420294D01*
X136710644Y-75431818D01*
X136741951Y-75444832D01*
X136766004Y-75459403D01*
X136790959Y-75478976D01*
X136813411Y-75500520D01*
X136829955Y-75521003D01*
X136832825Y-75525705D01*
X136834330Y-75527565D01*
X136837118Y-75529130D01*
X136841967Y-75530395D01*
X136849656Y-75531357D01*
X136860961Y-75532014D01*
X136876662Y-75532360D01*
X136897537Y-75532395D01*
X136924363Y-75532113D01*
X136957920Y-75531511D01*
X136998985Y-75530587D01*
X137048336Y-75529336D01*
X137106753Y-75527756D01*
X137175012Y-75525844D01*
X137241482Y-75523950D01*
X137307844Y-75522036D01*
X137370829Y-75520191D01*
X137429542Y-75518442D01*
X137483085Y-75516818D01*
X137530561Y-75515345D01*
X137571074Y-75514054D01*
X137603726Y-75512971D01*
X137627622Y-75512125D01*
X137641865Y-75511544D01*
X137645712Y-75511285D01*
X137645043Y-75505663D01*
X137642444Y-75491204D01*
X137638332Y-75470115D01*
X137633256Y-75445244D01*
X137627843Y-75417793D01*
X137623455Y-75392812D01*
X137620582Y-75373284D01*
X137619699Y-75363067D01*
X137617422Y-75347707D01*
X137612589Y-75337048D01*
X137606328Y-75333133D01*
X137590743Y-75324898D01*
X137566745Y-75312786D01*
X137535244Y-75297240D01*
X137497152Y-75278703D01*
X137453379Y-75257619D01*
X137404836Y-75234431D01*
X137352433Y-75209582D01*
X137297836Y-75183870D01*
X136990139Y-75039444D01*
X136956347Y-75056173D01*
X136907764Y-75074879D01*
X136859534Y-75082512D01*
X136811872Y-75079416D01*
X136761688Y-75065464D01*
X136717052Y-75042397D01*
X136678902Y-75011318D01*
X136648172Y-74973327D01*
X136625798Y-74929526D01*
X136612717Y-74881016D01*
X136610004Y-74846815D01*
X136769105Y-74846815D01*
X136775164Y-74872619D01*
X136781833Y-74885007D01*
X136800686Y-74904192D01*
X136825496Y-74916118D01*
X136852910Y-74919918D01*
X136879578Y-74914719D01*
X136885648Y-74911957D01*
X136909003Y-74894522D01*
X136923543Y-74872403D01*
X136929472Y-74847706D01*
X136926995Y-74822536D01*
X136916317Y-74798997D01*
X136897642Y-74779194D01*
X136871395Y-74765309D01*
X136844549Y-74761200D01*
X136819834Y-74766558D01*
X136798590Y-74779592D01*
X136782159Y-74798508D01*
X136771884Y-74821513D01*
X136769105Y-74846815D01*
X136610004Y-74846815D01*
X136609565Y-74841288D01*
X136614850Y-74789479D01*
X136630118Y-74741772D01*
X136654482Y-74699209D01*
X136687059Y-74662829D01*
X136726964Y-74633676D01*
X136773313Y-74612790D01*
X136811812Y-74603171D01*
X136861118Y-74600144D01*
X136908824Y-74607480D01*
X136953598Y-74624258D01*
X136994111Y-74649555D01*
X137029034Y-74682449D01*
X137057035Y-74722019D01*
X137076785Y-74767341D01*
X137083010Y-74791192D01*
X137089573Y-74822939D01*
X137349623Y-74945285D01*
X137400142Y-74968994D01*
X137447505Y-74991107D01*
X137490745Y-75011180D01*
X137528895Y-75028772D01*
X137560988Y-75043437D01*
X137586056Y-75054732D01*
X137603132Y-75062213D01*
X137611249Y-75065438D01*
X137611788Y-75065515D01*
X137613481Y-75059459D01*
X137616576Y-75044451D01*
X137620649Y-75022676D01*
X137625277Y-74996322D01*
X137625797Y-74993266D01*
X137649845Y-74882970D01*
X137684260Y-74772859D01*
X137728239Y-74665004D01*
X138398795Y-74665004D01*
X138399058Y-74696007D01*
X138400006Y-74731691D01*
X138401550Y-74769863D01*
X138403599Y-74808336D01*
X138406062Y-74844920D01*
X138408851Y-74877424D01*
X138411874Y-74903660D01*
X138412236Y-74906200D01*
X138432287Y-75015371D01*
X138459216Y-75115635D01*
X138493053Y-75207061D01*
X138533828Y-75289716D01*
X138581570Y-75363668D01*
X138636309Y-75428985D01*
X138646803Y-75439726D01*
X138711685Y-75496708D01*
X138785109Y-75546571D01*
X138866740Y-75589163D01*
X138956237Y-75624333D01*
X139053263Y-75651929D01*
X139157481Y-75671800D01*
X139169044Y-75673462D01*
X139201058Y-75677852D01*
X139226911Y-75681093D01*
X139249349Y-75683345D01*
X139271119Y-75684773D01*
X139294964Y-75685539D01*
X139323633Y-75685805D01*
X139359869Y-75685733D01*
X139375067Y-75685657D01*
X139473844Y-75685133D01*
X139475453Y-75589177D01*
X139475346Y-75583969D01*
X140323333Y-75583969D01*
X140323570Y-75615945D01*
X140324226Y-75643968D01*
X140325219Y-75666097D01*
X140326468Y-75680391D01*
X140327567Y-75684850D01*
X140334810Y-75686468D01*
X140351527Y-75687374D01*
X140375929Y-75687632D01*
X140406228Y-75687306D01*
X140440636Y-75686460D01*
X140477363Y-75685157D01*
X140514621Y-75683461D01*
X140550623Y-75681436D01*
X140583579Y-75679145D01*
X140611700Y-75676653D01*
X140633199Y-75674023D01*
X140633778Y-75673934D01*
X140653821Y-75670069D01*
X143088953Y-75670069D01*
X143097092Y-75695105D01*
X143112861Y-75716195D01*
X143135108Y-75731311D01*
X143162681Y-75738426D01*
X143169763Y-75738718D01*
X143187207Y-75737627D01*
X143200385Y-75732876D01*
X143214285Y-75722333D01*
X143219710Y-75717378D01*
X143238598Y-75693124D01*
X143246774Y-75666207D01*
X143244006Y-75637767D01*
X143238732Y-75623932D01*
X143222650Y-75601735D01*
X143200755Y-75587239D01*
X143175552Y-75580585D01*
X143149548Y-75581910D01*
X143125250Y-75591354D01*
X143105164Y-75609055D01*
X143100171Y-75616262D01*
X143089595Y-75643112D01*
X143088953Y-75670069D01*
X140653821Y-75670069D01*
X140741346Y-75653192D01*
X140840097Y-75625528D01*
X140930222Y-75590747D01*
X141011914Y-75548652D01*
X141085364Y-75499050D01*
X141150764Y-75441744D01*
X141208307Y-75376538D01*
X141258184Y-75303237D01*
X141300587Y-75221646D01*
X141335709Y-75131569D01*
X141363741Y-75032811D01*
X141384875Y-74925176D01*
X141387764Y-74906200D01*
X141390808Y-74880834D01*
X141393628Y-74848945D01*
X141396134Y-74812723D01*
X141398236Y-74774357D01*
X141399843Y-74736037D01*
X141400865Y-74699952D01*
X141401212Y-74668293D01*
X141400794Y-74643248D01*
X141399520Y-74627008D01*
X141399313Y-74625793D01*
X141395536Y-74605659D01*
X141346268Y-74601946D01*
X141311073Y-74600711D01*
X141267656Y-74601418D01*
X141218880Y-74603870D01*
X141167607Y-74607873D01*
X141116701Y-74613232D01*
X141069024Y-74619750D01*
X141057111Y-74621678D01*
X140959722Y-74642172D01*
X140868006Y-74669807D01*
X140782850Y-74704177D01*
X140705140Y-74744876D01*
X140635765Y-74791499D01*
X140579178Y-74840135D01*
X140522317Y-74903243D01*
X140472212Y-74975004D01*
X140429042Y-75054893D01*
X140392988Y-75142385D01*
X140364230Y-75236958D01*
X140342949Y-75338085D01*
X140329324Y-75445244D01*
X140323537Y-75557909D01*
X140323333Y-75583969D01*
X139475346Y-75583969D01*
X139473201Y-75479853D01*
X139462889Y-75374441D01*
X139444769Y-75273685D01*
X139419095Y-75178330D01*
X139386121Y-75089122D01*
X139346098Y-75006804D01*
X139299281Y-74932123D01*
X139245921Y-74865821D01*
X139220889Y-74839937D01*
X139161223Y-74788981D01*
X139092313Y-74743274D01*
X139015130Y-74703260D01*
X138930644Y-74669382D01*
X138839826Y-74642082D01*
X138743646Y-74621805D01*
X138742889Y-74621678D01*
X138696570Y-74614881D01*
X138646252Y-74609191D01*
X138594796Y-74604804D01*
X138545067Y-74601914D01*
X138499925Y-74600719D01*
X138462235Y-74601412D01*
X138453732Y-74601946D01*
X138404464Y-74605659D01*
X138400687Y-74625793D01*
X138399308Y-74640869D01*
X138398795Y-74665004D01*
X137728239Y-74665004D01*
X137728268Y-74664935D01*
X137781096Y-74561202D01*
X137814397Y-74505444D01*
X137846487Y-74454644D01*
X137825916Y-74316355D01*
X137809453Y-74205356D01*
X137794649Y-74104702D01*
X137781416Y-74013586D01*
X137769670Y-73931201D01*
X137759324Y-73856738D01*
X137750292Y-73789391D01*
X137742487Y-73728350D01*
X137735824Y-73672810D01*
X137730215Y-73621962D01*
X137725576Y-73574998D01*
X137721820Y-73531112D01*
X137718860Y-73489494D01*
X137716611Y-73449339D01*
X137714986Y-73409837D01*
X137713899Y-73370182D01*
X137713264Y-73329565D01*
X137712994Y-73287180D01*
X137712975Y-73258022D01*
X137713149Y-73203558D01*
X137713587Y-73158833D01*
X137714353Y-73122299D01*
X137715513Y-73092408D01*
X137717134Y-73067612D01*
X137719282Y-73046362D01*
X137722021Y-73027111D01*
X137723062Y-73020955D01*
X137737051Y-72954164D01*
X137753952Y-72897692D01*
X137774105Y-72850864D01*
X137797850Y-72813008D01*
X137825529Y-72783449D01*
X137853012Y-72763995D01*
X137865057Y-72757341D01*
X137875593Y-72752740D01*
X137887055Y-72749811D01*
X137901878Y-72748176D01*
X137922499Y-72747452D01*
X137951353Y-72747262D01*
X137960301Y-72747252D01*
X137992979Y-72747430D01*
X138017470Y-72748280D01*
X138036872Y-72750201D01*
X138054283Y-72753590D01*
X138072802Y-72758848D01*
X138087301Y-72763591D01*
X138159795Y-72791803D01*
X138236882Y-72829323D01*
X138318702Y-72876243D01*
X138405394Y-72932654D01*
X138497098Y-72998648D01*
X138593952Y-73074318D01*
X138696097Y-73159756D01*
X138719884Y-73180387D01*
X138755117Y-73211948D01*
X138795856Y-73249798D01*
X138840401Y-73292248D01*
X138887050Y-73337613D01*
X138934102Y-73384203D01*
X138979855Y-73430332D01*
X139022608Y-73474313D01*
X139060660Y-73514458D01*
X139092309Y-73549079D01*
X139097312Y-73554727D01*
X139154785Y-73620009D01*
X139240937Y-73601409D01*
X139329214Y-73583348D01*
X139412359Y-73568582D01*
X139492835Y-73556862D01*
X139573106Y-73547941D01*
X139655637Y-73541571D01*
X139742893Y-73537505D01*
X139837336Y-73535495D01*
X139900000Y-73535173D01*
X140000083Y-73536043D01*
X140091463Y-73538816D01*
X140176605Y-73543740D01*
X140257973Y-73551064D01*
X140338032Y-73561035D01*
X140419244Y-73573900D01*
X140504076Y-73589908D01*
X140559063Y-73601409D01*
X140645215Y-73620009D01*
X140702996Y-73554754D01*
X140724438Y-73531109D01*
X140751811Y-73501790D01*
X140782990Y-73469026D01*
X140815844Y-73435045D01*
X140848248Y-73402078D01*
X140859587Y-73390693D01*
X140950884Y-73301868D01*
X141042303Y-73217733D01*
X141133158Y-73138786D01*
X141222762Y-73065526D01*
X141310431Y-72998453D01*
X141395478Y-72938066D01*
X141477218Y-72884864D01*
X141554965Y-72839346D01*
X141628032Y-72802011D01*
X141695735Y-72773359D01*
X141719177Y-72765094D01*
X141742092Y-72757767D01*
X141760905Y-72752762D01*
X141778841Y-72749642D01*
X141799124Y-72747968D01*
X141824979Y-72747302D01*
X141850789Y-72747200D01*
X141889366Y-72747796D01*
G36*
X143840511Y-77211955D02*
G01*
X144133333Y-77211955D01*
X144133333Y-77227869D01*
X144131290Y-77238750D01*
X144125681Y-77257672D01*
X144117287Y-77282260D01*
X144106890Y-77310138D01*
X144103178Y-77319591D01*
X144073022Y-77395400D01*
X143884455Y-77398222D01*
X143825713Y-77399263D01*
X143777784Y-77400476D01*
X143740194Y-77401884D01*
X143712469Y-77403509D01*
X143694133Y-77405375D01*
X143684713Y-77407503D01*
X143684113Y-77407803D01*
X143665965Y-77422191D01*
X143647314Y-77443384D01*
X143631235Y-77467479D01*
X143622280Y-77486255D01*
X143617689Y-77498196D01*
X143609483Y-77519123D01*
X143598252Y-77547542D01*
X143584587Y-77581965D01*
X143569081Y-77620899D01*
X143552325Y-77662854D01*
X143542460Y-77687502D01*
X143525803Y-77729250D01*
X143510577Y-77767727D01*
X143497276Y-77801663D01*
X143486392Y-77829787D01*
X143478418Y-77850830D01*
X143473847Y-77863520D01*
X143472933Y-77866713D01*
X143478517Y-77868449D01*
X143495033Y-77869881D01*
X143522128Y-77870998D01*
X143559451Y-77871789D01*
X143606646Y-77872242D01*
X143651126Y-77872355D01*
X143829319Y-77872355D01*
X143866226Y-77949966D01*
X143880157Y-77979563D01*
X143893225Y-78007875D01*
X143904229Y-78032259D01*
X143911967Y-78050073D01*
X143913729Y-78054388D01*
X143924324Y-78081200D01*
X143598440Y-78080690D01*
X143538301Y-78080510D01*
X143481150Y-78080171D01*
X143428053Y-78079691D01*
X143380079Y-78079089D01*
X143338295Y-78078380D01*
X143303770Y-78077584D01*
X143277570Y-78076717D01*
X143260763Y-78075796D01*
X143254878Y-78075057D01*
X143236312Y-78065105D01*
X143217552Y-78047607D01*
X143201489Y-78025877D01*
X143191011Y-78003230D01*
X143190393Y-78001086D01*
X143186958Y-77983464D01*
X143186096Y-77964098D01*
X143188101Y-77941891D01*
X143193265Y-77915750D01*
X143201881Y-77884580D01*
X143214240Y-77847285D01*
X143230636Y-77802771D01*
X143251360Y-77749944D01*
X143269250Y-77705844D01*
X143286152Y-77664306D01*
X143304891Y-77617775D01*
X143323800Y-77570419D01*
X143341213Y-77526404D01*
X143351617Y-77499822D01*
X143373441Y-77444494D01*
X143392264Y-77398680D01*
X143408689Y-77361196D01*
X143423317Y-77330856D01*
X143436751Y-77306476D01*
X143449594Y-77286872D01*
X143462448Y-77270858D01*
X143474125Y-77258910D01*
X143484701Y-77248884D01*
X143493986Y-77240393D01*
X143502973Y-77233312D01*
X143512657Y-77227512D01*
X143524033Y-77222865D01*
X143538094Y-77219245D01*
X143555835Y-77216525D01*
X143578251Y-77214576D01*
X143606335Y-77213271D01*
X143641081Y-77212483D01*
X143683485Y-77212084D01*
X143734541Y-77211947D01*
X143795242Y-77211945D01*
X143840511Y-77211955D01*
G37*
X143840511Y-77211955D02*
X144133333Y-77211955D01*
X144133333Y-77227869D01*
X144131290Y-77238750D01*
X144125681Y-77257672D01*
X144117287Y-77282260D01*
X144106890Y-77310138D01*
X144103178Y-77319591D01*
X144073022Y-77395400D01*
X143884455Y-77398222D01*
X143825713Y-77399263D01*
X143777784Y-77400476D01*
X143740194Y-77401884D01*
X143712469Y-77403509D01*
X143694133Y-77405375D01*
X143684713Y-77407503D01*
X143684113Y-77407803D01*
X143665965Y-77422191D01*
X143647314Y-77443384D01*
X143631235Y-77467479D01*
X143622280Y-77486255D01*
X143617689Y-77498196D01*
X143609483Y-77519123D01*
X143598252Y-77547542D01*
X143584587Y-77581965D01*
X143569081Y-77620899D01*
X143552325Y-77662854D01*
X143542460Y-77687502D01*
X143525803Y-77729250D01*
X143510577Y-77767727D01*
X143497276Y-77801663D01*
X143486392Y-77829787D01*
X143478418Y-77850830D01*
X143473847Y-77863520D01*
X143472933Y-77866713D01*
X143478517Y-77868449D01*
X143495033Y-77869881D01*
X143522128Y-77870998D01*
X143559451Y-77871789D01*
X143606646Y-77872242D01*
X143651126Y-77872355D01*
X143829319Y-77872355D01*
X143866226Y-77949966D01*
X143880157Y-77979563D01*
X143893225Y-78007875D01*
X143904229Y-78032259D01*
X143911967Y-78050073D01*
X143913729Y-78054388D01*
X143924324Y-78081200D01*
X143598440Y-78080690D01*
X143538301Y-78080510D01*
X143481150Y-78080171D01*
X143428053Y-78079691D01*
X143380079Y-78079089D01*
X143338295Y-78078380D01*
X143303770Y-78077584D01*
X143277570Y-78076717D01*
X143260763Y-78075796D01*
X143254878Y-78075057D01*
X143236312Y-78065105D01*
X143217552Y-78047607D01*
X143201489Y-78025877D01*
X143191011Y-78003230D01*
X143190393Y-78001086D01*
X143186958Y-77983464D01*
X143186096Y-77964098D01*
X143188101Y-77941891D01*
X143193265Y-77915750D01*
X143201881Y-77884580D01*
X143214240Y-77847285D01*
X143230636Y-77802771D01*
X143251360Y-77749944D01*
X143269250Y-77705844D01*
X143286152Y-77664306D01*
X143304891Y-77617775D01*
X143323800Y-77570419D01*
X143341213Y-77526404D01*
X143351617Y-77499822D01*
X143373441Y-77444494D01*
X143392264Y-77398680D01*
X143408689Y-77361196D01*
X143423317Y-77330856D01*
X143436751Y-77306476D01*
X143449594Y-77286872D01*
X143462448Y-77270858D01*
X143474125Y-77258910D01*
X143484701Y-77248884D01*
X143493986Y-77240393D01*
X143502973Y-77233312D01*
X143512657Y-77227512D01*
X143524033Y-77222865D01*
X143538094Y-77219245D01*
X143555835Y-77216525D01*
X143578251Y-77214576D01*
X143606335Y-77213271D01*
X143641081Y-77212483D01*
X143683485Y-77212084D01*
X143734541Y-77211947D01*
X143795242Y-77211945D01*
X143840511Y-77211955D01*
G36*
X143276945Y-77206474D02*
G01*
X143310055Y-77206933D01*
X143337527Y-77207640D01*
X143357795Y-77208547D01*
X143369294Y-77209608D01*
X143371333Y-77210309D01*
X143369284Y-77216042D01*
X143363344Y-77231474D01*
X143353821Y-77255821D01*
X143341026Y-77288306D01*
X143325267Y-77328145D01*
X143306855Y-77374560D01*
X143286099Y-77426768D01*
X143263308Y-77483990D01*
X143238792Y-77545446D01*
X143212861Y-77610353D01*
X143197902Y-77647753D01*
X143024471Y-78081200D01*
X142893102Y-78081200D01*
X142855948Y-78081034D01*
X142822869Y-78080570D01*
X142795431Y-78079854D01*
X142775200Y-78078937D01*
X142763744Y-78077865D01*
X142761733Y-78077161D01*
X142763780Y-78071420D01*
X142769715Y-78055980D01*
X142779229Y-78031623D01*
X142792013Y-77999129D01*
X142807756Y-77959279D01*
X142826151Y-77912854D01*
X142846887Y-77860636D01*
X142869656Y-77803404D01*
X142894148Y-77741941D01*
X142920054Y-77677026D01*
X142934960Y-77639716D01*
X143108187Y-77206311D01*
X143239760Y-77206311D01*
X143276945Y-77206474D01*
G37*
X143276945Y-77206474D02*
X143310055Y-77206933D01*
X143337527Y-77207640D01*
X143357795Y-77208547D01*
X143369294Y-77209608D01*
X143371333Y-77210309D01*
X143369284Y-77216042D01*
X143363344Y-77231474D01*
X143353821Y-77255821D01*
X143341026Y-77288306D01*
X143325267Y-77328145D01*
X143306855Y-77374560D01*
X143286099Y-77426768D01*
X143263308Y-77483990D01*
X143238792Y-77545446D01*
X143212861Y-77610353D01*
X143197902Y-77647753D01*
X143024471Y-78081200D01*
X142893102Y-78081200D01*
X142855948Y-78081034D01*
X142822869Y-78080570D01*
X142795431Y-78079854D01*
X142775200Y-78078937D01*
X142763744Y-78077865D01*
X142761733Y-78077161D01*
X142763780Y-78071420D01*
X142769715Y-78055980D01*
X142779229Y-78031623D01*
X142792013Y-77999129D01*
X142807756Y-77959279D01*
X142826151Y-77912854D01*
X142846887Y-77860636D01*
X142869656Y-77803404D01*
X142894148Y-77741941D01*
X142920054Y-77677026D01*
X142934960Y-77639716D01*
X143108187Y-77206311D01*
X143239760Y-77206311D01*
X143276945Y-77206474D01*
G36*
X140391060Y-77206829D02*
G01*
X140453396Y-77206984D01*
X140525921Y-77207247D01*
X140565041Y-77207410D01*
X140964793Y-77209133D01*
X140997818Y-77226066D01*
X141027005Y-77246012D01*
X141046213Y-77271063D01*
X141055804Y-77301797D01*
X141057111Y-77320784D01*
X141054427Y-77344325D01*
X141046565Y-77376854D01*
X141033811Y-77417478D01*
X141016452Y-77465306D01*
X140994772Y-77519445D01*
X140989166Y-77532786D01*
X140973860Y-77567074D01*
X140960001Y-77592555D01*
X140945660Y-77611196D01*
X140928911Y-77624961D01*
X140907827Y-77635818D01*
X140880479Y-77645732D01*
X140877508Y-77646689D01*
X140857499Y-77653087D01*
X140841200Y-77658296D01*
X140832120Y-77661194D01*
X140832093Y-77661203D01*
X140830304Y-77665884D01*
X140836913Y-77676546D01*
X140846827Y-77688003D01*
X140863053Y-77708982D01*
X140871427Y-77729440D01*
X140872937Y-77737319D01*
X140873538Y-77752714D01*
X140872476Y-77778023D01*
X140869870Y-77812009D01*
X140865844Y-77853440D01*
X140860517Y-77901079D01*
X140854011Y-77953693D01*
X140846446Y-78010047D01*
X140845592Y-78016151D01*
X140842117Y-78041066D01*
X140839313Y-78061469D01*
X140837500Y-78075009D01*
X140836978Y-78079360D01*
X140831596Y-78079883D01*
X140816501Y-78080348D01*
X140793268Y-78080734D01*
X140763474Y-78081016D01*
X140728694Y-78081174D01*
X140707155Y-78081200D01*
X140661008Y-78080954D01*
X140624550Y-78080230D01*
X140598186Y-78079045D01*
X140582318Y-78077417D01*
X140577333Y-78075486D01*
X140578286Y-78068585D01*
X140580968Y-78052113D01*
X140585117Y-78027609D01*
X140590468Y-77996613D01*
X140596760Y-77960665D01*
X140602915Y-77925876D01*
X140610892Y-77880733D01*
X140616903Y-77845259D01*
X140620980Y-77818011D01*
X140623153Y-77797547D01*
X140623453Y-77782424D01*
X140621912Y-77771202D01*
X140618561Y-77762436D01*
X140613431Y-77754686D01*
X140606777Y-77746766D01*
X140602739Y-77743346D01*
X140596393Y-77740810D01*
X140586178Y-77739030D01*
X140570531Y-77737878D01*
X140547887Y-77737223D01*
X140516685Y-77736938D01*
X140486903Y-77736888D01*
X140375645Y-77736888D01*
X140358852Y-77774988D01*
X140352043Y-77790979D01*
X140341904Y-77815503D01*
X140329237Y-77846591D01*
X140314840Y-77882269D01*
X140299516Y-77920568D01*
X140288957Y-77947144D01*
X140235855Y-78081200D01*
X139973531Y-78081200D01*
X139986154Y-78048031D01*
X139990878Y-78035841D01*
X139999272Y-78014416D01*
X140010841Y-77985013D01*
X140025089Y-77948889D01*
X140041521Y-77907299D01*
X140059639Y-77861502D01*
X140078948Y-77812754D01*
X140091911Y-77780060D01*
X140185044Y-77545258D01*
X140430578Y-77544994D01*
X140490162Y-77544899D01*
X140539537Y-77544726D01*
X140579780Y-77544433D01*
X140611970Y-77543978D01*
X140637186Y-77543317D01*
X140656506Y-77542409D01*
X140671010Y-77541211D01*
X140681776Y-77539682D01*
X140689882Y-77537777D01*
X140696407Y-77535456D01*
X140698689Y-77534459D01*
X140715440Y-77525785D01*
X140726995Y-77516075D01*
X140735783Y-77502288D01*
X140744230Y-77481386D01*
X140746696Y-77474335D01*
X140752532Y-77457364D01*
X140756813Y-77443122D01*
X140758712Y-77431370D01*
X140757400Y-77421869D01*
X140752046Y-77414381D01*
X140741823Y-77408665D01*
X140725901Y-77404483D01*
X140703451Y-77401596D01*
X140673644Y-77399765D01*
X140635651Y-77398751D01*
X140588643Y-77398314D01*
X140531791Y-77398217D01*
X140482726Y-77398222D01*
X140246645Y-77398222D01*
X140205967Y-77310152D01*
X140192578Y-77280707D01*
X140181044Y-77254464D01*
X140172149Y-77233279D01*
X140166677Y-77219010D01*
X140165289Y-77213885D01*
X140166436Y-77212296D01*
X140170373Y-77210935D01*
X140177838Y-77209791D01*
X140189571Y-77208850D01*
X140206314Y-77208102D01*
X140228805Y-77207535D01*
X140257785Y-77207136D01*
X140293995Y-77206893D01*
X140338173Y-77206795D01*
X140391060Y-77206829D01*
G37*
X140391060Y-77206829D02*
X140453396Y-77206984D01*
X140525921Y-77207247D01*
X140565041Y-77207410D01*
X140964793Y-77209133D01*
X140997818Y-77226066D01*
X141027005Y-77246012D01*
X141046213Y-77271063D01*
X141055804Y-77301797D01*
X141057111Y-77320784D01*
X141054427Y-77344325D01*
X141046565Y-77376854D01*
X141033811Y-77417478D01*
X141016452Y-77465306D01*
X140994772Y-77519445D01*
X140989166Y-77532786D01*
X140973860Y-77567074D01*
X140960001Y-77592555D01*
X140945660Y-77611196D01*
X140928911Y-77624961D01*
X140907827Y-77635818D01*
X140880479Y-77645732D01*
X140877508Y-77646689D01*
X140857499Y-77653087D01*
X140841200Y-77658296D01*
X140832120Y-77661194D01*
X140832093Y-77661203D01*
X140830304Y-77665884D01*
X140836913Y-77676546D01*
X140846827Y-77688003D01*
X140863053Y-77708982D01*
X140871427Y-77729440D01*
X140872937Y-77737319D01*
X140873538Y-77752714D01*
X140872476Y-77778023D01*
X140869870Y-77812009D01*
X140865844Y-77853440D01*
X140860517Y-77901079D01*
X140854011Y-77953693D01*
X140846446Y-78010047D01*
X140845592Y-78016151D01*
X140842117Y-78041066D01*
X140839313Y-78061469D01*
X140837500Y-78075009D01*
X140836978Y-78079360D01*
X140831596Y-78079883D01*
X140816501Y-78080348D01*
X140793268Y-78080734D01*
X140763474Y-78081016D01*
X140728694Y-78081174D01*
X140707155Y-78081200D01*
X140661008Y-78080954D01*
X140624550Y-78080230D01*
X140598186Y-78079045D01*
X140582318Y-78077417D01*
X140577333Y-78075486D01*
X140578286Y-78068585D01*
X140580968Y-78052113D01*
X140585117Y-78027609D01*
X140590468Y-77996613D01*
X140596760Y-77960665D01*
X140602915Y-77925876D01*
X140610892Y-77880733D01*
X140616903Y-77845259D01*
X140620980Y-77818011D01*
X140623153Y-77797547D01*
X140623453Y-77782424D01*
X140621912Y-77771202D01*
X140618561Y-77762436D01*
X140613431Y-77754686D01*
X140606777Y-77746766D01*
X140602739Y-77743346D01*
X140596393Y-77740810D01*
X140586178Y-77739030D01*
X140570531Y-77737878D01*
X140547887Y-77737223D01*
X140516685Y-77736938D01*
X140486903Y-77736888D01*
X140375645Y-77736888D01*
X140358852Y-77774988D01*
X140352043Y-77790979D01*
X140341904Y-77815503D01*
X140329237Y-77846591D01*
X140314840Y-77882269D01*
X140299516Y-77920568D01*
X140288957Y-77947144D01*
X140235855Y-78081200D01*
X139973531Y-78081200D01*
X139986154Y-78048031D01*
X139990878Y-78035841D01*
X139999272Y-78014416D01*
X140010841Y-77985013D01*
X140025089Y-77948889D01*
X140041521Y-77907299D01*
X140059639Y-77861502D01*
X140078948Y-77812754D01*
X140091911Y-77780060D01*
X140185044Y-77545258D01*
X140430578Y-77544994D01*
X140490162Y-77544899D01*
X140539537Y-77544726D01*
X140579780Y-77544433D01*
X140611970Y-77543978D01*
X140637186Y-77543317D01*
X140656506Y-77542409D01*
X140671010Y-77541211D01*
X140681776Y-77539682D01*
X140689882Y-77537777D01*
X140696407Y-77535456D01*
X140698689Y-77534459D01*
X140715440Y-77525785D01*
X140726995Y-77516075D01*
X140735783Y-77502288D01*
X140744230Y-77481386D01*
X140746696Y-77474335D01*
X140752532Y-77457364D01*
X140756813Y-77443122D01*
X140758712Y-77431370D01*
X140757400Y-77421869D01*
X140752046Y-77414381D01*
X140741823Y-77408665D01*
X140725901Y-77404483D01*
X140703451Y-77401596D01*
X140673644Y-77399765D01*
X140635651Y-77398751D01*
X140588643Y-77398314D01*
X140531791Y-77398217D01*
X140482726Y-77398222D01*
X140246645Y-77398222D01*
X140205967Y-77310152D01*
X140192578Y-77280707D01*
X140181044Y-77254464D01*
X140172149Y-77233279D01*
X140166677Y-77219010D01*
X140165289Y-77213885D01*
X140166436Y-77212296D01*
X140170373Y-77210935D01*
X140177838Y-77209791D01*
X140189571Y-77208850D01*
X140206314Y-77208102D01*
X140228805Y-77207535D01*
X140257785Y-77207136D01*
X140293995Y-77206893D01*
X140338173Y-77206795D01*
X140391060Y-77206829D01*
G36*
X139936601Y-77207373D02*
G01*
X139978006Y-77207618D01*
X140011551Y-77208011D01*
X140037921Y-77208565D01*
X140057802Y-77209287D01*
X140071880Y-77210188D01*
X140080839Y-77211279D01*
X140085366Y-77212569D01*
X140086267Y-77213635D01*
X140084298Y-77221166D01*
X140078852Y-77237261D01*
X140070623Y-77259993D01*
X140060302Y-77287435D01*
X140052400Y-77307911D01*
X140041115Y-77336958D01*
X140031424Y-77362091D01*
X140024006Y-77381533D01*
X140019540Y-77393508D01*
X140018533Y-77396504D01*
X140013155Y-77396999D01*
X139998085Y-77397438D01*
X139974920Y-77397799D01*
X139945257Y-77398062D01*
X139910694Y-77398203D01*
X139892155Y-77398222D01*
X139765776Y-77398222D01*
X139753147Y-77425033D01*
X139745876Y-77441407D01*
X139736005Y-77464902D01*
X139724954Y-77492089D01*
X139716320Y-77513933D01*
X139709020Y-77532525D01*
X139698103Y-77560143D01*
X139684147Y-77595333D01*
X139667730Y-77636642D01*
X139649429Y-77682615D01*
X139629823Y-77731799D01*
X139609491Y-77782739D01*
X139598492Y-77810266D01*
X139578844Y-77859492D01*
X139560325Y-77906022D01*
X139543394Y-77948695D01*
X139528508Y-77986350D01*
X139516127Y-78017824D01*
X139506709Y-78041958D01*
X139500712Y-78057589D01*
X139498794Y-78062855D01*
X139492724Y-78081200D01*
X139360518Y-78081200D01*
X139314998Y-78080964D01*
X139278450Y-78080272D01*
X139251444Y-78079149D01*
X139234548Y-78077618D01*
X139228332Y-78075705D01*
X139228311Y-78075576D01*
X139230357Y-78069477D01*
X139236256Y-78053812D01*
X139245649Y-78029492D01*
X139258180Y-77997426D01*
X139273490Y-77958522D01*
X139291221Y-77913691D01*
X139311015Y-77863840D01*
X139332515Y-77809881D01*
X139355361Y-77752721D01*
X139358867Y-77743965D01*
X139381962Y-77686250D01*
X139403841Y-77631484D01*
X139424135Y-77580593D01*
X139442478Y-77534502D01*
X139458502Y-77494137D01*
X139471840Y-77460422D01*
X139482124Y-77434283D01*
X139488988Y-77416646D01*
X139492065Y-77408435D01*
X139492170Y-77408100D01*
X139492364Y-77405084D01*
X139490232Y-77402751D01*
X139484522Y-77401014D01*
X139473985Y-77399786D01*
X139457371Y-77398980D01*
X139433430Y-77398509D01*
X139400912Y-77398285D01*
X139358567Y-77398223D01*
X139350325Y-77398222D01*
X139306125Y-77398174D01*
X139271941Y-77397974D01*
X139246502Y-77397533D01*
X139228535Y-77396765D01*
X139216768Y-77395584D01*
X139209929Y-77393900D01*
X139206745Y-77391629D01*
X139205946Y-77388683D01*
X139205948Y-77388344D01*
X139207972Y-77379889D01*
X139213420Y-77362962D01*
X139221591Y-77339599D01*
X139231780Y-77311833D01*
X139238612Y-77293800D01*
X139271061Y-77209133D01*
X139678664Y-77207685D01*
X139758367Y-77207433D01*
X139827467Y-77207290D01*
X139886650Y-77207267D01*
X139936601Y-77207373D01*
G37*
X139936601Y-77207373D02*
X139978006Y-77207618D01*
X140011551Y-77208011D01*
X140037921Y-77208565D01*
X140057802Y-77209287D01*
X140071880Y-77210188D01*
X140080839Y-77211279D01*
X140085366Y-77212569D01*
X140086267Y-77213635D01*
X140084298Y-77221166D01*
X140078852Y-77237261D01*
X140070623Y-77259993D01*
X140060302Y-77287435D01*
X140052400Y-77307911D01*
X140041115Y-77336958D01*
X140031424Y-77362091D01*
X140024006Y-77381533D01*
X140019540Y-77393508D01*
X140018533Y-77396504D01*
X140013155Y-77396999D01*
X139998085Y-77397438D01*
X139974920Y-77397799D01*
X139945257Y-77398062D01*
X139910694Y-77398203D01*
X139892155Y-77398222D01*
X139765776Y-77398222D01*
X139753147Y-77425033D01*
X139745876Y-77441407D01*
X139736005Y-77464902D01*
X139724954Y-77492089D01*
X139716320Y-77513933D01*
X139709020Y-77532525D01*
X139698103Y-77560143D01*
X139684147Y-77595333D01*
X139667730Y-77636642D01*
X139649429Y-77682615D01*
X139629823Y-77731799D01*
X139609491Y-77782739D01*
X139598492Y-77810266D01*
X139578844Y-77859492D01*
X139560325Y-77906022D01*
X139543394Y-77948695D01*
X139528508Y-77986350D01*
X139516127Y-78017824D01*
X139506709Y-78041958D01*
X139500712Y-78057589D01*
X139498794Y-78062855D01*
X139492724Y-78081200D01*
X139360518Y-78081200D01*
X139314998Y-78080964D01*
X139278450Y-78080272D01*
X139251444Y-78079149D01*
X139234548Y-78077618D01*
X139228332Y-78075705D01*
X139228311Y-78075576D01*
X139230357Y-78069477D01*
X139236256Y-78053812D01*
X139245649Y-78029492D01*
X139258180Y-77997426D01*
X139273490Y-77958522D01*
X139291221Y-77913691D01*
X139311015Y-77863840D01*
X139332515Y-77809881D01*
X139355361Y-77752721D01*
X139358867Y-77743965D01*
X139381962Y-77686250D01*
X139403841Y-77631484D01*
X139424135Y-77580593D01*
X139442478Y-77534502D01*
X139458502Y-77494137D01*
X139471840Y-77460422D01*
X139482124Y-77434283D01*
X139488988Y-77416646D01*
X139492065Y-77408435D01*
X139492170Y-77408100D01*
X139492364Y-77405084D01*
X139490232Y-77402751D01*
X139484522Y-77401014D01*
X139473985Y-77399786D01*
X139457371Y-77398980D01*
X139433430Y-77398509D01*
X139400912Y-77398285D01*
X139358567Y-77398223D01*
X139350325Y-77398222D01*
X139306125Y-77398174D01*
X139271941Y-77397974D01*
X139246502Y-77397533D01*
X139228535Y-77396765D01*
X139216768Y-77395584D01*
X139209929Y-77393900D01*
X139206745Y-77391629D01*
X139205946Y-77388683D01*
X139205948Y-77388344D01*
X139207972Y-77379889D01*
X139213420Y-77362962D01*
X139221591Y-77339599D01*
X139231780Y-77311833D01*
X139238612Y-77293800D01*
X139271061Y-77209133D01*
X139678664Y-77207685D01*
X139758367Y-77207433D01*
X139827467Y-77207290D01*
X139886650Y-77207267D01*
X139936601Y-77207373D01*
G36*
X138975168Y-77212154D02*
G01*
X139038233Y-77212441D01*
X139091303Y-77212935D01*
X139134141Y-77213632D01*
X139166510Y-77214527D01*
X139188174Y-77215617D01*
X139198896Y-77216897D01*
X139200089Y-77217549D01*
X139198105Y-77224436D01*
X139192617Y-77239936D01*
X139184317Y-77262185D01*
X139173896Y-77289317D01*
X139165526Y-77310683D01*
X139130964Y-77398222D01*
X138955271Y-77398253D01*
X138899653Y-77398479D01*
X138851944Y-77399122D01*
X138812877Y-77400156D01*
X138783186Y-77401561D01*
X138763605Y-77403311D01*
X138757000Y-77404522D01*
X138732525Y-77416567D01*
X138709672Y-77437611D01*
X138690596Y-77465378D01*
X138682173Y-77483512D01*
X138677231Y-77496069D01*
X138668701Y-77517616D01*
X138657179Y-77546657D01*
X138643258Y-77581695D01*
X138627532Y-77621235D01*
X138610596Y-77663780D01*
X138599462Y-77691733D01*
X138528617Y-77869533D01*
X138889499Y-77875177D01*
X138909881Y-77917511D01*
X138924926Y-77949171D01*
X138939594Y-77980777D01*
X138953097Y-78010556D01*
X138964651Y-78036734D01*
X138973468Y-78057538D01*
X138978764Y-78071196D01*
X138979955Y-78075590D01*
X138974344Y-78076913D01*
X138957638Y-78078060D01*
X138930032Y-78079027D01*
X138891719Y-78079812D01*
X138842892Y-78080412D01*
X138783745Y-78080822D01*
X138714472Y-78081041D01*
X138653989Y-78081076D01*
X138584891Y-78081033D01*
X138526162Y-78080943D01*
X138476879Y-78080777D01*
X138436123Y-78080507D01*
X138402972Y-78080104D01*
X138376505Y-78079539D01*
X138355802Y-78078784D01*
X138339942Y-78077810D01*
X138328003Y-78076589D01*
X138319065Y-78075092D01*
X138312206Y-78073290D01*
X138306507Y-78071156D01*
X138304406Y-78070230D01*
X138278266Y-78052793D01*
X138260071Y-78027682D01*
X138249654Y-77994605D01*
X138247086Y-77971228D01*
X138247132Y-77952525D01*
X138249355Y-77932019D01*
X138254126Y-77908497D01*
X138261814Y-77880747D01*
X138272789Y-77847555D01*
X138287421Y-77807709D01*
X138306081Y-77759995D01*
X138328036Y-77705885D01*
X138344538Y-77665431D01*
X138363393Y-77618766D01*
X138382868Y-77570206D01*
X138401231Y-77524065D01*
X138412050Y-77496650D01*
X138434127Y-77441233D01*
X138453147Y-77395348D01*
X138469689Y-77357840D01*
X138484328Y-77327552D01*
X138497641Y-77303330D01*
X138510205Y-77284017D01*
X138522597Y-77268457D01*
X138529565Y-77261062D01*
X138539785Y-77250743D01*
X138548816Y-77241987D01*
X138557638Y-77234666D01*
X138567227Y-77228651D01*
X138578563Y-77223813D01*
X138592622Y-77220025D01*
X138610382Y-77217157D01*
X138632821Y-77215082D01*
X138660918Y-77213670D01*
X138695650Y-77212793D01*
X138737995Y-77212323D01*
X138788930Y-77212132D01*
X138849434Y-77212090D01*
X138902344Y-77212079D01*
X138975168Y-77212154D01*
G37*
X138975168Y-77212154D02*
X139038233Y-77212441D01*
X139091303Y-77212935D01*
X139134141Y-77213632D01*
X139166510Y-77214527D01*
X139188174Y-77215617D01*
X139198896Y-77216897D01*
X139200089Y-77217549D01*
X139198105Y-77224436D01*
X139192617Y-77239936D01*
X139184317Y-77262185D01*
X139173896Y-77289317D01*
X139165526Y-77310683D01*
X139130964Y-77398222D01*
X138955271Y-77398253D01*
X138899653Y-77398479D01*
X138851944Y-77399122D01*
X138812877Y-77400156D01*
X138783186Y-77401561D01*
X138763605Y-77403311D01*
X138757000Y-77404522D01*
X138732525Y-77416567D01*
X138709672Y-77437611D01*
X138690596Y-77465378D01*
X138682173Y-77483512D01*
X138677231Y-77496069D01*
X138668701Y-77517616D01*
X138657179Y-77546657D01*
X138643258Y-77581695D01*
X138627532Y-77621235D01*
X138610596Y-77663780D01*
X138599462Y-77691733D01*
X138528617Y-77869533D01*
X138889499Y-77875177D01*
X138909881Y-77917511D01*
X138924926Y-77949171D01*
X138939594Y-77980777D01*
X138953097Y-78010556D01*
X138964651Y-78036734D01*
X138973468Y-78057538D01*
X138978764Y-78071196D01*
X138979955Y-78075590D01*
X138974344Y-78076913D01*
X138957638Y-78078060D01*
X138930032Y-78079027D01*
X138891719Y-78079812D01*
X138842892Y-78080412D01*
X138783745Y-78080822D01*
X138714472Y-78081041D01*
X138653989Y-78081076D01*
X138584891Y-78081033D01*
X138526162Y-78080943D01*
X138476879Y-78080777D01*
X138436123Y-78080507D01*
X138402972Y-78080104D01*
X138376505Y-78079539D01*
X138355802Y-78078784D01*
X138339942Y-78077810D01*
X138328003Y-78076589D01*
X138319065Y-78075092D01*
X138312206Y-78073290D01*
X138306507Y-78071156D01*
X138304406Y-78070230D01*
X138278266Y-78052793D01*
X138260071Y-78027682D01*
X138249654Y-77994605D01*
X138247086Y-77971228D01*
X138247132Y-77952525D01*
X138249355Y-77932019D01*
X138254126Y-77908497D01*
X138261814Y-77880747D01*
X138272789Y-77847555D01*
X138287421Y-77807709D01*
X138306081Y-77759995D01*
X138328036Y-77705885D01*
X138344538Y-77665431D01*
X138363393Y-77618766D01*
X138382868Y-77570206D01*
X138401231Y-77524065D01*
X138412050Y-77496650D01*
X138434127Y-77441233D01*
X138453147Y-77395348D01*
X138469689Y-77357840D01*
X138484328Y-77327552D01*
X138497641Y-77303330D01*
X138510205Y-77284017D01*
X138522597Y-77268457D01*
X138529565Y-77261062D01*
X138539785Y-77250743D01*
X138548816Y-77241987D01*
X138557638Y-77234666D01*
X138567227Y-77228651D01*
X138578563Y-77223813D01*
X138592622Y-77220025D01*
X138610382Y-77217157D01*
X138632821Y-77215082D01*
X138660918Y-77213670D01*
X138695650Y-77212793D01*
X138737995Y-77212323D01*
X138788930Y-77212132D01*
X138849434Y-77212090D01*
X138902344Y-77212079D01*
X138975168Y-77212154D01*
G36*
X138064039Y-77206382D02*
G01*
X138147210Y-77206597D01*
X138219131Y-77206955D01*
X138279822Y-77207456D01*
X138329301Y-77208102D01*
X138367588Y-77208892D01*
X138394702Y-77209826D01*
X138410662Y-77210904D01*
X138415511Y-77212042D01*
X138413568Y-77218971D01*
X138408183Y-77234567D01*
X138400027Y-77256985D01*
X138389769Y-77284377D01*
X138380765Y-77307937D01*
X138346019Y-77398101D01*
X138108447Y-77399572D01*
X137870874Y-77401044D01*
X137841563Y-77473011D01*
X137812253Y-77544977D01*
X138179855Y-77544977D01*
X138176723Y-77560500D01*
X138173562Y-77571312D01*
X138167067Y-77590196D01*
X138158100Y-77614747D01*
X138147525Y-77642557D01*
X138144312Y-77650811D01*
X138115032Y-77725600D01*
X137930118Y-77725600D01*
X137876343Y-77725703D01*
X137832945Y-77726037D01*
X137799018Y-77726635D01*
X137773651Y-77727529D01*
X137755936Y-77728755D01*
X137744964Y-77730346D01*
X137739827Y-77732334D01*
X137739515Y-77732655D01*
X137735329Y-77740429D01*
X137728103Y-77756431D01*
X137718840Y-77778348D01*
X137708546Y-77803869D01*
X137708249Y-77804622D01*
X137682673Y-77869533D01*
X137898403Y-77871009D01*
X138114133Y-77872486D01*
X138160400Y-77973227D01*
X138174628Y-78004383D01*
X138187083Y-78031994D01*
X138197047Y-78054438D01*
X138203800Y-78070094D01*
X138206625Y-78077342D01*
X138206667Y-78077584D01*
X138201165Y-78078157D01*
X138185236Y-78078702D01*
X138159739Y-78079212D01*
X138125535Y-78079680D01*
X138083484Y-78080098D01*
X138034447Y-78080460D01*
X137979285Y-78080758D01*
X137918858Y-78080985D01*
X137854027Y-78081134D01*
X137785652Y-78081198D01*
X137771432Y-78081200D01*
X137336198Y-78081200D01*
X137340091Y-78065677D01*
X137342845Y-78057776D01*
X137349442Y-78040355D01*
X137359506Y-78014365D01*
X137372662Y-77980758D01*
X137388536Y-77940484D01*
X137406751Y-77894496D01*
X137426934Y-77843744D01*
X137448709Y-77789181D01*
X137471701Y-77731756D01*
X137473347Y-77727652D01*
X137496289Y-77670327D01*
X137517932Y-77615995D01*
X137537913Y-77565581D01*
X137555872Y-77520008D01*
X137571448Y-77480199D01*
X137584279Y-77447079D01*
X137594004Y-77421570D01*
X137600262Y-77404596D01*
X137602692Y-77397081D01*
X137602711Y-77396894D01*
X137600373Y-77389206D01*
X137593912Y-77373285D01*
X137584158Y-77351044D01*
X137571941Y-77324395D01*
X137563200Y-77305882D01*
X137549839Y-77277400D01*
X137538410Y-77252086D01*
X137529742Y-77231856D01*
X137524668Y-77218627D01*
X137523689Y-77214718D01*
X137524724Y-77213168D01*
X137528301Y-77211817D01*
X137535128Y-77210652D01*
X137545910Y-77209660D01*
X137561354Y-77208828D01*
X137582169Y-77208142D01*
X137609059Y-77207589D01*
X137642734Y-77207155D01*
X137683898Y-77206827D01*
X137733259Y-77206593D01*
X137791525Y-77206438D01*
X137859402Y-77206349D01*
X137937596Y-77206313D01*
X137969600Y-77206311D01*
X138064039Y-77206382D01*
G37*
X138064039Y-77206382D02*
X138147210Y-77206597D01*
X138219131Y-77206955D01*
X138279822Y-77207456D01*
X138329301Y-77208102D01*
X138367588Y-77208892D01*
X138394702Y-77209826D01*
X138410662Y-77210904D01*
X138415511Y-77212042D01*
X138413568Y-77218971D01*
X138408183Y-77234567D01*
X138400027Y-77256985D01*
X138389769Y-77284377D01*
X138380765Y-77307937D01*
X138346019Y-77398101D01*
X138108447Y-77399572D01*
X137870874Y-77401044D01*
X137841563Y-77473011D01*
X137812253Y-77544977D01*
X138179855Y-77544977D01*
X138176723Y-77560500D01*
X138173562Y-77571312D01*
X138167067Y-77590196D01*
X138158100Y-77614747D01*
X138147525Y-77642557D01*
X138144312Y-77650811D01*
X138115032Y-77725600D01*
X137930118Y-77725600D01*
X137876343Y-77725703D01*
X137832945Y-77726037D01*
X137799018Y-77726635D01*
X137773651Y-77727529D01*
X137755936Y-77728755D01*
X137744964Y-77730346D01*
X137739827Y-77732334D01*
X137739515Y-77732655D01*
X137735329Y-77740429D01*
X137728103Y-77756431D01*
X137718840Y-77778348D01*
X137708546Y-77803869D01*
X137708249Y-77804622D01*
X137682673Y-77869533D01*
X137898403Y-77871009D01*
X138114133Y-77872486D01*
X138160400Y-77973227D01*
X138174628Y-78004383D01*
X138187083Y-78031994D01*
X138197047Y-78054438D01*
X138203800Y-78070094D01*
X138206625Y-78077342D01*
X138206667Y-78077584D01*
X138201165Y-78078157D01*
X138185236Y-78078702D01*
X138159739Y-78079212D01*
X138125535Y-78079680D01*
X138083484Y-78080098D01*
X138034447Y-78080460D01*
X137979285Y-78080758D01*
X137918858Y-78080985D01*
X137854027Y-78081134D01*
X137785652Y-78081198D01*
X137771432Y-78081200D01*
X137336198Y-78081200D01*
X137340091Y-78065677D01*
X137342845Y-78057776D01*
X137349442Y-78040355D01*
X137359506Y-78014365D01*
X137372662Y-77980758D01*
X137388536Y-77940484D01*
X137406751Y-77894496D01*
X137426934Y-77843744D01*
X137448709Y-77789181D01*
X137471701Y-77731756D01*
X137473347Y-77727652D01*
X137496289Y-77670327D01*
X137517932Y-77615995D01*
X137537913Y-77565581D01*
X137555872Y-77520008D01*
X137571448Y-77480199D01*
X137584279Y-77447079D01*
X137594004Y-77421570D01*
X137600262Y-77404596D01*
X137602692Y-77397081D01*
X137602711Y-77396894D01*
X137600373Y-77389206D01*
X137593912Y-77373285D01*
X137584158Y-77351044D01*
X137571941Y-77324395D01*
X137563200Y-77305882D01*
X137549839Y-77277400D01*
X137538410Y-77252086D01*
X137529742Y-77231856D01*
X137524668Y-77218627D01*
X137523689Y-77214718D01*
X137524724Y-77213168D01*
X137528301Y-77211817D01*
X137535128Y-77210652D01*
X137545910Y-77209660D01*
X137561354Y-77208828D01*
X137582169Y-77208142D01*
X137609059Y-77207589D01*
X137642734Y-77207155D01*
X137683898Y-77206827D01*
X137733259Y-77206593D01*
X137791525Y-77206438D01*
X137859402Y-77206349D01*
X137937596Y-77206313D01*
X137969600Y-77206311D01*
X138064039Y-77206382D01*
G36*
X136363048Y-77206362D02*
G01*
X136429538Y-77206510D01*
X136491819Y-77206748D01*
X136549040Y-77207067D01*
X136600352Y-77207459D01*
X136644904Y-77207917D01*
X136681846Y-77208433D01*
X136710328Y-77208998D01*
X136729500Y-77209605D01*
X136738512Y-77210245D01*
X136739111Y-77210461D01*
X136737177Y-77216843D01*
X136731816Y-77231958D01*
X136723684Y-77254016D01*
X136713442Y-77281228D01*
X136703833Y-77306381D01*
X136668555Y-77398150D01*
X136432546Y-77398186D01*
X136196536Y-77398222D01*
X136179946Y-77434811D01*
X136168661Y-77460716D01*
X136156826Y-77489438D01*
X136149509Y-77508188D01*
X136135661Y-77544977D01*
X136318853Y-77544977D01*
X136371612Y-77545072D01*
X136413989Y-77545380D01*
X136446889Y-77545934D01*
X136471218Y-77546771D01*
X136487882Y-77547924D01*
X136497786Y-77549427D01*
X136501836Y-77551315D01*
X136502044Y-77551952D01*
X136500098Y-77559389D01*
X136494725Y-77575364D01*
X136486627Y-77597910D01*
X136476502Y-77625058D01*
X136469928Y-77642263D01*
X136437813Y-77725600D01*
X136062831Y-77725600D01*
X136044600Y-77769344D01*
X136034399Y-77794477D01*
X136024463Y-77820046D01*
X136016779Y-77840929D01*
X136016155Y-77842722D01*
X136005941Y-77872355D01*
X136221537Y-77872495D01*
X136437133Y-77872636D01*
X136482289Y-77971677D01*
X136496421Y-78002729D01*
X136508941Y-78030345D01*
X136519094Y-78052848D01*
X136526122Y-78068560D01*
X136529268Y-78075806D01*
X136529326Y-78075959D01*
X136524131Y-78076930D01*
X136508164Y-78077819D01*
X136481944Y-78078618D01*
X136445988Y-78079322D01*
X136400813Y-78079924D01*
X136346936Y-78080417D01*
X136284876Y-78080795D01*
X136215148Y-78081053D01*
X136138272Y-78081184D01*
X136098937Y-78081200D01*
X135666667Y-78081200D01*
X135666667Y-78065006D01*
X135668734Y-78056935D01*
X135674686Y-78039384D01*
X135684153Y-78013325D01*
X135696760Y-77979731D01*
X135712135Y-77939577D01*
X135729907Y-77893836D01*
X135749702Y-77843482D01*
X135771148Y-77789488D01*
X135791370Y-77739039D01*
X135814089Y-77682555D01*
X135835662Y-77628825D01*
X135855699Y-77578827D01*
X135873810Y-77533541D01*
X135889604Y-77493945D01*
X135902690Y-77461017D01*
X135912679Y-77435736D01*
X135919180Y-77419081D01*
X135921709Y-77412326D01*
X135923350Y-77405029D01*
X135923030Y-77396584D01*
X135920170Y-77385259D01*
X135914189Y-77369325D01*
X135904506Y-77347050D01*
X135890540Y-77316704D01*
X135887316Y-77309802D01*
X135873964Y-77280739D01*
X135862501Y-77254804D01*
X135853733Y-77233899D01*
X135848464Y-77219927D01*
X135847289Y-77215264D01*
X135848074Y-77213621D01*
X135850908Y-77212189D01*
X135856511Y-77210956D01*
X135865602Y-77209905D01*
X135878899Y-77209024D01*
X135897123Y-77208297D01*
X135920991Y-77207710D01*
X135951223Y-77207249D01*
X135988538Y-77206899D01*
X136033655Y-77206646D01*
X136087293Y-77206475D01*
X136150171Y-77206371D01*
X136223009Y-77206322D01*
X136293200Y-77206311D01*
X136363048Y-77206362D01*
G37*
X136363048Y-77206362D02*
X136429538Y-77206510D01*
X136491819Y-77206748D01*
X136549040Y-77207067D01*
X136600352Y-77207459D01*
X136644904Y-77207917D01*
X136681846Y-77208433D01*
X136710328Y-77208998D01*
X136729500Y-77209605D01*
X136738512Y-77210245D01*
X136739111Y-77210461D01*
X136737177Y-77216843D01*
X136731816Y-77231958D01*
X136723684Y-77254016D01*
X136713442Y-77281228D01*
X136703833Y-77306381D01*
X136668555Y-77398150D01*
X136432546Y-77398186D01*
X136196536Y-77398222D01*
X136179946Y-77434811D01*
X136168661Y-77460716D01*
X136156826Y-77489438D01*
X136149509Y-77508188D01*
X136135661Y-77544977D01*
X136318853Y-77544977D01*
X136371612Y-77545072D01*
X136413989Y-77545380D01*
X136446889Y-77545934D01*
X136471218Y-77546771D01*
X136487882Y-77547924D01*
X136497786Y-77549427D01*
X136501836Y-77551315D01*
X136502044Y-77551952D01*
X136500098Y-77559389D01*
X136494725Y-77575364D01*
X136486627Y-77597910D01*
X136476502Y-77625058D01*
X136469928Y-77642263D01*
X136437813Y-77725600D01*
X136062831Y-77725600D01*
X136044600Y-77769344D01*
X136034399Y-77794477D01*
X136024463Y-77820046D01*
X136016779Y-77840929D01*
X136016155Y-77842722D01*
X136005941Y-77872355D01*
X136221537Y-77872495D01*
X136437133Y-77872636D01*
X136482289Y-77971677D01*
X136496421Y-78002729D01*
X136508941Y-78030345D01*
X136519094Y-78052848D01*
X136526122Y-78068560D01*
X136529268Y-78075806D01*
X136529326Y-78075959D01*
X136524131Y-78076930D01*
X136508164Y-78077819D01*
X136481944Y-78078618D01*
X136445988Y-78079322D01*
X136400813Y-78079924D01*
X136346936Y-78080417D01*
X136284876Y-78080795D01*
X136215148Y-78081053D01*
X136138272Y-78081184D01*
X136098937Y-78081200D01*
X135666667Y-78081200D01*
X135666667Y-78065006D01*
X135668734Y-78056935D01*
X135674686Y-78039384D01*
X135684153Y-78013325D01*
X135696760Y-77979731D01*
X135712135Y-77939577D01*
X135729907Y-77893836D01*
X135749702Y-77843482D01*
X135771148Y-77789488D01*
X135791370Y-77739039D01*
X135814089Y-77682555D01*
X135835662Y-77628825D01*
X135855699Y-77578827D01*
X135873810Y-77533541D01*
X135889604Y-77493945D01*
X135902690Y-77461017D01*
X135912679Y-77435736D01*
X135919180Y-77419081D01*
X135921709Y-77412326D01*
X135923350Y-77405029D01*
X135923030Y-77396584D01*
X135920170Y-77385259D01*
X135914189Y-77369325D01*
X135904506Y-77347050D01*
X135890540Y-77316704D01*
X135887316Y-77309802D01*
X135873964Y-77280739D01*
X135862501Y-77254804D01*
X135853733Y-77233899D01*
X135848464Y-77219927D01*
X135847289Y-77215264D01*
X135848074Y-77213621D01*
X135850908Y-77212189D01*
X135856511Y-77210956D01*
X135865602Y-77209905D01*
X135878899Y-77209024D01*
X135897123Y-77208297D01*
X135920991Y-77207710D01*
X135951223Y-77207249D01*
X135988538Y-77206899D01*
X136033655Y-77206646D01*
X136087293Y-77206475D01*
X136150171Y-77206371D01*
X136223009Y-77206322D01*
X136293200Y-77206311D01*
X136363048Y-77206362D01*
G36*
X142592241Y-77211989D02*
G01*
X142652109Y-77212108D01*
X142703079Y-77212364D01*
X142745947Y-77212808D01*
X142781510Y-77213491D01*
X142810565Y-77214464D01*
X142833909Y-77215778D01*
X142852339Y-77217486D01*
X142866651Y-77219637D01*
X142877643Y-77222284D01*
X142886111Y-77225477D01*
X142892852Y-77229268D01*
X142898663Y-77233708D01*
X142904340Y-77238849D01*
X142907550Y-77241858D01*
X142925542Y-77262828D01*
X142936933Y-77286781D01*
X142941734Y-77314878D01*
X142939958Y-77348281D01*
X142931617Y-77388151D01*
X142916724Y-77435649D01*
X142909826Y-77454666D01*
X142902076Y-77474996D01*
X142890620Y-77504442D01*
X142875994Y-77541660D01*
X142858730Y-77585304D01*
X142839363Y-77634027D01*
X142818426Y-77686485D01*
X142796455Y-77741331D01*
X142773981Y-77797220D01*
X142769346Y-77808722D01*
X142657311Y-78086577D01*
X142526078Y-78086710D01*
X142478766Y-78086538D01*
X142442364Y-78085901D01*
X142416501Y-78084784D01*
X142400807Y-78083169D01*
X142394911Y-78081040D01*
X142394844Y-78080751D01*
X142396877Y-78074541D01*
X142402731Y-78058780D01*
X142412044Y-78034401D01*
X142424452Y-78002336D01*
X142439590Y-77963519D01*
X142457095Y-77918883D01*
X142476604Y-77869360D01*
X142497752Y-77815884D01*
X142519022Y-77762288D01*
X142541445Y-77705649D01*
X142562567Y-77651843D01*
X142582020Y-77601834D01*
X142599440Y-77556587D01*
X142614458Y-77517065D01*
X142626708Y-77484233D01*
X142635825Y-77459055D01*
X142641440Y-77442494D01*
X142643200Y-77435679D01*
X142642304Y-77425865D01*
X142638771Y-77418285D01*
X142631330Y-77412656D01*
X142618712Y-77408696D01*
X142599648Y-77406121D01*
X142572868Y-77404647D01*
X142537102Y-77403992D01*
X142500632Y-77403866D01*
X142383154Y-77403866D01*
X142371311Y-77430677D01*
X142367087Y-77440721D01*
X142359080Y-77460233D01*
X142347701Y-77488198D01*
X142333358Y-77523603D01*
X142316461Y-77565434D01*
X142297420Y-77612676D01*
X142276645Y-77664316D01*
X142254546Y-77719340D01*
X142233926Y-77770755D01*
X142108384Y-78084022D01*
X141977220Y-78085538D01*
X141846056Y-78087055D01*
X141849974Y-78071427D01*
X141852726Y-78063533D01*
X141859325Y-78046108D01*
X141869399Y-78020095D01*
X141882576Y-77986436D01*
X141898486Y-77946072D01*
X141916757Y-77899944D01*
X141937017Y-77848995D01*
X141958896Y-77794165D01*
X141982022Y-77736397D01*
X141985751Y-77727098D01*
X142117612Y-77398396D01*
X142079210Y-77317730D01*
X142065730Y-77289156D01*
X142053790Y-77263365D01*
X142044338Y-77242441D01*
X142038322Y-77228465D01*
X142036824Y-77224509D01*
X142032839Y-77211955D01*
X142522678Y-77211955D01*
X142592241Y-77211989D01*
G37*
X142592241Y-77211989D02*
X142652109Y-77212108D01*
X142703079Y-77212364D01*
X142745947Y-77212808D01*
X142781510Y-77213491D01*
X142810565Y-77214464D01*
X142833909Y-77215778D01*
X142852339Y-77217486D01*
X142866651Y-77219637D01*
X142877643Y-77222284D01*
X142886111Y-77225477D01*
X142892852Y-77229268D01*
X142898663Y-77233708D01*
X142904340Y-77238849D01*
X142907550Y-77241858D01*
X142925542Y-77262828D01*
X142936933Y-77286781D01*
X142941734Y-77314878D01*
X142939958Y-77348281D01*
X142931617Y-77388151D01*
X142916724Y-77435649D01*
X142909826Y-77454666D01*
X142902076Y-77474996D01*
X142890620Y-77504442D01*
X142875994Y-77541660D01*
X142858730Y-77585304D01*
X142839363Y-77634027D01*
X142818426Y-77686485D01*
X142796455Y-77741331D01*
X142773981Y-77797220D01*
X142769346Y-77808722D01*
X142657311Y-78086577D01*
X142526078Y-78086710D01*
X142478766Y-78086538D01*
X142442364Y-78085901D01*
X142416501Y-78084784D01*
X142400807Y-78083169D01*
X142394911Y-78081040D01*
X142394844Y-78080751D01*
X142396877Y-78074541D01*
X142402731Y-78058780D01*
X142412044Y-78034401D01*
X142424452Y-78002336D01*
X142439590Y-77963519D01*
X142457095Y-77918883D01*
X142476604Y-77869360D01*
X142497752Y-77815884D01*
X142519022Y-77762288D01*
X142541445Y-77705649D01*
X142562567Y-77651843D01*
X142582020Y-77601834D01*
X142599440Y-77556587D01*
X142614458Y-77517065D01*
X142626708Y-77484233D01*
X142635825Y-77459055D01*
X142641440Y-77442494D01*
X142643200Y-77435679D01*
X142642304Y-77425865D01*
X142638771Y-77418285D01*
X142631330Y-77412656D01*
X142618712Y-77408696D01*
X142599648Y-77406121D01*
X142572868Y-77404647D01*
X142537102Y-77403992D01*
X142500632Y-77403866D01*
X142383154Y-77403866D01*
X142371311Y-77430677D01*
X142367087Y-77440721D01*
X142359080Y-77460233D01*
X142347701Y-77488198D01*
X142333358Y-77523603D01*
X142316461Y-77565434D01*
X142297420Y-77612676D01*
X142276645Y-77664316D01*
X142254546Y-77719340D01*
X142233926Y-77770755D01*
X142108384Y-78084022D01*
X141977220Y-78085538D01*
X141846056Y-78087055D01*
X141849974Y-78071427D01*
X141852726Y-78063533D01*
X141859325Y-78046108D01*
X141869399Y-78020095D01*
X141882576Y-77986436D01*
X141898486Y-77946072D01*
X141916757Y-77899944D01*
X141937017Y-77848995D01*
X141958896Y-77794165D01*
X141982022Y-77736397D01*
X141985751Y-77727098D01*
X142117612Y-77398396D01*
X142079210Y-77317730D01*
X142065730Y-77289156D01*
X142053790Y-77263365D01*
X142044338Y-77242441D01*
X142038322Y-77228465D01*
X142036824Y-77224509D01*
X142032839Y-77211955D01*
X142522678Y-77211955D01*
X142592241Y-77211989D01*
G36*
X141670214Y-77212167D02*
G01*
X141736284Y-77212556D01*
X141791463Y-77213207D01*
X141835671Y-77214119D01*
X141868825Y-77215289D01*
X141890845Y-77216716D01*
X141900955Y-77218185D01*
X141932619Y-77232226D01*
X141957659Y-77254316D01*
X141974703Y-77282695D01*
X141982381Y-77315602D01*
X141982676Y-77323141D01*
X141982058Y-77334537D01*
X141979887Y-77348287D01*
X141975853Y-77365286D01*
X141969649Y-77386426D01*
X141960963Y-77412601D01*
X141949487Y-77444705D01*
X141934912Y-77483631D01*
X141916927Y-77530272D01*
X141895224Y-77585521D01*
X141869494Y-77650273D01*
X141868758Y-77652117D01*
X141839062Y-77726051D01*
X141812808Y-77790185D01*
X141789556Y-77845316D01*
X141768863Y-77892244D01*
X141750289Y-77931768D01*
X141733393Y-77964686D01*
X141717735Y-77991797D01*
X141702872Y-78013902D01*
X141688364Y-78031797D01*
X141673770Y-78046282D01*
X141658648Y-78058157D01*
X141642559Y-78068220D01*
X141637538Y-78070972D01*
X141613089Y-78084022D01*
X141325222Y-78085023D01*
X141256280Y-78085147D01*
X141194833Y-78085019D01*
X141141473Y-78084650D01*
X141096790Y-78084048D01*
X141061373Y-78083221D01*
X141035814Y-78082180D01*
X141020702Y-78080932D01*
X141017600Y-78080345D01*
X140990115Y-78066850D01*
X140968012Y-78044716D01*
X140952512Y-78015798D01*
X140944835Y-77981951D01*
X140944222Y-77968827D01*
X140944677Y-77955671D01*
X140946258Y-77941584D01*
X140949295Y-77925593D01*
X140954114Y-77906723D01*
X140961043Y-77884000D01*
X140970410Y-77856451D01*
X140973303Y-77848496D01*
X141250111Y-77848496D01*
X141256193Y-77859628D01*
X141269584Y-77866629D01*
X141291287Y-77870451D01*
X141322301Y-77872043D01*
X141362161Y-77872355D01*
X141402139Y-77871952D01*
X141432605Y-77870652D01*
X141455313Y-77868321D01*
X141472013Y-77864825D01*
X141475803Y-77863635D01*
X141494982Y-77854821D01*
X141512042Y-77843306D01*
X141516199Y-77839463D01*
X141524171Y-77827828D01*
X141535577Y-77806232D01*
X141550116Y-77775368D01*
X141567486Y-77735928D01*
X141587388Y-77688605D01*
X141609519Y-77634091D01*
X141633579Y-77573079D01*
X141646280Y-77540242D01*
X141659420Y-77505888D01*
X141668877Y-77480385D01*
X141675072Y-77462069D01*
X141678426Y-77449275D01*
X141679360Y-77440337D01*
X141678295Y-77433591D01*
X141675652Y-77427372D01*
X141675101Y-77426296D01*
X141665237Y-77413640D01*
X141653508Y-77406412D01*
X141653409Y-77406387D01*
X141643562Y-77405398D01*
X141624602Y-77404743D01*
X141598703Y-77404452D01*
X141568035Y-77404554D01*
X141543839Y-77404894D01*
X141508107Y-77405672D01*
X141481809Y-77406628D01*
X141463092Y-77407983D01*
X141450100Y-77409961D01*
X141440980Y-77412783D01*
X141433877Y-77416673D01*
X141431449Y-77418384D01*
X141413225Y-77436036D01*
X141395290Y-77460594D01*
X141380380Y-77487945D01*
X141373545Y-77505466D01*
X141368856Y-77518737D01*
X141360678Y-77540276D01*
X141349856Y-77567925D01*
X141337234Y-77599528D01*
X141323954Y-77632198D01*
X141309572Y-77667629D01*
X141295405Y-77703168D01*
X141282526Y-77736080D01*
X141272005Y-77763633D01*
X141265711Y-77780814D01*
X141255872Y-77810039D01*
X141250338Y-77832283D01*
X141250111Y-77848496D01*
X140973303Y-77848496D01*
X140982542Y-77823101D01*
X140997767Y-77782975D01*
X141016413Y-77735102D01*
X141038806Y-77678505D01*
X141058299Y-77629644D01*
X141087430Y-77557153D01*
X141113014Y-77494435D01*
X141135483Y-77440698D01*
X141155271Y-77395152D01*
X141172814Y-77357006D01*
X141188543Y-77325468D01*
X141202893Y-77299749D01*
X141216298Y-77279056D01*
X141229191Y-77262600D01*
X141242007Y-77249589D01*
X141255178Y-77239232D01*
X141269139Y-77230738D01*
X141280067Y-77225266D01*
X141308289Y-77212065D01*
X141593333Y-77212042D01*
X141670214Y-77212167D01*
G37*
X141670214Y-77212167D02*
X141736284Y-77212556D01*
X141791463Y-77213207D01*
X141835671Y-77214119D01*
X141868825Y-77215289D01*
X141890845Y-77216716D01*
X141900955Y-77218185D01*
X141932619Y-77232226D01*
X141957659Y-77254316D01*
X141974703Y-77282695D01*
X141982381Y-77315602D01*
X141982676Y-77323141D01*
X141982058Y-77334537D01*
X141979887Y-77348287D01*
X141975853Y-77365286D01*
X141969649Y-77386426D01*
X141960963Y-77412601D01*
X141949487Y-77444705D01*
X141934912Y-77483631D01*
X141916927Y-77530272D01*
X141895224Y-77585521D01*
X141869494Y-77650273D01*
X141868758Y-77652117D01*
X141839062Y-77726051D01*
X141812808Y-77790185D01*
X141789556Y-77845316D01*
X141768863Y-77892244D01*
X141750289Y-77931768D01*
X141733393Y-77964686D01*
X141717735Y-77991797D01*
X141702872Y-78013902D01*
X141688364Y-78031797D01*
X141673770Y-78046282D01*
X141658648Y-78058157D01*
X141642559Y-78068220D01*
X141637538Y-78070972D01*
X141613089Y-78084022D01*
X141325222Y-78085023D01*
X141256280Y-78085147D01*
X141194833Y-78085019D01*
X141141473Y-78084650D01*
X141096790Y-78084048D01*
X141061373Y-78083221D01*
X141035814Y-78082180D01*
X141020702Y-78080932D01*
X141017600Y-78080345D01*
X140990115Y-78066850D01*
X140968012Y-78044716D01*
X140952512Y-78015798D01*
X140944835Y-77981951D01*
X140944222Y-77968827D01*
X140944677Y-77955671D01*
X140946258Y-77941584D01*
X140949295Y-77925593D01*
X140954114Y-77906723D01*
X140961043Y-77884000D01*
X140970410Y-77856451D01*
X140973303Y-77848496D01*
X141250111Y-77848496D01*
X141256193Y-77859628D01*
X141269584Y-77866629D01*
X141291287Y-77870451D01*
X141322301Y-77872043D01*
X141362161Y-77872355D01*
X141402139Y-77871952D01*
X141432605Y-77870652D01*
X141455313Y-77868321D01*
X141472013Y-77864825D01*
X141475803Y-77863635D01*
X141494982Y-77854821D01*
X141512042Y-77843306D01*
X141516199Y-77839463D01*
X141524171Y-77827828D01*
X141535577Y-77806232D01*
X141550116Y-77775368D01*
X141567486Y-77735928D01*
X141587388Y-77688605D01*
X141609519Y-77634091D01*
X141633579Y-77573079D01*
X141646280Y-77540242D01*
X141659420Y-77505888D01*
X141668877Y-77480385D01*
X141675072Y-77462069D01*
X141678426Y-77449275D01*
X141679360Y-77440337D01*
X141678295Y-77433591D01*
X141675652Y-77427372D01*
X141675101Y-77426296D01*
X141665237Y-77413640D01*
X141653508Y-77406412D01*
X141653409Y-77406387D01*
X141643562Y-77405398D01*
X141624602Y-77404743D01*
X141598703Y-77404452D01*
X141568035Y-77404554D01*
X141543839Y-77404894D01*
X141508107Y-77405672D01*
X141481809Y-77406628D01*
X141463092Y-77407983D01*
X141450100Y-77409961D01*
X141440980Y-77412783D01*
X141433877Y-77416673D01*
X141431449Y-77418384D01*
X141413225Y-77436036D01*
X141395290Y-77460594D01*
X141380380Y-77487945D01*
X141373545Y-77505466D01*
X141368856Y-77518737D01*
X141360678Y-77540276D01*
X141349856Y-77567925D01*
X141337234Y-77599528D01*
X141323954Y-77632198D01*
X141309572Y-77667629D01*
X141295405Y-77703168D01*
X141282526Y-77736080D01*
X141272005Y-77763633D01*
X141265711Y-77780814D01*
X141255872Y-77810039D01*
X141250338Y-77832283D01*
X141250111Y-77848496D01*
X140973303Y-77848496D01*
X140982542Y-77823101D01*
X140997767Y-77782975D01*
X141016413Y-77735102D01*
X141038806Y-77678505D01*
X141058299Y-77629644D01*
X141087430Y-77557153D01*
X141113014Y-77494435D01*
X141135483Y-77440698D01*
X141155271Y-77395152D01*
X141172814Y-77357006D01*
X141188543Y-77325468D01*
X141202893Y-77299749D01*
X141216298Y-77279056D01*
X141229191Y-77262600D01*
X141242007Y-77249589D01*
X141255178Y-77239232D01*
X141269139Y-77230738D01*
X141280067Y-77225266D01*
X141308289Y-77212065D01*
X141593333Y-77212042D01*
X141670214Y-77212167D01*
G36*
X137211188Y-77218905D02*
G01*
X137208557Y-77226336D01*
X137202131Y-77243309D01*
X137192282Y-77268875D01*
X137179379Y-77302084D01*
X137163794Y-77341987D01*
X137145899Y-77387633D01*
X137126063Y-77438074D01*
X137104657Y-77492359D01*
X137082054Y-77549538D01*
X137081625Y-77550622D01*
X136955395Y-77869533D01*
X137143587Y-77871019D01*
X137188398Y-77871460D01*
X137229391Y-77872030D01*
X137265259Y-77872698D01*
X137294692Y-77873433D01*
X137316381Y-77874203D01*
X137329018Y-77874978D01*
X137331778Y-77875513D01*
X137329745Y-77881478D01*
X137324116Y-77896108D01*
X137315590Y-77917632D01*
X137304868Y-77944276D01*
X137295537Y-77967213D01*
X137283201Y-77997748D01*
X137272187Y-78025656D01*
X137263308Y-78048828D01*
X137257376Y-78065155D01*
X137255414Y-78071374D01*
X137251532Y-78086844D01*
X136602884Y-78086844D01*
X136606632Y-78074144D01*
X136609269Y-78067033D01*
X136615783Y-78050251D01*
X136625852Y-78024607D01*
X136639156Y-77990912D01*
X136655372Y-77949973D01*
X136674181Y-77902600D01*
X136695261Y-77849601D01*
X136718291Y-77791787D01*
X136742950Y-77729966D01*
X136768917Y-77664947D01*
X136780772Y-77635288D01*
X136951164Y-77209133D01*
X137082842Y-77207616D01*
X137214521Y-77206099D01*
X137211188Y-77218905D01*
G37*
X137211188Y-77218905D02*
X137208557Y-77226336D01*
X137202131Y-77243309D01*
X137192282Y-77268875D01*
X137179379Y-77302084D01*
X137163794Y-77341987D01*
X137145899Y-77387633D01*
X137126063Y-77438074D01*
X137104657Y-77492359D01*
X137082054Y-77549538D01*
X137081625Y-77550622D01*
X136955395Y-77869533D01*
X137143587Y-77871019D01*
X137188398Y-77871460D01*
X137229391Y-77872030D01*
X137265259Y-77872698D01*
X137294692Y-77873433D01*
X137316381Y-77874203D01*
X137329018Y-77874978D01*
X137331778Y-77875513D01*
X137329745Y-77881478D01*
X137324116Y-77896108D01*
X137315590Y-77917632D01*
X137304868Y-77944276D01*
X137295537Y-77967213D01*
X137283201Y-77997748D01*
X137272187Y-78025656D01*
X137263308Y-78048828D01*
X137257376Y-78065155D01*
X137255414Y-78071374D01*
X137251532Y-78086844D01*
X136602884Y-78086844D01*
X136606632Y-78074144D01*
X136609269Y-78067033D01*
X136615783Y-78050251D01*
X136625852Y-78024607D01*
X136639156Y-77990912D01*
X136655372Y-77949973D01*
X136674181Y-77902600D01*
X136695261Y-77849601D01*
X136718291Y-77791787D01*
X136742950Y-77729966D01*
X136768917Y-77664947D01*
X136780772Y-77635288D01*
X136951164Y-77209133D01*
X137082842Y-77207616D01*
X137214521Y-77206099D01*
X137211188Y-77218905D01*
G36*
X142348718Y-78234699D02*
G01*
X142398882Y-78234872D01*
X142442225Y-78235141D01*
X142477884Y-78235501D01*
X142504996Y-78235947D01*
X142522699Y-78236477D01*
X142530131Y-78237084D01*
X142530311Y-78237201D01*
X142528310Y-78243399D01*
X142522704Y-78258536D01*
X142514083Y-78281072D01*
X142503040Y-78309467D01*
X142490167Y-78342181D01*
X142483022Y-78360198D01*
X142469220Y-78394975D01*
X142456707Y-78426623D01*
X142446129Y-78453502D01*
X142438131Y-78473970D01*
X142433358Y-78486386D01*
X142432399Y-78489011D01*
X142430996Y-78491373D01*
X142427873Y-78493327D01*
X142422043Y-78494912D01*
X142412522Y-78496166D01*
X142398323Y-78497127D01*
X142378463Y-78497835D01*
X142351955Y-78498327D01*
X142317813Y-78498642D01*
X142275054Y-78498818D01*
X142222691Y-78498895D01*
X142179121Y-78498909D01*
X142119298Y-78498936D01*
X142069712Y-78499033D01*
X142029314Y-78499244D01*
X141997053Y-78499611D01*
X141971877Y-78500177D01*
X141952737Y-78500985D01*
X141938581Y-78502077D01*
X141928359Y-78503497D01*
X141921019Y-78505286D01*
X141915512Y-78507489D01*
X141911337Y-78509809D01*
X141898349Y-78519648D01*
X141891059Y-78530579D01*
X141889911Y-78543428D01*
X141895348Y-78559019D01*
X141907812Y-78578176D01*
X141927746Y-78601723D01*
X141955594Y-78630485D01*
X141991798Y-78665286D01*
X141998016Y-78671115D01*
X142045800Y-78716648D01*
X142090644Y-78761052D01*
X142131397Y-78803113D01*
X142166912Y-78841615D01*
X142196037Y-78875346D01*
X142217622Y-78903089D01*
X142217657Y-78903137D01*
X142241533Y-78944299D01*
X142260277Y-78992812D01*
X142272771Y-79045471D01*
X142276156Y-79070642D01*
X142278329Y-79120326D01*
X142275437Y-79171146D01*
X142267947Y-79220341D01*
X142256327Y-79265147D01*
X142241046Y-79302802D01*
X142234956Y-79313721D01*
X142210784Y-79345840D01*
X142179356Y-79376773D01*
X142144477Y-79403086D01*
X142121144Y-79416387D01*
X142108052Y-79422798D01*
X142096218Y-79428409D01*
X142084833Y-79433274D01*
X142073086Y-79437445D01*
X142060167Y-79440976D01*
X142045266Y-79443921D01*
X142027571Y-79446332D01*
X142006272Y-79448262D01*
X141980560Y-79449766D01*
X141949623Y-79450895D01*
X141912651Y-79451704D01*
X141868834Y-79452246D01*
X141817362Y-79452573D01*
X141757423Y-79452739D01*
X141688208Y-79452797D01*
X141608906Y-79452801D01*
X141566747Y-79452800D01*
X141494682Y-79452739D01*
X141426568Y-79452563D01*
X141363201Y-79452280D01*
X141305379Y-79451899D01*
X141253898Y-79451428D01*
X141209552Y-79450878D01*
X141173140Y-79450255D01*
X141145456Y-79449570D01*
X141127297Y-79448831D01*
X141119460Y-79448046D01*
X141119200Y-79447872D01*
X141121152Y-79441476D01*
X141126652Y-79426001D01*
X141135162Y-79402889D01*
X141146145Y-79373587D01*
X141159066Y-79339537D01*
X141172167Y-79305349D01*
X141225134Y-79167755D01*
X141552011Y-79164933D01*
X141621307Y-79164315D01*
X141680207Y-79163731D01*
X141729605Y-79163145D01*
X141770393Y-79162526D01*
X141803464Y-79161838D01*
X141829712Y-79161047D01*
X141850029Y-79160121D01*
X141865308Y-79159024D01*
X141876443Y-79157723D01*
X141884326Y-79156184D01*
X141889850Y-79154374D01*
X141893909Y-79152258D01*
X141894412Y-79151934D01*
X141909185Y-79139945D01*
X141917220Y-79126989D01*
X141918137Y-79112156D01*
X141911556Y-79094535D01*
X141897094Y-79073217D01*
X141874372Y-79047290D01*
X141843007Y-79015846D01*
X141833759Y-79007004D01*
X141811102Y-78985292D01*
X141782361Y-78957429D01*
X141749419Y-78925258D01*
X141714160Y-78890624D01*
X141678467Y-78855373D01*
X141646442Y-78823559D01*
X141608074Y-78785015D01*
X141577040Y-78753100D01*
X141552402Y-78726766D01*
X141533217Y-78704965D01*
X141518546Y-78686650D01*
X141507447Y-78670771D01*
X141503385Y-78664170D01*
X141480849Y-78620884D01*
X141466521Y-78580088D01*
X141459294Y-78537894D01*
X141457867Y-78504308D01*
X141461600Y-78444410D01*
X141473001Y-78392628D01*
X141492369Y-78348523D01*
X141520001Y-78311657D01*
X141556198Y-78281593D01*
X141601258Y-78257893D01*
X141634289Y-78246046D01*
X141640937Y-78244331D01*
X141649505Y-78242830D01*
X141660770Y-78241522D01*
X141675509Y-78240390D01*
X141694500Y-78239416D01*
X141718521Y-78238580D01*
X141748350Y-78237865D01*
X141784763Y-78237252D01*
X141828538Y-78236722D01*
X141880454Y-78236256D01*
X141941288Y-78235838D01*
X142011817Y-78235447D01*
X142092818Y-78235065D01*
X142097100Y-78235046D01*
X142165924Y-78234795D01*
X142231376Y-78234656D01*
X142292596Y-78234626D01*
X142348718Y-78234699D01*
G37*
X142348718Y-78234699D02*
X142398882Y-78234872D01*
X142442225Y-78235141D01*
X142477884Y-78235501D01*
X142504996Y-78235947D01*
X142522699Y-78236477D01*
X142530131Y-78237084D01*
X142530311Y-78237201D01*
X142528310Y-78243399D01*
X142522704Y-78258536D01*
X142514083Y-78281072D01*
X142503040Y-78309467D01*
X142490167Y-78342181D01*
X142483022Y-78360198D01*
X142469220Y-78394975D01*
X142456707Y-78426623D01*
X142446129Y-78453502D01*
X142438131Y-78473970D01*
X142433358Y-78486386D01*
X142432399Y-78489011D01*
X142430996Y-78491373D01*
X142427873Y-78493327D01*
X142422043Y-78494912D01*
X142412522Y-78496166D01*
X142398323Y-78497127D01*
X142378463Y-78497835D01*
X142351955Y-78498327D01*
X142317813Y-78498642D01*
X142275054Y-78498818D01*
X142222691Y-78498895D01*
X142179121Y-78498909D01*
X142119298Y-78498936D01*
X142069712Y-78499033D01*
X142029314Y-78499244D01*
X141997053Y-78499611D01*
X141971877Y-78500177D01*
X141952737Y-78500985D01*
X141938581Y-78502077D01*
X141928359Y-78503497D01*
X141921019Y-78505286D01*
X141915512Y-78507489D01*
X141911337Y-78509809D01*
X141898349Y-78519648D01*
X141891059Y-78530579D01*
X141889911Y-78543428D01*
X141895348Y-78559019D01*
X141907812Y-78578176D01*
X141927746Y-78601723D01*
X141955594Y-78630485D01*
X141991798Y-78665286D01*
X141998016Y-78671115D01*
X142045800Y-78716648D01*
X142090644Y-78761052D01*
X142131397Y-78803113D01*
X142166912Y-78841615D01*
X142196037Y-78875346D01*
X142217622Y-78903089D01*
X142217657Y-78903137D01*
X142241533Y-78944299D01*
X142260277Y-78992812D01*
X142272771Y-79045471D01*
X142276156Y-79070642D01*
X142278329Y-79120326D01*
X142275437Y-79171146D01*
X142267947Y-79220341D01*
X142256327Y-79265147D01*
X142241046Y-79302802D01*
X142234956Y-79313721D01*
X142210784Y-79345840D01*
X142179356Y-79376773D01*
X142144477Y-79403086D01*
X142121144Y-79416387D01*
X142108052Y-79422798D01*
X142096218Y-79428409D01*
X142084833Y-79433274D01*
X142073086Y-79437445D01*
X142060167Y-79440976D01*
X142045266Y-79443921D01*
X142027571Y-79446332D01*
X142006272Y-79448262D01*
X141980560Y-79449766D01*
X141949623Y-79450895D01*
X141912651Y-79451704D01*
X141868834Y-79452246D01*
X141817362Y-79452573D01*
X141757423Y-79452739D01*
X141688208Y-79452797D01*
X141608906Y-79452801D01*
X141566747Y-79452800D01*
X141494682Y-79452739D01*
X141426568Y-79452563D01*
X141363201Y-79452280D01*
X141305379Y-79451899D01*
X141253898Y-79451428D01*
X141209552Y-79450878D01*
X141173140Y-79450255D01*
X141145456Y-79449570D01*
X141127297Y-79448831D01*
X141119460Y-79448046D01*
X141119200Y-79447872D01*
X141121152Y-79441476D01*
X141126652Y-79426001D01*
X141135162Y-79402889D01*
X141146145Y-79373587D01*
X141159066Y-79339537D01*
X141172167Y-79305349D01*
X141225134Y-79167755D01*
X141552011Y-79164933D01*
X141621307Y-79164315D01*
X141680207Y-79163731D01*
X141729605Y-79163145D01*
X141770393Y-79162526D01*
X141803464Y-79161838D01*
X141829712Y-79161047D01*
X141850029Y-79160121D01*
X141865308Y-79159024D01*
X141876443Y-79157723D01*
X141884326Y-79156184D01*
X141889850Y-79154374D01*
X141893909Y-79152258D01*
X141894412Y-79151934D01*
X141909185Y-79139945D01*
X141917220Y-79126989D01*
X141918137Y-79112156D01*
X141911556Y-79094535D01*
X141897094Y-79073217D01*
X141874372Y-79047290D01*
X141843007Y-79015846D01*
X141833759Y-79007004D01*
X141811102Y-78985292D01*
X141782361Y-78957429D01*
X141749419Y-78925258D01*
X141714160Y-78890624D01*
X141678467Y-78855373D01*
X141646442Y-78823559D01*
X141608074Y-78785015D01*
X141577040Y-78753100D01*
X141552402Y-78726766D01*
X141533217Y-78704965D01*
X141518546Y-78686650D01*
X141507447Y-78670771D01*
X141503385Y-78664170D01*
X141480849Y-78620884D01*
X141466521Y-78580088D01*
X141459294Y-78537894D01*
X141457867Y-78504308D01*
X141461600Y-78444410D01*
X141473001Y-78392628D01*
X141492369Y-78348523D01*
X141520001Y-78311657D01*
X141556198Y-78281593D01*
X141601258Y-78257893D01*
X141634289Y-78246046D01*
X141640937Y-78244331D01*
X141649505Y-78242830D01*
X141660770Y-78241522D01*
X141675509Y-78240390D01*
X141694500Y-78239416D01*
X141718521Y-78238580D01*
X141748350Y-78237865D01*
X141784763Y-78237252D01*
X141828538Y-78236722D01*
X141880454Y-78236256D01*
X141941288Y-78235838D01*
X142011817Y-78235447D01*
X142092818Y-78235065D01*
X142097100Y-78235046D01*
X142165924Y-78234795D01*
X142231376Y-78234656D01*
X142292596Y-78234626D01*
X142348718Y-78234699D01*
G36*
X140905374Y-78233101D02*
G01*
X140972832Y-78233233D01*
X141037829Y-78233459D01*
X141099452Y-78233780D01*
X141156786Y-78234198D01*
X141208917Y-78234713D01*
X141254930Y-78235326D01*
X141293912Y-78236038D01*
X141324947Y-78236850D01*
X141347123Y-78237762D01*
X141359524Y-78238777D01*
X141361911Y-78239498D01*
X141359955Y-78246219D01*
X141354462Y-78261933D01*
X141345993Y-78285116D01*
X141335111Y-78314244D01*
X141322378Y-78347792D01*
X141313028Y-78372143D01*
X141264145Y-78498888D01*
X140910546Y-78498888D01*
X140895454Y-78528522D01*
X140888093Y-78544315D01*
X140877915Y-78567989D01*
X140866042Y-78596847D01*
X140853596Y-78628188D01*
X140847939Y-78642822D01*
X140833802Y-78679324D01*
X140818042Y-78719348D01*
X140802408Y-78758488D01*
X140788650Y-78792339D01*
X140786295Y-78798044D01*
X140778575Y-78816927D01*
X140767221Y-78845035D01*
X140752744Y-78881092D01*
X140735652Y-78923824D01*
X140716455Y-78971953D01*
X140695661Y-79024203D01*
X140673781Y-79079300D01*
X140651324Y-79135967D01*
X140642095Y-79159288D01*
X140527116Y-79449977D01*
X140154534Y-79452951D01*
X140160030Y-79437353D01*
X140162913Y-79429863D01*
X140169678Y-79412678D01*
X140180011Y-79386583D01*
X140193599Y-79352364D01*
X140210129Y-79310807D01*
X140229290Y-79262698D01*
X140250767Y-79208822D01*
X140274248Y-79149965D01*
X140299419Y-79086912D01*
X140325969Y-79020449D01*
X140348310Y-78964555D01*
X140375575Y-78896237D01*
X140401550Y-78830915D01*
X140425940Y-78769347D01*
X140448447Y-78712294D01*
X140468775Y-78660515D01*
X140486627Y-78614770D01*
X140501707Y-78575819D01*
X140513717Y-78544422D01*
X140522362Y-78521338D01*
X140527345Y-78507327D01*
X140528481Y-78503122D01*
X140522431Y-78502149D01*
X140506372Y-78501255D01*
X140481587Y-78500466D01*
X140449357Y-78499809D01*
X140410961Y-78499309D01*
X140367682Y-78498994D01*
X140322620Y-78498888D01*
X140119372Y-78498888D01*
X140123231Y-78486188D01*
X140125990Y-78478292D01*
X140132035Y-78461676D01*
X140140676Y-78438190D01*
X140151227Y-78409682D01*
X140163000Y-78378001D01*
X140175307Y-78344993D01*
X140187461Y-78312509D01*
X140198773Y-78282394D01*
X140208556Y-78256499D01*
X140214593Y-78240655D01*
X140220502Y-78239562D01*
X140236749Y-78238550D01*
X140262421Y-78237620D01*
X140296604Y-78236774D01*
X140338383Y-78236013D01*
X140386844Y-78235336D01*
X140441073Y-78234746D01*
X140500155Y-78234242D01*
X140563176Y-78233827D01*
X140629223Y-78233500D01*
X140697380Y-78233263D01*
X140766734Y-78233117D01*
X140836370Y-78233063D01*
X140905374Y-78233101D01*
G37*
X140905374Y-78233101D02*
X140972832Y-78233233D01*
X141037829Y-78233459D01*
X141099452Y-78233780D01*
X141156786Y-78234198D01*
X141208917Y-78234713D01*
X141254930Y-78235326D01*
X141293912Y-78236038D01*
X141324947Y-78236850D01*
X141347123Y-78237762D01*
X141359524Y-78238777D01*
X141361911Y-78239498D01*
X141359955Y-78246219D01*
X141354462Y-78261933D01*
X141345993Y-78285116D01*
X141335111Y-78314244D01*
X141322378Y-78347792D01*
X141313028Y-78372143D01*
X141264145Y-78498888D01*
X140910546Y-78498888D01*
X140895454Y-78528522D01*
X140888093Y-78544315D01*
X140877915Y-78567989D01*
X140866042Y-78596847D01*
X140853596Y-78628188D01*
X140847939Y-78642822D01*
X140833802Y-78679324D01*
X140818042Y-78719348D01*
X140802408Y-78758488D01*
X140788650Y-78792339D01*
X140786295Y-78798044D01*
X140778575Y-78816927D01*
X140767221Y-78845035D01*
X140752744Y-78881092D01*
X140735652Y-78923824D01*
X140716455Y-78971953D01*
X140695661Y-79024203D01*
X140673781Y-79079300D01*
X140651324Y-79135967D01*
X140642095Y-79159288D01*
X140527116Y-79449977D01*
X140154534Y-79452951D01*
X140160030Y-79437353D01*
X140162913Y-79429863D01*
X140169678Y-79412678D01*
X140180011Y-79386583D01*
X140193599Y-79352364D01*
X140210129Y-79310807D01*
X140229290Y-79262698D01*
X140250767Y-79208822D01*
X140274248Y-79149965D01*
X140299419Y-79086912D01*
X140325969Y-79020449D01*
X140348310Y-78964555D01*
X140375575Y-78896237D01*
X140401550Y-78830915D01*
X140425940Y-78769347D01*
X140448447Y-78712294D01*
X140468775Y-78660515D01*
X140486627Y-78614770D01*
X140501707Y-78575819D01*
X140513717Y-78544422D01*
X140522362Y-78521338D01*
X140527345Y-78507327D01*
X140528481Y-78503122D01*
X140522431Y-78502149D01*
X140506372Y-78501255D01*
X140481587Y-78500466D01*
X140449357Y-78499809D01*
X140410961Y-78499309D01*
X140367682Y-78498994D01*
X140322620Y-78498888D01*
X140119372Y-78498888D01*
X140123231Y-78486188D01*
X140125990Y-78478292D01*
X140132035Y-78461676D01*
X140140676Y-78438190D01*
X140151227Y-78409682D01*
X140163000Y-78378001D01*
X140175307Y-78344993D01*
X140187461Y-78312509D01*
X140198773Y-78282394D01*
X140208556Y-78256499D01*
X140214593Y-78240655D01*
X140220502Y-78239562D01*
X140236749Y-78238550D01*
X140262421Y-78237620D01*
X140296604Y-78236774D01*
X140338383Y-78236013D01*
X140386844Y-78235336D01*
X140441073Y-78234746D01*
X140500155Y-78234242D01*
X140563176Y-78233827D01*
X140629223Y-78233500D01*
X140697380Y-78233263D01*
X140766734Y-78233117D01*
X140836370Y-78233063D01*
X140905374Y-78233101D01*
G36*
X139141604Y-78234512D02*
G01*
X139231446Y-78234699D01*
X139305922Y-78234912D01*
X139397790Y-78235213D01*
X139479057Y-78235513D01*
X139550409Y-78235826D01*
X139612536Y-78236166D01*
X139666124Y-78236545D01*
X139711861Y-78236978D01*
X139750434Y-78237477D01*
X139782531Y-78238056D01*
X139808840Y-78238729D01*
X139830048Y-78239509D01*
X139846842Y-78240410D01*
X139859911Y-78241445D01*
X139869942Y-78242628D01*
X139877622Y-78243971D01*
X139883638Y-78245490D01*
X139886135Y-78246284D01*
X139922439Y-78264287D01*
X139952406Y-78290922D01*
X139975079Y-78324894D01*
X139989502Y-78364910D01*
X139993857Y-78391918D01*
X139994487Y-78413724D01*
X139992427Y-78438488D01*
X139987413Y-78467055D01*
X139979176Y-78500274D01*
X139967453Y-78538988D01*
X139951978Y-78584046D01*
X139932483Y-78636293D01*
X139908705Y-78696575D01*
X139880376Y-78765738D01*
X139864577Y-78803546D01*
X139851817Y-78834323D01*
X139835671Y-78873910D01*
X139816826Y-78920588D01*
X139795970Y-78972640D01*
X139773788Y-79028347D01*
X139750969Y-79085991D01*
X139728198Y-79143853D01*
X139711115Y-79187511D01*
X139608698Y-79449977D01*
X139426971Y-79451467D01*
X139371939Y-79451747D01*
X139326292Y-79451616D01*
X139290418Y-79451083D01*
X139264706Y-79450157D01*
X139249547Y-79448847D01*
X139245244Y-79447387D01*
X139247248Y-79441110D01*
X139252975Y-79425444D01*
X139261999Y-79401501D01*
X139273895Y-79370391D01*
X139288237Y-79333223D01*
X139304598Y-79291109D01*
X139322554Y-79245159D01*
X139333487Y-79217297D01*
X139352274Y-79169431D01*
X139369821Y-79124594D01*
X139385686Y-79083926D01*
X139399427Y-79048565D01*
X139410603Y-79019652D01*
X139418770Y-78998324D01*
X139423487Y-78985722D01*
X139424457Y-78982900D01*
X139424610Y-78980223D01*
X139422702Y-78978077D01*
X139417631Y-78976404D01*
X139408298Y-78975146D01*
X139393601Y-78974243D01*
X139372441Y-78973638D01*
X139343716Y-78973272D01*
X139306327Y-78973088D01*
X139259173Y-78973025D01*
X139238199Y-78973022D01*
X139049215Y-78973022D01*
X139017853Y-79047811D01*
X139006878Y-79074256D01*
X138992743Y-79108736D01*
X138976445Y-79148791D01*
X138958983Y-79191961D01*
X138941356Y-79235785D01*
X138929274Y-79265987D01*
X138913634Y-79304964D01*
X138898791Y-79341542D01*
X138885421Y-79374091D01*
X138874198Y-79400981D01*
X138865796Y-79420583D01*
X138860981Y-79431087D01*
X138849904Y-79452800D01*
X138672218Y-79452800D01*
X138616748Y-79452620D01*
X138571286Y-79452088D01*
X138536102Y-79451212D01*
X138511464Y-79450001D01*
X138497641Y-79448463D01*
X138494533Y-79447110D01*
X138496577Y-79441084D01*
X138502459Y-79425526D01*
X138511803Y-79401380D01*
X138524233Y-79369587D01*
X138539374Y-79331091D01*
X138556850Y-79286833D01*
X138576286Y-79237755D01*
X138597306Y-79184801D01*
X138619534Y-79128912D01*
X138642595Y-79071030D01*
X138666114Y-79012098D01*
X138689714Y-78953059D01*
X138713020Y-78894854D01*
X138735657Y-78838426D01*
X138757249Y-78784717D01*
X138777419Y-78734669D01*
X138788249Y-78707883D01*
X139154974Y-78707883D01*
X139345453Y-78706397D01*
X139535933Y-78704911D01*
X139553869Y-78668222D01*
X139564834Y-78643332D01*
X139576014Y-78614029D01*
X139584571Y-78588002D01*
X139590891Y-78564971D01*
X139593703Y-78549677D01*
X139593301Y-78539226D01*
X139590282Y-78531291D01*
X139585464Y-78522989D01*
X139580027Y-78516398D01*
X139572681Y-78511303D01*
X139562136Y-78507490D01*
X139547102Y-78504743D01*
X139526290Y-78502849D01*
X139498408Y-78501592D01*
X139462169Y-78500759D01*
X139416280Y-78500135D01*
X139401993Y-78499973D01*
X139245475Y-78498236D01*
X139234109Y-78516907D01*
X139225733Y-78532917D01*
X139214224Y-78558318D01*
X139200122Y-78591828D01*
X139183970Y-78632163D01*
X139168397Y-78672530D01*
X139154974Y-78707883D01*
X138788249Y-78707883D01*
X138795794Y-78689225D01*
X138811997Y-78649328D01*
X138825652Y-78615918D01*
X138831497Y-78601723D01*
X138874128Y-78498535D01*
X138814153Y-78372203D01*
X138797616Y-78337124D01*
X138782826Y-78305275D01*
X138770441Y-78278116D01*
X138761122Y-78257109D01*
X138755530Y-78243712D01*
X138754178Y-78239525D01*
X138757421Y-78238408D01*
X138767431Y-78237437D01*
X138784630Y-78236609D01*
X138809436Y-78235920D01*
X138842271Y-78235366D01*
X138883556Y-78234945D01*
X138933711Y-78234653D01*
X138993157Y-78234485D01*
X139062315Y-78234440D01*
X139141604Y-78234512D01*
G37*
X139141604Y-78234512D02*
X139231446Y-78234699D01*
X139305922Y-78234912D01*
X139397790Y-78235213D01*
X139479057Y-78235513D01*
X139550409Y-78235826D01*
X139612536Y-78236166D01*
X139666124Y-78236545D01*
X139711861Y-78236978D01*
X139750434Y-78237477D01*
X139782531Y-78238056D01*
X139808840Y-78238729D01*
X139830048Y-78239509D01*
X139846842Y-78240410D01*
X139859911Y-78241445D01*
X139869942Y-78242628D01*
X139877622Y-78243971D01*
X139883638Y-78245490D01*
X139886135Y-78246284D01*
X139922439Y-78264287D01*
X139952406Y-78290922D01*
X139975079Y-78324894D01*
X139989502Y-78364910D01*
X139993857Y-78391918D01*
X139994487Y-78413724D01*
X139992427Y-78438488D01*
X139987413Y-78467055D01*
X139979176Y-78500274D01*
X139967453Y-78538988D01*
X139951978Y-78584046D01*
X139932483Y-78636293D01*
X139908705Y-78696575D01*
X139880376Y-78765738D01*
X139864577Y-78803546D01*
X139851817Y-78834323D01*
X139835671Y-78873910D01*
X139816826Y-78920588D01*
X139795970Y-78972640D01*
X139773788Y-79028347D01*
X139750969Y-79085991D01*
X139728198Y-79143853D01*
X139711115Y-79187511D01*
X139608698Y-79449977D01*
X139426971Y-79451467D01*
X139371939Y-79451747D01*
X139326292Y-79451616D01*
X139290418Y-79451083D01*
X139264706Y-79450157D01*
X139249547Y-79448847D01*
X139245244Y-79447387D01*
X139247248Y-79441110D01*
X139252975Y-79425444D01*
X139261999Y-79401501D01*
X139273895Y-79370391D01*
X139288237Y-79333223D01*
X139304598Y-79291109D01*
X139322554Y-79245159D01*
X139333487Y-79217297D01*
X139352274Y-79169431D01*
X139369821Y-79124594D01*
X139385686Y-79083926D01*
X139399427Y-79048565D01*
X139410603Y-79019652D01*
X139418770Y-78998324D01*
X139423487Y-78985722D01*
X139424457Y-78982900D01*
X139424610Y-78980223D01*
X139422702Y-78978077D01*
X139417631Y-78976404D01*
X139408298Y-78975146D01*
X139393601Y-78974243D01*
X139372441Y-78973638D01*
X139343716Y-78973272D01*
X139306327Y-78973088D01*
X139259173Y-78973025D01*
X139238199Y-78973022D01*
X139049215Y-78973022D01*
X139017853Y-79047811D01*
X139006878Y-79074256D01*
X138992743Y-79108736D01*
X138976445Y-79148791D01*
X138958983Y-79191961D01*
X138941356Y-79235785D01*
X138929274Y-79265987D01*
X138913634Y-79304964D01*
X138898791Y-79341542D01*
X138885421Y-79374091D01*
X138874198Y-79400981D01*
X138865796Y-79420583D01*
X138860981Y-79431087D01*
X138849904Y-79452800D01*
X138672218Y-79452800D01*
X138616748Y-79452620D01*
X138571286Y-79452088D01*
X138536102Y-79451212D01*
X138511464Y-79450001D01*
X138497641Y-79448463D01*
X138494533Y-79447110D01*
X138496577Y-79441084D01*
X138502459Y-79425526D01*
X138511803Y-79401380D01*
X138524233Y-79369587D01*
X138539374Y-79331091D01*
X138556850Y-79286833D01*
X138576286Y-79237755D01*
X138597306Y-79184801D01*
X138619534Y-79128912D01*
X138642595Y-79071030D01*
X138666114Y-79012098D01*
X138689714Y-78953059D01*
X138713020Y-78894854D01*
X138735657Y-78838426D01*
X138757249Y-78784717D01*
X138777419Y-78734669D01*
X138788249Y-78707883D01*
X139154974Y-78707883D01*
X139345453Y-78706397D01*
X139535933Y-78704911D01*
X139553869Y-78668222D01*
X139564834Y-78643332D01*
X139576014Y-78614029D01*
X139584571Y-78588002D01*
X139590891Y-78564971D01*
X139593703Y-78549677D01*
X139593301Y-78539226D01*
X139590282Y-78531291D01*
X139585464Y-78522989D01*
X139580027Y-78516398D01*
X139572681Y-78511303D01*
X139562136Y-78507490D01*
X139547102Y-78504743D01*
X139526290Y-78502849D01*
X139498408Y-78501592D01*
X139462169Y-78500759D01*
X139416280Y-78500135D01*
X139401993Y-78499973D01*
X139245475Y-78498236D01*
X139234109Y-78516907D01*
X139225733Y-78532917D01*
X139214224Y-78558318D01*
X139200122Y-78591828D01*
X139183970Y-78632163D01*
X139168397Y-78672530D01*
X139154974Y-78707883D01*
X138788249Y-78707883D01*
X138795794Y-78689225D01*
X138811997Y-78649328D01*
X138825652Y-78615918D01*
X138831497Y-78601723D01*
X138874128Y-78498535D01*
X138814153Y-78372203D01*
X138797616Y-78337124D01*
X138782826Y-78305275D01*
X138770441Y-78278116D01*
X138761122Y-78257109D01*
X138755530Y-78243712D01*
X138754178Y-78239525D01*
X138757421Y-78238408D01*
X138767431Y-78237437D01*
X138784630Y-78236609D01*
X138809436Y-78235920D01*
X138842271Y-78235366D01*
X138883556Y-78234945D01*
X138933711Y-78234653D01*
X138993157Y-78234485D01*
X139062315Y-78234440D01*
X139141604Y-78234512D01*
G36*
X138388048Y-78234469D02*
G01*
X138442678Y-78234584D01*
X138491279Y-78234798D01*
X138532972Y-78235106D01*
X138566877Y-78235503D01*
X138592114Y-78235985D01*
X138607803Y-78236546D01*
X138613067Y-78237166D01*
X138611093Y-78244025D01*
X138605663Y-78259457D01*
X138597512Y-78281556D01*
X138587375Y-78308412D01*
X138575988Y-78338118D01*
X138564086Y-78368766D01*
X138552405Y-78398447D01*
X138541679Y-78425254D01*
X138532645Y-78447279D01*
X138526993Y-78460481D01*
X138510230Y-78498273D01*
X138249793Y-78499992D01*
X138188766Y-78500408D01*
X138137984Y-78500814D01*
X138096400Y-78501261D01*
X138062969Y-78501800D01*
X138036647Y-78502483D01*
X138016388Y-78503360D01*
X138001148Y-78504484D01*
X137989881Y-78505905D01*
X137981542Y-78507675D01*
X137975086Y-78509846D01*
X137969469Y-78512467D01*
X137966778Y-78513894D01*
X137943416Y-78529106D01*
X137923188Y-78548526D01*
X137904966Y-78573783D01*
X137887626Y-78606510D01*
X137870044Y-78648336D01*
X137865189Y-78661185D01*
X137857358Y-78681822D01*
X137845940Y-78711251D01*
X137831595Y-78747803D01*
X137814981Y-78789812D01*
X137796760Y-78835608D01*
X137777589Y-78883525D01*
X137758616Y-78930688D01*
X137740241Y-78976395D01*
X137723110Y-79019310D01*
X137707712Y-79058193D01*
X137694531Y-79091804D01*
X137684053Y-79118901D01*
X137676765Y-79138245D01*
X137673152Y-79148595D01*
X137672928Y-79149411D01*
X137669220Y-79164933D01*
X138171359Y-79164933D01*
X138226339Y-79282055D01*
X138242845Y-79317406D01*
X138258337Y-79350935D01*
X138271953Y-79380746D01*
X138282829Y-79404946D01*
X138290102Y-79421640D01*
X138291888Y-79425988D01*
X138302457Y-79452800D01*
X137835462Y-79452550D01*
X137751915Y-79452497D01*
X137678908Y-79452423D01*
X137615694Y-79452311D01*
X137561523Y-79452143D01*
X137515648Y-79451902D01*
X137477319Y-79451572D01*
X137445789Y-79451135D01*
X137420309Y-79450574D01*
X137400131Y-79449872D01*
X137384507Y-79449012D01*
X137372687Y-79447977D01*
X137363924Y-79446749D01*
X137357469Y-79445313D01*
X137352574Y-79443650D01*
X137348490Y-79441743D01*
X137347878Y-79441423D01*
X137318128Y-79419531D01*
X137294680Y-79389458D01*
X137278464Y-79352954D01*
X137270414Y-79311767D01*
X137269689Y-79294633D01*
X137271465Y-79269238D01*
X137276944Y-79238459D01*
X137286352Y-79201603D01*
X137299915Y-79157977D01*
X137317860Y-79106886D01*
X137340413Y-79047637D01*
X137367799Y-78979535D01*
X137389071Y-78928358D01*
X137405246Y-78889239D01*
X137423025Y-78845214D01*
X137440616Y-78800785D01*
X137456226Y-78760451D01*
X137461425Y-78746709D01*
X137486735Y-78680405D01*
X137512653Y-78614678D01*
X137538289Y-78551694D01*
X137562750Y-78493617D01*
X137585146Y-78442615D01*
X137598729Y-78413103D01*
X137627270Y-78360395D01*
X137658715Y-78317763D01*
X137694005Y-78284165D01*
X137734081Y-78258560D01*
X137741714Y-78254796D01*
X137780511Y-78236422D01*
X138196789Y-78234772D01*
X138264224Y-78234558D01*
X138328270Y-78234459D01*
X138388048Y-78234469D01*
G37*
X138388048Y-78234469D02*
X138442678Y-78234584D01*
X138491279Y-78234798D01*
X138532972Y-78235106D01*
X138566877Y-78235503D01*
X138592114Y-78235985D01*
X138607803Y-78236546D01*
X138613067Y-78237166D01*
X138611093Y-78244025D01*
X138605663Y-78259457D01*
X138597512Y-78281556D01*
X138587375Y-78308412D01*
X138575988Y-78338118D01*
X138564086Y-78368766D01*
X138552405Y-78398447D01*
X138541679Y-78425254D01*
X138532645Y-78447279D01*
X138526993Y-78460481D01*
X138510230Y-78498273D01*
X138249793Y-78499992D01*
X138188766Y-78500408D01*
X138137984Y-78500814D01*
X138096400Y-78501261D01*
X138062969Y-78501800D01*
X138036647Y-78502483D01*
X138016388Y-78503360D01*
X138001148Y-78504484D01*
X137989881Y-78505905D01*
X137981542Y-78507675D01*
X137975086Y-78509846D01*
X137969469Y-78512467D01*
X137966778Y-78513894D01*
X137943416Y-78529106D01*
X137923188Y-78548526D01*
X137904966Y-78573783D01*
X137887626Y-78606510D01*
X137870044Y-78648336D01*
X137865189Y-78661185D01*
X137857358Y-78681822D01*
X137845940Y-78711251D01*
X137831595Y-78747803D01*
X137814981Y-78789812D01*
X137796760Y-78835608D01*
X137777589Y-78883525D01*
X137758616Y-78930688D01*
X137740241Y-78976395D01*
X137723110Y-79019310D01*
X137707712Y-79058193D01*
X137694531Y-79091804D01*
X137684053Y-79118901D01*
X137676765Y-79138245D01*
X137673152Y-79148595D01*
X137672928Y-79149411D01*
X137669220Y-79164933D01*
X138171359Y-79164933D01*
X138226339Y-79282055D01*
X138242845Y-79317406D01*
X138258337Y-79350935D01*
X138271953Y-79380746D01*
X138282829Y-79404946D01*
X138290102Y-79421640D01*
X138291888Y-79425988D01*
X138302457Y-79452800D01*
X137835462Y-79452550D01*
X137751915Y-79452497D01*
X137678908Y-79452423D01*
X137615694Y-79452311D01*
X137561523Y-79452143D01*
X137515648Y-79451902D01*
X137477319Y-79451572D01*
X137445789Y-79451135D01*
X137420309Y-79450574D01*
X137400131Y-79449872D01*
X137384507Y-79449012D01*
X137372687Y-79447977D01*
X137363924Y-79446749D01*
X137357469Y-79445313D01*
X137352574Y-79443650D01*
X137348490Y-79441743D01*
X137347878Y-79441423D01*
X137318128Y-79419531D01*
X137294680Y-79389458D01*
X137278464Y-79352954D01*
X137270414Y-79311767D01*
X137269689Y-79294633D01*
X137271465Y-79269238D01*
X137276944Y-79238459D01*
X137286352Y-79201603D01*
X137299915Y-79157977D01*
X137317860Y-79106886D01*
X137340413Y-79047637D01*
X137367799Y-78979535D01*
X137389071Y-78928358D01*
X137405246Y-78889239D01*
X137423025Y-78845214D01*
X137440616Y-78800785D01*
X137456226Y-78760451D01*
X137461425Y-78746709D01*
X137486735Y-78680405D01*
X137512653Y-78614678D01*
X137538289Y-78551694D01*
X137562750Y-78493617D01*
X137585146Y-78442615D01*
X137598729Y-78413103D01*
X137627270Y-78360395D01*
X137658715Y-78317763D01*
X137694005Y-78284165D01*
X137734081Y-78258560D01*
X137741714Y-78254796D01*
X137780511Y-78236422D01*
X138196789Y-78234772D01*
X138264224Y-78234558D01*
X138328270Y-78234459D01*
X138388048Y-78234469D01*
D12*
X126327000Y-65475000D02*
X126327000Y-66805000D01*
X124997000Y-65475000D02*
X126327000Y-65475000D01*
X123727000Y-65475000D02*
X123727000Y-68135000D01*
X123727000Y-68135000D02*
X121127000Y-68135000D01*
X123727000Y-65475000D02*
X121127000Y-65475000D01*
X121127000Y-65475000D02*
X121127000Y-68135000D01*
X126316000Y-69145000D02*
X126316000Y-70475000D01*
X124986000Y-69145000D02*
X126316000Y-69145000D01*
X123716000Y-69145000D02*
X123716000Y-71805000D01*
X123716000Y-71805000D02*
X121116000Y-71805000D01*
X123716000Y-69145000D02*
X121116000Y-69145000D01*
X121116000Y-69145000D02*
X121116000Y-71805000D01*
X126297000Y-72801000D02*
X126297000Y-74131000D01*
X124967000Y-72801000D02*
X126297000Y-72801000D01*
X123697000Y-72801000D02*
X123697000Y-75461000D01*
X123697000Y-75461000D02*
X121097000Y-75461000D01*
X123697000Y-72801000D02*
X121097000Y-72801000D01*
X121097000Y-72801000D02*
X121097000Y-75461000D01*
X188112000Y-88962000D02*
X189442000Y-88962000D01*
X188112000Y-90292000D02*
X188112000Y-88962000D01*
X188112000Y-91562000D02*
X190772000Y-91562000D01*
X190772000Y-91562000D02*
X190772000Y-101782000D01*
X188112000Y-91562000D02*
X188112000Y-101782000D01*
X188112000Y-101782000D02*
X190772000Y-101782000D01*
X142053000Y-63591000D02*
X142053000Y-60731000D01*
X140133000Y-63591000D02*
X142053000Y-63591000D01*
X140133000Y-60731000D02*
X140133000Y-63591000D01*
D14*
X118318000Y-80050000D02*
X118318000Y-86050000D01*
X118318000Y-86550000D02*
X118318000Y-86050000D01*
X118318000Y-80050000D02*
X107718000Y-80050000D01*
X118318000Y-86550000D02*
X107718000Y-86550000D01*
X107718000Y-80050000D02*
X107718000Y-86550000D01*
X118335000Y-94652000D02*
X118335000Y-100652000D01*
X118335000Y-101152000D02*
X118335000Y-100652000D01*
X118335000Y-94652000D02*
X107735000Y-94652000D01*
X118335000Y-101152000D02*
X107735000Y-101152000D01*
X107735000Y-94652000D02*
X107735000Y-101152000D01*
D12*
X118227000Y-63424000D02*
X107947000Y-63424000D01*
X118227000Y-68744000D02*
X118227000Y-63424000D01*
X107947000Y-68744000D02*
X118227000Y-68744000D01*
X107947000Y-63424000D02*
X107947000Y-68744000D01*
X115737000Y-63484000D02*
X114087000Y-63484000D01*
X115737000Y-68684000D02*
X115737000Y-63484000D01*
X110437000Y-68684000D02*
X115737000Y-68684000D01*
X110437000Y-63484000D02*
X110437000Y-68684000D01*
X112087000Y-63484000D02*
X110437000Y-63484000D01*
X114087000Y-63484000D02*
G75*
G02X112087000Y-63484000I-1000000J0D01*
G01*
X118186000Y-54206000D02*
X107906000Y-54206000D01*
X118186000Y-59526000D02*
X118186000Y-54206000D01*
X107906000Y-59526000D02*
X118186000Y-59526000D01*
X107906000Y-54206000D02*
X107906000Y-59526000D01*
X115696000Y-54266000D02*
X114046000Y-54266000D01*
X115696000Y-59466000D02*
X115696000Y-54266000D01*
X110396000Y-59466000D02*
X115696000Y-59466000D01*
X110396000Y-54266000D02*
X110396000Y-59466000D01*
X112046000Y-54266000D02*
X110396000Y-54266000D01*
X114046000Y-54266000D02*
G75*
G02X112046000Y-54266000I-1000000J0D01*
G01*
X129628000Y-34839000D02*
X129248000Y-34839000D01*
X129628000Y-28419000D02*
X129628000Y-34839000D01*
X147868000Y-28419000D02*
X147868000Y-34839000D01*
X129628000Y-28419000D02*
X147868000Y-28419000D01*
X147868000Y-54164000D02*
X146868000Y-54164000D01*
X147868000Y-53384000D02*
X147868000Y-54164000D01*
X129628000Y-54164000D02*
X130628000Y-54164000D01*
X129628000Y-53384000D02*
X129628000Y-54164000D01*
X145222000Y-107411000D02*
X139212000Y-107411000D01*
X142972000Y-100591000D02*
X139212000Y-100591000D01*
X139212000Y-107411000D02*
X139212000Y-106151000D01*
X139212000Y-100591000D02*
X139212000Y-101851000D01*
X139964000Y-114781000D02*
X138864000Y-114781000D01*
X139964000Y-115051000D02*
X139964000Y-114781000D01*
X141464000Y-115051000D02*
X139964000Y-115051000D01*
X139964000Y-108421000D02*
X137134000Y-108421000D01*
X139964000Y-108151000D02*
X139964000Y-108421000D01*
X141464000Y-108151000D02*
X139964000Y-108151000D01*
X112137000Y-49073000D02*
X109637000Y-49073000D01*
X113637000Y-47323000D02*
X113637000Y-45323000D01*
X112137000Y-43573000D02*
X109637000Y-43573000D01*
X108137000Y-47323000D02*
X108137000Y-45323000D01*
X112587000Y-48623000D02*
X112137000Y-49073000D01*
X109187000Y-48623000D02*
X109637000Y-49073000D01*
X109187000Y-44023000D02*
X109637000Y-43573000D01*
X112587000Y-44023000D02*
X112137000Y-43573000D01*
X142656000Y-60974000D02*
X142656000Y-58474000D01*
X144406000Y-62474000D02*
X146406000Y-62474000D01*
X148156000Y-60974000D02*
X148156000Y-58474000D01*
X144406000Y-56974000D02*
X146406000Y-56974000D01*
X143106000Y-61424000D02*
X142656000Y-60974000D01*
X143106000Y-58024000D02*
X142656000Y-58474000D01*
X147706000Y-58024000D02*
X148156000Y-58474000D01*
X147706000Y-61424000D02*
X148156000Y-60974000D01*
X109840000Y-35415000D02*
X112340000Y-35415000D01*
X108340000Y-37165000D02*
X108340000Y-39165000D01*
X109840000Y-40915000D02*
X112340000Y-40915000D01*
X113840000Y-37165000D02*
X113840000Y-39165000D01*
X109390000Y-35865000D02*
X109840000Y-35415000D01*
X112790000Y-35865000D02*
X112340000Y-35415000D01*
X112790000Y-40465000D02*
X112340000Y-40915000D01*
X109390000Y-40465000D02*
X109840000Y-40915000D01*
X121463748Y-80938000D02*
X121986252Y-80938000D01*
X121463748Y-79518000D02*
X121986252Y-79518000D01*
X121393748Y-95875000D02*
X121916252Y-95875000D01*
X121393748Y-94455000D02*
X121916252Y-94455000D01*
X115873252Y-61249000D02*
X115350748Y-61249000D01*
X115873252Y-62669000D02*
X115350748Y-62669000D01*
X115765252Y-52055000D02*
X115242748Y-52055000D01*
X115765252Y-53475000D02*
X115242748Y-53475000D01*
X110508748Y-53475000D02*
X111031252Y-53475000D01*
X110508748Y-52055000D02*
X111031252Y-52055000D01*
X110659748Y-62690000D02*
X111182252Y-62690000D01*
X110659748Y-61270000D02*
X111182252Y-61270000D01*
X150089748Y-109763000D02*
X150612252Y-109763000D01*
X150089748Y-108343000D02*
X150612252Y-108343000D01*
X150082748Y-111876000D02*
X150605252Y-111876000D01*
X150082748Y-110456000D02*
X150605252Y-110456000D01*
X140408000Y-57484748D02*
X140408000Y-58007252D01*
X141828000Y-57484748D02*
X141828000Y-58007252D01*
X119331000Y-37774252D02*
X119331000Y-37251748D01*
X117911000Y-37774252D02*
X117911000Y-37251748D01*
X122822252Y-62905000D02*
X122299748Y-62905000D01*
X122822252Y-64325000D02*
X122299748Y-64325000D01*
X122829252Y-60906000D02*
X122306748Y-60906000D01*
X122829252Y-62326000D02*
X122306748Y-62326000D01*
X122834252Y-58912000D02*
X122311748Y-58912000D01*
X122834252Y-60332000D02*
X122311748Y-60332000D01*
X132363000Y-102636252D02*
X132363000Y-102113748D01*
X130943000Y-102636252D02*
X130943000Y-102113748D01*
X122309000Y-86583000D02*
X120849000Y-86583000D01*
X122309000Y-83423000D02*
X120149000Y-83423000D01*
X122309000Y-83423000D02*
X122309000Y-84353000D01*
X122309000Y-86583000D02*
X122309000Y-85653000D01*
X122317000Y-100768000D02*
X120857000Y-100768000D01*
X122317000Y-97608000D02*
X120157000Y-97608000D01*
X122317000Y-97608000D02*
X122317000Y-98538000D01*
X122317000Y-100768000D02*
X122317000Y-99838000D01*
X132751000Y-116677000D02*
X131291000Y-116677000D01*
X132751000Y-113517000D02*
X130591000Y-113517000D01*
X132751000Y-113517000D02*
X132751000Y-114447000D01*
X132751000Y-116677000D02*
X132751000Y-115747000D01*
X104897000Y-106624000D02*
X104897000Y-91384000D01*
X97277000Y-106624000D02*
X97277000Y-91384000D01*
X103627000Y-106624000D02*
X103627000Y-91384000D01*
X104897000Y-91384000D02*
X97277000Y-91384000D01*
X104897000Y-106624000D02*
X97277000Y-106624000D01*
X104897000Y-91263000D02*
X104897000Y-76023000D01*
X97277000Y-91263000D02*
X97277000Y-76023000D01*
X103627000Y-91263000D02*
X103627000Y-76023000D01*
X104897000Y-76023000D02*
X97277000Y-76023000D01*
X104897000Y-91263000D02*
X97277000Y-91263000D01*
X104910000Y-75890000D02*
X104910000Y-45410000D01*
X97290000Y-75890000D02*
X97290000Y-45410000D01*
X103640000Y-75890000D02*
X103640000Y-45410000D01*
X104910000Y-45410000D02*
X97290000Y-45410000D01*
X97290000Y-75890000D02*
X104910000Y-75890000D01*
X184945000Y-125142000D02*
X154465000Y-125142000D01*
X184945000Y-132762000D02*
X154465000Y-132762000D01*
X184945000Y-126412000D02*
X154465000Y-126412000D01*
X154465000Y-125142000D02*
X154465000Y-132762000D01*
X184945000Y-132762000D02*
X184945000Y-125142000D01*
X154307000Y-125147000D02*
X144147000Y-125147000D01*
X154307000Y-132767000D02*
X154307000Y-125147000D01*
X144147000Y-132767000D02*
X154307000Y-132767000D01*
X144147000Y-125147000D02*
X144147000Y-132767000D01*
X144147000Y-126417000D02*
X154307000Y-126417000D01*
X157874000Y-75514000D02*
X156544000Y-75514000D01*
X157874000Y-74184000D02*
X157874000Y-75514000D01*
X157874000Y-72914000D02*
X155214000Y-72914000D01*
X155214000Y-72914000D02*
X155214000Y-60154000D01*
X157874000Y-72914000D02*
X157874000Y-60154000D01*
X157874000Y-60154000D02*
X155214000Y-60154000D01*
X174155000Y-39117000D02*
X174155000Y-37787000D01*
X175485000Y-39117000D02*
X174155000Y-39117000D01*
X176755000Y-39117000D02*
X176755000Y-36457000D01*
X176755000Y-36457000D02*
X184435000Y-36457000D01*
X176755000Y-39117000D02*
X184435000Y-39117000D01*
X184435000Y-39117000D02*
X184435000Y-36457000D01*
X190848000Y-121829000D02*
X189518000Y-121829000D01*
X190848000Y-120499000D02*
X190848000Y-121829000D01*
X190848000Y-119229000D02*
X188188000Y-119229000D01*
X188188000Y-119229000D02*
X188188000Y-111549000D01*
X190848000Y-119229000D02*
X190848000Y-111549000D01*
X190848000Y-111549000D02*
X188188000Y-111549000D01*
X157778000Y-39097000D02*
X157778000Y-37767000D01*
X159108000Y-39097000D02*
X157778000Y-39097000D01*
X160378000Y-39097000D02*
X160378000Y-36437000D01*
X160378000Y-36437000D02*
X173138000Y-36437000D01*
X160378000Y-39097000D02*
X173138000Y-39097000D01*
X173138000Y-39097000D02*
X173138000Y-36437000D01*
X119977000Y-47316000D02*
X121307000Y-47316000D01*
X119977000Y-48646000D02*
X119977000Y-47316000D01*
X119977000Y-49916000D02*
X122637000Y-49916000D01*
X122637000Y-49916000D02*
X122637000Y-57596000D01*
X119977000Y-49916000D02*
X119977000Y-57596000D01*
X119977000Y-57596000D02*
X122637000Y-57596000D01*
D14*
X126359000Y-98730000D02*
X124859000Y-98730000D01*
X125609000Y-98730000D02*
X126359000Y-99980000D01*
X126359000Y-99980000D02*
X124859000Y-99980000D01*
X124859000Y-99980000D02*
X125609000Y-98730000D01*
X126809000Y-101480000D02*
X126809000Y-97480000D01*
X126609000Y-96480000D02*
X126809000Y-96480000D01*
X126809000Y-96480000D02*
X126809000Y-97480000D01*
X124309000Y-96480000D02*
X124709000Y-96480000D01*
X124309000Y-96780000D02*
X124309000Y-101480000D01*
X124309000Y-96780000D02*
X124309000Y-96480000D01*
X126609000Y-96480000D02*
X126409000Y-96480000D01*
X126212000Y-84101000D02*
X124712000Y-84101000D01*
X125462000Y-84101000D02*
X126212000Y-85351000D01*
X126212000Y-85351000D02*
X124712000Y-85351000D01*
X124712000Y-85351000D02*
X125462000Y-84101000D01*
X126662000Y-86851000D02*
X126662000Y-82851000D01*
X126462000Y-81851000D02*
X126662000Y-81851000D01*
X126662000Y-81851000D02*
X126662000Y-82851000D01*
X124162000Y-81851000D02*
X124562000Y-81851000D01*
X124162000Y-82151000D02*
X124162000Y-86851000D01*
X124162000Y-82151000D02*
X124162000Y-81851000D01*
X126462000Y-81851000D02*
X126262000Y-81851000D01*
D12*
X134229000Y-118356000D02*
X134229000Y-114506000D01*
X136229000Y-118356000D02*
X136229000Y-114506000D01*
X134229000Y-118356000D02*
X136229000Y-118356000D01*
X163701000Y-41842000D02*
X161151000Y-41842000D01*
X163701000Y-40142000D02*
X161151000Y-40142000D01*
X163701000Y-41842000D02*
X163701000Y-40142000D01*
X137130000Y-116195000D02*
X140980000Y-116195000D01*
X137130000Y-118195000D02*
X140980000Y-118195000D01*
X137130000Y-116195000D02*
X137130000Y-118195000D01*
X134463000Y-111589748D02*
X134463000Y-112112252D01*
X135883000Y-111589748D02*
X135883000Y-112112252D01*
X134324000Y-100456000D02*
X134324000Y-104541000D01*
X136194000Y-100456000D02*
X134324000Y-100456000D01*
X136194000Y-104541000D02*
X136194000Y-100456000D01*
X135937000Y-108067252D02*
X135937000Y-107544748D01*
X134517000Y-108067252D02*
X134517000Y-107544748D01*
X143135500Y-117886000D02*
X147220500Y-117886000D01*
X143135500Y-116016000D02*
X143135500Y-117886000D01*
X147220500Y-116016000D02*
X143135500Y-116016000D01*
X148078000Y-102443252D02*
X148078000Y-101920748D01*
X146658000Y-102443252D02*
X146658000Y-101920748D01*
X131705340Y-127372000D02*
G75*
G03X131705340Y-127372000I-14700340J0D01*
G01*
D11*
X133528095Y-123428380D02*
X133528095Y-122428380D01*
X133528095Y-122904571D02*
X134099523Y-122904571D01*
X134099523Y-123428380D02*
X134099523Y-122428380D01*
X135051904Y-122428380D02*
X134575714Y-122428380D01*
X134528095Y-122904571D01*
X134575714Y-122856952D01*
X134670952Y-122809333D01*
X134909047Y-122809333D01*
X135004285Y-122856952D01*
X135051904Y-122904571D01*
X135099523Y-122999809D01*
X135099523Y-123237904D01*
X135051904Y-123333142D01*
X135004285Y-123380761D01*
X134909047Y-123428380D01*
X134670952Y-123428380D01*
X134575714Y-123380761D01*
X134528095Y-123333142D01*
X99154095Y-123428380D02*
X99154095Y-122428380D01*
X99154095Y-122904571D02*
X99725523Y-122904571D01*
X99725523Y-123428380D02*
X99725523Y-122428380D01*
X100630285Y-122761714D02*
X100630285Y-123428380D01*
X100392190Y-122380761D02*
X100154095Y-123095047D01*
X100773142Y-123095047D01*
X127779380Y-67543095D02*
X126779380Y-67543095D01*
X126779380Y-67305000D01*
X126827000Y-67162142D01*
X126922238Y-67066904D01*
X127017476Y-67019285D01*
X127207952Y-66971666D01*
X127350809Y-66971666D01*
X127541285Y-67019285D01*
X127636523Y-67066904D01*
X127731761Y-67162142D01*
X127779380Y-67305000D01*
X127779380Y-67543095D01*
X126779380Y-66114523D02*
X126779380Y-66305000D01*
X126827000Y-66400238D01*
X126874619Y-66447857D01*
X127017476Y-66543095D01*
X127207952Y-66590714D01*
X127588904Y-66590714D01*
X127684142Y-66543095D01*
X127731761Y-66495476D01*
X127779380Y-66400238D01*
X127779380Y-66209761D01*
X127731761Y-66114523D01*
X127684142Y-66066904D01*
X127588904Y-66019285D01*
X127350809Y-66019285D01*
X127255571Y-66066904D01*
X127207952Y-66114523D01*
X127160333Y-66209761D01*
X127160333Y-66400238D01*
X127207952Y-66495476D01*
X127255571Y-66543095D01*
X127350809Y-66590714D01*
X127768380Y-71213095D02*
X126768380Y-71213095D01*
X126768380Y-70975000D01*
X126816000Y-70832142D01*
X126911238Y-70736904D01*
X127006476Y-70689285D01*
X127196952Y-70641666D01*
X127339809Y-70641666D01*
X127530285Y-70689285D01*
X127625523Y-70736904D01*
X127720761Y-70832142D01*
X127768380Y-70975000D01*
X127768380Y-71213095D01*
X126768380Y-69736904D02*
X126768380Y-70213095D01*
X127244571Y-70260714D01*
X127196952Y-70213095D01*
X127149333Y-70117857D01*
X127149333Y-69879761D01*
X127196952Y-69784523D01*
X127244571Y-69736904D01*
X127339809Y-69689285D01*
X127577904Y-69689285D01*
X127673142Y-69736904D01*
X127720761Y-69784523D01*
X127768380Y-69879761D01*
X127768380Y-70117857D01*
X127720761Y-70213095D01*
X127673142Y-70260714D01*
X127749380Y-74869095D02*
X126749380Y-74869095D01*
X126749380Y-74631000D01*
X126797000Y-74488142D01*
X126892238Y-74392904D01*
X126987476Y-74345285D01*
X127177952Y-74297666D01*
X127320809Y-74297666D01*
X127511285Y-74345285D01*
X127606523Y-74392904D01*
X127701761Y-74488142D01*
X127749380Y-74631000D01*
X127749380Y-74869095D01*
X127082714Y-73440523D02*
X127749380Y-73440523D01*
X126701761Y-73678619D02*
X127416047Y-73916714D01*
X127416047Y-73297666D01*
X99154095Y-36202380D02*
X99154095Y-35202380D01*
X99154095Y-35678571D02*
X99725523Y-35678571D01*
X99725523Y-36202380D02*
X99725523Y-35202380D01*
X100106476Y-35202380D02*
X100725523Y-35202380D01*
X100392190Y-35583333D01*
X100535047Y-35583333D01*
X100630285Y-35630952D01*
X100677904Y-35678571D01*
X100725523Y-35773809D01*
X100725523Y-36011904D01*
X100677904Y-36107142D01*
X100630285Y-36154761D01*
X100535047Y-36202380D01*
X100249333Y-36202380D01*
X100154095Y-36154761D01*
X100106476Y-36107142D01*
X189178095Y-123428380D02*
X189178095Y-122428380D01*
X189178095Y-122904571D02*
X189749523Y-122904571D01*
X189749523Y-123428380D02*
X189749523Y-122428380D01*
X190178095Y-122523619D02*
X190225714Y-122476000D01*
X190320952Y-122428380D01*
X190559047Y-122428380D01*
X190654285Y-122476000D01*
X190701904Y-122523619D01*
X190749523Y-122618857D01*
X190749523Y-122714095D01*
X190701904Y-122856952D01*
X190130476Y-123428380D01*
X190749523Y-123428380D01*
X189178095Y-36202380D02*
X189178095Y-35202380D01*
X189178095Y-35678571D02*
X189749523Y-35678571D01*
X189749523Y-36202380D02*
X189749523Y-35202380D01*
X190749523Y-36202380D02*
X190178095Y-36202380D01*
X190463809Y-36202380D02*
X190463809Y-35202380D01*
X190368571Y-35345238D01*
X190273333Y-35440476D01*
X190178095Y-35488095D01*
X189108666Y-87414380D02*
X189108666Y-88128666D01*
X189061047Y-88271523D01*
X188965809Y-88366761D01*
X188822952Y-88414380D01*
X188727714Y-88414380D01*
X190061047Y-87414380D02*
X189584857Y-87414380D01*
X189537238Y-87890571D01*
X189584857Y-87842952D01*
X189680095Y-87795333D01*
X189918190Y-87795333D01*
X190013428Y-87842952D01*
X190061047Y-87890571D01*
X190108666Y-87985809D01*
X190108666Y-88223904D01*
X190061047Y-88319142D01*
X190013428Y-88366761D01*
X189918190Y-88414380D01*
X189680095Y-88414380D01*
X189584857Y-88366761D01*
X189537238Y-88319142D01*
X186799142Y-103234380D02*
X186799142Y-102234380D01*
X187037238Y-102234380D01*
X187180095Y-102282000D01*
X187275333Y-102377238D01*
X187322952Y-102472476D01*
X187370571Y-102662952D01*
X187370571Y-102805809D01*
X187322952Y-102996285D01*
X187275333Y-103091523D01*
X187180095Y-103186761D01*
X187037238Y-103234380D01*
X186799142Y-103234380D01*
X187751523Y-103186761D02*
X187894380Y-103234380D01*
X188132476Y-103234380D01*
X188227714Y-103186761D01*
X188275333Y-103139142D01*
X188322952Y-103043904D01*
X188322952Y-102948666D01*
X188275333Y-102853428D01*
X188227714Y-102805809D01*
X188132476Y-102758190D01*
X187942000Y-102710571D01*
X187846761Y-102662952D01*
X187799142Y-102615333D01*
X187751523Y-102520095D01*
X187751523Y-102424857D01*
X187799142Y-102329619D01*
X187846761Y-102282000D01*
X187942000Y-102234380D01*
X188180095Y-102234380D01*
X188322952Y-102282000D01*
X189275333Y-103234380D02*
X188703904Y-103234380D01*
X188989619Y-103234380D02*
X188989619Y-102234380D01*
X188894380Y-102377238D01*
X188799142Y-102472476D01*
X188703904Y-102520095D01*
X189608666Y-102234380D02*
X190227714Y-102234380D01*
X189894380Y-102615333D01*
X190037238Y-102615333D01*
X190132476Y-102662952D01*
X190180095Y-102710571D01*
X190227714Y-102805809D01*
X190227714Y-103043904D01*
X190180095Y-103139142D01*
X190132476Y-103186761D01*
X190037238Y-103234380D01*
X189751523Y-103234380D01*
X189656285Y-103186761D01*
X189608666Y-103139142D01*
X190846761Y-102234380D02*
X190942000Y-102234380D01*
X191037238Y-102282000D01*
X191084857Y-102329619D01*
X191132476Y-102424857D01*
X191180095Y-102615333D01*
X191180095Y-102853428D01*
X191132476Y-103043904D01*
X191084857Y-103139142D01*
X191037238Y-103186761D01*
X190942000Y-103234380D01*
X190846761Y-103234380D01*
X190751523Y-103186761D01*
X190703904Y-103139142D01*
X190656285Y-103043904D01*
X190608666Y-102853428D01*
X190608666Y-102615333D01*
X190656285Y-102424857D01*
X190703904Y-102329619D01*
X190751523Y-102282000D01*
X190846761Y-102234380D01*
X191513428Y-102234380D02*
X192180095Y-102234380D01*
X191751523Y-103234380D01*
X139895380Y-62469095D02*
X138895380Y-62469095D01*
X138895380Y-62231000D01*
X138943000Y-62088142D01*
X139038238Y-61992904D01*
X139133476Y-61945285D01*
X139323952Y-61897666D01*
X139466809Y-61897666D01*
X139657285Y-61945285D01*
X139752523Y-61992904D01*
X139847761Y-62088142D01*
X139895380Y-62231000D01*
X139895380Y-62469095D01*
X138895380Y-61564333D02*
X138895380Y-60897666D01*
X139895380Y-61326238D01*
X106757190Y-81261190D02*
X107233380Y-81261190D01*
X106233380Y-81594523D02*
X106757190Y-81261190D01*
X106233380Y-80927857D01*
X106328619Y-80642142D02*
X106281000Y-80594523D01*
X106233380Y-80499285D01*
X106233380Y-80261190D01*
X106281000Y-80165952D01*
X106328619Y-80118333D01*
X106423857Y-80070714D01*
X106519095Y-80070714D01*
X106661952Y-80118333D01*
X107233380Y-80689761D01*
X107233380Y-80070714D01*
X106802190Y-96441190D02*
X107278380Y-96441190D01*
X106278380Y-96774523D02*
X106802190Y-96441190D01*
X106278380Y-96107857D01*
X107278380Y-95250714D02*
X107278380Y-95822142D01*
X107278380Y-95536428D02*
X106278380Y-95536428D01*
X106421238Y-95631666D01*
X106516476Y-95726904D01*
X106564095Y-95822142D01*
X108254095Y-69292380D02*
X108254095Y-70101904D01*
X108301714Y-70197142D01*
X108349333Y-70244761D01*
X108444571Y-70292380D01*
X108635047Y-70292380D01*
X108730285Y-70244761D01*
X108777904Y-70197142D01*
X108825523Y-70101904D01*
X108825523Y-69292380D01*
X109777904Y-69292380D02*
X109301714Y-69292380D01*
X109254095Y-69768571D01*
X109301714Y-69720952D01*
X109396952Y-69673333D01*
X109635047Y-69673333D01*
X109730285Y-69720952D01*
X109777904Y-69768571D01*
X109825523Y-69863809D01*
X109825523Y-70101904D01*
X109777904Y-70197142D01*
X109730285Y-70244761D01*
X109635047Y-70292380D01*
X109396952Y-70292380D01*
X109301714Y-70244761D01*
X109254095Y-70197142D01*
X107842095Y-59873380D02*
X107842095Y-60682904D01*
X107889714Y-60778142D01*
X107937333Y-60825761D01*
X108032571Y-60873380D01*
X108223047Y-60873380D01*
X108318285Y-60825761D01*
X108365904Y-60778142D01*
X108413523Y-60682904D01*
X108413523Y-59873380D01*
X109318285Y-60206714D02*
X109318285Y-60873380D01*
X109080190Y-59825761D02*
X108842095Y-60540047D01*
X109461142Y-60540047D01*
X127550380Y-36595904D02*
X128359904Y-36595904D01*
X128455142Y-36548285D01*
X128502761Y-36500666D01*
X128550380Y-36405428D01*
X128550380Y-36214952D01*
X128502761Y-36119714D01*
X128455142Y-36072095D01*
X128359904Y-36024476D01*
X127550380Y-36024476D01*
X127550380Y-35643523D02*
X127550380Y-35024476D01*
X127931333Y-35357809D01*
X127931333Y-35214952D01*
X127978952Y-35119714D01*
X128026571Y-35072095D01*
X128121809Y-35024476D01*
X128359904Y-35024476D01*
X128455142Y-35072095D01*
X128502761Y-35119714D01*
X128550380Y-35214952D01*
X128550380Y-35500666D01*
X128502761Y-35595904D01*
X128455142Y-35643523D01*
X140423095Y-98958380D02*
X140423095Y-99767904D01*
X140470714Y-99863142D01*
X140518333Y-99910761D01*
X140613571Y-99958380D01*
X140804047Y-99958380D01*
X140899285Y-99910761D01*
X140946904Y-99863142D01*
X140994523Y-99767904D01*
X140994523Y-98958380D01*
X141423095Y-99053619D02*
X141470714Y-99006000D01*
X141565952Y-98958380D01*
X141804047Y-98958380D01*
X141899285Y-99006000D01*
X141946904Y-99053619D01*
X141994523Y-99148857D01*
X141994523Y-99244095D01*
X141946904Y-99386952D01*
X141375476Y-99958380D01*
X141994523Y-99958380D01*
X145910095Y-106886380D02*
X145910095Y-107695904D01*
X145957714Y-107791142D01*
X146005333Y-107838761D01*
X146100571Y-107886380D01*
X146291047Y-107886380D01*
X146386285Y-107838761D01*
X146433904Y-107791142D01*
X146481523Y-107695904D01*
X146481523Y-106886380D01*
X147481523Y-107886380D02*
X146910095Y-107886380D01*
X147195809Y-107886380D02*
X147195809Y-106886380D01*
X147100571Y-107029238D01*
X147005333Y-107124476D01*
X146910095Y-107172095D01*
X109516666Y-50304761D02*
X109659523Y-50352380D01*
X109897619Y-50352380D01*
X109992857Y-50304761D01*
X110040476Y-50257142D01*
X110088095Y-50161904D01*
X110088095Y-50066666D01*
X110040476Y-49971428D01*
X109992857Y-49923809D01*
X109897619Y-49876190D01*
X109707142Y-49828571D01*
X109611904Y-49780952D01*
X109564285Y-49733333D01*
X109516666Y-49638095D01*
X109516666Y-49542857D01*
X109564285Y-49447619D01*
X109611904Y-49400000D01*
X109707142Y-49352380D01*
X109945238Y-49352380D01*
X110088095Y-49400000D01*
X110421428Y-49352380D02*
X110659523Y-50352380D01*
X110850000Y-49638095D01*
X111040476Y-50352380D01*
X111278571Y-49352380D01*
X111564285Y-49352380D02*
X112183333Y-49352380D01*
X111850000Y-49733333D01*
X111992857Y-49733333D01*
X112088095Y-49780952D01*
X112135714Y-49828571D01*
X112183333Y-49923809D01*
X112183333Y-50161904D01*
X112135714Y-50257142D01*
X112088095Y-50304761D01*
X111992857Y-50352380D01*
X111707142Y-50352380D01*
X111611904Y-50304761D01*
X111564285Y-50257142D01*
X144252666Y-65224761D02*
X144395523Y-65272380D01*
X144633619Y-65272380D01*
X144728857Y-65224761D01*
X144776476Y-65177142D01*
X144824095Y-65081904D01*
X144824095Y-64986666D01*
X144776476Y-64891428D01*
X144728857Y-64843809D01*
X144633619Y-64796190D01*
X144443142Y-64748571D01*
X144347904Y-64700952D01*
X144300285Y-64653333D01*
X144252666Y-64558095D01*
X144252666Y-64462857D01*
X144300285Y-64367619D01*
X144347904Y-64320000D01*
X144443142Y-64272380D01*
X144681238Y-64272380D01*
X144824095Y-64320000D01*
X145157428Y-64272380D02*
X145395523Y-65272380D01*
X145586000Y-64558095D01*
X145776476Y-65272380D01*
X146014571Y-64272380D01*
X146347904Y-64367619D02*
X146395523Y-64320000D01*
X146490761Y-64272380D01*
X146728857Y-64272380D01*
X146824095Y-64320000D01*
X146871714Y-64367619D01*
X146919333Y-64462857D01*
X146919333Y-64558095D01*
X146871714Y-64700952D01*
X146300285Y-65272380D01*
X146919333Y-65272380D01*
X109816666Y-42054761D02*
X109959523Y-42102380D01*
X110197619Y-42102380D01*
X110292857Y-42054761D01*
X110340476Y-42007142D01*
X110388095Y-41911904D01*
X110388095Y-41816666D01*
X110340476Y-41721428D01*
X110292857Y-41673809D01*
X110197619Y-41626190D01*
X110007142Y-41578571D01*
X109911904Y-41530952D01*
X109864285Y-41483333D01*
X109816666Y-41388095D01*
X109816666Y-41292857D01*
X109864285Y-41197619D01*
X109911904Y-41150000D01*
X110007142Y-41102380D01*
X110245238Y-41102380D01*
X110388095Y-41150000D01*
X110721428Y-41102380D02*
X110959523Y-42102380D01*
X111150000Y-41388095D01*
X111340476Y-42102380D01*
X111578571Y-41102380D01*
X112483333Y-42102380D02*
X111911904Y-42102380D01*
X112197619Y-42102380D02*
X112197619Y-41102380D01*
X112102380Y-41245238D01*
X112007142Y-41340476D01*
X111911904Y-41388095D01*
X120983142Y-78980380D02*
X120649809Y-78504190D01*
X120411714Y-78980380D02*
X120411714Y-77980380D01*
X120792666Y-77980380D01*
X120887904Y-78028000D01*
X120935523Y-78075619D01*
X120983142Y-78170857D01*
X120983142Y-78313714D01*
X120935523Y-78408952D01*
X120887904Y-78456571D01*
X120792666Y-78504190D01*
X120411714Y-78504190D01*
X121935523Y-78980380D02*
X121364095Y-78980380D01*
X121649809Y-78980380D02*
X121649809Y-77980380D01*
X121554571Y-78123238D01*
X121459333Y-78218476D01*
X121364095Y-78266095D01*
X122792666Y-78313714D02*
X122792666Y-78980380D01*
X122554571Y-77932761D02*
X122316476Y-78647047D01*
X122935523Y-78647047D01*
X120969142Y-93961380D02*
X120635809Y-93485190D01*
X120397714Y-93961380D02*
X120397714Y-92961380D01*
X120778666Y-92961380D01*
X120873904Y-93009000D01*
X120921523Y-93056619D01*
X120969142Y-93151857D01*
X120969142Y-93294714D01*
X120921523Y-93389952D01*
X120873904Y-93437571D01*
X120778666Y-93485190D01*
X120397714Y-93485190D01*
X121921523Y-93961380D02*
X121350095Y-93961380D01*
X121635809Y-93961380D02*
X121635809Y-92961380D01*
X121540571Y-93104238D01*
X121445333Y-93199476D01*
X121350095Y-93247095D01*
X122254857Y-92961380D02*
X122873904Y-92961380D01*
X122540571Y-93342333D01*
X122683428Y-93342333D01*
X122778666Y-93389952D01*
X122826285Y-93437571D01*
X122873904Y-93532809D01*
X122873904Y-93770904D01*
X122826285Y-93866142D01*
X122778666Y-93913761D01*
X122683428Y-93961380D01*
X122397714Y-93961380D01*
X122302476Y-93913761D01*
X122254857Y-93866142D01*
X114969142Y-60861380D02*
X114635809Y-60385190D01*
X114397714Y-60861380D02*
X114397714Y-59861380D01*
X114778666Y-59861380D01*
X114873904Y-59909000D01*
X114921523Y-59956619D01*
X114969142Y-60051857D01*
X114969142Y-60194714D01*
X114921523Y-60289952D01*
X114873904Y-60337571D01*
X114778666Y-60385190D01*
X114397714Y-60385190D01*
X115921523Y-60861380D02*
X115350095Y-60861380D01*
X115635809Y-60861380D02*
X115635809Y-59861380D01*
X115540571Y-60004238D01*
X115445333Y-60099476D01*
X115350095Y-60147095D01*
X116302476Y-59956619D02*
X116350095Y-59909000D01*
X116445333Y-59861380D01*
X116683428Y-59861380D01*
X116778666Y-59909000D01*
X116826285Y-59956619D01*
X116873904Y-60051857D01*
X116873904Y-60147095D01*
X116826285Y-60289952D01*
X116254857Y-60861380D01*
X116873904Y-60861380D01*
X114911142Y-51617380D02*
X114577809Y-51141190D01*
X114339714Y-51617380D02*
X114339714Y-50617380D01*
X114720666Y-50617380D01*
X114815904Y-50665000D01*
X114863523Y-50712619D01*
X114911142Y-50807857D01*
X114911142Y-50950714D01*
X114863523Y-51045952D01*
X114815904Y-51093571D01*
X114720666Y-51141190D01*
X114339714Y-51141190D01*
X115863523Y-51617380D02*
X115292095Y-51617380D01*
X115577809Y-51617380D02*
X115577809Y-50617380D01*
X115482571Y-50760238D01*
X115387333Y-50855476D01*
X115292095Y-50903095D01*
X116815904Y-51617380D02*
X116244476Y-51617380D01*
X116530190Y-51617380D02*
X116530190Y-50617380D01*
X116434952Y-50760238D01*
X116339714Y-50855476D01*
X116244476Y-50903095D01*
X110127142Y-51617380D02*
X109793809Y-51141190D01*
X109555714Y-51617380D02*
X109555714Y-50617380D01*
X109936666Y-50617380D01*
X110031904Y-50665000D01*
X110079523Y-50712619D01*
X110127142Y-50807857D01*
X110127142Y-50950714D01*
X110079523Y-51045952D01*
X110031904Y-51093571D01*
X109936666Y-51141190D01*
X109555714Y-51141190D01*
X111079523Y-51617380D02*
X110508095Y-51617380D01*
X110793809Y-51617380D02*
X110793809Y-50617380D01*
X110698571Y-50760238D01*
X110603333Y-50855476D01*
X110508095Y-50903095D01*
X111698571Y-50617380D02*
X111793809Y-50617380D01*
X111889047Y-50665000D01*
X111936666Y-50712619D01*
X111984285Y-50807857D01*
X112031904Y-50998333D01*
X112031904Y-51236428D01*
X111984285Y-51426904D01*
X111936666Y-51522142D01*
X111889047Y-51569761D01*
X111793809Y-51617380D01*
X111698571Y-51617380D01*
X111603333Y-51569761D01*
X111555714Y-51522142D01*
X111508095Y-51426904D01*
X111460476Y-51236428D01*
X111460476Y-50998333D01*
X111508095Y-50807857D01*
X111555714Y-50712619D01*
X111603333Y-50665000D01*
X111698571Y-50617380D01*
X110754333Y-60782380D02*
X110421000Y-60306190D01*
X110182904Y-60782380D02*
X110182904Y-59782380D01*
X110563857Y-59782380D01*
X110659095Y-59830000D01*
X110706714Y-59877619D01*
X110754333Y-59972857D01*
X110754333Y-60115714D01*
X110706714Y-60210952D01*
X110659095Y-60258571D01*
X110563857Y-60306190D01*
X110182904Y-60306190D01*
X111230523Y-60782380D02*
X111421000Y-60782380D01*
X111516238Y-60734761D01*
X111563857Y-60687142D01*
X111659095Y-60544285D01*
X111706714Y-60353809D01*
X111706714Y-59972857D01*
X111659095Y-59877619D01*
X111611476Y-59830000D01*
X111516238Y-59782380D01*
X111325761Y-59782380D01*
X111230523Y-59830000D01*
X111182904Y-59877619D01*
X111135285Y-59972857D01*
X111135285Y-60210952D01*
X111182904Y-60306190D01*
X111230523Y-60353809D01*
X111325761Y-60401428D01*
X111516238Y-60401428D01*
X111611476Y-60353809D01*
X111659095Y-60306190D01*
X111706714Y-60210952D01*
X153235333Y-109512380D02*
X152902000Y-109036190D01*
X152663904Y-109512380D02*
X152663904Y-108512380D01*
X153044857Y-108512380D01*
X153140095Y-108560000D01*
X153187714Y-108607619D01*
X153235333Y-108702857D01*
X153235333Y-108845714D01*
X153187714Y-108940952D01*
X153140095Y-108988571D01*
X153044857Y-109036190D01*
X152663904Y-109036190D01*
X153806761Y-108940952D02*
X153711523Y-108893333D01*
X153663904Y-108845714D01*
X153616285Y-108750476D01*
X153616285Y-108702857D01*
X153663904Y-108607619D01*
X153711523Y-108560000D01*
X153806761Y-108512380D01*
X153997238Y-108512380D01*
X154092476Y-108560000D01*
X154140095Y-108607619D01*
X154187714Y-108702857D01*
X154187714Y-108750476D01*
X154140095Y-108845714D01*
X154092476Y-108893333D01*
X153997238Y-108940952D01*
X153806761Y-108940952D01*
X153711523Y-108988571D01*
X153663904Y-109036190D01*
X153616285Y-109131428D01*
X153616285Y-109321904D01*
X153663904Y-109417142D01*
X153711523Y-109464761D01*
X153806761Y-109512380D01*
X153997238Y-109512380D01*
X154092476Y-109464761D01*
X154140095Y-109417142D01*
X154187714Y-109321904D01*
X154187714Y-109131428D01*
X154140095Y-109036190D01*
X154092476Y-108988571D01*
X153997238Y-108940952D01*
X153037333Y-111582380D02*
X152704000Y-111106190D01*
X152465904Y-111582380D02*
X152465904Y-110582380D01*
X152846857Y-110582380D01*
X152942095Y-110630000D01*
X152989714Y-110677619D01*
X153037333Y-110772857D01*
X153037333Y-110915714D01*
X152989714Y-111010952D01*
X152942095Y-111058571D01*
X152846857Y-111106190D01*
X152465904Y-111106190D01*
X153370666Y-110582380D02*
X154037333Y-110582380D01*
X153608761Y-111582380D01*
X139909380Y-57890666D02*
X139433190Y-58224000D01*
X139909380Y-58462095D02*
X138909380Y-58462095D01*
X138909380Y-58081142D01*
X138957000Y-57985904D01*
X139004619Y-57938285D01*
X139099857Y-57890666D01*
X139242714Y-57890666D01*
X139337952Y-57938285D01*
X139385571Y-57985904D01*
X139433190Y-58081142D01*
X139433190Y-58462095D01*
X138909380Y-57033523D02*
X138909380Y-57224000D01*
X138957000Y-57319238D01*
X139004619Y-57366857D01*
X139147476Y-57462095D01*
X139337952Y-57509714D01*
X139718904Y-57509714D01*
X139814142Y-57462095D01*
X139861761Y-57414476D01*
X139909380Y-57319238D01*
X139909380Y-57128761D01*
X139861761Y-57033523D01*
X139814142Y-56985904D01*
X139718904Y-56938285D01*
X139480809Y-56938285D01*
X139385571Y-56985904D01*
X139337952Y-57033523D01*
X139290333Y-57128761D01*
X139290333Y-57319238D01*
X139337952Y-57414476D01*
X139385571Y-57462095D01*
X139480809Y-57509714D01*
X117423380Y-37679666D02*
X116947190Y-38013000D01*
X117423380Y-38251095D02*
X116423380Y-38251095D01*
X116423380Y-37870142D01*
X116471000Y-37774904D01*
X116518619Y-37727285D01*
X116613857Y-37679666D01*
X116756714Y-37679666D01*
X116851952Y-37727285D01*
X116899571Y-37774904D01*
X116947190Y-37870142D01*
X116947190Y-38251095D01*
X116423380Y-36774904D02*
X116423380Y-37251095D01*
X116899571Y-37298714D01*
X116851952Y-37251095D01*
X116804333Y-37155857D01*
X116804333Y-36917761D01*
X116851952Y-36822523D01*
X116899571Y-36774904D01*
X116994809Y-36727285D01*
X117232904Y-36727285D01*
X117328142Y-36774904D01*
X117375761Y-36822523D01*
X117423380Y-36917761D01*
X117423380Y-37155857D01*
X117375761Y-37251095D01*
X117328142Y-37298714D01*
X125542380Y-63819666D02*
X125066190Y-64153000D01*
X125542380Y-64391095D02*
X124542380Y-64391095D01*
X124542380Y-64010142D01*
X124590000Y-63914904D01*
X124637619Y-63867285D01*
X124732857Y-63819666D01*
X124875714Y-63819666D01*
X124970952Y-63867285D01*
X125018571Y-63914904D01*
X125066190Y-64010142D01*
X125066190Y-64391095D01*
X124875714Y-62962523D02*
X125542380Y-62962523D01*
X124494761Y-63200619D02*
X125209047Y-63438714D01*
X125209047Y-62819666D01*
X125621380Y-61748666D02*
X125145190Y-62082000D01*
X125621380Y-62320095D02*
X124621380Y-62320095D01*
X124621380Y-61939142D01*
X124669000Y-61843904D01*
X124716619Y-61796285D01*
X124811857Y-61748666D01*
X124954714Y-61748666D01*
X125049952Y-61796285D01*
X125097571Y-61843904D01*
X125145190Y-61939142D01*
X125145190Y-62320095D01*
X124621380Y-61415333D02*
X124621380Y-60796285D01*
X125002333Y-61129619D01*
X125002333Y-60986761D01*
X125049952Y-60891523D01*
X125097571Y-60843904D01*
X125192809Y-60796285D01*
X125430904Y-60796285D01*
X125526142Y-60843904D01*
X125573761Y-60891523D01*
X125621380Y-60986761D01*
X125621380Y-61272476D01*
X125573761Y-61367714D01*
X125526142Y-61415333D01*
X125610380Y-59821666D02*
X125134190Y-60155000D01*
X125610380Y-60393095D02*
X124610380Y-60393095D01*
X124610380Y-60012142D01*
X124658000Y-59916904D01*
X124705619Y-59869285D01*
X124800857Y-59821666D01*
X124943714Y-59821666D01*
X125038952Y-59869285D01*
X125086571Y-59916904D01*
X125134190Y-60012142D01*
X125134190Y-60393095D01*
X124705619Y-59440714D02*
X124658000Y-59393095D01*
X124610380Y-59297857D01*
X124610380Y-59059761D01*
X124658000Y-58964523D01*
X124705619Y-58916904D01*
X124800857Y-58869285D01*
X124896095Y-58869285D01*
X125038952Y-58916904D01*
X125610380Y-59488333D01*
X125610380Y-58869285D01*
X130391380Y-102515666D02*
X129915190Y-102849000D01*
X130391380Y-103087095D02*
X129391380Y-103087095D01*
X129391380Y-102706142D01*
X129439000Y-102610904D01*
X129486619Y-102563285D01*
X129581857Y-102515666D01*
X129724714Y-102515666D01*
X129819952Y-102563285D01*
X129867571Y-102610904D01*
X129915190Y-102706142D01*
X129915190Y-103087095D01*
X130391380Y-101563285D02*
X130391380Y-102134714D01*
X130391380Y-101849000D02*
X129391380Y-101849000D01*
X129534238Y-101944238D01*
X129629476Y-102039476D01*
X129677095Y-102134714D01*
X121473761Y-88039619D02*
X121378523Y-87992000D01*
X121283285Y-87896761D01*
X121140428Y-87753904D01*
X121045190Y-87706285D01*
X120949952Y-87706285D01*
X120997571Y-87944380D02*
X120902333Y-87896761D01*
X120807095Y-87801523D01*
X120759476Y-87611047D01*
X120759476Y-87277714D01*
X120807095Y-87087238D01*
X120902333Y-86992000D01*
X120997571Y-86944380D01*
X121188047Y-86944380D01*
X121283285Y-86992000D01*
X121378523Y-87087238D01*
X121426142Y-87277714D01*
X121426142Y-87611047D01*
X121378523Y-87801523D01*
X121283285Y-87896761D01*
X121188047Y-87944380D01*
X120997571Y-87944380D01*
X121759476Y-86944380D02*
X122378523Y-86944380D01*
X122045190Y-87325333D01*
X122188047Y-87325333D01*
X122283285Y-87372952D01*
X122330904Y-87420571D01*
X122378523Y-87515809D01*
X122378523Y-87753904D01*
X122330904Y-87849142D01*
X122283285Y-87896761D01*
X122188047Y-87944380D01*
X121902333Y-87944380D01*
X121807095Y-87896761D01*
X121759476Y-87849142D01*
X121537761Y-102324619D02*
X121442523Y-102277000D01*
X121347285Y-102181761D01*
X121204428Y-102038904D01*
X121109190Y-101991285D01*
X121013952Y-101991285D01*
X121061571Y-102229380D02*
X120966333Y-102181761D01*
X120871095Y-102086523D01*
X120823476Y-101896047D01*
X120823476Y-101562714D01*
X120871095Y-101372238D01*
X120966333Y-101277000D01*
X121061571Y-101229380D01*
X121252047Y-101229380D01*
X121347285Y-101277000D01*
X121442523Y-101372238D01*
X121490142Y-101562714D01*
X121490142Y-101896047D01*
X121442523Y-102086523D01*
X121347285Y-102181761D01*
X121252047Y-102229380D01*
X121061571Y-102229380D01*
X121871095Y-101324619D02*
X121918714Y-101277000D01*
X122013952Y-101229380D01*
X122252047Y-101229380D01*
X122347285Y-101277000D01*
X122394904Y-101324619D01*
X122442523Y-101419857D01*
X122442523Y-101515095D01*
X122394904Y-101657952D01*
X121823476Y-102229380D01*
X122442523Y-102229380D01*
X131882761Y-113085619D02*
X131787523Y-113038000D01*
X131692285Y-112942761D01*
X131549428Y-112799904D01*
X131454190Y-112752285D01*
X131358952Y-112752285D01*
X131406571Y-112990380D02*
X131311333Y-112942761D01*
X131216095Y-112847523D01*
X131168476Y-112657047D01*
X131168476Y-112323714D01*
X131216095Y-112133238D01*
X131311333Y-112038000D01*
X131406571Y-111990380D01*
X131597047Y-111990380D01*
X131692285Y-112038000D01*
X131787523Y-112133238D01*
X131835142Y-112323714D01*
X131835142Y-112657047D01*
X131787523Y-112847523D01*
X131692285Y-112942761D01*
X131597047Y-112990380D01*
X131406571Y-112990380D01*
X132787523Y-112990380D02*
X132216095Y-112990380D01*
X132501809Y-112990380D02*
X132501809Y-111990380D01*
X132406571Y-112133238D01*
X132311333Y-112228476D01*
X132216095Y-112276095D01*
X105249380Y-104821523D02*
X105963666Y-104821523D01*
X106106523Y-104869142D01*
X106201761Y-104964380D01*
X106249380Y-105107238D01*
X106249380Y-105202476D01*
X106249380Y-103821523D02*
X106249380Y-104392952D01*
X106249380Y-104107238D02*
X105249380Y-104107238D01*
X105392238Y-104202476D01*
X105487476Y-104297714D01*
X105535095Y-104392952D01*
X106249380Y-102869142D02*
X106249380Y-103440571D01*
X106249380Y-103154857D02*
X105249380Y-103154857D01*
X105392238Y-103250095D01*
X105487476Y-103345333D01*
X105535095Y-103440571D01*
X105127380Y-89541523D02*
X105841666Y-89541523D01*
X105984523Y-89589142D01*
X106079761Y-89684380D01*
X106127380Y-89827238D01*
X106127380Y-89922476D01*
X106127380Y-88541523D02*
X106127380Y-89112952D01*
X106127380Y-88827238D02*
X105127380Y-88827238D01*
X105270238Y-88922476D01*
X105365476Y-89017714D01*
X105413095Y-89112952D01*
X105127380Y-87922476D02*
X105127380Y-87827238D01*
X105175000Y-87732000D01*
X105222619Y-87684380D01*
X105317857Y-87636761D01*
X105508333Y-87589142D01*
X105746428Y-87589142D01*
X105936904Y-87636761D01*
X106032142Y-87684380D01*
X106079761Y-87732000D01*
X106127380Y-87827238D01*
X106127380Y-87922476D01*
X106079761Y-88017714D01*
X106032142Y-88065333D01*
X105936904Y-88112952D01*
X105746428Y-88160571D01*
X105508333Y-88160571D01*
X105317857Y-88112952D01*
X105222619Y-88065333D01*
X105175000Y-88017714D01*
X105127380Y-87922476D01*
X96002380Y-61033333D02*
X96716666Y-61033333D01*
X96859523Y-61080952D01*
X96954761Y-61176190D01*
X97002380Y-61319047D01*
X97002380Y-61414285D01*
X97002380Y-60509523D02*
X97002380Y-60319047D01*
X96954761Y-60223809D01*
X96907142Y-60176190D01*
X96764285Y-60080952D01*
X96573809Y-60033333D01*
X96192857Y-60033333D01*
X96097619Y-60080952D01*
X96050000Y-60128571D01*
X96002380Y-60223809D01*
X96002380Y-60414285D01*
X96050000Y-60509523D01*
X96097619Y-60557142D01*
X96192857Y-60604761D01*
X96430952Y-60604761D01*
X96526190Y-60557142D01*
X96573809Y-60509523D01*
X96621428Y-60414285D01*
X96621428Y-60223809D01*
X96573809Y-60128571D01*
X96526190Y-60080952D01*
X96430952Y-60033333D01*
X169421666Y-132954380D02*
X169421666Y-133668666D01*
X169374047Y-133811523D01*
X169278809Y-133906761D01*
X169135952Y-133954380D01*
X169040714Y-133954380D01*
X170040714Y-133382952D02*
X169945476Y-133335333D01*
X169897857Y-133287714D01*
X169850238Y-133192476D01*
X169850238Y-133144857D01*
X169897857Y-133049619D01*
X169945476Y-133002000D01*
X170040714Y-132954380D01*
X170231190Y-132954380D01*
X170326428Y-133002000D01*
X170374047Y-133049619D01*
X170421666Y-133144857D01*
X170421666Y-133192476D01*
X170374047Y-133287714D01*
X170326428Y-133335333D01*
X170231190Y-133382952D01*
X170040714Y-133382952D01*
X169945476Y-133430571D01*
X169897857Y-133478190D01*
X169850238Y-133573428D01*
X169850238Y-133763904D01*
X169897857Y-133859142D01*
X169945476Y-133906761D01*
X170040714Y-133954380D01*
X170231190Y-133954380D01*
X170326428Y-133906761D01*
X170374047Y-133859142D01*
X170421666Y-133763904D01*
X170421666Y-133573428D01*
X170374047Y-133478190D01*
X170326428Y-133430571D01*
X170231190Y-133382952D01*
X144608666Y-133159380D02*
X144608666Y-133873666D01*
X144561047Y-134016523D01*
X144465809Y-134111761D01*
X144322952Y-134159380D01*
X144227714Y-134159380D01*
X144989619Y-133159380D02*
X145656285Y-133159380D01*
X145227714Y-134159380D01*
X156210666Y-75966380D02*
X156210666Y-76680666D01*
X156163047Y-76823523D01*
X156067809Y-76918761D01*
X155924952Y-76966380D01*
X155829714Y-76966380D01*
X157115428Y-75966380D02*
X156924952Y-75966380D01*
X156829714Y-76014000D01*
X156782095Y-76061619D01*
X156686857Y-76204476D01*
X156639238Y-76394952D01*
X156639238Y-76775904D01*
X156686857Y-76871142D01*
X156734476Y-76918761D01*
X156829714Y-76966380D01*
X157020190Y-76966380D01*
X157115428Y-76918761D01*
X157163047Y-76871142D01*
X157210666Y-76775904D01*
X157210666Y-76537809D01*
X157163047Y-76442571D01*
X157115428Y-76394952D01*
X157020190Y-76347333D01*
X156829714Y-76347333D01*
X156734476Y-76394952D01*
X156686857Y-76442571D01*
X156639238Y-76537809D01*
X159404761Y-68935714D02*
X159452380Y-68792857D01*
X159452380Y-68554761D01*
X159404761Y-68459523D01*
X159357142Y-68411904D01*
X159261904Y-68364285D01*
X159166666Y-68364285D01*
X159071428Y-68411904D01*
X159023809Y-68459523D01*
X158976190Y-68554761D01*
X158928571Y-68745238D01*
X158880952Y-68840476D01*
X158833333Y-68888095D01*
X158738095Y-68935714D01*
X158642857Y-68935714D01*
X158547619Y-68888095D01*
X158500000Y-68840476D01*
X158452380Y-68745238D01*
X158452380Y-68507142D01*
X158500000Y-68364285D01*
X159452380Y-67935714D02*
X158452380Y-67935714D01*
X158452380Y-67697619D01*
X158500000Y-67554761D01*
X158595238Y-67459523D01*
X158690476Y-67411904D01*
X158880952Y-67364285D01*
X159023809Y-67364285D01*
X159214285Y-67411904D01*
X159309523Y-67459523D01*
X159404761Y-67554761D01*
X159452380Y-67697619D01*
X159452380Y-67935714D01*
X185016666Y-36902380D02*
X185016666Y-37616666D01*
X184969047Y-37759523D01*
X184873809Y-37854761D01*
X184730952Y-37902380D01*
X184635714Y-37902380D01*
X185921428Y-37235714D02*
X185921428Y-37902380D01*
X185683333Y-36854761D02*
X185445238Y-37569047D01*
X186064285Y-37569047D01*
X175454761Y-40302380D02*
X175454761Y-39302380D01*
X175788095Y-40016666D01*
X176121428Y-39302380D01*
X176121428Y-40302380D01*
X177073809Y-40302380D02*
X176597619Y-40302380D01*
X176597619Y-39302380D01*
X177311904Y-39302380D02*
X177978571Y-40302380D01*
X177978571Y-39302380D02*
X177311904Y-40302380D01*
X178407142Y-40302380D02*
X178597619Y-40302380D01*
X178692857Y-40254761D01*
X178740476Y-40207142D01*
X178835714Y-40064285D01*
X178883333Y-39873809D01*
X178883333Y-39492857D01*
X178835714Y-39397619D01*
X178788095Y-39350000D01*
X178692857Y-39302380D01*
X178502380Y-39302380D01*
X178407142Y-39350000D01*
X178359523Y-39397619D01*
X178311904Y-39492857D01*
X178311904Y-39730952D01*
X178359523Y-39826190D01*
X178407142Y-39873809D01*
X178502380Y-39921428D01*
X178692857Y-39921428D01*
X178788095Y-39873809D01*
X178835714Y-39826190D01*
X178883333Y-39730952D01*
X179502380Y-39302380D02*
X179597619Y-39302380D01*
X179692857Y-39350000D01*
X179740476Y-39397619D01*
X179788095Y-39492857D01*
X179835714Y-39683333D01*
X179835714Y-39921428D01*
X179788095Y-40111904D01*
X179740476Y-40207142D01*
X179692857Y-40254761D01*
X179597619Y-40302380D01*
X179502380Y-40302380D01*
X179407142Y-40254761D01*
X179359523Y-40207142D01*
X179311904Y-40111904D01*
X179264285Y-39921428D01*
X179264285Y-39683333D01*
X179311904Y-39492857D01*
X179359523Y-39397619D01*
X179407142Y-39350000D01*
X179502380Y-39302380D01*
X180692857Y-39302380D02*
X180502380Y-39302380D01*
X180407142Y-39350000D01*
X180359523Y-39397619D01*
X180264285Y-39540476D01*
X180216666Y-39730952D01*
X180216666Y-40111904D01*
X180264285Y-40207142D01*
X180311904Y-40254761D01*
X180407142Y-40302380D01*
X180597619Y-40302380D01*
X180692857Y-40254761D01*
X180740476Y-40207142D01*
X180788095Y-40111904D01*
X180788095Y-39873809D01*
X180740476Y-39778571D01*
X180692857Y-39730952D01*
X180597619Y-39683333D01*
X180407142Y-39683333D01*
X180311904Y-39730952D01*
X180264285Y-39778571D01*
X180216666Y-39873809D01*
X181740476Y-40302380D02*
X181169047Y-40302380D01*
X181454761Y-40302380D02*
X181454761Y-39302380D01*
X181359523Y-39445238D01*
X181264285Y-39540476D01*
X181169047Y-39588095D01*
X182597619Y-39635714D02*
X182597619Y-40302380D01*
X182359523Y-39254761D02*
X182121428Y-39969047D01*
X182740476Y-39969047D01*
X191857380Y-117777333D02*
X192571666Y-117777333D01*
X192714523Y-117824952D01*
X192809761Y-117920190D01*
X192857380Y-118063047D01*
X192857380Y-118158285D01*
X191857380Y-117396380D02*
X191857380Y-116777333D01*
X192238333Y-117110666D01*
X192238333Y-116967809D01*
X192285952Y-116872571D01*
X192333571Y-116824952D01*
X192428809Y-116777333D01*
X192666904Y-116777333D01*
X192762142Y-116824952D01*
X192809761Y-116872571D01*
X192857380Y-116967809D01*
X192857380Y-117253523D01*
X192809761Y-117348761D01*
X192762142Y-117396380D01*
X188827523Y-111001380D02*
X188351333Y-111001380D01*
X188351333Y-110001380D01*
X189732285Y-110906142D02*
X189684666Y-110953761D01*
X189541809Y-111001380D01*
X189446571Y-111001380D01*
X189303714Y-110953761D01*
X189208476Y-110858523D01*
X189160857Y-110763285D01*
X189113238Y-110572809D01*
X189113238Y-110429952D01*
X189160857Y-110239476D01*
X189208476Y-110144238D01*
X189303714Y-110049000D01*
X189446571Y-110001380D01*
X189541809Y-110001380D01*
X189684666Y-110049000D01*
X189732285Y-110096619D01*
X190160857Y-111001380D02*
X190160857Y-110001380D01*
X190398952Y-110001380D01*
X190541809Y-110049000D01*
X190637047Y-110144238D01*
X190684666Y-110239476D01*
X190732285Y-110429952D01*
X190732285Y-110572809D01*
X190684666Y-110763285D01*
X190637047Y-110858523D01*
X190541809Y-110953761D01*
X190398952Y-111001380D01*
X190160857Y-111001380D01*
X165774666Y-39719380D02*
X165774666Y-40433666D01*
X165727047Y-40576523D01*
X165631809Y-40671761D01*
X165488952Y-40719380D01*
X165393714Y-40719380D01*
X166203238Y-39814619D02*
X166250857Y-39767000D01*
X166346095Y-39719380D01*
X166584190Y-39719380D01*
X166679428Y-39767000D01*
X166727047Y-39814619D01*
X166774666Y-39909857D01*
X166774666Y-40005095D01*
X166727047Y-40147952D01*
X166155619Y-40719380D01*
X166774666Y-40719380D01*
X120954666Y-45676380D02*
X120954666Y-46390666D01*
X120907047Y-46533523D01*
X120811809Y-46628761D01*
X120668952Y-46676380D01*
X120573714Y-46676380D01*
X121954666Y-46676380D02*
X121383238Y-46676380D01*
X121668952Y-46676380D02*
X121668952Y-45676380D01*
X121573714Y-45819238D01*
X121478476Y-45914476D01*
X121383238Y-45962095D01*
X128251380Y-99606095D02*
X127251380Y-99606095D01*
X127251380Y-99368000D01*
X127299000Y-99225142D01*
X127394238Y-99129904D01*
X127489476Y-99082285D01*
X127679952Y-99034666D01*
X127822809Y-99034666D01*
X128013285Y-99082285D01*
X128108523Y-99129904D01*
X128203761Y-99225142D01*
X128251380Y-99368000D01*
X128251380Y-99606095D01*
X128251380Y-98558476D02*
X128251380Y-98368000D01*
X128203761Y-98272761D01*
X128156142Y-98225142D01*
X128013285Y-98129904D01*
X127822809Y-98082285D01*
X127441857Y-98082285D01*
X127346619Y-98129904D01*
X127299000Y-98177523D01*
X127251380Y-98272761D01*
X127251380Y-98463238D01*
X127299000Y-98558476D01*
X127346619Y-98606095D01*
X127441857Y-98653714D01*
X127679952Y-98653714D01*
X127775190Y-98606095D01*
X127822809Y-98558476D01*
X127870428Y-98463238D01*
X127870428Y-98272761D01*
X127822809Y-98177523D01*
X127775190Y-98129904D01*
X127679952Y-98082285D01*
X127809380Y-85192095D02*
X126809380Y-85192095D01*
X126809380Y-84954000D01*
X126857000Y-84811142D01*
X126952238Y-84715904D01*
X127047476Y-84668285D01*
X127237952Y-84620666D01*
X127380809Y-84620666D01*
X127571285Y-84668285D01*
X127666523Y-84715904D01*
X127761761Y-84811142D01*
X127809380Y-84954000D01*
X127809380Y-85192095D01*
X127237952Y-84049238D02*
X127190333Y-84144476D01*
X127142714Y-84192095D01*
X127047476Y-84239714D01*
X126999857Y-84239714D01*
X126904619Y-84192095D01*
X126857000Y-84144476D01*
X126809380Y-84049238D01*
X126809380Y-83858761D01*
X126857000Y-83763523D01*
X126904619Y-83715904D01*
X126999857Y-83668285D01*
X127047476Y-83668285D01*
X127142714Y-83715904D01*
X127190333Y-83763523D01*
X127237952Y-83858761D01*
X127237952Y-84049238D01*
X127285571Y-84144476D01*
X127333190Y-84192095D01*
X127428428Y-84239714D01*
X127618904Y-84239714D01*
X127714142Y-84192095D01*
X127761761Y-84144476D01*
X127809380Y-84049238D01*
X127809380Y-83858761D01*
X127761761Y-83763523D01*
X127714142Y-83715904D01*
X127618904Y-83668285D01*
X127428428Y-83668285D01*
X127333190Y-83715904D01*
X127285571Y-83763523D01*
X127237952Y-83858761D01*
X134611904Y-119902380D02*
X134611904Y-118902380D01*
X134850000Y-118902380D01*
X134992857Y-118950000D01*
X135088095Y-119045238D01*
X135135714Y-119140476D01*
X135183333Y-119330952D01*
X135183333Y-119473809D01*
X135135714Y-119664285D01*
X135088095Y-119759523D01*
X134992857Y-119854761D01*
X134850000Y-119902380D01*
X134611904Y-119902380D01*
X135516666Y-118902380D02*
X136135714Y-118902380D01*
X135802380Y-119283333D01*
X135945238Y-119283333D01*
X136040476Y-119330952D01*
X136088095Y-119378571D01*
X136135714Y-119473809D01*
X136135714Y-119711904D01*
X136088095Y-119807142D01*
X136040476Y-119854761D01*
X135945238Y-119902380D01*
X135659523Y-119902380D01*
X135564285Y-119854761D01*
X135516666Y-119807142D01*
X161395904Y-43288380D02*
X161395904Y-42288380D01*
X161634000Y-42288380D01*
X161776857Y-42336000D01*
X161872095Y-42431238D01*
X161919714Y-42526476D01*
X161967333Y-42716952D01*
X161967333Y-42859809D01*
X161919714Y-43050285D01*
X161872095Y-43145523D01*
X161776857Y-43240761D01*
X161634000Y-43288380D01*
X161395904Y-43288380D01*
X162348285Y-42383619D02*
X162395904Y-42336000D01*
X162491142Y-42288380D01*
X162729238Y-42288380D01*
X162824476Y-42336000D01*
X162872095Y-42383619D01*
X162919714Y-42478857D01*
X162919714Y-42574095D01*
X162872095Y-42716952D01*
X162300666Y-43288380D01*
X162919714Y-43288380D01*
X138811904Y-119552380D02*
X138811904Y-118552380D01*
X139050000Y-118552380D01*
X139192857Y-118600000D01*
X139288095Y-118695238D01*
X139335714Y-118790476D01*
X139383333Y-118980952D01*
X139383333Y-119123809D01*
X139335714Y-119314285D01*
X139288095Y-119409523D01*
X139192857Y-119504761D01*
X139050000Y-119552380D01*
X138811904Y-119552380D01*
X140335714Y-119552380D02*
X139764285Y-119552380D01*
X140050000Y-119552380D02*
X140050000Y-118552380D01*
X139954761Y-118695238D01*
X139859523Y-118790476D01*
X139764285Y-118838095D01*
X133935142Y-112123666D02*
X133982761Y-112171285D01*
X134030380Y-112314142D01*
X134030380Y-112409380D01*
X133982761Y-112552238D01*
X133887523Y-112647476D01*
X133792285Y-112695095D01*
X133601809Y-112742714D01*
X133458952Y-112742714D01*
X133268476Y-112695095D01*
X133173238Y-112647476D01*
X133078000Y-112552238D01*
X133030380Y-112409380D01*
X133030380Y-112314142D01*
X133078000Y-112171285D01*
X133125619Y-112123666D01*
X133030380Y-111218904D02*
X133030380Y-111695095D01*
X133506571Y-111742714D01*
X133458952Y-111695095D01*
X133411333Y-111599857D01*
X133411333Y-111361761D01*
X133458952Y-111266523D01*
X133506571Y-111218904D01*
X133601809Y-111171285D01*
X133839904Y-111171285D01*
X133935142Y-111218904D01*
X133982761Y-111266523D01*
X134030380Y-111361761D01*
X134030380Y-111599857D01*
X133982761Y-111695095D01*
X133935142Y-111742714D01*
X133894142Y-103180666D02*
X133941761Y-103228285D01*
X133989380Y-103371142D01*
X133989380Y-103466380D01*
X133941761Y-103609238D01*
X133846523Y-103704476D01*
X133751285Y-103752095D01*
X133560809Y-103799714D01*
X133417952Y-103799714D01*
X133227476Y-103752095D01*
X133132238Y-103704476D01*
X133037000Y-103609238D01*
X132989380Y-103466380D01*
X132989380Y-103371142D01*
X133037000Y-103228285D01*
X133084619Y-103180666D01*
X133322714Y-102323523D02*
X133989380Y-102323523D01*
X132941761Y-102561619D02*
X133656047Y-102799714D01*
X133656047Y-102180666D01*
X133823142Y-107717666D02*
X133870761Y-107765285D01*
X133918380Y-107908142D01*
X133918380Y-108003380D01*
X133870761Y-108146238D01*
X133775523Y-108241476D01*
X133680285Y-108289095D01*
X133489809Y-108336714D01*
X133346952Y-108336714D01*
X133156476Y-108289095D01*
X133061238Y-108241476D01*
X132966000Y-108146238D01*
X132918380Y-108003380D01*
X132918380Y-107908142D01*
X132966000Y-107765285D01*
X133013619Y-107717666D01*
X132918380Y-107384333D02*
X132918380Y-106765285D01*
X133299333Y-107098619D01*
X133299333Y-106955761D01*
X133346952Y-106860523D01*
X133394571Y-106812904D01*
X133489809Y-106765285D01*
X133727904Y-106765285D01*
X133823142Y-106812904D01*
X133870761Y-106860523D01*
X133918380Y-106955761D01*
X133918380Y-107241476D01*
X133870761Y-107336714D01*
X133823142Y-107384333D01*
X149262142Y-117117666D02*
X149309761Y-117165285D01*
X149357380Y-117308142D01*
X149357380Y-117403380D01*
X149309761Y-117546238D01*
X149214523Y-117641476D01*
X149119285Y-117689095D01*
X148928809Y-117736714D01*
X148785952Y-117736714D01*
X148595476Y-117689095D01*
X148500238Y-117641476D01*
X148405000Y-117546238D01*
X148357380Y-117403380D01*
X148357380Y-117308142D01*
X148405000Y-117165285D01*
X148452619Y-117117666D01*
X148452619Y-116736714D02*
X148405000Y-116689095D01*
X148357380Y-116593857D01*
X148357380Y-116355761D01*
X148405000Y-116260523D01*
X148452619Y-116212904D01*
X148547857Y-116165285D01*
X148643095Y-116165285D01*
X148785952Y-116212904D01*
X149357380Y-116784333D01*
X149357380Y-116165285D01*
X149444142Y-102401666D02*
X149491761Y-102449285D01*
X149539380Y-102592142D01*
X149539380Y-102687380D01*
X149491761Y-102830238D01*
X149396523Y-102925476D01*
X149301285Y-102973095D01*
X149110809Y-103020714D01*
X148967952Y-103020714D01*
X148777476Y-102973095D01*
X148682238Y-102925476D01*
X148587000Y-102830238D01*
X148539380Y-102687380D01*
X148539380Y-102592142D01*
X148587000Y-102449285D01*
X148634619Y-102401666D01*
X149539380Y-101449285D02*
X149539380Y-102020714D01*
X149539380Y-101735000D02*
X148539380Y-101735000D01*
X148682238Y-101830238D01*
X148777476Y-101925476D01*
X148825095Y-102020714D01*
X110124047Y-111300571D02*
X110266904Y-111348190D01*
X110314523Y-111395809D01*
X110362142Y-111491047D01*
X110362142Y-111633904D01*
X110314523Y-111729142D01*
X110266904Y-111776761D01*
X110171666Y-111824380D01*
X109790714Y-111824380D01*
X109790714Y-110824380D01*
X110124047Y-110824380D01*
X110219285Y-110872000D01*
X110266904Y-110919619D01*
X110314523Y-111014857D01*
X110314523Y-111110095D01*
X110266904Y-111205333D01*
X110219285Y-111252952D01*
X110124047Y-111300571D01*
X109790714Y-111300571D01*
X110695476Y-110824380D02*
X111362142Y-110824380D01*
X110695476Y-111824380D01*
X111362142Y-111824380D01*
X112266904Y-111824380D02*
X111695476Y-111824380D01*
X111981190Y-111824380D02*
X111981190Y-110824380D01*
X111885952Y-110967238D01*
X111790714Y-111062476D01*
X111695476Y-111110095D01*
M02*
