M48
; DRILL file {KiCad (5.1.5)-3} date 15/07/2020 20:50:46
; FORMAT={-:-/ absolute / inch / decimal}
; #@! TF.CreationDate,2020-07-15T20:50:46-05:00
; #@! TF.GenerationSoftware,Kicad,Pcbnew,(5.1.5)-3
; #@! TF.FileFunction,Plated,1,2,PTH
FMAT,2
INCH
T1C0.0157
T2C0.0197
T3C0.0315
T4C0.0394
T5C0.0598
T6C0.1260
%
G90
G05
T1
X4.3977Y-2.8336
X4.3985Y-2.7826
X4.4423Y-2.8349
X4.4428Y-2.7826
X4.513Y-1.9743
X4.629Y-3.3022
X4.6303Y-3.7994
X4.6303Y-3.8472
X4.6314Y-3.8944
X4.6738Y-3.8959
X4.674Y-3.7994
X4.674Y-3.8472
X4.677Y-3.3022
X4.6774Y-3.3559
X4.7047Y-1.8189
X4.7758Y-1.4339
X4.7759Y-1.4733
X4.9004Y-1.4148
X4.9343Y-3.7474
X4.9661Y-1.4148
X4.9755Y-3.1546
X5.007Y-4.5698
X5.0077Y-4.5167
X5.0198Y-1.4155
X5.065Y-4.5698
X5.0651Y-4.5176
X5.1834Y-3.9006
X5.2377Y-4.3908
X5.2383Y-4.4386
X5.2876Y-2.2701
X5.3377Y-2.2678
X5.3694Y-1.8893
X5.3695Y-1.9471
X5.387Y-2.2678
X5.4073Y-4.204
X5.4234Y-1.9481
X5.4259Y-1.887
X5.4411Y-1.4686
X5.4415Y-1.5244
X5.4793Y-4.2045
X5.482Y-1.8887
X5.4829Y-1.9481
X5.503Y-1.4686
X5.5037Y-1.5246
X5.5402Y-4.746
X5.5402Y-4.7868
X5.5402Y-4.8255
X5.5435Y-4.2045
X5.5472Y-4.0945
X5.5512Y-2.6476
X5.5512Y-2.7067
X5.5512Y-2.7657
X5.5512Y-2.8248
X5.5862Y-4.7471
X5.5862Y-4.7876
X5.5863Y-4.8252
X5.602Y-4.204
X5.6102Y-2.6476
X5.6102Y-2.7067
X5.6102Y-2.7657
X5.6102Y-2.8248
X5.6693Y-2.6476
X5.6693Y-2.7067
X5.6693Y-2.7657
X5.6693Y-2.8248
X5.7283Y-2.6476
X5.7283Y-2.7067
X5.7283Y-2.7657
X5.7283Y-2.8248
X5.8007Y-3.9008
X5.8799Y-4.0925
X5.923Y-1.4695
X6.0832Y-1.5174
X6.1811Y-3.3563
X6.1811Y-3.4154
X6.1811Y-3.4744
X6.1811Y-3.5335
X6.2402Y-3.3563
X6.2402Y-3.4154
X6.2402Y-3.4744
X6.2402Y-3.5335
X6.2992Y-3.3563
X6.2992Y-3.4154
X6.2992Y-3.4744
X6.2992Y-3.5335
X6.3583Y-3.3563
X6.3583Y-3.4154
X6.3583Y-3.4744
X6.3583Y-3.5335
X6.3885Y-4.1982
X6.437Y-1.8406
X6.437Y-1.8996
X6.437Y-1.9587
X6.437Y-2.0177
X6.4764Y-1.8406
X6.4764Y-1.8996
X6.4764Y-1.9587
X6.4764Y-2.0177
X6.4848Y-1.6071
X6.5157Y-1.8406
X6.5157Y-1.8996
X6.5157Y-1.9587
X6.5157Y-2.0177
X6.5551Y-1.8406
X6.5551Y-1.8996
X6.5551Y-1.9587
X6.5551Y-2.0177
X6.5945Y-1.8406
X6.5945Y-1.8996
X6.5945Y-1.9587
X6.5945Y-2.0177
X6.6972Y-4.1438
X6.9277Y-4.378
X7.3012Y-4.6986
X7.3016Y-4.7434
X7.3035Y-4.6491
X7.3435Y-4.6986
X7.3435Y-4.7434
X7.3444Y-4.6489
X7.4114Y-4.099
X7.4114Y-4.1594
X7.4114Y-4.2216
X7.4603Y-4.0998
X7.4611Y-4.1586
X7.462Y-4.2224
T2
X3.8392Y-1.5728
X3.8669Y-1.506
X3.8669Y-1.6396
X3.9337Y-1.4783
X3.9337Y-1.6673
X4.0005Y-1.506
X4.0005Y-1.6396
X4.0282Y-1.5728
X3.8392Y-5.0069
X3.8669Y-4.9401
X3.8669Y-5.0737
X3.9337Y-4.9124
X3.9337Y-5.1014
X4.0005Y-4.9401
X4.0005Y-5.0737
X4.0282Y-5.0069
X7.3835Y-5.0069
X7.4111Y-4.9401
X7.4111Y-5.0737
X7.478Y-4.9124
X7.478Y-5.1014
X7.5448Y-4.9401
X7.5448Y-5.0737
X7.5724Y-5.0069
X7.3835Y-1.5728
X7.4111Y-1.506
X7.4111Y-1.6396
X7.478Y-1.4783
X7.478Y-1.6673
X7.5448Y-1.506
X7.5448Y-1.6396
X7.5724Y-1.5728
X5.1925Y-5.0069
X5.2202Y-4.9401
X5.2202Y-5.0737
X5.287Y-4.9124
X5.287Y-5.1014
X5.3538Y-4.9401
X5.3538Y-5.0737
X5.3815Y-5.0069
T3
X4.3022Y-2.5517
X4.3022Y-2.6517
X4.6022Y-2.5517
X4.6022Y-2.6517
X4.3006Y-2.1888
X4.3006Y-2.2888
X4.6006Y-2.1888
X4.6006Y-2.2888
T4
X4.8211Y-2.6301
X4.9211Y-2.6301
X6.1631Y-2.4206
X6.1631Y-2.5206
X6.1631Y-2.6206
X6.1631Y-2.7206
X6.1631Y-2.8206
X6.1631Y-2.9206
X4.82Y-2.9185
X4.92Y-2.9185
X7.4613Y-4.4441
X7.4613Y-4.5441
X7.4613Y-4.6441
X7.4613Y-4.7441
X6.2641Y-1.4869
X6.3641Y-1.4869
X6.4641Y-1.4869
X6.5641Y-1.4869
X6.6641Y-1.4869
X6.7641Y-1.4869
X4.5593Y-4.3769
X4.6537Y-4.3769
X4.8207Y-2.7746
X4.9207Y-2.7746
X6.9089Y-1.4877
X7.0089Y-1.4877
X7.1089Y-1.4877
X7.2089Y-1.4877
X7.4583Y-3.5548
X7.4583Y-3.6548
X7.4583Y-3.7548
X7.4583Y-3.8548
X7.4583Y-3.9548
X4.7759Y-1.9152
X4.7759Y-2.0152
X4.7759Y-2.1152
X4.7759Y-2.2152
T5
X5.7751Y-5.077
X5.9751Y-5.077
X3.9803Y-1.8878
X3.9803Y-2.0878
X3.9803Y-2.2878
X3.9803Y-2.4878
X3.9803Y-2.6878
X3.9803Y-2.8878
X3.9798Y-3.093
X3.9798Y-3.293
X3.9798Y-3.493
X3.9798Y-3.6978
X3.9798Y-3.8978
X3.9798Y-4.0978
X6.1813Y-5.0769
X6.3813Y-5.0769
X6.5813Y-5.0769
X6.7813Y-5.0769
X6.9813Y-5.0769
X7.1813Y-5.0769
T6
X3.9337Y-1.5728
X7.478Y-5.0069
X7.478Y-1.5728
X5.287Y-5.0069
X3.9337Y-5.0069
T0
M30
